<?xml version="1.0" encoding="utf-8"?>
<svg xmlns="http://www.w3.org/2000/svg" xmlns:xlink="http://www.w3.org/1999/xlink" width="600" height="400" viewBox="0 0 2400 1600">
<defs>
  <clipPath id="clip530">
    <rect x="0" y="0" width="2400" height="1600"/>
  </clipPath>
</defs>
<path clip-path="url(#clip530)" d="M0 1600 L2400 1600 L2400 8.88178e-14 L0 8.88178e-14  Z" fill="#ffffff" fill-rule="evenodd" fill-opacity="1"/>
<defs>
  <clipPath id="clip531">
    <rect x="480" y="0" width="1681" height="1600"/>
  </clipPath>
</defs>
<path clip-path="url(#clip530)" d="M177.269 1486.45 L1185.3 1486.45 L1185.3 123.472 L177.269 123.472  Z" fill="#ffffff" fill-rule="evenodd" fill-opacity="1"/>
<defs>
  <clipPath id="clip532">
    <rect x="177" y="123" width="1009" height="1364"/>
  </clipPath>
</defs>
<polyline clip-path="url(#clip532)" style="stroke:#000000; stroke-linecap:round; stroke-linejoin:round; stroke-width:2; stroke-opacity:0.1; fill:none" points="300.896,1486.45 300.896,123.472 "/>
<polyline clip-path="url(#clip532)" style="stroke:#000000; stroke-linecap:round; stroke-linejoin:round; stroke-width:2; stroke-opacity:0.1; fill:none" points="491.091,1486.45 491.091,123.472 "/>
<polyline clip-path="url(#clip532)" style="stroke:#000000; stroke-linecap:round; stroke-linejoin:round; stroke-width:2; stroke-opacity:0.1; fill:none" points="681.286,1486.45 681.286,123.472 "/>
<polyline clip-path="url(#clip532)" style="stroke:#000000; stroke-linecap:round; stroke-linejoin:round; stroke-width:2; stroke-opacity:0.1; fill:none" points="871.481,1486.45 871.481,123.472 "/>
<polyline clip-path="url(#clip532)" style="stroke:#000000; stroke-linecap:round; stroke-linejoin:round; stroke-width:2; stroke-opacity:0.1; fill:none" points="1061.68,1486.45 1061.68,123.472 "/>
<polyline clip-path="url(#clip532)" style="stroke:#000000; stroke-linecap:round; stroke-linejoin:round; stroke-width:2; stroke-opacity:0.1; fill:none" points="177.269,1403.53 1185.3,1403.53 "/>
<polyline clip-path="url(#clip532)" style="stroke:#000000; stroke-linecap:round; stroke-linejoin:round; stroke-width:2; stroke-opacity:0.1; fill:none" points="177.269,1137.5 1185.3,1137.5 "/>
<polyline clip-path="url(#clip532)" style="stroke:#000000; stroke-linecap:round; stroke-linejoin:round; stroke-width:2; stroke-opacity:0.1; fill:none" points="177.269,871.457 1185.3,871.457 "/>
<polyline clip-path="url(#clip532)" style="stroke:#000000; stroke-linecap:round; stroke-linejoin:round; stroke-width:2; stroke-opacity:0.1; fill:none" points="177.269,605.419 1185.3,605.419 "/>
<polyline clip-path="url(#clip532)" style="stroke:#000000; stroke-linecap:round; stroke-linejoin:round; stroke-width:2; stroke-opacity:0.1; fill:none" points="177.269,339.38 1185.3,339.38 "/>
<polyline clip-path="url(#clip530)" style="stroke:#000000; stroke-linecap:round; stroke-linejoin:round; stroke-width:4; stroke-opacity:1; fill:none" points="177.269,1486.45 1185.3,1486.45 "/>
<polyline clip-path="url(#clip530)" style="stroke:#000000; stroke-linecap:round; stroke-linejoin:round; stroke-width:4; stroke-opacity:1; fill:none" points="300.896,1486.45 300.896,1467.55 "/>
<polyline clip-path="url(#clip530)" style="stroke:#000000; stroke-linecap:round; stroke-linejoin:round; stroke-width:4; stroke-opacity:1; fill:none" points="491.091,1486.45 491.091,1467.55 "/>
<polyline clip-path="url(#clip530)" style="stroke:#000000; stroke-linecap:round; stroke-linejoin:round; stroke-width:4; stroke-opacity:1; fill:none" points="681.286,1486.45 681.286,1467.55 "/>
<polyline clip-path="url(#clip530)" style="stroke:#000000; stroke-linecap:round; stroke-linejoin:round; stroke-width:4; stroke-opacity:1; fill:none" points="871.481,1486.45 871.481,1467.55 "/>
<polyline clip-path="url(#clip530)" style="stroke:#000000; stroke-linecap:round; stroke-linejoin:round; stroke-width:4; stroke-opacity:1; fill:none" points="1061.68,1486.45 1061.68,1467.55 "/>
<path clip-path="url(#clip530)" d="M269.797 1532.02 L299.472 1532.02 L299.472 1535.95 L269.797 1535.95 L269.797 1532.02 Z" fill="#000000" fill-rule="nonzero" fill-opacity="1" /><path clip-path="url(#clip530)" d="M322.412 1518.36 L310.607 1536.81 L322.412 1536.81 L322.412 1518.36 M321.185 1514.29 L327.065 1514.29 L327.065 1536.81 L331.995 1536.81 L331.995 1540.7 L327.065 1540.7 L327.065 1548.85 L322.412 1548.85 L322.412 1540.7 L306.81 1540.7 L306.81 1536.19 L321.185 1514.29 Z" fill="#000000" fill-rule="nonzero" fill-opacity="1" /><path clip-path="url(#clip530)" d="M461.033 1532.02 L490.709 1532.02 L490.709 1535.95 L461.033 1535.95 L461.033 1532.02 Z" fill="#000000" fill-rule="nonzero" fill-opacity="1" /><path clip-path="url(#clip530)" d="M504.829 1544.91 L521.149 1544.91 L521.149 1548.85 L499.204 1548.85 L499.204 1544.91 Q501.866 1542.16 506.45 1537.53 Q511.056 1532.88 512.237 1531.53 Q514.482 1529.01 515.362 1527.27 Q516.264 1525.51 516.264 1523.82 Q516.264 1521.07 514.32 1519.33 Q512.399 1517.6 509.297 1517.6 Q507.098 1517.6 504.644 1518.36 Q502.214 1519.13 499.436 1520.68 L499.436 1515.95 Q502.26 1514.82 504.714 1514.24 Q507.167 1513.66 509.204 1513.66 Q514.575 1513.66 517.769 1516.35 Q520.963 1519.03 520.963 1523.52 Q520.963 1525.65 520.153 1527.57 Q519.366 1529.47 517.26 1532.07 Q516.681 1532.74 513.579 1535.95 Q510.477 1539.15 504.829 1544.91 Z" fill="#000000" fill-rule="nonzero" fill-opacity="1" /><path clip-path="url(#clip530)" d="M681.286 1517.37 Q677.675 1517.37 675.846 1520.93 Q674.04 1524.47 674.04 1531.6 Q674.04 1538.71 675.846 1542.27 Q677.675 1545.82 681.286 1545.82 Q684.92 1545.82 686.726 1542.27 Q688.554 1538.71 688.554 1531.6 Q688.554 1524.47 686.726 1520.93 Q684.92 1517.37 681.286 1517.37 M681.286 1513.66 Q687.096 1513.66 690.151 1518.27 Q693.23 1522.85 693.23 1531.6 Q693.23 1540.33 690.151 1544.94 Q687.096 1549.52 681.286 1549.52 Q675.476 1549.52 672.397 1544.94 Q669.341 1540.33 669.341 1531.6 Q669.341 1522.85 672.397 1518.27 Q675.476 1513.66 681.286 1513.66 Z" fill="#000000" fill-rule="nonzero" fill-opacity="1" /><path clip-path="url(#clip530)" d="M866.133 1544.91 L882.453 1544.91 L882.453 1548.85 L860.508 1548.85 L860.508 1544.91 Q863.17 1542.16 867.754 1537.53 Q872.36 1532.88 873.541 1531.53 Q875.786 1529.01 876.666 1527.27 Q877.568 1525.51 877.568 1523.82 Q877.568 1521.07 875.624 1519.33 Q873.703 1517.6 870.601 1517.6 Q868.402 1517.6 865.948 1518.36 Q863.518 1519.13 860.74 1520.68 L860.74 1515.95 Q863.564 1514.82 866.018 1514.24 Q868.471 1513.66 870.508 1513.66 Q875.879 1513.66 879.073 1516.35 Q882.268 1519.03 882.268 1523.52 Q882.268 1525.65 881.457 1527.57 Q880.67 1529.47 878.564 1532.07 Q877.985 1532.74 874.883 1535.95 Q871.781 1539.15 866.133 1544.91 Z" fill="#000000" fill-rule="nonzero" fill-opacity="1" /><path clip-path="url(#clip530)" d="M1064.68 1518.36 L1052.88 1536.81 L1064.68 1536.81 L1064.68 1518.36 M1063.46 1514.29 L1069.34 1514.29 L1069.34 1536.81 L1074.27 1536.81 L1074.27 1540.7 L1069.34 1540.7 L1069.34 1548.85 L1064.68 1548.85 L1064.68 1540.7 L1049.08 1540.7 L1049.08 1536.19 L1063.46 1514.29 Z" fill="#000000" fill-rule="nonzero" fill-opacity="1" /><polyline clip-path="url(#clip530)" style="stroke:#000000; stroke-linecap:round; stroke-linejoin:round; stroke-width:4; stroke-opacity:1; fill:none" points="177.269,1486.45 177.269,123.472 "/>
<polyline clip-path="url(#clip530)" style="stroke:#000000; stroke-linecap:round; stroke-linejoin:round; stroke-width:4; stroke-opacity:1; fill:none" points="177.269,1403.53 196.167,1403.53 "/>
<polyline clip-path="url(#clip530)" style="stroke:#000000; stroke-linecap:round; stroke-linejoin:round; stroke-width:4; stroke-opacity:1; fill:none" points="177.269,1137.5 196.167,1137.5 "/>
<polyline clip-path="url(#clip530)" style="stroke:#000000; stroke-linecap:round; stroke-linejoin:round; stroke-width:4; stroke-opacity:1; fill:none" points="177.269,871.457 196.167,871.457 "/>
<polyline clip-path="url(#clip530)" style="stroke:#000000; stroke-linecap:round; stroke-linejoin:round; stroke-width:4; stroke-opacity:1; fill:none" points="177.269,605.419 196.167,605.419 "/>
<polyline clip-path="url(#clip530)" style="stroke:#000000; stroke-linecap:round; stroke-linejoin:round; stroke-width:4; stroke-opacity:1; fill:none" points="177.269,339.38 196.167,339.38 "/>
<path clip-path="url(#clip530)" d="M50.9921 1403.98 L80.6679 1403.98 L80.6679 1407.92 L50.9921 1407.92 L50.9921 1403.98 Z" fill="#000000" fill-rule="nonzero" fill-opacity="1" /><path clip-path="url(#clip530)" d="M91.5706 1416.88 L99.2095 1416.88 L99.2095 1390.51 L90.8993 1392.18 L90.8993 1387.92 L99.1632 1386.25 L103.839 1386.25 L103.839 1416.88 L111.478 1416.88 L111.478 1420.81 L91.5706 1420.81 L91.5706 1416.88 Z" fill="#000000" fill-rule="nonzero" fill-opacity="1" /><path clip-path="url(#clip530)" d="M124.95 1416.88 L141.269 1416.88 L141.269 1420.81 L119.325 1420.81 L119.325 1416.88 Q121.987 1414.12 126.57 1409.49 Q131.177 1404.84 132.357 1403.5 Q134.603 1400.98 135.482 1399.24 Q136.385 1397.48 136.385 1395.79 Q136.385 1393.04 134.441 1391.3 Q132.519 1389.56 129.418 1389.56 Q127.219 1389.56 124.765 1390.33 Q122.334 1391.09 119.557 1392.64 L119.557 1387.92 Q122.381 1386.79 124.834 1386.21 Q127.288 1385.63 129.325 1385.63 Q134.695 1385.63 137.89 1388.31 Q141.084 1391 141.084 1395.49 Q141.084 1397.62 140.274 1399.54 Q139.487 1401.44 137.381 1404.03 Q136.802 1404.7 133.7 1407.92 Q130.598 1411.11 124.95 1416.88 Z" fill="#000000" fill-rule="nonzero" fill-opacity="1" /><path clip-path="url(#clip530)" d="M79.742 1137.95 L109.418 1137.95 L109.418 1141.88 L79.742 1141.88 L79.742 1137.95 Z" fill="#000000" fill-rule="nonzero" fill-opacity="1" /><path clip-path="url(#clip530)" d="M119.649 1154.06 L119.649 1149.8 Q121.408 1150.63 123.214 1151.07 Q125.02 1151.51 126.756 1151.51 Q131.385 1151.51 133.816 1148.41 Q136.269 1145.28 136.617 1138.94 Q135.274 1140.93 133.214 1142 Q131.154 1143.06 128.654 1143.06 Q123.469 1143.06 120.436 1139.94 Q117.427 1136.79 117.427 1131.35 Q117.427 1126.03 120.575 1122.81 Q123.723 1119.59 128.955 1119.59 Q134.95 1119.59 138.098 1124.2 Q141.269 1128.78 141.269 1137.53 Q141.269 1145.7 137.381 1150.59 Q133.515 1155.45 126.964 1155.45 Q125.205 1155.45 123.399 1155.1 Q121.594 1154.75 119.649 1154.06 M128.955 1139.4 Q132.103 1139.4 133.931 1137.25 Q135.783 1135.1 135.783 1131.35 Q135.783 1127.62 133.931 1125.47 Q132.103 1123.29 128.955 1123.29 Q125.807 1123.29 123.955 1125.47 Q122.126 1127.62 122.126 1131.35 Q122.126 1135.1 123.955 1137.25 Q125.807 1139.4 128.955 1139.4 Z" fill="#000000" fill-rule="nonzero" fill-opacity="1" /><path clip-path="url(#clip530)" d="M79.3948 871.908 L109.071 871.908 L109.071 875.843 L79.3948 875.843 L79.3948 871.908 Z" fill="#000000" fill-rule="nonzero" fill-opacity="1" /><path clip-path="url(#clip530)" d="M129.742 869.593 Q126.594 869.593 124.742 871.746 Q122.913 873.899 122.913 877.649 Q122.913 881.376 124.742 883.552 Q126.594 885.704 129.742 885.704 Q132.89 885.704 134.719 883.552 Q136.57 881.376 136.57 877.649 Q136.57 873.899 134.719 871.746 Q132.89 869.593 129.742 869.593 M139.024 854.941 L139.024 859.2 Q137.265 858.367 135.459 857.927 Q133.677 857.487 131.918 857.487 Q127.288 857.487 124.834 860.612 Q122.404 863.737 122.057 870.056 Q123.422 868.042 125.482 866.978 Q127.543 865.89 130.019 865.89 Q135.228 865.89 138.237 869.061 Q141.269 872.209 141.269 877.649 Q141.269 882.973 138.121 886.191 Q134.973 889.408 129.742 889.408 Q123.746 889.408 120.575 884.825 Q117.404 880.218 117.404 871.492 Q117.404 863.297 121.293 858.436 Q125.182 853.552 131.732 853.552 Q133.492 853.552 135.274 853.899 Q137.08 854.246 139.024 854.941 Z" fill="#000000" fill-rule="nonzero" fill-opacity="1" /><path clip-path="url(#clip530)" d="M80.2049 605.87 L109.881 605.87 L109.881 609.805 L80.2049 609.805 L80.2049 605.87 Z" fill="#000000" fill-rule="nonzero" fill-opacity="1" /><path clip-path="url(#clip530)" d="M134.14 604.064 Q137.496 604.782 139.371 607.05 Q141.269 609.319 141.269 612.652 Q141.269 617.768 137.751 620.569 Q134.232 623.37 127.751 623.37 Q125.575 623.37 123.26 622.93 Q120.969 622.513 118.515 621.657 L118.515 617.143 Q120.459 618.277 122.774 618.856 Q125.089 619.435 127.612 619.435 Q132.01 619.435 134.302 617.699 Q136.617 615.962 136.617 612.652 Q136.617 609.597 134.464 607.884 Q132.334 606.148 128.515 606.148 L124.487 606.148 L124.487 602.305 L128.7 602.305 Q132.149 602.305 133.978 600.939 Q135.806 599.551 135.806 596.958 Q135.806 594.296 133.908 592.884 Q132.033 591.449 128.515 591.449 Q126.594 591.449 124.395 591.865 Q122.195 592.282 119.557 593.162 L119.557 588.995 Q122.219 588.254 124.533 587.884 Q126.871 587.514 128.932 587.514 Q134.256 587.514 137.357 589.944 Q140.459 592.351 140.459 596.472 Q140.459 599.342 138.816 601.333 Q137.172 603.3 134.14 604.064 Z" fill="#000000" fill-rule="nonzero" fill-opacity="1" /><path clip-path="url(#clip530)" d="M129.325 325.179 Q125.714 325.179 123.885 328.744 Q122.08 332.285 122.08 339.415 Q122.08 346.521 123.885 350.086 Q125.714 353.628 129.325 353.628 Q132.959 353.628 134.765 350.086 Q136.594 346.521 136.594 339.415 Q136.594 332.285 134.765 328.744 Q132.959 325.179 129.325 325.179 M129.325 321.475 Q135.135 321.475 138.191 326.082 Q141.269 330.665 141.269 339.415 Q141.269 348.142 138.191 352.748 Q135.135 357.332 129.325 357.332 Q123.515 357.332 120.436 352.748 Q117.381 348.142 117.381 339.415 Q117.381 330.665 120.436 326.082 Q123.515 321.475 129.325 321.475 Z" fill="#000000" fill-rule="nonzero" fill-opacity="1" /><path clip-path="url(#clip530)" d="M579.102 16.7545 L579.102 25.383 Q574.97 21.5346 570.271 19.6307 Q565.612 17.7268 560.346 17.7268 Q549.976 17.7268 544.466 24.0867 Q538.957 30.4061 538.957 42.3968 Q538.957 54.3469 544.466 60.7069 Q549.976 67.0263 560.346 67.0263 Q565.612 67.0263 570.271 65.1223 Q574.97 63.2184 579.102 59.3701 L579.102 67.9175 Q574.808 70.8341 569.987 72.2924 Q565.207 73.7508 559.86 73.7508 Q546.127 73.7508 538.228 65.3654 Q530.329 56.9395 530.329 42.3968 Q530.329 27.8135 538.228 19.4281 Q546.127 11.0023 559.86 11.0023 Q565.288 11.0023 570.068 12.4606 Q574.889 13.8784 579.102 16.7545 Z" fill="#000000" fill-rule="nonzero" fill-opacity="1" /><path clip-path="url(#clip530)" d="M608.997 32.4315 Q603.002 32.4315 599.518 37.1306 Q596.034 41.7891 596.034 49.9314 Q596.034 58.0738 599.478 62.7728 Q602.961 67.4314 608.997 67.4314 Q614.952 67.4314 618.436 62.7323 Q621.92 58.0333 621.92 49.9314 Q621.92 41.8701 618.436 37.1711 Q614.952 32.4315 608.997 32.4315 M608.997 26.1121 Q618.72 26.1121 624.269 32.4315 Q629.819 38.7509 629.819 49.9314 Q629.819 61.0714 624.269 67.4314 Q618.72 73.7508 608.997 73.7508 Q599.235 73.7508 593.685 67.4314 Q588.176 61.0714 588.176 49.9314 Q588.176 38.7509 593.685 32.4315 Q599.235 26.1121 608.997 26.1121 Z" fill="#000000" fill-rule="nonzero" fill-opacity="1" /><path clip-path="url(#clip530)" d="M679.888 45.1919 L679.888 72.576 L672.434 72.576 L672.434 45.4349 Q672.434 38.994 669.923 35.7938 Q667.411 32.5936 662.388 32.5936 Q656.352 32.5936 652.869 36.4419 Q649.385 40.2903 649.385 46.9338 L649.385 72.576 L641.891 72.576 L641.891 27.2059 L649.385 27.2059 L649.385 34.2544 Q652.058 30.163 655.664 28.1376 Q659.31 26.1121 664.049 26.1121 Q671.867 26.1121 675.878 30.9732 Q679.888 35.7938 679.888 45.1919 Z" fill="#000000" fill-rule="nonzero" fill-opacity="1" /><path clip-path="url(#clip530)" d="M721.126 9.54393 L728.58 9.54393 L728.58 72.576 L721.126 72.576 L721.126 9.54393 Z" fill="#000000" fill-rule="nonzero" fill-opacity="1" /><path clip-path="url(#clip530)" d="M761.757 32.4315 Q755.762 32.4315 752.278 37.1306 Q748.794 41.7891 748.794 49.9314 Q748.794 58.0738 752.237 62.7728 Q755.721 67.4314 761.757 67.4314 Q767.712 67.4314 771.196 62.7323 Q774.679 58.0333 774.679 49.9314 Q774.679 41.8701 771.196 37.1711 Q767.712 32.4315 761.757 32.4315 M761.757 26.1121 Q771.479 26.1121 777.029 32.4315 Q782.579 38.7509 782.579 49.9314 Q782.579 61.0714 777.029 67.4314 Q771.479 73.7508 761.757 73.7508 Q751.994 73.7508 746.445 67.4314 Q740.935 61.0714 740.935 49.9314 Q740.935 38.7509 746.445 32.4315 Q751.994 26.1121 761.757 26.1121 Z" fill="#000000" fill-rule="nonzero" fill-opacity="1" /><path clip-path="url(#clip530)" d="M824.789 49.3643 Q824.789 41.2625 821.427 36.8065 Q818.105 32.3505 812.069 32.3505 Q806.074 32.3505 802.712 36.8065 Q799.39 41.2625 799.39 49.3643 Q799.39 57.4256 802.712 61.8816 Q806.074 66.3376 812.069 66.3376 Q818.105 66.3376 821.427 61.8816 Q824.789 57.4256 824.789 49.3643 M832.243 66.9452 Q832.243 78.5308 827.098 84.1616 Q821.953 89.8329 811.34 89.8329 Q807.411 89.8329 803.927 89.2252 Q800.443 88.6581 797.162 87.4428 L797.162 80.1917 Q800.443 81.9741 803.643 82.8248 Q806.844 83.6755 810.165 83.6755 Q817.497 83.6755 821.143 79.8271 Q824.789 76.0193 824.789 68.282 L824.789 64.5957 Q822.48 68.6061 818.875 70.5911 Q815.269 72.576 810.246 72.576 Q801.901 72.576 796.797 66.2161 Q791.693 59.8562 791.693 49.3643 Q791.693 38.832 796.797 32.472 Q801.901 26.1121 810.246 26.1121 Q815.269 26.1121 818.875 28.0971 Q822.48 30.082 824.789 34.0924 L824.789 27.2059 L832.243 27.2059 L832.243 66.9452 Z" fill="#000000" fill-rule="nonzero" fill-opacity="1" /><polyline clip-path="url(#clip532)" style="stroke:#009af9; stroke-linecap:round; stroke-linejoin:round; stroke-width:8; stroke-opacity:1; fill:none" stroke-dasharray="4, 8" points="205.799,1048.82 215.616,1030.51 273.117,923.266 299.866,873.378 335.72,806.509 365.347,751.255 392.896,699.874 427.481,635.373 458.503,577.516 494.012,511.291 520.555,461.787 554.505,398.471 585.49,340.682 620.756,274.911 648.711,222.773 657.394,206.58 666.077,190.386 670.418,182.289 674.76,174.192 676.931,170.144 679.101,166.095 680.187,164.071 681.272,162.047 682.357,164.02 683.443,166.044 686.768,172.245 690.092,178.446 693.417,184.647 696.742,190.848 703.392,203.25 710.041,215.651 747.542,285.59 775.565,337.854 807.434,397.29 838.995,456.152 873.717,520.911 900.24,570.375 933.708,632.796 964.664,690.528 996.588,750.068 1028.95,810.42 1062.74,873.438 1089.36,923.08 1149.97,1036.13 1156.77,1048.82 "/>
<polyline clip-path="url(#clip532)" style="stroke:#e26f46; stroke-linecap:round; stroke-linejoin:round; stroke-width:8; stroke-opacity:1; fill:none" points="205.799,1447.87 210.707,1425.1 215.616,1402.57 229.991,1337.94 244.367,1275.34 258.742,1214.77 273.117,1156.22 286.492,1103.56 299.866,1052.66 308.83,1019.53 317.793,987.188 326.757,955.633 335.72,924.866 350.533,875.746 365.347,828.778 379.122,787.033 392.896,747.149 410.189,699.714 427.481,655.212 442.992,617.788 458.503,582.723 467.38,563.716 476.258,545.482 485.135,528.021 494.012,511.332 507.284,487.824 520.555,466.043 537.53,440.703 554.505,418.187 569.997,400.103 585.49,384.373 594.307,376.473 603.123,369.334 611.939,362.958 620.756,357.344 634.734,350.005 648.711,344.583 666.077,340.514 683.443,339.403 696.742,340.552 710.041,343.434 719.416,346.509 728.791,350.445 738.167,355.243 747.542,360.903 761.553,370.969 775.565,382.96 791.499,398.936 807.434,417.402 823.214,438.143 838.995,461.326 856.356,489.653 873.717,520.935 886.978,546.821 900.24,574.431 916.974,611.733 933.708,651.781 949.186,691.266 964.664,733.1 980.626,778.705 996.588,826.809 1012.77,878.117 1028.95,931.993 1045.84,990.988 1062.74,1052.78 1076.05,1103.43 1089.36,1155.82 1104.51,1217.58 1119.66,1281.6 1134.82,1347.87 1149.97,1416.39 1151.67,1424.22 1153.37,1432.07 1155.07,1439.96 1156.77,1447.87 "/>
<polyline clip-path="url(#clip532)" style="stroke:#3da44d; stroke-linecap:round; stroke-linejoin:round; stroke-width:8; stroke-opacity:1; fill:none" points="491.238,516.739 491.516,516.739 491.793,516.739 492.348,516.739 492.903,516.739 493.457,516.739 494.012,516.739 494.22,516.739 494.427,516.739 494.634,516.739 494.842,516.739 495.257,516.739 495.671,516.739 496.501,516.739 497.33,516.739 498.989,516.739 500.648,516.739 503.966,516.739 507.284,516.739 513.92,516.739 520.555,516.739 554.505,516.739 585.49,516.739 620.756,516.739 648.711,516.739 683.443,516.739 710.041,516.739 747.542,516.739 775.565,516.739 791.499,516.739 807.434,516.739 823.214,516.739 838.995,516.739 847.675,516.739 856.356,516.739 860.696,516.739 865.037,516.739 866.122,516.739 867.207,516.739 868.292,516.739 869.377,516.739 869.92,516.739 870.462,516.739 870.733,516.739 871.005,516.739 871.276,516.739 "/>
<circle clip-path="url(#clip532)" cx="491.091" cy="516.739" r="14.4" fill="#c271d2" fill-rule="evenodd" fill-opacity="1" stroke="#000000" stroke-opacity="1" stroke-width="3.2"/>
<circle clip-path="url(#clip532)" cx="871.481" cy="516.739" r="14.4" fill="#c271d2" fill-rule="evenodd" fill-opacity="1" stroke="#000000" stroke-opacity="1" stroke-width="3.2"/>
<path clip-path="url(#clip530)" d="M916.445 376.265 L1151.7 376.265 L1151.7 168.905 L916.445 168.905  Z" fill="#ffffff" fill-rule="evenodd" fill-opacity="1"/>
<polyline clip-path="url(#clip530)" style="stroke:#000000; stroke-linecap:round; stroke-linejoin:round; stroke-width:4; stroke-opacity:1; fill:none" points="916.445,376.265 1151.7,376.265 1151.7,168.905 916.445,168.905 916.445,376.265 "/>
<polyline clip-path="url(#clip530)" style="stroke:#009af9; stroke-linecap:round; stroke-linejoin:round; stroke-width:8; stroke-opacity:1; fill:none" stroke-dasharray="4, 8" points="927.645,220.745 994.848,220.745 "/>
<path clip-path="url(#clip530)" d="M1030.71 224.108 Q1030.1 227.13 1029.28 228.863 Q1027.95 231.51 1025.72 231.51 Q1024.18 231.51 1023.01 230.643 Q1021.86 229.753 1021.46 228.278 Q1021.01 228.863 1020.62 229.261 Q1020.24 229.66 1019.52 230.269 Q1018.79 230.854 1017.81 231.182 Q1016.85 231.51 1015.74 231.51 Q1014.9 231.51 1014.13 231.346 Q1013.36 231.205 1012.54 230.807 Q1011.74 230.386 1011.15 229.753 Q1010.59 229.121 1010.22 228.09 Q1009.84 227.06 1009.84 225.748 Q1009.84 224.108 1010.47 221.883 Q1011.13 219.658 1012.63 215.676 Q1013.45 213.568 1013.45 212.397 Q1013.45 211.858 1013.33 211.507 Q1013.22 211.156 1012.98 211.039 Q1012.77 210.898 1012.63 210.875 Q1012.49 210.828 1012.25 210.828 Q1010.8 210.828 1009.54 212.304 Q1008.27 213.779 1007.41 216.777 Q1007.22 217.363 1007.1 217.503 Q1006.98 217.644 1006.63 217.644 Q1006.05 217.62 1006.05 217.152 Q1006.05 216.965 1006.26 216.238 Q1006.47 215.489 1006.96 214.388 Q1007.48 213.264 1008.18 212.257 Q1008.88 211.226 1009.98 210.5 Q1011.11 209.774 1012.4 209.774 Q1014.15 209.774 1015.23 210.922 Q1016.33 212.046 1016.33 213.709 Q1016.33 214.739 1015.51 216.73 Q1012.91 223.64 1012.91 226.521 Q1012.91 230.432 1015.89 230.432 Q1016.87 230.432 1017.78 230.034 Q1018.72 229.636 1019.33 229.074 Q1019.94 228.512 1020.41 227.903 Q1020.9 227.294 1021.11 226.896 Q1021.34 226.498 1021.37 226.404 L1024.95 211.976 Q1025.09 211.413 1025.35 211.039 Q1025.63 210.641 1025.96 210.5 Q1026.28 210.359 1026.47 210.336 Q1026.66 210.289 1026.82 210.289 Q1027.41 210.289 1027.81 210.641 Q1028.23 210.992 1028.23 211.601 Q1028.23 211.718 1028.09 212.28 Q1027.97 212.819 1027.78 213.615 Q1027.6 214.388 1027.5 214.81 Q1026.75 217.761 1026.68 218.065 L1025.35 223.242 Q1025.28 223.546 1025.04 224.53 Q1024.83 225.514 1024.72 226.029 Q1024.6 226.521 1024.48 227.2 Q1024.39 227.856 1024.39 228.231 Q1024.39 229.402 1024.74 229.917 Q1025.09 230.432 1025.86 230.432 Q1026.59 230.432 1027.15 229.941 Q1027.74 229.425 1028.18 228.442 Q1028.63 227.434 1028.88 226.615 Q1029.14 225.795 1029.47 224.507 Q1029.59 223.944 1029.68 223.804 Q1029.8 223.64 1030.13 223.64 Q1030.71 223.64 1030.71 224.108 Z" fill="#000000" fill-rule="nonzero" fill-opacity="1" /><polyline clip-path="url(#clip530)" style="stroke:#e26f46; stroke-linecap:round; stroke-linejoin:round; stroke-width:8; stroke-opacity:1; fill:none" points="927.645,272.585 994.848,272.585 "/>
<path clip-path="url(#clip530)" d="M1011.75 284.46 L1011.75 282.984 Q1014.3 282.984 1014.89 282.68 Q1015.47 282.352 1015.47 280.806 L1015.47 255.861 Q1015.47 254.081 1014.84 253.636 Q1014.23 253.191 1011.75 253.191 L1011.75 251.692 L1018.64 251.176 L1018.64 280.806 Q1018.64 282.352 1019.25 282.68 Q1019.85 282.984 1022.38 282.984 L1022.38 284.46 Q1021.8 284.46 1020.58 284.413 Q1019.36 284.366 1018.47 284.343 Q1017.58 284.319 1017.07 284.319 Q1016.5 284.319 1011.75 284.46 Z" fill="#000000" fill-rule="nonzero" fill-opacity="1" /><path clip-path="url(#clip530)" d="M1029.6 281.883 Q1026.44 278.745 1026.44 274.201 Q1026.44 269.633 1029.53 266.307 Q1032.64 262.958 1037.09 262.958 Q1041.45 262.958 1044.57 266.284 Q1047.7 269.586 1047.7 274.201 Q1047.7 278.721 1044.54 281.86 Q1041.4 284.998 1037.05 284.998 Q1032.78 284.998 1029.6 281.883 M1030.42 273.802 Q1030.42 278.464 1031.64 280.572 Q1033.51 283.78 1037.09 283.78 Q1038.87 283.78 1040.35 282.82 Q1041.85 281.86 1042.67 280.244 Q1043.72 278.136 1043.72 273.802 Q1043.72 269.188 1042.46 267.15 Q1040.58 264.035 1037.05 264.035 Q1035.5 264.035 1033.98 264.855 Q1032.48 265.651 1031.57 267.244 Q1030.42 269.352 1030.42 273.802 Z" fill="#000000" fill-rule="nonzero" fill-opacity="1" /><path clip-path="url(#clip530)" d="M1048.46 288.254 Q1048.46 286.708 1049.63 285.373 Q1050.82 284.038 1052.89 283.452 Q1050.78 282.117 1050.78 279.19 Q1050.78 276.941 1052.25 275.208 Q1050 273.334 1050 270.266 Q1050 267.432 1052.25 265.347 Q1054.5 263.262 1057.78 263.262 Q1060.66 263.262 1062.86 264.996 Q1065.16 262.747 1067.95 262.724 Q1069.19 262.724 1069.77 263.497 Q1070.38 264.27 1070.38 265.089 Q1070.38 265.815 1069.91 266.167 Q1069.47 266.518 1069 266.518 Q1068.41 266.518 1067.99 266.143 Q1067.59 265.745 1067.59 265.136 Q1067.59 264.129 1068.37 263.824 Q1068.23 263.778 1067.9 263.778 Q1065.56 263.778 1063.57 265.651 Q1065.53 267.478 1065.53 270.312 Q1065.53 273.147 1063.28 275.231 Q1061.04 277.316 1057.78 277.316 Q1055.09 277.316 1053.03 275.817 Q1052.21 276.777 1052.21 278.089 Q1052.21 279.283 1052.93 280.22 Q1053.66 281.157 1054.76 281.298 Q1055.09 281.344 1058.34 281.344 Q1060.26 281.344 1061.32 281.391 Q1062.37 281.438 1063.87 281.766 Q1065.39 282.071 1066.59 282.68 Q1069.7 284.413 1069.73 288.16 Q1069.73 290.901 1066.56 292.611 Q1063.43 294.344 1059.07 294.344 Q1054.67 294.344 1051.55 292.587 Q1048.46 290.854 1048.46 288.254 M1050.96 288.254 Q1050.96 290.222 1053.28 291.721 Q1055.6 293.243 1059.12 293.243 Q1062.56 293.243 1064.88 291.744 Q1067.22 290.268 1067.22 288.254 Q1067.22 286.825 1066.4 285.912 Q1065.58 284.998 1063.89 284.624 Q1062.23 284.272 1061.06 284.202 Q1059.89 284.132 1057.73 284.132 L1054.9 284.132 Q1053.26 284.225 1052.11 285.42 Q1050.96 286.615 1050.96 288.254 M1053.59 270.312 Q1053.59 276.215 1057.78 276.215 Q1059.89 276.215 1061.18 274.294 Q1061.95 273.006 1061.95 270.266 Q1061.95 264.363 1057.78 264.363 Q1055.67 264.363 1054.36 266.284 Q1053.59 267.572 1053.59 270.312 Z" fill="#000000" fill-rule="nonzero" fill-opacity="1" /><path clip-path="url(#clip530)" d="M1077.91 272.467 Q1077.91 264.363 1080.93 257.828 Q1082.22 255.088 1084.02 252.793 Q1085.83 250.497 1087.02 249.49 Q1088.22 248.483 1088.54 248.483 Q1089.01 248.483 1089.04 248.951 Q1089.04 249.185 1088.4 249.771 Q1080.67 257.641 1080.7 272.467 Q1080.7 287.341 1088.22 294.906 Q1089.04 295.726 1089.04 295.983 Q1089.04 296.452 1088.54 296.452 Q1088.22 296.452 1087.07 295.492 Q1085.92 294.531 1084.14 292.33 Q1082.36 290.128 1081.07 287.434 Q1077.91 280.899 1077.91 272.467 Z" fill="#000000" fill-rule="nonzero" fill-opacity="1" /><path clip-path="url(#clip530)" d="M1117.36 253.94 Q1117.36 255.228 1116.54 256.025 Q1115.74 256.821 1114.74 256.821 Q1114.01 256.821 1113.47 256.376 Q1112.96 255.931 1112.96 255.158 Q1112.96 254.362 1113.57 253.519 Q1114.17 252.675 1115.56 252.558 Q1114.64 251.692 1113.19 251.692 Q1112.47 251.692 1111.86 252.16 Q1111.27 252.605 1110.94 253.331 Q1110.59 254.081 1109.79 258.32 Q1109.54 259.702 1109.3 261.037 Q1109.07 262.372 1108.79 263.778 L1112.77 263.778 Q1113.28 263.778 1113.5 263.801 Q1113.71 263.824 1113.87 263.942 Q1114.06 264.059 1114.06 264.316 Q1114.06 264.972 1113.75 265.136 Q1113.47 265.277 1112.63 265.277 L1108.51 265.277 L1105.63 280.478 Q1105.56 280.923 1105.25 282.328 Q1104.97 283.71 1104.29 285.982 Q1103.61 288.278 1102.93 289.636 Q1102.56 290.409 1102.07 291.135 Q1101.6 291.885 1100.92 292.634 Q1100.24 293.384 1099.35 293.829 Q1098.46 294.297 1097.52 294.297 Q1095.93 294.297 1094.69 293.407 Q1093.45 292.517 1093.45 290.995 Q1093.45 289.706 1094.24 288.91 Q1095.06 288.114 1096.07 288.114 Q1096.8 288.114 1097.31 288.559 Q1097.85 289.004 1097.85 289.777 Q1097.85 290.104 1097.73 290.479 Q1097.62 290.854 1097.36 291.276 Q1097.1 291.721 1096.54 292.025 Q1095.98 292.33 1095.2 292.376 Q1096.12 293.243 1097.52 293.243 Q1097.97 293.243 1098.36 293.056 Q1098.76 292.892 1099.09 292.47 Q1099.44 292.049 1099.7 291.627 Q1099.96 291.229 1100.22 290.456 Q1100.47 289.706 1100.64 289.144 Q1100.8 288.582 1101.01 287.575 Q1101.25 286.568 1101.36 285.959 Q1101.48 285.373 1101.69 284.225 L1105.27 265.277 L1102.11 265.277 Q1101.55 265.277 1101.32 265.253 Q1101.11 265.23 1100.94 265.113 Q1100.78 264.972 1100.78 264.691 Q1100.78 264.246 1100.96 264.059 Q1101.18 263.848 1101.41 263.824 Q1101.64 263.778 1102.21 263.778 L1105.53 263.778 Q1106.66 257.852 1107.1 256.259 Q1107.62 254.573 1108.41 253.401 Q1109.21 252.207 1110.1 251.645 Q1110.99 251.083 1111.72 250.872 Q1112.47 250.638 1113.19 250.638 Q1114.83 250.638 1116.1 251.528 Q1117.36 252.394 1117.36 253.94 Z" fill="#000000" fill-rule="nonzero" fill-opacity="1" /><path clip-path="url(#clip530)" d="M1122.09 295.983 Q1122.09 295.749 1122.69 295.164 Q1130.42 287.294 1130.42 272.467 Q1130.42 257.594 1123 250.076 Q1122.09 249.209 1122.09 248.951 Q1122.09 248.483 1122.55 248.483 Q1122.88 248.483 1124.03 249.443 Q1125.2 250.403 1126.96 252.605 Q1128.74 254.807 1130.05 257.5 Q1133.21 264.035 1133.21 272.467 Q1133.21 280.572 1130.19 287.106 Q1128.9 289.847 1127.1 292.142 Q1125.29 294.438 1124.1 295.445 Q1122.9 296.452 1122.55 296.452 Q1122.09 296.452 1122.09 295.983 Z" fill="#000000" fill-rule="nonzero" fill-opacity="1" /><polyline clip-path="url(#clip530)" style="stroke:#3da44d; stroke-linecap:round; stroke-linejoin:round; stroke-width:8; stroke-opacity:1; fill:none" points="927.645,324.425 994.848,324.425 "/>
<path clip-path="url(#clip530)" d="M1016.31 307.868 L1009.4 335.6 Q1009.12 336.701 1009.12 337.895 Q1009.12 340.097 1010.57 340.097 Q1011.25 340.097 1011.81 339.652 Q1012.37 339.183 1012.79 338.27 Q1013.24 337.333 1013.52 336.443 Q1013.82 335.553 1014.2 334.171 Q1014.32 333.632 1014.43 333.468 Q1014.55 333.304 1014.88 333.304 Q1015.46 333.304 1015.46 333.773 Q1014.88 336.654 1014.01 338.481 Q1012.75 341.174 1010.4 341.174 Q1008.65 341.174 1007.34 339.956 Q1006.05 338.715 1006.05 336.747 Q1006.05 335.998 1006.28 335.108 L1012.33 311.123 L1012.49 310.186 Q1012.49 309.929 1012.4 309.788 Q1012.3 309.648 1011.74 309.507 Q1011.2 309.367 1010.12 309.367 Q1009.68 309.367 1009.47 309.343 Q1009.28 309.32 1009.09 309.203 Q1008.93 309.086 1008.93 308.828 Q1008.93 308.406 1009.09 308.172 Q1009.28 307.938 1009.42 307.891 Q1009.56 307.844 1009.84 307.821 Q1010.24 307.797 1011.58 307.68 Q1012.91 307.54 1014.06 307.446 Q1015.21 307.352 1015.7 307.352 Q1015.98 307.352 1016.12 307.493 Q1016.28 307.61 1016.31 307.75 L1016.31 307.868 Z" fill="#000000" fill-rule="nonzero" fill-opacity="1" /><path clip-path="url(#clip530)" d="M1344.72 1486.45 L2352.76 1486.45 L2352.76 123.472 L1344.72 123.472  Z" fill="#ffffff" fill-rule="evenodd" fill-opacity="1"/>
<defs>
  <clipPath id="clip533">
    <rect x="1344" y="123" width="1009" height="1364"/>
  </clipPath>
</defs>
<polyline clip-path="url(#clip533)" style="stroke:#000000; stroke-linecap:round; stroke-linejoin:round; stroke-width:2; stroke-opacity:0.1; fill:none" points="1344.72,1486.45 1344.72,123.472 "/>
<polyline clip-path="url(#clip533)" style="stroke:#000000; stroke-linecap:round; stroke-linejoin:round; stroke-width:2; stroke-opacity:0.1; fill:none" points="1596.73,1486.45 1596.73,123.472 "/>
<polyline clip-path="url(#clip533)" style="stroke:#000000; stroke-linecap:round; stroke-linejoin:round; stroke-width:2; stroke-opacity:0.1; fill:none" points="1848.74,1486.45 1848.74,123.472 "/>
<polyline clip-path="url(#clip533)" style="stroke:#000000; stroke-linecap:round; stroke-linejoin:round; stroke-width:2; stroke-opacity:0.1; fill:none" points="2100.75,1486.45 2100.75,123.472 "/>
<polyline clip-path="url(#clip533)" style="stroke:#000000; stroke-linecap:round; stroke-linejoin:round; stroke-width:2; stroke-opacity:0.1; fill:none" points="2352.76,1486.45 2352.76,123.472 "/>
<polyline clip-path="url(#clip533)" style="stroke:#000000; stroke-linecap:round; stroke-linejoin:round; stroke-width:2; stroke-opacity:0.1; fill:none" points="1344.72,1447.87 2352.76,1447.87 "/>
<polyline clip-path="url(#clip533)" style="stroke:#000000; stroke-linecap:round; stroke-linejoin:round; stroke-width:2; stroke-opacity:0.1; fill:none" points="1344.72,1099.74 2352.76,1099.74 "/>
<polyline clip-path="url(#clip533)" style="stroke:#000000; stroke-linecap:round; stroke-linejoin:round; stroke-width:2; stroke-opacity:0.1; fill:none" points="1344.72,751.602 2352.76,751.602 "/>
<polyline clip-path="url(#clip533)" style="stroke:#000000; stroke-linecap:round; stroke-linejoin:round; stroke-width:2; stroke-opacity:0.1; fill:none" points="1344.72,403.467 2352.76,403.467 "/>
<polyline clip-path="url(#clip530)" style="stroke:#000000; stroke-linecap:round; stroke-linejoin:round; stroke-width:4; stroke-opacity:1; fill:none" points="1344.72,1486.45 2352.76,1486.45 "/>
<polyline clip-path="url(#clip530)" style="stroke:#000000; stroke-linecap:round; stroke-linejoin:round; stroke-width:4; stroke-opacity:1; fill:none" points="1344.72,1486.45 1344.72,1467.55 "/>
<polyline clip-path="url(#clip530)" style="stroke:#000000; stroke-linecap:round; stroke-linejoin:round; stroke-width:4; stroke-opacity:1; fill:none" points="1596.73,1486.45 1596.73,1467.55 "/>
<polyline clip-path="url(#clip530)" style="stroke:#000000; stroke-linecap:round; stroke-linejoin:round; stroke-width:4; stroke-opacity:1; fill:none" points="1848.74,1486.45 1848.74,1467.55 "/>
<polyline clip-path="url(#clip530)" style="stroke:#000000; stroke-linecap:round; stroke-linejoin:round; stroke-width:4; stroke-opacity:1; fill:none" points="2100.75,1486.45 2100.75,1467.55 "/>
<polyline clip-path="url(#clip530)" style="stroke:#000000; stroke-linecap:round; stroke-linejoin:round; stroke-width:4; stroke-opacity:1; fill:none" points="2352.76,1486.45 2352.76,1467.55 "/>
<path clip-path="url(#clip530)" d="M1314.67 1532.02 L1344.34 1532.02 L1344.34 1535.95 L1314.67 1535.95 L1314.67 1532.02 Z" fill="#000000" fill-rule="nonzero" fill-opacity="1" /><path clip-path="url(#clip530)" d="M1358.46 1544.91 L1374.78 1544.91 L1374.78 1548.85 L1352.84 1548.85 L1352.84 1544.91 Q1355.5 1542.16 1360.08 1537.53 Q1364.69 1532.88 1365.87 1531.53 Q1368.11 1529.01 1368.99 1527.27 Q1369.9 1525.51 1369.9 1523.82 Q1369.9 1521.07 1367.95 1519.33 Q1366.03 1517.6 1362.93 1517.6 Q1360.73 1517.6 1358.28 1518.36 Q1355.85 1519.13 1353.07 1520.68 L1353.07 1515.95 Q1355.89 1514.82 1358.35 1514.24 Q1360.8 1513.66 1362.84 1513.66 Q1368.21 1513.66 1371.4 1516.35 Q1374.6 1519.03 1374.6 1523.52 Q1374.6 1525.65 1373.79 1527.57 Q1373 1529.47 1370.89 1532.07 Q1370.31 1532.74 1367.21 1535.95 Q1364.11 1539.15 1358.46 1544.91 Z" fill="#000000" fill-rule="nonzero" fill-opacity="1" /><path clip-path="url(#clip530)" d="M1566.49 1532.02 L1596.16 1532.02 L1596.16 1535.95 L1566.49 1535.95 L1566.49 1532.02 Z" fill="#000000" fill-rule="nonzero" fill-opacity="1" /><path clip-path="url(#clip530)" d="M1607.07 1544.91 L1614.71 1544.91 L1614.71 1518.55 L1606.4 1520.21 L1606.4 1515.95 L1614.66 1514.29 L1619.34 1514.29 L1619.34 1544.91 L1626.97 1544.91 L1626.97 1548.85 L1607.07 1548.85 L1607.07 1544.91 Z" fill="#000000" fill-rule="nonzero" fill-opacity="1" /><path clip-path="url(#clip530)" d="M1848.74 1517.37 Q1845.13 1517.37 1843.3 1520.93 Q1841.49 1524.47 1841.49 1531.6 Q1841.49 1538.71 1843.3 1542.27 Q1845.13 1545.82 1848.74 1545.82 Q1852.37 1545.82 1854.18 1542.27 Q1856.01 1538.71 1856.01 1531.6 Q1856.01 1524.47 1854.18 1520.93 Q1852.37 1517.37 1848.74 1517.37 M1848.74 1513.66 Q1854.55 1513.66 1857.61 1518.27 Q1860.68 1522.85 1860.68 1531.6 Q1860.68 1540.33 1857.61 1544.94 Q1854.55 1549.52 1848.74 1549.52 Q1842.93 1549.52 1839.85 1544.94 Q1836.8 1540.33 1836.8 1531.6 Q1836.8 1522.85 1839.85 1518.27 Q1842.93 1513.66 1848.74 1513.66 Z" fill="#000000" fill-rule="nonzero" fill-opacity="1" /><path clip-path="url(#clip530)" d="M2091.13 1544.91 L2098.77 1544.91 L2098.77 1518.55 L2090.46 1520.21 L2090.46 1515.95 L2098.72 1514.29 L2103.4 1514.29 L2103.4 1544.91 L2111.04 1544.91 L2111.04 1548.85 L2091.13 1548.85 L2091.13 1544.91 Z" fill="#000000" fill-rule="nonzero" fill-opacity="1" /><path clip-path="url(#clip530)" d="M2347.41 1544.91 L2363.73 1544.91 L2363.73 1548.85 L2341.78 1548.85 L2341.78 1544.91 Q2344.45 1542.16 2349.03 1537.53 Q2353.64 1532.88 2354.82 1531.53 Q2357.06 1529.01 2357.94 1527.27 Q2358.84 1525.51 2358.84 1523.82 Q2358.84 1521.07 2356.9 1519.33 Q2354.98 1517.6 2351.88 1517.6 Q2349.68 1517.6 2347.22 1518.36 Q2344.79 1519.13 2342.02 1520.68 L2342.02 1515.95 Q2344.84 1514.82 2347.29 1514.24 Q2349.75 1513.66 2351.78 1513.66 Q2357.15 1513.66 2360.35 1516.35 Q2363.54 1519.03 2363.54 1523.52 Q2363.54 1525.65 2362.73 1527.57 Q2361.95 1529.47 2359.84 1532.07 Q2359.26 1532.74 2356.16 1535.95 Q2353.06 1539.15 2347.41 1544.91 Z" fill="#000000" fill-rule="nonzero" fill-opacity="1" /><polyline clip-path="url(#clip530)" style="stroke:#000000; stroke-linecap:round; stroke-linejoin:round; stroke-width:4; stroke-opacity:1; fill:none" points="1344.72,1486.45 1344.72,123.472 "/>
<polyline clip-path="url(#clip530)" style="stroke:#000000; stroke-linecap:round; stroke-linejoin:round; stroke-width:4; stroke-opacity:1; fill:none" points="1344.72,1447.87 1363.62,1447.87 "/>
<polyline clip-path="url(#clip530)" style="stroke:#000000; stroke-linecap:round; stroke-linejoin:round; stroke-width:4; stroke-opacity:1; fill:none" points="1344.72,1099.74 1363.62,1099.74 "/>
<polyline clip-path="url(#clip530)" style="stroke:#000000; stroke-linecap:round; stroke-linejoin:round; stroke-width:4; stroke-opacity:1; fill:none" points="1344.72,751.602 1363.62,751.602 "/>
<polyline clip-path="url(#clip530)" style="stroke:#000000; stroke-linecap:round; stroke-linejoin:round; stroke-width:4; stroke-opacity:1; fill:none" points="1344.72,403.467 1363.62,403.467 "/>
<path clip-path="url(#clip530)" d="M1296.78 1433.67 Q1293.17 1433.67 1291.34 1437.24 Q1289.53 1440.78 1289.53 1447.91 Q1289.53 1455.01 1291.34 1458.58 Q1293.17 1462.12 1296.78 1462.12 Q1300.41 1462.12 1302.22 1458.58 Q1304.05 1455.01 1304.05 1447.91 Q1304.05 1440.78 1302.22 1437.24 Q1300.41 1433.67 1296.78 1433.67 M1296.78 1429.97 Q1302.59 1429.97 1305.64 1434.57 Q1308.72 1439.16 1308.72 1447.91 Q1308.72 1456.63 1305.64 1461.24 Q1302.59 1465.82 1296.78 1465.82 Q1290.97 1465.82 1287.89 1461.24 Q1284.83 1456.63 1284.83 1447.91 Q1284.83 1439.16 1287.89 1434.57 Q1290.97 1429.97 1296.78 1429.97 Z" fill="#000000" fill-rule="nonzero" fill-opacity="1" /><path clip-path="url(#clip530)" d="M1292.4 1113.08 L1308.72 1113.08 L1308.72 1117.02 L1286.78 1117.02 L1286.78 1113.08 Q1289.44 1110.33 1294.02 1105.7 Q1298.63 1101.05 1299.81 1099.7 Q1302.06 1097.18 1302.94 1095.44 Q1303.84 1093.68 1303.84 1091.99 Q1303.84 1089.24 1301.89 1087.5 Q1299.97 1085.77 1296.87 1085.77 Q1294.67 1085.77 1292.22 1086.53 Q1289.79 1087.3 1287.01 1088.85 L1287.01 1084.12 Q1289.83 1082.99 1292.29 1082.41 Q1294.74 1081.83 1296.78 1081.83 Q1302.15 1081.83 1305.34 1084.52 Q1308.54 1087.2 1308.54 1091.69 Q1308.54 1093.82 1307.73 1095.74 Q1306.94 1097.64 1304.83 1100.24 Q1304.26 1100.91 1301.15 1104.12 Q1298.05 1107.32 1292.4 1113.08 Z" fill="#000000" fill-rule="nonzero" fill-opacity="1" /><path clip-path="url(#clip530)" d="M1299.14 738.396 L1287.33 756.845 L1299.14 756.845 L1299.14 738.396 M1297.91 734.322 L1303.79 734.322 L1303.79 756.845 L1308.72 756.845 L1308.72 760.734 L1303.79 760.734 L1303.79 768.882 L1299.14 768.882 L1299.14 760.734 L1283.54 760.734 L1283.54 756.22 L1297.91 734.322 Z" fill="#000000" fill-rule="nonzero" fill-opacity="1" /><path clip-path="url(#clip530)" d="M1297.2 401.603 Q1294.05 401.603 1292.2 403.756 Q1290.37 405.909 1290.37 409.659 Q1290.37 413.386 1292.2 415.562 Q1294.05 417.714 1297.2 417.714 Q1300.34 417.714 1302.17 415.562 Q1304.02 413.386 1304.02 409.659 Q1304.02 405.909 1302.17 403.756 Q1300.34 401.603 1297.2 401.603 M1306.48 386.951 L1306.48 391.21 Q1304.72 390.377 1302.91 389.937 Q1301.13 389.497 1299.37 389.497 Q1294.74 389.497 1292.29 392.622 Q1289.86 395.747 1289.51 402.066 Q1290.88 400.052 1292.94 398.988 Q1295 397.9 1297.47 397.9 Q1302.68 397.9 1305.69 401.071 Q1308.72 404.219 1308.72 409.659 Q1308.72 414.983 1305.58 418.2 Q1302.43 421.418 1297.2 421.418 Q1291.2 421.418 1288.03 416.835 Q1284.86 412.228 1284.86 403.501 Q1284.86 395.307 1288.75 390.446 Q1292.64 385.562 1299.19 385.562 Q1300.95 385.562 1302.73 385.909 Q1304.53 386.256 1306.48 386.951 Z" fill="#000000" fill-rule="nonzero" fill-opacity="1" /><path clip-path="url(#clip530)" d="M1753.6 14.0809 L1753.6 22.0612 Q1748.95 19.8332 1744.81 18.7395 Q1740.68 17.6457 1736.83 17.6457 Q1730.15 17.6457 1726.5 20.2383 Q1722.9 22.8309 1722.9 27.611 Q1722.9 31.6214 1725.29 33.6873 Q1727.72 35.7128 1734.44 36.9686 L1739.39 37.9813 Q1748.54 39.7232 1752.87 44.1387 Q1757.25 48.5136 1757.25 55.8863 Q1757.25 64.6767 1751.34 69.2137 Q1745.46 73.7508 1734.08 73.7508 Q1729.78 73.7508 1724.92 72.7785 Q1720.1 71.8063 1714.92 69.9024 L1714.92 61.4765 Q1719.9 64.2716 1724.68 65.6895 Q1729.46 67.1073 1734.08 67.1073 Q1741.09 67.1073 1744.89 64.3527 Q1748.7 61.598 1748.7 56.4939 Q1748.7 52.0379 1745.95 49.5264 Q1743.23 47.0148 1737 45.759 L1732.01 44.7868 Q1722.86 42.9639 1718.77 39.075 Q1714.67 35.1862 1714.67 28.2591 Q1714.67 20.2383 1720.31 15.6203 Q1725.98 11.0023 1735.9 11.0023 Q1740.16 11.0023 1744.57 11.7719 Q1748.99 12.5416 1753.6 14.0809 Z" fill="#000000" fill-rule="nonzero" fill-opacity="1" /><path clip-path="url(#clip530)" d="M1769.69 27.2059 L1777.14 27.2059 L1777.14 72.576 L1769.69 72.576 L1769.69 27.2059 M1769.69 9.54393 L1777.14 9.54393 L1777.14 18.9825 L1769.69 18.9825 L1769.69 9.54393 Z" fill="#000000" fill-rule="nonzero" fill-opacity="1" /><path clip-path="url(#clip530)" d="M1830.45 45.1919 L1830.45 72.576 L1823 72.576 L1823 45.4349 Q1823 38.994 1820.48 35.7938 Q1817.97 32.5936 1812.95 32.5936 Q1806.91 32.5936 1803.43 36.4419 Q1799.95 40.2903 1799.95 46.9338 L1799.95 72.576 L1792.45 72.576 L1792.45 27.2059 L1799.95 27.2059 L1799.95 34.2544 Q1802.62 30.163 1806.23 28.1376 Q1809.87 26.1121 1814.61 26.1121 Q1822.43 26.1121 1826.44 30.9732 Q1830.45 35.7938 1830.45 45.1919 Z" fill="#000000" fill-rule="nonzero" fill-opacity="1" /><path clip-path="url(#clip530)" d="M1871.69 9.54393 L1879.14 9.54393 L1879.14 72.576 L1871.69 72.576 L1871.69 9.54393 Z" fill="#000000" fill-rule="nonzero" fill-opacity="1" /><path clip-path="url(#clip530)" d="M1912.32 32.4315 Q1906.32 32.4315 1902.84 37.1306 Q1899.36 41.7891 1899.36 49.9314 Q1899.36 58.0738 1902.8 62.7728 Q1906.28 67.4314 1912.32 67.4314 Q1918.27 67.4314 1921.76 62.7323 Q1925.24 58.0333 1925.24 49.9314 Q1925.24 41.8701 1921.76 37.1711 Q1918.27 32.4315 1912.32 32.4315 M1912.32 26.1121 Q1922.04 26.1121 1927.59 32.4315 Q1933.14 38.7509 1933.14 49.9314 Q1933.14 61.0714 1927.59 67.4314 Q1922.04 73.7508 1912.32 73.7508 Q1902.56 73.7508 1897.01 67.4314 Q1891.5 61.0714 1891.5 49.9314 Q1891.5 38.7509 1897.01 32.4315 Q1902.56 26.1121 1912.32 26.1121 Z" fill="#000000" fill-rule="nonzero" fill-opacity="1" /><path clip-path="url(#clip530)" d="M1975.35 49.3643 Q1975.35 41.2625 1971.99 36.8065 Q1968.67 32.3505 1962.63 32.3505 Q1956.64 32.3505 1953.27 36.8065 Q1949.95 41.2625 1949.95 49.3643 Q1949.95 57.4256 1953.27 61.8816 Q1956.64 66.3376 1962.63 66.3376 Q1968.67 66.3376 1971.99 61.8816 Q1975.35 57.4256 1975.35 49.3643 M1982.8 66.9452 Q1982.8 78.5308 1977.66 84.1616 Q1972.51 89.8329 1961.9 89.8329 Q1957.97 89.8329 1954.49 89.2252 Q1951 88.6581 1947.72 87.4428 L1947.72 80.1917 Q1951 81.9741 1954.2 82.8248 Q1957.41 83.6755 1960.73 83.6755 Q1968.06 83.6755 1971.7 79.8271 Q1975.35 76.0193 1975.35 68.282 L1975.35 64.5957 Q1973.04 68.6061 1969.44 70.5911 Q1965.83 72.576 1960.81 72.576 Q1952.46 72.576 1947.36 66.2161 Q1942.25 59.8562 1942.25 49.3643 Q1942.25 38.832 1947.36 32.472 Q1952.46 26.1121 1960.81 26.1121 Q1965.83 26.1121 1969.44 28.0971 Q1973.04 30.082 1975.35 34.0924 L1975.35 27.2059 L1982.8 27.2059 L1982.8 66.9452 Z" fill="#000000" fill-rule="nonzero" fill-opacity="1" /><polyline clip-path="url(#clip533)" style="stroke:#009af9; stroke-linecap:round; stroke-linejoin:round; stroke-width:8; stroke-opacity:1; fill:none" stroke-dasharray="4, 8" points="588.699,1447.81 614.715,1447.8 767.092,1447.63 837.978,1447.45 932.991,1446.98 1011.5,1446.2 1084.51,1444.89 1176.16,1441.69 1258.37,1436 1305.42,1430.63 1352.47,1422.82 1387.63,1414.76 1422.8,1404.1 1445.3,1395.54 1467.79,1385.31 1490.28,1373.09 1512.77,1358.47 1533.3,1342.66 1553.83,1324.04 1564.09,1313.53 1574.35,1302.13 1584.62,1289.76 1594.88,1276.34 1606.56,1259.68 1618.24,1241.4 1629.93,1221.34 1641.61,1199.33 1653.29,1175.19 1664.97,1148.7 1676.65,1119.64 1688.33,1087.75 1697.6,1060.29 1706.86,1030.73 1716.12,998.924 1725.38,964.687 1734.64,927.839 1743.9,888.181 1748.53,867.232 1753.16,845.499 1757.79,822.952 1762.42,799.561 1768.17,769.279 1773.92,737.581 1779.67,704.403 1785.43,669.675 1791.18,633.325 1796.93,595.277 1802.68,555.452 1808.44,513.767 1814.19,470.134 1819.94,424.464 1825.69,376.66 1831.45,326.623 1837.2,274.249 1842.95,219.428 1844.39,205.327 1845.83,191.065 1846.55,183.872 1847.27,176.639 1847.98,169.364 1848.7,162.047 1849.42,168.628 1850.14,175.907 1850.86,183.145 1851.58,190.342 1853.02,204.612 1854.46,218.721 1858.86,260.953 1863.27,301.733 1867.67,341.112 1872.08,379.139 1876.48,415.858 1880.89,451.317 1885.29,485.556 1889.7,518.62 1894.1,550.547 1898.51,581.378 1902.92,611.149 1907.32,639.897 1911.73,667.658 1916.13,694.465 1920.54,720.351 1924.94,745.347 1931.15,779.136 1937.36,811.3 1943.57,841.917 1949.79,871.062 1956,898.805 1962.21,925.213 1968.42,950.351 1974.63,974.28 1980.84,997.059 1987.05,1018.74 1993.26,1039.38 1999.47,1059.03 2005.68,1077.73 2011.9,1095.53 2018.11,1112.48 2024.32,1128.61 2033.6,1151.29 2042.88,1172.35 2052.17,1191.92 2061.45,1210.1 2070.73,1226.98 2080.01,1242.67 2089.3,1257.25 2098.58,1270.78 2109.14,1285.02 2119.69,1298.1 2130.25,1310.14 2140.81,1321.21 2161.92,1340.75 2183.03,1357.28 2203.94,1371.13 2224.85,1382.86 2245.76,1392.8 2266.67,1401.22 2289.67,1409.01 2312.68,1415.49 2335.68,1420.9 2358.68,1425.4 2393.83,1430.87 2428.97,1435.01 2517.66,1441.51 2599.69,1444.55 2684.29,1446.18 2770.04,1447.01 2859.59,1447.45 2930.12,1447.63 3090.76,1447.81 3108.78,1447.81 "/>
<polyline clip-path="url(#clip533)" style="stroke:#e26f46; stroke-linecap:round; stroke-linejoin:round; stroke-width:8; stroke-opacity:1; fill:none" points="588.699,1447.87 614.715,1447.87 767.092,1447.86 837.978,1447.82 932.991,1447.64 972.246,1447.46 1011.5,1447.17 1048,1446.76 1084.51,1446.12 1107.42,1445.57 1130.33,1444.88 1153.24,1444.01 1176.16,1442.93 1196.71,1441.75 1217.26,1440.34 1237.81,1438.66 1258.37,1436.68 1270.13,1435.4 1281.89,1434 1293.65,1432.48 1305.42,1430.84 1317.18,1429.05 1328.94,1427.13 1340.7,1425.06 1352.47,1422.83 1370.05,1419.22 1387.63,1415.23 1405.22,1410.88 1422.8,1406.15 1434.05,1402.92 1445.3,1399.55 1456.54,1396.02 1467.79,1392.35 1479.03,1388.53 1490.28,1384.58 1501.52,1380.5 1512.77,1376.3 1533.3,1368.35 1553.83,1360.11 1574.35,1351.65 1594.88,1343.07 1618.24,1333.31 1641.61,1323.7 1653.29,1319.02 1664.97,1314.44 1676.65,1310.01 1688.33,1305.72 1697.6,1302.46 1706.86,1299.32 1716.12,1296.32 1725.38,1293.46 1734.64,1290.76 1743.9,1288.24 1753.16,1285.89 1762.42,1283.72 1773.92,1281.31 1785.43,1279.21 1796.93,1277.45 1808.44,1276.02 1819.94,1274.94 1831.45,1274.21 1842.95,1273.85 1854.46,1273.85 1863.27,1274.09 1872.08,1274.55 1880.89,1275.22 1889.7,1276.09 1898.51,1277.17 1907.32,1278.45 1916.13,1279.92 1924.94,1281.58 1937.36,1284.24 1949.79,1287.25 1962.21,1290.59 1974.63,1294.22 1987.05,1298.14 1999.47,1302.32 2011.9,1306.72 2024.32,1311.32 2042.88,1318.5 2061.45,1325.97 2080.01,1333.63 2098.58,1341.39 2119.69,1350.22 2140.81,1358.94 2161.92,1367.45 2183.03,1375.66 2193.49,1379.58 2203.94,1383.41 2214.4,1387.12 2224.85,1390.72 2235.3,1394.2 2245.76,1397.55 2256.21,1400.77 2266.67,1403.87 2278.17,1407.12 2289.67,1410.21 2301.17,1413.13 2312.68,1415.9 2324.18,1418.51 2335.68,1420.96 2347.18,1423.26 2358.68,1425.4 2376.25,1428.41 2393.83,1431.09 2411.4,1433.48 2428.97,1435.58 2451.14,1437.87 2473.31,1439.8 2495.49,1441.41 2517.66,1442.74 2538.17,1443.75 2558.68,1444.58 2579.18,1445.26 2599.69,1445.82 2641.99,1446.65 2684.29,1447.16 2727.17,1447.47 2770.04,1447.66 2859.59,1447.82 2930.12,1447.86 3090.76,1447.87 3108.78,1447.87 "/>
<polyline clip-path="url(#clip533)" style="stroke:#3da44d; stroke-linecap:round; stroke-linejoin:round; stroke-width:8; stroke-opacity:1; fill:none" points="588.699,1447.87 614.715,1447.87 767.092,1447.87 837.978,1447.87 932.991,1447.87 1011.5,1447.87 1084.51,1447.87 1130.33,1447.87 1176.16,1447.87 1217.26,1447.87 1258.37,1447.87 1281.89,1447.87 1305.42,1447.87 1317.18,1447.87 1328.94,1447.87 1331.88,1447.87 1334.82,1447.87 1337.76,1447.87 1340.7,1447.87 1341.44,1447.87 1342.17,1447.87 1342.91,1447.87 1343.64,1447.87 1344.38,1447.87 1345.11,1424.32 1345.85,1424.32 1346.58,1424.32 1348.05,1424.32 1349.52,1424.32 1350.99,1424.32 1352.47,1424.32 1356.86,1424.32 1361.26,1424.32 1365.65,1424.32 1370.05,1424.32 1378.84,1424.32 1387.63,1424.32 1405.22,1424.32 1422.8,1424.32 1512.77,1424.32 1594.88,1424.32 1688.33,1424.32 1762.42,1424.32 1854.46,1424.32 1924.94,1424.32 2024.32,1424.32 2098.58,1424.32 2140.81,1424.32 2183.03,1424.32 2224.85,1424.32 2266.67,1424.32 2289.67,1424.32 2312.68,1424.32 2324.18,1424.32 2335.68,1424.32 2338.56,1424.32 2341.43,1424.32 2344.31,1424.32 2347.18,1424.32 2348.62,1424.32 2350.06,1424.32 2350.78,1424.32 2351.49,1424.32 2352.21,1424.32 2352.93,1447.87 2353.65,1447.87 2354.37,1447.87 2355.09,1447.87 2355.81,1447.87 2357.25,1447.87 2358.68,1447.87 2363.08,1447.87 2367.47,1447.87 2371.86,1447.87 2376.25,1447.87 2385.04,1447.87 2393.83,1447.87 2411.4,1447.87 2428.97,1447.87 2517.66,1447.87 2599.69,1447.87 2684.29,1447.87 2770.04,1447.87 2859.59,1447.87 2930.12,1447.87 3090.76,1447.87 3108.78,1447.87 "/>
<circle clip-path="url(#clip533)" cx="1344.72" cy="1424.32" r="14.4" fill="#c271d2" fill-rule="evenodd" fill-opacity="1" stroke="#000000" stroke-opacity="1" stroke-width="3.2"/>
<circle clip-path="url(#clip533)" cx="2352.76" cy="1424.32" r="14.4" fill="#c271d2" fill-rule="evenodd" fill-opacity="1" stroke="#000000" stroke-opacity="1" stroke-width="3.2"/>
<path clip-path="url(#clip530)" d="M2089.01 376.265 L2319.15 376.265 L2319.15 168.905 L2089.01 168.905  Z" fill="#ffffff" fill-rule="evenodd" fill-opacity="1"/>
<polyline clip-path="url(#clip530)" style="stroke:#000000; stroke-linecap:round; stroke-linejoin:round; stroke-width:4; stroke-opacity:1; fill:none" points="2089.01,376.265 2319.15,376.265 2319.15,168.905 2089.01,168.905 2089.01,376.265 "/>
<polyline clip-path="url(#clip530)" style="stroke:#009af9; stroke-linecap:round; stroke-linejoin:round; stroke-width:8; stroke-opacity:1; fill:none" stroke-dasharray="4, 8" points="2100.21,220.745 2167.42,220.745 "/>
<path clip-path="url(#clip530)" d="M2200.63 207.421 Q2200.63 207.444 2200.49 208.288 L2195.15 229.579 Q2194.87 230.703 2194.08 231.827 Q2193.3 232.975 2192.06 233.959 Q2190.84 234.966 2188.97 235.575 Q2187.12 236.207 2184.99 236.207 Q2181.59 236.207 2180.09 235.481 Q2178.62 234.778 2178.62 233.279 Q2178.62 231.968 2179.44 231.218 Q2180.26 230.492 2181.19 230.492 Q2182.08 230.492 2182.55 231.007 Q2183.02 231.523 2183.02 232.178 Q2183.02 232.905 2182.53 233.631 Q2182.04 234.38 2181.05 234.661 Q2182.62 235.153 2184.89 235.153 Q2189.7 235.153 2191.76 230.07 Q2191.8 230 2191.8 229.977 L2193.4 223.629 L2193.33 223.582 Q2192.93 224.051 2192.3 224.59 Q2191.69 225.105 2190.37 225.737 Q2189.06 226.37 2187.77 226.37 Q2185.08 226.37 2183.23 224.308 Q2181.4 222.224 2181.4 218.781 Q2181.4 216.275 2182.41 213.768 Q2183.44 211.239 2185.03 209.388 Q2186.65 207.515 2188.71 206.343 Q2190.8 205.172 2192.81 205.172 Q2194.22 205.172 2195.41 206.016 Q2196.6 206.835 2197.26 208.194 Q2197.38 207.07 2198.01 206.601 Q2198.67 206.133 2199.23 206.133 Q2199.86 206.133 2200.24 206.484 Q2200.63 206.812 2200.63 207.421 M2196.7 210.349 Q2196.7 210.208 2196.6 209.833 Q2196.51 209.435 2196.23 208.803 Q2195.97 208.17 2195.57 207.608 Q2195.18 207.046 2194.45 206.648 Q2193.75 206.226 2192.86 206.226 Q2191.41 206.226 2189.95 207.444 Q2188.5 208.639 2187.49 210.489 Q2186.56 212.269 2185.67 215.712 Q2184.8 219.156 2184.8 220.912 Q2184.8 222.645 2185.55 223.981 Q2186.3 225.316 2187.92 225.316 Q2189.79 225.316 2191.8 223.582 Q2193.89 221.779 2194.24 220.233 L2196.56 211.075 Q2196.7 210.513 2196.7 210.349 Z" fill="#000000" fill-rule="nonzero" fill-opacity="1" /><polyline clip-path="url(#clip530)" style="stroke:#e26f46; stroke-linecap:round; stroke-linejoin:round; stroke-width:8; stroke-opacity:1; fill:none" points="2100.21,272.585 2167.42,272.585 "/>
<path clip-path="url(#clip530)" d="M2202.53 253.94 Q2202.53 255.228 2201.71 256.025 Q2200.91 256.821 2199.91 256.821 Q2199.18 256.821 2198.64 256.376 Q2198.13 255.931 2198.13 255.158 Q2198.13 254.362 2198.74 253.519 Q2199.35 252.675 2200.73 252.558 Q2199.81 251.692 2198.36 251.692 Q2197.64 251.692 2197.03 252.16 Q2196.44 252.605 2196.11 253.331 Q2195.76 254.081 2194.97 258.32 Q2194.71 259.702 2194.47 261.037 Q2194.24 262.372 2193.96 263.778 L2197.94 263.778 Q2198.46 263.778 2198.67 263.801 Q2198.88 263.824 2199.04 263.942 Q2199.23 264.059 2199.23 264.316 Q2199.23 264.972 2198.92 265.136 Q2198.64 265.277 2197.8 265.277 L2193.68 265.277 L2190.8 280.478 Q2190.73 280.923 2190.42 282.328 Q2190.14 283.71 2189.46 285.982 Q2188.78 288.278 2188.1 289.636 Q2187.73 290.409 2187.24 291.135 Q2186.77 291.885 2186.09 292.634 Q2185.41 293.384 2184.52 293.829 Q2183.63 294.297 2182.69 294.297 Q2181.1 294.297 2179.86 293.407 Q2178.62 292.517 2178.62 290.995 Q2178.62 289.706 2179.41 288.91 Q2180.23 288.114 2181.24 288.114 Q2181.97 288.114 2182.48 288.559 Q2183.02 289.004 2183.02 289.777 Q2183.02 290.104 2182.9 290.479 Q2182.79 290.854 2182.53 291.276 Q2182.27 291.721 2181.71 292.025 Q2181.15 292.33 2180.37 292.376 Q2181.29 293.243 2182.69 293.243 Q2183.14 293.243 2183.54 293.056 Q2183.93 292.892 2184.26 292.47 Q2184.61 292.049 2184.87 291.627 Q2185.13 291.229 2185.39 290.456 Q2185.64 289.706 2185.81 289.144 Q2185.97 288.582 2186.18 287.575 Q2186.42 286.568 2186.53 285.959 Q2186.65 285.373 2186.86 284.225 L2190.44 265.277 L2187.28 265.277 Q2186.72 265.277 2186.49 265.253 Q2186.28 265.23 2186.11 265.113 Q2185.95 264.972 2185.95 264.691 Q2185.95 264.246 2186.13 264.059 Q2186.35 263.848 2186.58 263.824 Q2186.81 263.778 2187.38 263.778 L2190.7 263.778 Q2191.83 257.852 2192.27 256.259 Q2192.79 254.573 2193.58 253.401 Q2194.38 252.207 2195.27 251.645 Q2196.16 251.083 2196.89 250.872 Q2197.64 250.638 2198.36 250.638 Q2200 250.638 2201.27 251.528 Q2202.53 252.394 2202.53 253.94 Z" fill="#000000" fill-rule="nonzero" fill-opacity="1" /><polyline clip-path="url(#clip530)" style="stroke:#3da44d; stroke-linecap:round; stroke-linejoin:round; stroke-width:8; stroke-opacity:1; fill:none" points="2100.21,324.425 2167.42,324.425 "/>
<path clip-path="url(#clip530)" d="M2184.32 325.736 Q2184.32 321.216 2187.22 318.007 Q2190.13 314.798 2194.3 314.798 Q2198.51 314.798 2200.69 317.538 Q2202.89 320.279 2202.89 324.214 Q2202.89 324.94 2202.71 325.08 Q2202.52 325.221 2201.7 325.221 L2188.3 325.221 Q2188.3 330.116 2189.75 332.412 Q2191.77 335.62 2195.16 335.62 Q2195.63 335.62 2196.19 335.527 Q2196.76 335.433 2197.9 335.035 Q2199.05 334.613 2200.06 333.512 Q2201.07 332.412 2201.65 330.678 Q2201.79 329.999 2202.26 330.022 Q2202.89 330.022 2202.89 330.585 Q2202.89 331.006 2202.42 331.966 Q2201.98 332.903 2201.11 334.028 Q2200.25 335.152 2198.56 335.995 Q2196.9 336.838 2194.88 336.838 Q2190.67 336.838 2187.48 333.653 Q2184.32 330.444 2184.32 325.736 M2188.35 324.214 L2199.73 324.214 Q2199.73 323.207 2199.54 322.082 Q2199.38 320.958 2198.86 319.412 Q2198.37 317.843 2197.2 316.859 Q2196.03 315.875 2194.3 315.875 Q2193.52 315.875 2192.68 316.203 Q2191.86 316.531 2190.85 317.327 Q2189.85 318.124 2189.14 319.927 Q2188.44 321.731 2188.35 324.214 Z" fill="#000000" fill-rule="nonzero" fill-opacity="1" /><path clip-path="url(#clip530)" d="M2204.32 336.3 L2204.32 334.824 Q2208.06 334.824 2210.45 331.943 Q2210.45 331.943 2214.95 326.228 L2210.2 320.044 Q2208.51 317.89 2207.76 317.515 Q2207.03 317.117 2204.55 317.117 L2204.55 315.618 Q2206.52 315.758 2209.09 315.758 Q2210.52 315.758 2214.29 315.618 L2214.29 317.117 Q2212.61 317.21 2212.61 318.311 Q2212.61 318.686 2213.03 319.178 L2216.78 324.026 L2219.75 320.279 Q2220.48 319.412 2220.48 318.592 Q2220.48 317.257 2219.07 317.117 L2219.07 315.618 Q2220.95 315.758 2223.69 315.758 Q2225.75 315.758 2227.62 315.618 L2227.62 317.117 Q2223.97 317.21 2221.91 319.599 Q2220.99 320.607 2217.5 325.033 L2223.92 333.325 Q2224.69 334.332 2225.56 334.59 Q2226.43 334.824 2228.49 334.824 L2228.49 336.3 Q2226.33 336.159 2223.87 336.159 Q2223.01 336.159 2218.7 336.3 L2218.7 334.824 Q2219.56 334.777 2219.99 334.402 Q2220.43 334.004 2220.43 333.606 Q2220.43 333.419 2219.42 332.037 L2215.77 327.235 Q2212.12 331.545 2211.65 332.552 Q2211.46 332.974 2211.46 333.325 Q2211.46 334.613 2212.84 334.824 L2212.84 336.3 Q2209.4 336.159 2208.3 336.159 Q2206.19 336.159 2204.32 336.3 Z" fill="#000000" fill-rule="nonzero" fill-opacity="1" /><path clip-path="url(#clip530)" d="M2226.08 344.123 Q2228.63 344.123 2229.22 343.795 Q2229.83 343.49 2229.83 341.968 L2229.83 319.506 Q2229.83 317.913 2229.22 317.515 Q2228.63 317.117 2226.08 317.117 L2226.08 315.618 L2232.99 315.102 L2232.99 318.264 Q2235.87 315.102 2239.71 315.102 Q2243.79 315.102 2246.76 318.264 Q2249.73 321.426 2249.73 325.947 Q2249.73 330.514 2246.57 333.676 Q2243.41 336.838 2239.03 336.838 Q2236.64 336.838 2235.03 335.62 Q2233.43 334.379 2233.13 333.466 L2233.13 333.911 L2233.13 341.968 Q2233.13 343.514 2233.74 343.818 Q2234.35 344.123 2236.88 344.123 L2236.88 345.598 Q2231.84 345.458 2231.46 345.458 Q2231 345.458 2226.08 345.598 L2226.08 344.123 M2233.13 330.842 Q2233.13 331.568 2233.22 331.826 Q2233.34 332.084 2233.81 332.857 Q2235.7 335.761 2238.8 335.761 Q2238.82 335.761 2238.84 335.761 Q2241.58 335.761 2243.67 332.974 Q2245.75 330.163 2245.75 325.947 Q2245.75 321.918 2243.86 319.108 Q2241.96 316.297 2239.33 316.297 Q2237.46 316.297 2235.82 317.304 Q2234.18 318.311 2233.13 320.138 L2233.13 330.842 Z" fill="#000000" fill-rule="nonzero" fill-opacity="1" /><path clip-path="url(#clip530)" d="M2258.13 324.307 Q2258.13 316.203 2261.15 309.668 Q2262.44 306.928 2264.24 304.633 Q2266.04 302.337 2267.24 301.33 Q2268.43 300.323 2268.76 300.323 Q2269.23 300.323 2269.25 300.791 Q2269.25 301.025 2268.62 301.611 Q2260.89 309.481 2260.91 324.307 Q2260.91 339.181 2268.43 346.746 Q2269.25 347.566 2269.25 347.823 Q2269.25 348.292 2268.76 348.292 Q2268.43 348.292 2267.29 347.332 Q2266.14 346.371 2264.36 344.17 Q2262.58 341.968 2261.29 339.274 Q2258.13 332.739 2258.13 324.307 Z" fill="#000000" fill-rule="nonzero" fill-opacity="1" /><path clip-path="url(#clip530)" d="M2284.11 303.532 L2277.2 331.264 Q2276.92 332.365 2276.92 333.559 Q2276.92 335.761 2278.38 335.761 Q2279.05 335.761 2279.62 335.316 Q2280.18 334.847 2280.6 333.934 Q2281.05 332.997 2281.33 332.107 Q2281.63 331.217 2282.01 329.835 Q2282.12 329.296 2282.24 329.132 Q2282.36 328.968 2282.69 328.968 Q2283.27 328.968 2283.27 329.437 Q2282.69 332.318 2281.82 334.145 Q2280.55 336.838 2278.21 336.838 Q2276.45 336.838 2275.14 335.62 Q2273.85 334.379 2273.85 332.412 Q2273.85 331.662 2274.09 330.772 L2280.13 306.787 L2280.3 305.85 Q2280.3 305.593 2280.2 305.452 Q2280.11 305.312 2279.55 305.171 Q2279.01 305.031 2277.93 305.031 Q2277.49 305.031 2277.27 305.007 Q2277.09 304.984 2276.9 304.867 Q2276.74 304.75 2276.74 304.492 Q2276.74 304.07 2276.9 303.836 Q2277.09 303.602 2277.23 303.555 Q2277.37 303.508 2277.65 303.485 Q2278.05 303.461 2279.38 303.344 Q2280.72 303.204 2281.87 303.11 Q2283.01 303.016 2283.51 303.016 Q2283.79 303.016 2283.93 303.157 Q2284.09 303.274 2284.11 303.415 L2284.11 303.532 Z" fill="#000000" fill-rule="nonzero" fill-opacity="1" /><path clip-path="url(#clip530)" d="M2289.54 347.823 Q2289.54 347.589 2290.15 347.004 Q2297.88 339.134 2297.88 324.307 Q2297.88 309.434 2290.45 301.916 Q2289.54 301.049 2289.54 300.791 Q2289.54 300.323 2290.01 300.323 Q2290.34 300.323 2291.48 301.283 Q2292.65 302.243 2294.41 304.445 Q2296.19 306.647 2297.5 309.34 Q2300.66 315.875 2300.66 324.307 Q2300.66 332.412 2297.64 338.946 Q2296.35 341.687 2294.55 343.982 Q2292.75 346.278 2291.55 347.285 Q2290.36 348.292 2290.01 348.292 Q2289.54 348.292 2289.54 347.823 Z" fill="#000000" fill-rule="nonzero" fill-opacity="1" /></svg>
