<?xml version="1.0" encoding="utf-8"?>
<svg xmlns="http://www.w3.org/2000/svg" xmlns:xlink="http://www.w3.org/1999/xlink" width="600" height="400" viewBox="0 0 2400 1600">
<defs>
  <clipPath id="clip080">
    <rect x="0" y="0" width="2400" height="1600"/>
  </clipPath>
</defs>
<path clip-path="url(#clip080)" d="M0 1600 L2400 1600 L2400 8.88178e-14 L0 8.88178e-14  Z" fill="#ffffff" fill-rule="evenodd" fill-opacity="1"/>
<defs>
  <clipPath id="clip081">
    <rect x="480" y="0" width="1681" height="1600"/>
  </clipPath>
</defs>
<path clip-path="url(#clip080)" d="M178.867 1486.45 L1149.05 1486.45 L1149.05 123.472 L178.867 123.472  Z" fill="#ffffff" fill-rule="evenodd" fill-opacity="1"/>
<defs>
  <clipPath id="clip082">
    <rect x="178" y="123" width="971" height="1364"/>
  </clipPath>
</defs>
<polyline clip-path="url(#clip082)" style="stroke:#000000; stroke-linecap:round; stroke-linejoin:round; stroke-width:2; stroke-opacity:0.1; fill:none" points="297.852,1486.45 297.852,123.472 "/>
<polyline clip-path="url(#clip082)" style="stroke:#000000; stroke-linecap:round; stroke-linejoin:round; stroke-width:2; stroke-opacity:0.1; fill:none" points="480.906,1486.45 480.906,123.472 "/>
<polyline clip-path="url(#clip082)" style="stroke:#000000; stroke-linecap:round; stroke-linejoin:round; stroke-width:2; stroke-opacity:0.1; fill:none" points="663.959,1486.45 663.959,123.472 "/>
<polyline clip-path="url(#clip082)" style="stroke:#000000; stroke-linecap:round; stroke-linejoin:round; stroke-width:2; stroke-opacity:0.1; fill:none" points="847.013,1486.45 847.013,123.472 "/>
<polyline clip-path="url(#clip082)" style="stroke:#000000; stroke-linecap:round; stroke-linejoin:round; stroke-width:2; stroke-opacity:0.1; fill:none" points="1030.07,1486.45 1030.07,123.472 "/>
<polyline clip-path="url(#clip082)" style="stroke:#000000; stroke-linecap:round; stroke-linejoin:round; stroke-width:2; stroke-opacity:0.1; fill:none" points="178.867,1396.64 1149.05,1396.64 "/>
<polyline clip-path="url(#clip082)" style="stroke:#000000; stroke-linecap:round; stroke-linejoin:round; stroke-width:2; stroke-opacity:0.1; fill:none" points="178.867,1191.7 1149.05,1191.7 "/>
<polyline clip-path="url(#clip082)" style="stroke:#000000; stroke-linecap:round; stroke-linejoin:round; stroke-width:2; stroke-opacity:0.1; fill:none" points="178.867,986.763 1149.05,986.763 "/>
<polyline clip-path="url(#clip082)" style="stroke:#000000; stroke-linecap:round; stroke-linejoin:round; stroke-width:2; stroke-opacity:0.1; fill:none" points="178.867,781.825 1149.05,781.825 "/>
<polyline clip-path="url(#clip082)" style="stroke:#000000; stroke-linecap:round; stroke-linejoin:round; stroke-width:2; stroke-opacity:0.1; fill:none" points="178.867,576.887 1149.05,576.887 "/>
<polyline clip-path="url(#clip082)" style="stroke:#000000; stroke-linecap:round; stroke-linejoin:round; stroke-width:2; stroke-opacity:0.1; fill:none" points="178.867,371.949 1149.05,371.949 "/>
<polyline clip-path="url(#clip082)" style="stroke:#000000; stroke-linecap:round; stroke-linejoin:round; stroke-width:2; stroke-opacity:0.1; fill:none" points="178.867,167.011 1149.05,167.011 "/>
<polyline clip-path="url(#clip080)" style="stroke:#000000; stroke-linecap:round; stroke-linejoin:round; stroke-width:4; stroke-opacity:1; fill:none" points="178.867,1486.45 1149.05,1486.45 "/>
<polyline clip-path="url(#clip080)" style="stroke:#000000; stroke-linecap:round; stroke-linejoin:round; stroke-width:4; stroke-opacity:1; fill:none" points="297.852,1486.45 297.852,1467.55 "/>
<polyline clip-path="url(#clip080)" style="stroke:#000000; stroke-linecap:round; stroke-linejoin:round; stroke-width:4; stroke-opacity:1; fill:none" points="480.906,1486.45 480.906,1467.55 "/>
<polyline clip-path="url(#clip080)" style="stroke:#000000; stroke-linecap:round; stroke-linejoin:round; stroke-width:4; stroke-opacity:1; fill:none" points="663.959,1486.45 663.959,1467.55 "/>
<polyline clip-path="url(#clip080)" style="stroke:#000000; stroke-linecap:round; stroke-linejoin:round; stroke-width:4; stroke-opacity:1; fill:none" points="847.013,1486.45 847.013,1467.55 "/>
<polyline clip-path="url(#clip080)" style="stroke:#000000; stroke-linecap:round; stroke-linejoin:round; stroke-width:4; stroke-opacity:1; fill:none" points="1030.07,1486.45 1030.07,1467.55 "/>
<path clip-path="url(#clip080)" d="M266.752 1532.02 L296.428 1532.02 L296.428 1535.95 L266.752 1535.95 L266.752 1532.02 Z" fill="#000000" fill-rule="nonzero" fill-opacity="1" /><path clip-path="url(#clip080)" d="M319.368 1518.36 L307.562 1536.81 L319.368 1536.81 L319.368 1518.36 M318.141 1514.29 L324.02 1514.29 L324.02 1536.81 L328.951 1536.81 L328.951 1540.7 L324.02 1540.7 L324.02 1548.85 L319.368 1548.85 L319.368 1540.7 L303.766 1540.7 L303.766 1536.19 L318.141 1514.29 Z" fill="#000000" fill-rule="nonzero" fill-opacity="1" /><path clip-path="url(#clip080)" d="M450.848 1532.02 L480.524 1532.02 L480.524 1535.95 L450.848 1535.95 L450.848 1532.02 Z" fill="#000000" fill-rule="nonzero" fill-opacity="1" /><path clip-path="url(#clip080)" d="M494.644 1544.91 L510.963 1544.91 L510.963 1548.85 L489.019 1548.85 L489.019 1544.91 Q491.681 1542.16 496.264 1537.53 Q500.871 1532.88 502.051 1531.53 Q504.297 1529.01 505.176 1527.27 Q506.079 1525.51 506.079 1523.82 Q506.079 1521.07 504.135 1519.33 Q502.213 1517.6 499.111 1517.6 Q496.912 1517.6 494.459 1518.36 Q492.028 1519.13 489.25 1520.68 L489.25 1515.95 Q492.074 1514.82 494.528 1514.24 Q496.982 1513.66 499.019 1513.66 Q504.389 1513.66 507.584 1516.35 Q510.778 1519.03 510.778 1523.52 Q510.778 1525.65 509.968 1527.57 Q509.181 1529.47 507.074 1532.07 Q506.496 1532.74 503.394 1535.95 Q500.292 1539.15 494.644 1544.91 Z" fill="#000000" fill-rule="nonzero" fill-opacity="1" /><path clip-path="url(#clip080)" d="M663.959 1517.37 Q660.348 1517.37 658.52 1520.93 Q656.714 1524.47 656.714 1531.6 Q656.714 1538.71 658.52 1542.27 Q660.348 1545.82 663.959 1545.82 Q667.594 1545.82 669.399 1542.27 Q671.228 1538.71 671.228 1531.6 Q671.228 1524.47 669.399 1520.93 Q667.594 1517.37 663.959 1517.37 M663.959 1513.66 Q669.77 1513.66 672.825 1518.27 Q675.904 1522.85 675.904 1531.6 Q675.904 1540.33 672.825 1544.94 Q669.77 1549.52 663.959 1549.52 Q658.149 1549.52 655.071 1544.94 Q652.015 1540.33 652.015 1531.6 Q652.015 1522.85 655.071 1518.27 Q658.149 1513.66 663.959 1513.66 Z" fill="#000000" fill-rule="nonzero" fill-opacity="1" /><path clip-path="url(#clip080)" d="M841.666 1544.91 L857.985 1544.91 L857.985 1548.85 L836.041 1548.85 L836.041 1544.91 Q838.703 1542.16 843.286 1537.53 Q847.893 1532.88 849.073 1531.53 Q851.319 1529.01 852.198 1527.27 Q853.101 1525.51 853.101 1523.82 Q853.101 1521.07 851.157 1519.33 Q849.236 1517.6 846.134 1517.6 Q843.935 1517.6 841.481 1518.36 Q839.05 1519.13 836.273 1520.68 L836.273 1515.95 Q839.097 1514.82 841.55 1514.24 Q844.004 1513.66 846.041 1513.66 Q851.411 1513.66 854.606 1516.35 Q857.8 1519.03 857.8 1523.52 Q857.8 1525.65 856.99 1527.57 Q856.203 1529.47 854.097 1532.07 Q853.518 1532.74 850.416 1535.95 Q847.314 1539.15 841.666 1544.91 Z" fill="#000000" fill-rule="nonzero" fill-opacity="1" /><path clip-path="url(#clip080)" d="M1033.08 1518.36 L1021.27 1536.81 L1033.08 1536.81 L1033.08 1518.36 M1031.85 1514.29 L1037.73 1514.29 L1037.73 1536.81 L1042.66 1536.81 L1042.66 1540.7 L1037.73 1540.7 L1037.73 1548.85 L1033.08 1548.85 L1033.08 1540.7 L1017.47 1540.7 L1017.47 1536.19 L1031.85 1514.29 Z" fill="#000000" fill-rule="nonzero" fill-opacity="1" /><polyline clip-path="url(#clip080)" style="stroke:#000000; stroke-linecap:round; stroke-linejoin:round; stroke-width:4; stroke-opacity:1; fill:none" points="178.867,1486.45 178.867,123.472 "/>
<polyline clip-path="url(#clip080)" style="stroke:#000000; stroke-linecap:round; stroke-linejoin:round; stroke-width:4; stroke-opacity:1; fill:none" points="178.867,1396.64 197.764,1396.64 "/>
<polyline clip-path="url(#clip080)" style="stroke:#000000; stroke-linecap:round; stroke-linejoin:round; stroke-width:4; stroke-opacity:1; fill:none" points="178.867,1191.7 197.764,1191.7 "/>
<polyline clip-path="url(#clip080)" style="stroke:#000000; stroke-linecap:round; stroke-linejoin:round; stroke-width:4; stroke-opacity:1; fill:none" points="178.867,986.763 197.764,986.763 "/>
<polyline clip-path="url(#clip080)" style="stroke:#000000; stroke-linecap:round; stroke-linejoin:round; stroke-width:4; stroke-opacity:1; fill:none" points="178.867,781.825 197.764,781.825 "/>
<polyline clip-path="url(#clip080)" style="stroke:#000000; stroke-linecap:round; stroke-linejoin:round; stroke-width:4; stroke-opacity:1; fill:none" points="178.867,576.887 197.764,576.887 "/>
<polyline clip-path="url(#clip080)" style="stroke:#000000; stroke-linecap:round; stroke-linejoin:round; stroke-width:4; stroke-opacity:1; fill:none" points="178.867,371.949 197.764,371.949 "/>
<polyline clip-path="url(#clip080)" style="stroke:#000000; stroke-linecap:round; stroke-linejoin:round; stroke-width:4; stroke-opacity:1; fill:none" points="178.867,167.011 197.764,167.011 "/>
<path clip-path="url(#clip080)" d="M52.5893 1397.09 L82.2651 1397.09 L82.2651 1401.03 L52.5893 1401.03 L52.5893 1397.09 Z" fill="#000000" fill-rule="nonzero" fill-opacity="1" /><path clip-path="url(#clip080)" d="M93.1678 1409.98 L100.807 1409.98 L100.807 1383.62 L92.4965 1385.28 L92.4965 1381.03 L100.76 1379.36 L105.436 1379.36 L105.436 1409.98 L113.075 1409.98 L113.075 1413.92 L93.1678 1413.92 L93.1678 1409.98 Z" fill="#000000" fill-rule="nonzero" fill-opacity="1" /><path clip-path="url(#clip080)" d="M126.547 1409.98 L142.867 1409.98 L142.867 1413.92 L120.922 1413.92 L120.922 1409.98 Q123.584 1407.23 128.168 1402.6 Q132.774 1397.95 133.955 1396.6 Q136.2 1394.08 137.08 1392.34 Q137.982 1390.59 137.982 1388.9 Q137.982 1386.14 136.038 1384.4 Q134.117 1382.67 131.015 1382.67 Q128.816 1382.67 126.362 1383.43 Q123.932 1384.2 121.154 1385.75 L121.154 1381.03 Q123.978 1379.89 126.432 1379.31 Q128.885 1378.73 130.922 1378.73 Q136.293 1378.73 139.487 1381.42 Q142.681 1384.1 142.681 1388.59 Q142.681 1390.72 141.871 1392.65 Q141.084 1394.54 138.978 1397.14 Q138.399 1397.81 135.297 1401.03 Q132.195 1404.22 126.547 1409.98 Z" fill="#000000" fill-rule="nonzero" fill-opacity="1" /><path clip-path="url(#clip080)" d="M50.9921 1192.15 L80.6679 1192.15 L80.6679 1196.09 L50.9921 1196.09 L50.9921 1192.15 Z" fill="#000000" fill-rule="nonzero" fill-opacity="1" /><path clip-path="url(#clip080)" d="M91.5706 1205.05 L99.2095 1205.05 L99.2095 1178.68 L90.8993 1180.35 L90.8993 1176.09 L99.1632 1174.42 L103.839 1174.42 L103.839 1205.05 L111.478 1205.05 L111.478 1208.98 L91.5706 1208.98 L91.5706 1205.05 Z" fill="#000000" fill-rule="nonzero" fill-opacity="1" /><path clip-path="url(#clip080)" d="M130.922 1177.5 Q127.311 1177.5 125.482 1181.06 Q123.677 1184.61 123.677 1191.74 Q123.677 1198.84 125.482 1202.41 Q127.311 1205.95 130.922 1205.95 Q134.556 1205.95 136.362 1202.41 Q138.191 1198.84 138.191 1191.74 Q138.191 1184.61 136.362 1181.06 Q134.556 1177.5 130.922 1177.5 M130.922 1173.8 Q136.732 1173.8 139.788 1178.4 Q142.867 1182.99 142.867 1191.74 Q142.867 1200.46 139.788 1205.07 Q136.732 1209.65 130.922 1209.65 Q125.112 1209.65 122.033 1205.07 Q118.978 1200.46 118.978 1191.74 Q118.978 1182.99 122.033 1178.4 Q125.112 1173.8 130.922 1173.8 Z" fill="#000000" fill-rule="nonzero" fill-opacity="1" /><path clip-path="url(#clip080)" d="M81.2466 987.214 L110.922 987.214 L110.922 991.149 L81.2466 991.149 L81.2466 987.214 Z" fill="#000000" fill-rule="nonzero" fill-opacity="1" /><path clip-path="url(#clip080)" d="M131.015 987.631 Q127.682 987.631 125.76 989.413 Q123.862 991.195 123.862 994.32 Q123.862 997.445 125.76 999.228 Q127.682 1001.01 131.015 1001.01 Q134.348 1001.01 136.269 999.228 Q138.191 997.422 138.191 994.32 Q138.191 991.195 136.269 989.413 Q134.371 987.631 131.015 987.631 M126.339 985.64 Q123.33 984.899 121.64 982.839 Q119.973 980.779 119.973 977.816 Q119.973 973.672 122.913 971.265 Q125.876 968.858 131.015 968.858 Q136.177 968.858 139.117 971.265 Q142.056 973.672 142.056 977.816 Q142.056 980.779 140.367 982.839 Q138.7 984.899 135.714 985.64 Q139.094 986.427 140.968 988.719 Q142.867 991.01 142.867 994.32 Q142.867 999.344 139.788 1002.03 Q136.732 1004.71 131.015 1004.71 Q125.297 1004.71 122.219 1002.03 Q119.163 999.344 119.163 994.32 Q119.163 991.01 121.061 988.719 Q122.959 986.427 126.339 985.64 M124.626 978.256 Q124.626 980.941 126.293 982.445 Q127.982 983.95 131.015 983.95 Q134.024 983.95 135.714 982.445 Q137.427 980.941 137.427 978.256 Q137.427 975.57 135.714 974.066 Q134.024 972.561 131.015 972.561 Q127.982 972.561 126.293 974.066 Q124.626 975.57 124.626 978.256 Z" fill="#000000" fill-rule="nonzero" fill-opacity="1" /><path clip-path="url(#clip080)" d="M80.992 782.276 L110.668 782.276 L110.668 786.211 L80.992 786.211 L80.992 782.276 Z" fill="#000000" fill-rule="nonzero" fill-opacity="1" /><path clip-path="url(#clip080)" d="M131.339 779.961 Q128.191 779.961 126.339 782.114 Q124.51 784.267 124.51 788.017 Q124.51 791.743 126.339 793.919 Q128.191 796.072 131.339 796.072 Q134.487 796.072 136.316 793.919 Q138.168 791.743 138.168 788.017 Q138.168 784.267 136.316 782.114 Q134.487 779.961 131.339 779.961 M140.621 765.308 L140.621 769.568 Q138.862 768.734 137.056 768.295 Q135.274 767.855 133.515 767.855 Q128.885 767.855 126.432 770.98 Q124.001 774.105 123.654 780.424 Q125.02 778.41 127.08 777.345 Q129.14 776.257 131.617 776.257 Q136.825 776.257 139.834 779.429 Q142.867 782.577 142.867 788.017 Q142.867 793.341 139.719 796.558 Q136.57 799.776 131.339 799.776 Q125.344 799.776 122.172 795.193 Q119.001 790.586 119.001 781.859 Q119.001 773.665 122.89 768.804 Q126.779 763.92 133.33 763.92 Q135.089 763.92 136.871 764.267 Q138.677 764.614 140.621 765.308 Z" fill="#000000" fill-rule="nonzero" fill-opacity="1" /><path clip-path="url(#clip080)" d="M80.6679 577.338 L110.344 577.338 L110.344 581.273 L80.6679 581.273 L80.6679 577.338 Z" fill="#000000" fill-rule="nonzero" fill-opacity="1" /><path clip-path="url(#clip080)" d="M133.283 563.681 L121.478 582.13 L133.283 582.13 L133.283 563.681 M132.057 559.607 L137.936 559.607 L137.936 582.13 L142.867 582.13 L142.867 586.018 L137.936 586.018 L137.936 594.167 L133.283 594.167 L133.283 586.018 L117.682 586.018 L117.682 581.505 L132.057 559.607 Z" fill="#000000" fill-rule="nonzero" fill-opacity="1" /><path clip-path="url(#clip080)" d="M82.7512 372.4 L112.427 372.4 L112.427 376.335 L82.7512 376.335 L82.7512 372.4 Z" fill="#000000" fill-rule="nonzero" fill-opacity="1" /><path clip-path="url(#clip080)" d="M126.547 385.293 L142.867 385.293 L142.867 389.229 L120.922 389.229 L120.922 385.293 Q123.584 382.539 128.168 377.909 Q132.774 373.256 133.955 371.914 Q136.2 369.391 137.08 367.655 Q137.982 365.895 137.982 364.206 Q137.982 361.451 136.038 359.715 Q134.117 357.979 131.015 357.979 Q128.816 357.979 126.362 358.743 Q123.932 359.506 121.154 361.057 L121.154 356.335 Q123.978 355.201 126.432 354.622 Q128.885 354.044 130.922 354.044 Q136.293 354.044 139.487 356.729 Q142.681 359.414 142.681 363.905 Q142.681 366.034 141.871 367.956 Q141.084 369.854 138.978 372.446 Q138.399 373.118 135.297 376.335 Q132.195 379.53 126.547 385.293 Z" fill="#000000" fill-rule="nonzero" fill-opacity="1" /><path clip-path="url(#clip080)" d="M130.922 152.809 Q127.311 152.809 125.482 156.374 Q123.677 159.916 123.677 167.045 Q123.677 174.152 125.482 177.716 Q127.311 181.258 130.922 181.258 Q134.556 181.258 136.362 177.716 Q138.191 174.152 138.191 167.045 Q138.191 159.916 136.362 156.374 Q134.556 152.809 130.922 152.809 M130.922 149.106 Q136.732 149.106 139.788 153.712 Q142.867 158.295 142.867 167.045 Q142.867 175.772 139.788 180.379 Q136.732 184.962 130.922 184.962 Q125.112 184.962 122.033 180.379 Q118.978 175.772 118.978 167.045 Q118.978 158.295 122.033 153.712 Q125.112 149.106 130.922 149.106 Z" fill="#000000" fill-rule="nonzero" fill-opacity="1" /><path clip-path="url(#clip080)" d="M561.775 16.7545 L561.775 25.383 Q557.643 21.5346 552.944 19.6307 Q548.286 17.7268 543.02 17.7268 Q532.649 17.7268 527.14 24.0867 Q521.631 30.4061 521.631 42.3968 Q521.631 54.3469 527.14 60.7069 Q532.649 67.0263 543.02 67.0263 Q548.286 67.0263 552.944 65.1223 Q557.643 63.2184 561.775 59.3701 L561.775 67.9175 Q557.481 70.8341 552.661 72.2924 Q547.881 73.7508 542.534 73.7508 Q528.801 73.7508 520.902 65.3654 Q513.002 56.9395 513.002 42.3968 Q513.002 27.8135 520.902 19.4281 Q528.801 11.0023 542.534 11.0023 Q547.962 11.0023 552.742 12.4606 Q557.562 13.8784 561.775 16.7545 Z" fill="#000000" fill-rule="nonzero" fill-opacity="1" /><path clip-path="url(#clip080)" d="M591.671 32.4315 Q585.676 32.4315 582.192 37.1306 Q578.708 41.7891 578.708 49.9314 Q578.708 58.0738 582.151 62.7728 Q585.635 67.4314 591.671 67.4314 Q597.626 67.4314 601.11 62.7323 Q604.593 58.0333 604.593 49.9314 Q604.593 41.8701 601.11 37.1711 Q597.626 32.4315 591.671 32.4315 M591.671 26.1121 Q601.393 26.1121 606.943 32.4315 Q612.493 38.7509 612.493 49.9314 Q612.493 61.0714 606.943 67.4314 Q601.393 73.7508 591.671 73.7508 Q581.908 73.7508 576.359 67.4314 Q570.849 61.0714 570.849 49.9314 Q570.849 38.7509 576.359 32.4315 Q581.908 26.1121 591.671 26.1121 Z" fill="#000000" fill-rule="nonzero" fill-opacity="1" /><path clip-path="url(#clip080)" d="M662.562 45.1919 L662.562 72.576 L655.108 72.576 L655.108 45.4349 Q655.108 38.994 652.597 35.7938 Q650.085 32.5936 645.062 32.5936 Q639.026 32.5936 635.542 36.4419 Q632.059 40.2903 632.059 46.9338 L632.059 72.576 L624.564 72.576 L624.564 27.2059 L632.059 27.2059 L632.059 34.2544 Q634.732 30.163 638.337 28.1376 Q641.983 26.1121 646.723 26.1121 Q654.541 26.1121 658.551 30.9732 Q662.562 35.7938 662.562 45.1919 Z" fill="#000000" fill-rule="nonzero" fill-opacity="1" /><path clip-path="url(#clip080)" d="M703.8 9.54393 L711.254 9.54393 L711.254 72.576 L703.8 72.576 L703.8 9.54393 Z" fill="#000000" fill-rule="nonzero" fill-opacity="1" /><path clip-path="url(#clip080)" d="M744.431 32.4315 Q738.435 32.4315 734.952 37.1306 Q731.468 41.7891 731.468 49.9314 Q731.468 58.0738 734.911 62.7728 Q738.395 67.4314 744.431 67.4314 Q750.385 67.4314 753.869 62.7323 Q757.353 58.0333 757.353 49.9314 Q757.353 41.8701 753.869 37.1711 Q750.385 32.4315 744.431 32.4315 M744.431 26.1121 Q754.153 26.1121 759.703 32.4315 Q765.252 38.7509 765.252 49.9314 Q765.252 61.0714 759.703 67.4314 Q754.153 73.7508 744.431 73.7508 Q734.668 73.7508 729.118 67.4314 Q723.609 61.0714 723.609 49.9314 Q723.609 38.7509 729.118 32.4315 Q734.668 26.1121 744.431 26.1121 Z" fill="#000000" fill-rule="nonzero" fill-opacity="1" /><path clip-path="url(#clip080)" d="M807.463 49.3643 Q807.463 41.2625 804.1 36.8065 Q800.779 32.3505 794.743 32.3505 Q788.748 32.3505 785.385 36.8065 Q782.064 41.2625 782.064 49.3643 Q782.064 57.4256 785.385 61.8816 Q788.748 66.3376 794.743 66.3376 Q800.779 66.3376 804.1 61.8816 Q807.463 57.4256 807.463 49.3643 M814.916 66.9452 Q814.916 78.5308 809.772 84.1616 Q804.627 89.8329 794.014 89.8329 Q790.084 89.8329 786.601 89.2252 Q783.117 88.6581 779.836 87.4428 L779.836 80.1917 Q783.117 81.9741 786.317 82.8248 Q789.517 83.6755 792.839 83.6755 Q800.171 83.6755 803.817 79.8271 Q807.463 76.0193 807.463 68.282 L807.463 64.5957 Q805.154 68.6061 801.548 70.5911 Q797.943 72.576 792.92 72.576 Q784.575 72.576 779.471 66.2161 Q774.367 59.8562 774.367 49.3643 Q774.367 38.832 779.471 32.472 Q784.575 26.1121 792.92 26.1121 Q797.943 26.1121 801.548 28.0971 Q805.154 30.082 807.463 34.0924 L807.463 27.2059 L814.916 27.2059 L814.916 66.9452 Z" fill="#000000" fill-rule="nonzero" fill-opacity="1" /><polyline clip-path="url(#clip082)" style="stroke:#009af9; stroke-linecap:round; stroke-linejoin:round; stroke-width:8; stroke-opacity:1; fill:none" stroke-dasharray="4, 8" points="206.325,628.121 215.774,617.542 271.115,555.585 296.86,526.762 331.368,488.128 359.882,456.205 386.398,426.52 419.684,389.255 449.541,355.828 483.717,317.566 509.264,288.965 541.938,252.385 571.761,218.997 588.731,199.998 605.702,180.998 612.429,173.467 619.155,165.937 620.837,164.054 622.518,162.171 624.2,162.047 625.882,162.235 629.245,162.612 632.608,162.988 649.322,164.859 666.035,166.731 678.835,168.164 691.635,169.597 700.658,170.607 709.682,171.617 718.705,172.627 727.728,173.637 731.099,174.015 734.47,174.392 736.156,174.581 737.842,175.806 739.528,178.636 741.213,181.467 747.956,192.79 754.699,204.114 770.035,229.868 785.371,255.622 800.559,281.128 815.747,306.634 849.166,362.755 874.693,405.622 906.905,459.717 936.698,509.749 967.424,561.349 998.569,613.651 1031.09,668.264 1056.71,711.285 1115.05,809.258 1121.59,820.25 "/>
<polyline clip-path="url(#clip082)" style="stroke:#e26f46; stroke-linecap:round; stroke-linejoin:round; stroke-width:8; stroke-opacity:1; fill:none" points="206.325,1447.87 211.049,1421.56 215.774,1395.53 229.609,1320.85 243.445,1248.51 257.28,1178.52 271.115,1110.86 283.988,1050.02 296.86,991.207 305.487,952.925 314.114,915.552 322.741,879.09 331.368,843.539 345.625,786.781 359.882,732.509 373.14,684.273 386.398,638.187 403.041,583.376 419.684,531.954 434.612,488.71 449.541,448.193 458.085,426.23 466.629,405.161 475.173,384.985 483.717,365.701 496.491,338.538 509.264,313.37 525.601,284.088 541.938,258.072 556.85,237.176 571.761,219 580.246,209.871 588.731,201.622 597.217,194.255 605.702,187.768 619.155,179.288 632.608,173.022 649.322,168.321 666.035,167.037 678.835,168.364 691.635,171.695 700.658,175.248 709.682,179.796 718.705,185.34 727.728,191.88 741.213,203.512 754.699,217.367 770.035,235.827 785.371,257.164 800.559,281.131 815.747,307.919 832.457,340.65 849.166,376.797 861.929,406.708 874.693,438.611 890.799,481.714 906.905,527.99 921.801,573.614 936.698,621.954 952.061,674.65 967.424,730.234 982.996,789.521 998.569,851.774 1014.83,919.943 1031.09,991.347 1043.9,1049.87 1056.71,1110.4 1071.29,1181.77 1085.88,1255.75 1100.46,1332.32 1115.05,1411.49 1116.68,1420.54 1118.32,1429.62 1119.96,1438.73 1121.59,1447.87 "/>
<polyline clip-path="url(#clip082)" style="stroke:#3da44d; stroke-linecap:round; stroke-linejoin:round; stroke-width:8; stroke-opacity:1; fill:none" points="572.556,218.183 572.821,218.049 573.086,217.916 573.352,217.782 573.617,217.648 573.882,217.515 574.943,216.98 576.003,216.446 578.125,215.377 580.246,214.309 584.489,212.171 588.731,210.034 597.217,205.759 605.702,201.484 619.155,194.706 632.608,187.929 640.965,183.719 649.322,179.508 657.679,175.298 666.035,171.088 667.635,170.282 669.235,169.476 670.035,169.073 670.835,168.67 671.635,168.267 672.435,167.864 672.835,167.662 673.235,167.633 673.635,167.992 674.035,168.35 674.835,169.066 675.635,169.783 677.235,171.216 678.835,172.649 685.235,178.381 691.635,184.113 709.682,200.276 727.728,216.439 741.213,228.517 754.699,240.595 770.035,254.331 785.371,268.066 789.168,271.467 792.965,274.868 794.863,276.568 796.762,278.269 797.711,279.119 798.66,279.969 799.135,280.394 799.61,280.819 800.084,281.244 800.559,281.669 800.796,281.882 801.034,282.094 "/>
<circle clip-path="url(#clip082)" cx="572.432" cy="218.245" r="14.4" fill="#c271d2" fill-rule="evenodd" fill-opacity="1" stroke="#000000" stroke-opacity="1" stroke-width="3.2"/>
<circle clip-path="url(#clip082)" cx="673.112" cy="167.523" r="14.4" fill="#c271d2" fill-rule="evenodd" fill-opacity="1" stroke="#000000" stroke-opacity="1" stroke-width="3.2"/>
<circle clip-path="url(#clip082)" cx="801.25" cy="282.288" r="14.4" fill="#c271d2" fill-rule="evenodd" fill-opacity="1" stroke="#000000" stroke-opacity="1" stroke-width="3.2"/>
<path clip-path="url(#clip080)" d="M969.982 376.265 L1116.71 376.265 L1116.71 168.905 L969.982 168.905  Z" fill="#ffffff" fill-rule="evenodd" fill-opacity="1"/>
<polyline clip-path="url(#clip080)" style="stroke:#000000; stroke-linecap:round; stroke-linejoin:round; stroke-width:4; stroke-opacity:1; fill:none" points="969.982,376.265 1116.71,376.265 1116.71,168.905 969.982,168.905 969.982,376.265 "/>
<polyline clip-path="url(#clip080)" style="stroke:#009af9; stroke-linecap:round; stroke-linejoin:round; stroke-width:8; stroke-opacity:1; fill:none" stroke-dasharray="4, 8" points="980.762,220.745 1045.44,220.745 "/>
<path clip-path="url(#clip080)" d="M1080.88 217.002 Q1080.28 220.024 1079.46 221.757 Q1078.12 224.404 1075.9 224.404 Q1074.35 224.404 1073.18 223.537 Q1072.03 222.647 1071.63 221.172 Q1071.19 221.757 1070.79 222.155 Q1070.41 222.553 1069.69 223.162 Q1068.96 223.748 1067.98 224.076 Q1067.02 224.404 1065.92 224.404 Q1065.07 224.404 1064.3 224.24 Q1063.53 224.099 1062.71 223.701 Q1061.91 223.28 1061.33 222.647 Q1060.76 222.015 1060.39 220.984 Q1060.02 219.954 1060.02 218.642 Q1060.02 217.002 1060.65 214.777 Q1061.3 212.552 1062.8 208.57 Q1063.62 206.462 1063.62 205.291 Q1063.62 204.752 1063.51 204.401 Q1063.39 204.05 1063.15 203.933 Q1062.94 203.792 1062.8 203.769 Q1062.66 203.722 1062.43 203.722 Q1060.98 203.722 1059.71 205.197 Q1058.45 206.673 1057.58 209.671 Q1057.39 210.257 1057.27 210.397 Q1057.16 210.538 1056.81 210.538 Q1056.22 210.514 1056.22 210.046 Q1056.22 209.858 1056.43 209.132 Q1056.64 208.383 1057.13 207.282 Q1057.65 206.158 1058.35 205.151 Q1059.06 204.12 1060.16 203.394 Q1061.28 202.668 1062.57 202.668 Q1064.33 202.668 1065.4 203.816 Q1066.5 204.94 1066.5 206.603 Q1066.5 207.633 1065.68 209.624 Q1063.08 216.534 1063.08 219.415 Q1063.08 223.326 1066.06 223.326 Q1067.04 223.326 1067.96 222.928 Q1068.89 222.53 1069.5 221.968 Q1070.11 221.406 1070.58 220.797 Q1071.07 220.188 1071.28 219.79 Q1071.52 219.391 1071.54 219.298 L1075.12 204.87 Q1075.26 204.307 1075.52 203.933 Q1075.8 203.534 1076.13 203.394 Q1076.46 203.253 1076.65 203.23 Q1076.83 203.183 1077 203.183 Q1077.58 203.183 1077.98 203.534 Q1078.4 203.886 1078.4 204.495 Q1078.4 204.612 1078.26 205.174 Q1078.14 205.713 1077.96 206.509 Q1077.77 207.282 1077.68 207.704 Q1076.93 210.655 1076.86 210.959 L1075.52 216.136 Q1075.45 216.44 1075.22 217.424 Q1075.01 218.408 1074.89 218.923 Q1074.77 219.415 1074.65 220.094 Q1074.56 220.75 1074.56 221.125 Q1074.56 222.296 1074.91 222.811 Q1075.26 223.326 1076.04 223.326 Q1076.76 223.326 1077.32 222.835 Q1077.91 222.319 1078.36 221.335 Q1078.8 220.328 1079.06 219.509 Q1079.32 218.689 1079.64 217.401 Q1079.76 216.838 1079.85 216.698 Q1079.97 216.534 1080.3 216.534 Q1080.88 216.534 1080.88 217.002 Z" fill="#000000" fill-rule="nonzero" fill-opacity="1" /><path clip-path="url(#clip080)" d="M1100.96 225.514 Q1100.96 226.448 1100.39 227.006 Q1099.83 227.563 1099.13 227.563 Q1098.5 227.563 1098.17 227.202 Q1097.85 226.842 1097.85 226.383 Q1097.85 226.186 1097.93 225.94 Q1098.01 225.678 1098.19 225.366 Q1098.39 225.055 1098.8 224.825 Q1099.21 224.595 1099.76 224.563 Q1099.65 224.448 1099.62 224.431 Q1099.37 224.235 1098.91 224.169 Q1098.85 224.136 1098.62 224.136 Q1097.49 224.136 1096.34 224.973 Q1095.21 225.792 1093.81 227.35 Q1092.06 229.17 1090.93 229.842 Q1095.9 230.498 1095.9 233.367 Q1095.9 233.843 1095.76 234.416 Q1095.5 235.499 1095.5 236.286 Q1095.5 237.86 1096.57 237.86 Q1097.6 237.86 1098.26 236.81 Q1098.93 235.761 1099.49 233.711 Q1099.57 233.334 1099.65 233.22 Q1099.73 233.105 1099.96 233.105 Q1100.37 233.105 1100.37 233.433 Q1099.99 235.351 1099.16 236.827 Q1098.09 238.614 1096.5 238.614 Q1095.17 238.614 1094.29 237.696 Q1093.42 236.761 1093.42 235.285 Q1093.42 234.925 1093.55 234.105 Q1093.65 233.777 1093.65 233.4 Q1093.65 232.629 1093.22 232.055 Q1092.8 231.465 1092.11 231.17 Q1091.42 230.875 1090.85 230.744 Q1090.29 230.596 1089.75 230.547 Q1088.11 237.482 1087.88 237.909 Q1087.73 238.204 1087.4 238.401 Q1087.07 238.614 1086.73 238.614 Q1086.4 238.614 1086.07 238.384 Q1085.76 238.171 1085.76 237.663 Q1085.76 237.401 1085.89 236.925 L1090.76 217.578 L1090.86 216.922 Q1090.86 216.726 1090.78 216.627 Q1090.71 216.512 1090.32 216.43 Q1089.94 216.348 1089.19 216.348 Q1088.88 216.348 1088.73 216.332 Q1088.6 216.316 1088.48 216.234 Q1088.37 216.135 1088.37 215.939 Q1088.37 215.66 1088.48 215.512 Q1088.62 215.348 1088.71 215.315 Q1088.81 215.283 1089.01 215.266 Q1089.29 215.25 1090.22 215.168 Q1091.16 215.07 1091.96 215.004 Q1092.76 214.938 1093.11 214.938 Q1093.3 214.938 1093.4 215.037 Q1093.52 215.119 1093.53 215.217 L1093.55 215.299 L1090.06 229.465 Q1091.5 228.891 1093.78 226.35 Q1096.42 223.399 1098.68 223.399 Q1099.75 223.399 1100.36 224.054 Q1100.96 224.694 1100.96 225.514 Z" fill="#000000" fill-rule="nonzero" fill-opacity="1" /><polyline clip-path="url(#clip080)" style="stroke:#e26f46; stroke-linecap:round; stroke-linejoin:round; stroke-width:8; stroke-opacity:1; fill:none" points="980.762,272.585 1045.44,272.585 "/>
<path clip-path="url(#clip080)" d="M1079.76 281.933 Q1079.76 282.12 1079.55 282.846 Q1079.34 283.572 1078.82 284.697 Q1078.33 285.821 1077.65 286.852 Q1076.97 287.859 1075.85 288.608 Q1074.75 289.334 1073.48 289.334 Q1071.8 289.334 1070.67 288.21 Q1069.55 287.086 1069.55 285.399 Q1069.55 285.165 1069.57 284.931 Q1069.6 284.697 1069.62 284.556 Q1069.64 284.392 1069.71 284.135 Q1069.81 283.853 1069.83 283.736 Q1069.88 283.619 1069.99 283.268 Q1070.13 282.893 1070.18 282.753 Q1073.16 275.164 1073.16 272.002 Q1073.16 268.652 1070.56 268.652 Q1068.24 268.652 1065.94 270.339 Q1064.89 271.182 1063.88 272.681 Q1062.87 274.18 1062.69 274.742 Q1062.47 275.96 1062.17 276.897 Q1062.03 277.553 1061.35 280.106 L1060.3 284.439 L1059.38 288.069 Q1059.2 288.585 1058.68 288.96 Q1058.17 289.334 1057.6 289.334 Q1057.13 289.334 1056.67 289.006 Q1056.22 288.702 1056.22 287.976 Q1056.22 287.601 1056.41 286.922 L1063.36 259.283 L1063.51 258.346 Q1063.51 258.065 1063.39 257.925 Q1063.29 257.761 1062.73 257.644 Q1062.19 257.527 1061.12 257.527 Q1060.67 257.527 1060.46 257.503 Q1060.27 257.48 1060.11 257.363 Q1059.95 257.222 1059.95 256.941 Q1059.95 256.543 1060.11 256.332 Q1060.3 256.098 1060.44 256.051 Q1060.58 256.004 1060.86 255.981 Q1061.26 255.957 1062.59 255.84 Q1063.93 255.7 1065.07 255.606 Q1066.22 255.512 1066.71 255.512 Q1067 255.512 1067.14 255.653 Q1067.3 255.77 1067.32 255.91 L1067.35 256.028 L1063.6 271.276 Q1066.57 267.598 1070.7 267.598 Q1073.37 267.598 1074.79 268.98 Q1076.22 270.339 1076.22 272.728 Q1076.22 275.468 1073.3 283.268 Q1072.43 285.446 1072.43 286.688 Q1072.43 287.507 1072.69 287.882 Q1072.97 288.257 1073.58 288.257 Q1074.51 288.257 1075.33 287.718 Q1076.18 287.156 1076.76 286.243 Q1077.35 285.306 1077.75 284.369 Q1078.17 283.408 1078.47 282.331 Q1078.66 281.745 1078.75 281.605 Q1078.87 281.464 1079.2 281.464 Q1079.76 281.464 1079.76 281.933 Z" fill="#000000" fill-rule="nonzero" fill-opacity="1" /><polyline clip-path="url(#clip080)" style="stroke:#3da44d; stroke-linecap:round; stroke-linejoin:round; stroke-width:8; stroke-opacity:1; fill:none" points="980.762,324.425 1045.44,324.425 "/>
<path clip-path="url(#clip080)" d="M1066.48 300.761 L1059.57 328.494 Q1059.29 329.595 1059.29 330.789 Q1059.29 332.991 1060.74 332.991 Q1061.42 332.991 1061.98 332.546 Q1062.55 332.077 1062.97 331.164 Q1063.41 330.227 1063.69 329.337 Q1064 328.447 1064.37 327.065 Q1064.49 326.526 1064.61 326.362 Q1064.72 326.198 1065.05 326.198 Q1065.64 326.198 1065.64 326.667 Q1065.05 329.548 1064.18 331.375 Q1062.92 334.068 1060.58 334.068 Q1058.82 334.068 1057.51 332.85 Q1056.22 331.609 1056.22 329.641 Q1056.22 328.892 1056.46 328.002 L1062.5 304.017 L1062.66 303.08 Q1062.66 302.823 1062.57 302.682 Q1062.47 302.542 1061.91 302.401 Q1061.37 302.261 1060.3 302.261 Q1059.85 302.261 1059.64 302.237 Q1059.45 302.214 1059.27 302.097 Q1059.1 301.979 1059.1 301.722 Q1059.1 301.3 1059.27 301.066 Q1059.45 300.832 1059.59 300.785 Q1059.73 300.738 1060.02 300.715 Q1060.41 300.691 1061.75 300.574 Q1063.08 300.434 1064.23 300.34 Q1065.38 300.246 1065.87 300.246 Q1066.15 300.246 1066.29 300.387 Q1066.46 300.504 1066.48 300.644 L1066.48 300.761 Z" fill="#000000" fill-rule="nonzero" fill-opacity="1" /><path clip-path="url(#clip080)" d="M1086.7 335.178 Q1086.7 336.113 1086.12 336.67 Q1085.56 337.227 1084.86 337.227 Q1084.24 337.227 1083.91 336.867 Q1083.58 336.506 1083.58 336.047 Q1083.58 335.85 1083.66 335.604 Q1083.74 335.342 1083.93 335.03 Q1084.12 334.719 1084.53 334.489 Q1084.94 334.26 1085.5 334.227 Q1085.38 334.112 1085.35 334.096 Q1085.11 333.899 1084.65 333.834 Q1084.58 333.801 1084.35 333.801 Q1083.22 333.801 1082.07 334.637 Q1080.94 335.457 1079.55 337.014 Q1077.79 338.834 1076.66 339.506 Q1081.63 340.162 1081.63 343.032 Q1081.63 343.507 1081.5 344.081 Q1081.24 345.163 1081.24 345.95 Q1081.24 347.524 1082.3 347.524 Q1083.33 347.524 1083.99 346.475 Q1084.66 345.425 1085.22 343.376 Q1085.3 342.999 1085.38 342.884 Q1085.47 342.769 1085.7 342.769 Q1086.11 342.769 1086.11 343.097 Q1085.73 345.015 1084.89 346.491 Q1083.83 348.278 1082.24 348.278 Q1080.91 348.278 1080.02 347.36 Q1079.15 346.425 1079.15 344.95 Q1079.15 344.589 1079.29 343.769 Q1079.38 343.441 1079.38 343.064 Q1079.38 342.294 1078.96 341.72 Q1078.53 341.13 1077.84 340.835 Q1077.15 340.539 1076.58 340.408 Q1076.02 340.261 1075.48 340.211 Q1073.84 347.147 1073.61 347.573 Q1073.46 347.868 1073.14 348.065 Q1072.81 348.278 1072.46 348.278 Q1072.14 348.278 1071.81 348.049 Q1071.5 347.835 1071.5 347.327 Q1071.5 347.065 1071.63 346.589 L1076.5 327.242 L1076.6 326.587 Q1076.6 326.39 1076.51 326.292 Q1076.45 326.177 1076.06 326.095 Q1075.68 326.013 1074.92 326.013 Q1074.61 326.013 1074.46 325.996 Q1074.33 325.98 1074.22 325.898 Q1074.1 325.8 1074.1 325.603 Q1074.1 325.324 1074.22 325.177 Q1074.35 325.013 1074.45 324.98 Q1074.55 324.947 1074.74 324.931 Q1075.02 324.914 1075.96 324.832 Q1076.89 324.734 1077.69 324.668 Q1078.5 324.603 1078.84 324.603 Q1079.04 324.603 1079.14 324.701 Q1079.25 324.783 1079.27 324.881 L1079.29 324.963 L1075.79 339.129 Q1077.24 338.556 1079.51 336.014 Q1082.15 333.063 1084.42 333.063 Q1085.48 333.063 1086.09 333.719 Q1086.7 334.358 1086.7 335.178 Z" fill="#000000" fill-rule="nonzero" fill-opacity="1" /><path clip-path="url(#clip080)" d="M1382.57 1486.45 L2352.76 1486.45 L2352.76 123.472 L1382.57 123.472  Z" fill="#ffffff" fill-rule="evenodd" fill-opacity="1"/>
<defs>
  <clipPath id="clip083">
    <rect x="1382" y="123" width="971" height="1364"/>
  </clipPath>
</defs>
<polyline clip-path="url(#clip083)" style="stroke:#000000; stroke-linecap:round; stroke-linejoin:round; stroke-width:2; stroke-opacity:0.1; fill:none" points="1382.57,1486.45 1382.57,123.472 "/>
<polyline clip-path="url(#clip083)" style="stroke:#000000; stroke-linecap:round; stroke-linejoin:round; stroke-width:2; stroke-opacity:0.1; fill:none" points="1625.12,1486.45 1625.12,123.472 "/>
<polyline clip-path="url(#clip083)" style="stroke:#000000; stroke-linecap:round; stroke-linejoin:round; stroke-width:2; stroke-opacity:0.1; fill:none" points="1867.66,1486.45 1867.66,123.472 "/>
<polyline clip-path="url(#clip083)" style="stroke:#000000; stroke-linecap:round; stroke-linejoin:round; stroke-width:2; stroke-opacity:0.1; fill:none" points="2110.21,1486.45 2110.21,123.472 "/>
<polyline clip-path="url(#clip083)" style="stroke:#000000; stroke-linecap:round; stroke-linejoin:round; stroke-width:2; stroke-opacity:0.1; fill:none" points="2352.76,1486.45 2352.76,123.472 "/>
<polyline clip-path="url(#clip083)" style="stroke:#000000; stroke-linecap:round; stroke-linejoin:round; stroke-width:2; stroke-opacity:0.1; fill:none" points="1382.57,1447.87 2352.76,1447.87 "/>
<polyline clip-path="url(#clip083)" style="stroke:#000000; stroke-linecap:round; stroke-linejoin:round; stroke-width:2; stroke-opacity:0.1; fill:none" points="1382.57,1142.04 2352.76,1142.04 "/>
<polyline clip-path="url(#clip083)" style="stroke:#000000; stroke-linecap:round; stroke-linejoin:round; stroke-width:2; stroke-opacity:0.1; fill:none" points="1382.57,836.204 2352.76,836.204 "/>
<polyline clip-path="url(#clip083)" style="stroke:#000000; stroke-linecap:round; stroke-linejoin:round; stroke-width:2; stroke-opacity:0.1; fill:none" points="1382.57,530.369 2352.76,530.369 "/>
<polyline clip-path="url(#clip083)" style="stroke:#000000; stroke-linecap:round; stroke-linejoin:round; stroke-width:2; stroke-opacity:0.1; fill:none" points="1382.57,224.535 2352.76,224.535 "/>
<polyline clip-path="url(#clip080)" style="stroke:#000000; stroke-linecap:round; stroke-linejoin:round; stroke-width:4; stroke-opacity:1; fill:none" points="1382.57,1486.45 2352.76,1486.45 "/>
<polyline clip-path="url(#clip080)" style="stroke:#000000; stroke-linecap:round; stroke-linejoin:round; stroke-width:4; stroke-opacity:1; fill:none" points="1382.57,1486.45 1382.57,1467.55 "/>
<polyline clip-path="url(#clip080)" style="stroke:#000000; stroke-linecap:round; stroke-linejoin:round; stroke-width:4; stroke-opacity:1; fill:none" points="1625.12,1486.45 1625.12,1467.55 "/>
<polyline clip-path="url(#clip080)" style="stroke:#000000; stroke-linecap:round; stroke-linejoin:round; stroke-width:4; stroke-opacity:1; fill:none" points="1867.66,1486.45 1867.66,1467.55 "/>
<polyline clip-path="url(#clip080)" style="stroke:#000000; stroke-linecap:round; stroke-linejoin:round; stroke-width:4; stroke-opacity:1; fill:none" points="2110.21,1486.45 2110.21,1467.55 "/>
<polyline clip-path="url(#clip080)" style="stroke:#000000; stroke-linecap:round; stroke-linejoin:round; stroke-width:4; stroke-opacity:1; fill:none" points="2352.76,1486.45 2352.76,1467.55 "/>
<path clip-path="url(#clip080)" d="M1352.51 1532.02 L1382.19 1532.02 L1382.19 1535.95 L1352.51 1535.95 L1352.51 1532.02 Z" fill="#000000" fill-rule="nonzero" fill-opacity="1" /><path clip-path="url(#clip080)" d="M1396.31 1544.91 L1412.63 1544.91 L1412.63 1548.85 L1390.68 1548.85 L1390.68 1544.91 Q1393.35 1542.16 1397.93 1537.53 Q1402.54 1532.88 1403.72 1531.53 Q1405.96 1529.01 1406.84 1527.27 Q1407.74 1525.51 1407.74 1523.82 Q1407.74 1521.07 1405.8 1519.33 Q1403.88 1517.6 1400.78 1517.6 Q1398.58 1517.6 1396.12 1518.36 Q1393.69 1519.13 1390.92 1520.68 L1390.92 1515.95 Q1393.74 1514.82 1396.19 1514.24 Q1398.65 1513.66 1400.68 1513.66 Q1406.05 1513.66 1409.25 1516.35 Q1412.44 1519.03 1412.44 1523.52 Q1412.44 1525.65 1411.63 1527.57 Q1410.85 1529.47 1408.74 1532.07 Q1408.16 1532.74 1405.06 1535.95 Q1401.96 1539.15 1396.31 1544.91 Z" fill="#000000" fill-rule="nonzero" fill-opacity="1" /><path clip-path="url(#clip080)" d="M1594.87 1532.02 L1624.55 1532.02 L1624.55 1535.95 L1594.87 1535.95 L1594.87 1532.02 Z" fill="#000000" fill-rule="nonzero" fill-opacity="1" /><path clip-path="url(#clip080)" d="M1635.45 1544.91 L1643.09 1544.91 L1643.09 1518.55 L1634.78 1520.21 L1634.78 1515.95 L1643.04 1514.29 L1647.72 1514.29 L1647.72 1544.91 L1655.36 1544.91 L1655.36 1548.85 L1635.45 1548.85 L1635.45 1544.91 Z" fill="#000000" fill-rule="nonzero" fill-opacity="1" /><path clip-path="url(#clip080)" d="M1867.66 1517.37 Q1864.05 1517.37 1862.22 1520.93 Q1860.42 1524.47 1860.42 1531.6 Q1860.42 1538.71 1862.22 1542.27 Q1864.05 1545.82 1867.66 1545.82 Q1871.3 1545.82 1873.1 1542.27 Q1874.93 1538.71 1874.93 1531.6 Q1874.93 1524.47 1873.1 1520.93 Q1871.3 1517.37 1867.66 1517.37 M1867.66 1513.66 Q1873.47 1513.66 1876.53 1518.27 Q1879.61 1522.85 1879.61 1531.6 Q1879.61 1540.33 1876.53 1544.94 Q1873.47 1549.52 1867.66 1549.52 Q1861.85 1549.52 1858.77 1544.94 Q1855.72 1540.33 1855.72 1531.6 Q1855.72 1522.85 1858.77 1518.27 Q1861.85 1513.66 1867.66 1513.66 Z" fill="#000000" fill-rule="nonzero" fill-opacity="1" /><path clip-path="url(#clip080)" d="M2100.59 1544.91 L2108.23 1544.91 L2108.23 1518.55 L2099.92 1520.21 L2099.92 1515.95 L2108.18 1514.29 L2112.86 1514.29 L2112.86 1544.91 L2120.5 1544.91 L2120.5 1548.85 L2100.59 1548.85 L2100.59 1544.91 Z" fill="#000000" fill-rule="nonzero" fill-opacity="1" /><path clip-path="url(#clip080)" d="M2347.41 1544.91 L2363.73 1544.91 L2363.73 1548.85 L2341.78 1548.85 L2341.78 1544.91 Q2344.45 1542.16 2349.03 1537.53 Q2353.64 1532.88 2354.82 1531.53 Q2357.06 1529.01 2357.94 1527.27 Q2358.84 1525.51 2358.84 1523.82 Q2358.84 1521.07 2356.9 1519.33 Q2354.98 1517.6 2351.88 1517.6 Q2349.68 1517.6 2347.22 1518.36 Q2344.79 1519.13 2342.02 1520.68 L2342.02 1515.95 Q2344.84 1514.82 2347.29 1514.24 Q2349.75 1513.66 2351.78 1513.66 Q2357.15 1513.66 2360.35 1516.35 Q2363.54 1519.03 2363.54 1523.52 Q2363.54 1525.65 2362.73 1527.57 Q2361.95 1529.47 2359.84 1532.07 Q2359.26 1532.74 2356.16 1535.95 Q2353.06 1539.15 2347.41 1544.91 Z" fill="#000000" fill-rule="nonzero" fill-opacity="1" /><polyline clip-path="url(#clip080)" style="stroke:#000000; stroke-linecap:round; stroke-linejoin:round; stroke-width:4; stroke-opacity:1; fill:none" points="1382.57,1486.45 1382.57,123.472 "/>
<polyline clip-path="url(#clip080)" style="stroke:#000000; stroke-linecap:round; stroke-linejoin:round; stroke-width:4; stroke-opacity:1; fill:none" points="1382.57,1447.87 1401.47,1447.87 "/>
<polyline clip-path="url(#clip080)" style="stroke:#000000; stroke-linecap:round; stroke-linejoin:round; stroke-width:4; stroke-opacity:1; fill:none" points="1382.57,1142.04 1401.47,1142.04 "/>
<polyline clip-path="url(#clip080)" style="stroke:#000000; stroke-linecap:round; stroke-linejoin:round; stroke-width:4; stroke-opacity:1; fill:none" points="1382.57,836.204 1401.47,836.204 "/>
<polyline clip-path="url(#clip080)" style="stroke:#000000; stroke-linecap:round; stroke-linejoin:round; stroke-width:4; stroke-opacity:1; fill:none" points="1382.57,530.369 1401.47,530.369 "/>
<polyline clip-path="url(#clip080)" style="stroke:#000000; stroke-linecap:round; stroke-linejoin:round; stroke-width:4; stroke-opacity:1; fill:none" points="1382.57,224.535 1401.47,224.535 "/>
<path clip-path="url(#clip080)" d="M1259.23 1433.67 Q1255.62 1433.67 1253.79 1437.24 Q1251.99 1440.78 1251.99 1447.91 Q1251.99 1455.01 1253.79 1458.58 Q1255.62 1462.12 1259.23 1462.12 Q1262.87 1462.12 1264.67 1458.58 Q1266.5 1455.01 1266.5 1447.91 Q1266.5 1440.78 1264.67 1437.24 Q1262.87 1433.67 1259.23 1433.67 M1259.23 1429.97 Q1265.04 1429.97 1268.1 1434.57 Q1271.18 1439.16 1271.18 1447.91 Q1271.18 1456.63 1268.1 1461.24 Q1265.04 1465.82 1259.23 1465.82 Q1253.42 1465.82 1250.34 1461.24 Q1247.29 1456.63 1247.29 1447.91 Q1247.29 1439.16 1250.34 1434.57 Q1253.42 1429.97 1259.23 1429.97 Z" fill="#000000" fill-rule="nonzero" fill-opacity="1" /><path clip-path="url(#clip080)" d="M1279.39 1459.27 L1284.28 1459.27 L1284.28 1465.15 L1279.39 1465.15 L1279.39 1459.27 Z" fill="#000000" fill-rule="nonzero" fill-opacity="1" /><path clip-path="url(#clip080)" d="M1304.46 1433.67 Q1300.85 1433.67 1299.02 1437.24 Q1297.22 1440.78 1297.22 1447.91 Q1297.22 1455.01 1299.02 1458.58 Q1300.85 1462.12 1304.46 1462.12 Q1308.1 1462.12 1309.9 1458.58 Q1311.73 1455.01 1311.73 1447.91 Q1311.73 1440.78 1309.9 1437.24 Q1308.1 1433.67 1304.46 1433.67 M1304.46 1429.97 Q1310.27 1429.97 1313.33 1434.57 Q1316.41 1439.16 1316.41 1447.91 Q1316.41 1456.63 1313.33 1461.24 Q1310.27 1465.82 1304.46 1465.82 Q1298.65 1465.82 1295.58 1461.24 Q1292.52 1456.63 1292.52 1447.91 Q1292.52 1439.16 1295.58 1434.57 Q1298.65 1429.97 1304.46 1429.97 Z" fill="#000000" fill-rule="nonzero" fill-opacity="1" /><path clip-path="url(#clip080)" d="M1334.63 1433.67 Q1331.01 1433.67 1329.19 1437.24 Q1327.38 1440.78 1327.38 1447.91 Q1327.38 1455.01 1329.19 1458.58 Q1331.01 1462.12 1334.63 1462.12 Q1338.26 1462.12 1340.07 1458.58 Q1341.89 1455.01 1341.89 1447.91 Q1341.89 1440.78 1340.07 1437.24 Q1338.26 1433.67 1334.63 1433.67 M1334.63 1429.97 Q1340.44 1429.97 1343.49 1434.57 Q1346.57 1439.16 1346.57 1447.91 Q1346.57 1456.63 1343.49 1461.24 Q1340.44 1465.82 1334.63 1465.82 Q1328.82 1465.82 1325.74 1461.24 Q1322.68 1456.63 1322.68 1447.91 Q1322.68 1439.16 1325.74 1434.57 Q1328.82 1429.97 1334.63 1429.97 Z" fill="#000000" fill-rule="nonzero" fill-opacity="1" /><path clip-path="url(#clip080)" d="M1260.23 1127.84 Q1256.62 1127.84 1254.79 1131.4 Q1252.98 1134.94 1252.98 1142.07 Q1252.98 1149.18 1254.79 1152.74 Q1256.62 1156.29 1260.23 1156.29 Q1263.86 1156.29 1265.67 1152.74 Q1267.5 1149.18 1267.5 1142.07 Q1267.5 1134.94 1265.67 1131.4 Q1263.86 1127.84 1260.23 1127.84 M1260.23 1124.13 Q1266.04 1124.13 1269.09 1128.74 Q1272.17 1133.32 1272.17 1142.07 Q1272.17 1150.8 1269.09 1155.41 Q1266.04 1159.99 1260.23 1159.99 Q1254.42 1159.99 1251.34 1155.41 Q1248.28 1150.8 1248.28 1142.07 Q1248.28 1133.32 1251.34 1128.74 Q1254.42 1124.13 1260.23 1124.13 Z" fill="#000000" fill-rule="nonzero" fill-opacity="1" /><path clip-path="url(#clip080)" d="M1280.39 1153.44 L1285.27 1153.44 L1285.27 1159.32 L1280.39 1159.32 L1280.39 1153.44 Z" fill="#000000" fill-rule="nonzero" fill-opacity="1" /><path clip-path="url(#clip080)" d="M1299.49 1155.38 L1315.81 1155.38 L1315.81 1159.32 L1293.86 1159.32 L1293.86 1155.38 Q1296.52 1152.63 1301.11 1148 Q1305.71 1143.35 1306.89 1142 Q1309.14 1139.48 1310.02 1137.74 Q1310.92 1135.99 1310.92 1134.3 Q1310.92 1131.54 1308.98 1129.8 Q1307.06 1128.07 1303.95 1128.07 Q1301.76 1128.07 1299.3 1128.83 Q1296.87 1129.6 1294.09 1131.15 L1294.09 1126.43 Q1296.92 1125.29 1299.37 1124.71 Q1301.83 1124.13 1303.86 1124.13 Q1309.23 1124.13 1312.43 1126.82 Q1315.62 1129.5 1315.62 1133.99 Q1315.62 1136.12 1314.81 1138.05 Q1314.02 1139.94 1311.92 1142.54 Q1311.34 1143.21 1308.24 1146.43 Q1305.14 1149.62 1299.49 1155.38 Z" fill="#000000" fill-rule="nonzero" fill-opacity="1" /><path clip-path="url(#clip080)" d="M1325.67 1124.76 L1344.02 1124.76 L1344.02 1128.69 L1329.95 1128.69 L1329.95 1137.17 Q1330.97 1136.82 1331.99 1136.66 Q1333.01 1136.47 1334.02 1136.47 Q1339.81 1136.47 1343.19 1139.64 Q1346.57 1142.81 1346.57 1148.23 Q1346.57 1153.81 1343.1 1156.91 Q1339.63 1159.99 1333.31 1159.99 Q1331.13 1159.99 1328.86 1159.62 Q1326.62 1159.25 1324.21 1158.51 L1324.21 1153.81 Q1326.29 1154.94 1328.51 1155.5 Q1330.74 1156.05 1333.21 1156.05 Q1337.22 1156.05 1339.56 1153.95 Q1341.89 1151.84 1341.89 1148.23 Q1341.89 1144.62 1339.56 1142.51 Q1337.22 1140.41 1333.21 1140.41 Q1331.34 1140.41 1329.46 1140.82 Q1327.61 1141.24 1325.67 1142.12 L1325.67 1124.76 Z" fill="#000000" fill-rule="nonzero" fill-opacity="1" /><path clip-path="url(#clip080)" d="M1259.23 822.003 Q1255.62 822.003 1253.79 825.568 Q1251.99 829.109 1251.99 836.239 Q1251.99 843.345 1253.79 846.91 Q1255.62 850.452 1259.23 850.452 Q1262.87 850.452 1264.67 846.91 Q1266.5 843.345 1266.5 836.239 Q1266.5 829.109 1264.67 825.568 Q1262.87 822.003 1259.23 822.003 M1259.23 818.299 Q1265.04 818.299 1268.1 822.905 Q1271.18 827.489 1271.18 836.239 Q1271.18 844.966 1268.1 849.572 Q1265.04 854.155 1259.23 854.155 Q1253.42 854.155 1250.34 849.572 Q1247.29 844.966 1247.29 836.239 Q1247.29 827.489 1250.34 822.905 Q1253.42 818.299 1259.23 818.299 Z" fill="#000000" fill-rule="nonzero" fill-opacity="1" /><path clip-path="url(#clip080)" d="M1279.39 847.604 L1284.28 847.604 L1284.28 853.484 L1279.39 853.484 L1279.39 847.604 Z" fill="#000000" fill-rule="nonzero" fill-opacity="1" /><path clip-path="url(#clip080)" d="M1294.51 818.924 L1312.87 818.924 L1312.87 822.859 L1298.79 822.859 L1298.79 831.331 Q1299.81 830.984 1300.83 830.822 Q1301.85 830.637 1302.87 830.637 Q1308.65 830.637 1312.03 833.808 Q1315.41 836.979 1315.41 842.396 Q1315.41 847.975 1311.94 851.077 Q1308.47 854.155 1302.15 854.155 Q1299.97 854.155 1297.7 853.785 Q1295.46 853.415 1293.05 852.674 L1293.05 847.975 Q1295.14 849.109 1297.36 849.665 Q1299.58 850.22 1302.06 850.22 Q1306.06 850.22 1308.4 848.114 Q1310.74 846.007 1310.74 842.396 Q1310.74 838.785 1308.4 836.679 Q1306.06 834.572 1302.06 834.572 Q1300.18 834.572 1298.31 834.989 Q1296.45 835.405 1294.51 836.285 L1294.51 818.924 Z" fill="#000000" fill-rule="nonzero" fill-opacity="1" /><path clip-path="url(#clip080)" d="M1334.63 822.003 Q1331.01 822.003 1329.19 825.568 Q1327.38 829.109 1327.38 836.239 Q1327.38 843.345 1329.19 846.91 Q1331.01 850.452 1334.63 850.452 Q1338.26 850.452 1340.07 846.91 Q1341.89 843.345 1341.89 836.239 Q1341.89 829.109 1340.07 825.568 Q1338.26 822.003 1334.63 822.003 M1334.63 818.299 Q1340.44 818.299 1343.49 822.905 Q1346.57 827.489 1346.57 836.239 Q1346.57 844.966 1343.49 849.572 Q1340.44 854.155 1334.63 854.155 Q1328.82 854.155 1325.74 849.572 Q1322.68 844.966 1322.68 836.239 Q1322.68 827.489 1325.74 822.905 Q1328.82 818.299 1334.63 818.299 Z" fill="#000000" fill-rule="nonzero" fill-opacity="1" /><path clip-path="url(#clip080)" d="M1260.23 516.168 Q1256.62 516.168 1254.79 519.733 Q1252.98 523.275 1252.98 530.404 Q1252.98 537.511 1254.79 541.075 Q1256.62 544.617 1260.23 544.617 Q1263.86 544.617 1265.67 541.075 Q1267.5 537.511 1267.5 530.404 Q1267.5 523.275 1265.67 519.733 Q1263.86 516.168 1260.23 516.168 M1260.23 512.465 Q1266.04 512.465 1269.09 517.071 Q1272.17 521.654 1272.17 530.404 Q1272.17 539.131 1269.09 543.737 Q1266.04 548.321 1260.23 548.321 Q1254.42 548.321 1251.34 543.737 Q1248.28 539.131 1248.28 530.404 Q1248.28 521.654 1251.34 517.071 Q1254.42 512.465 1260.23 512.465 Z" fill="#000000" fill-rule="nonzero" fill-opacity="1" /><path clip-path="url(#clip080)" d="M1280.39 541.77 L1285.27 541.77 L1285.27 547.649 L1280.39 547.649 L1280.39 541.77 Z" fill="#000000" fill-rule="nonzero" fill-opacity="1" /><path clip-path="url(#clip080)" d="M1294.28 513.089 L1316.5 513.089 L1316.5 515.08 L1303.95 547.649 L1299.07 547.649 L1310.88 517.025 L1294.28 517.025 L1294.28 513.089 Z" fill="#000000" fill-rule="nonzero" fill-opacity="1" /><path clip-path="url(#clip080)" d="M1325.67 513.089 L1344.02 513.089 L1344.02 517.025 L1329.95 517.025 L1329.95 525.497 Q1330.97 525.15 1331.99 524.988 Q1333.01 524.802 1334.02 524.802 Q1339.81 524.802 1343.19 527.974 Q1346.57 531.145 1346.57 536.562 Q1346.57 542.14 1343.1 545.242 Q1339.63 548.321 1333.31 548.321 Q1331.13 548.321 1328.86 547.95 Q1326.62 547.58 1324.21 546.839 L1324.21 542.14 Q1326.29 543.275 1328.51 543.83 Q1330.74 544.386 1333.21 544.386 Q1337.22 544.386 1339.56 542.279 Q1341.89 540.173 1341.89 536.562 Q1341.89 532.951 1339.56 530.844 Q1337.22 528.738 1333.21 528.738 Q1331.34 528.738 1329.46 529.154 Q1327.61 529.571 1325.67 530.451 L1325.67 513.089 Z" fill="#000000" fill-rule="nonzero" fill-opacity="1" /><path clip-path="url(#clip080)" d="M1250.04 237.88 L1257.68 237.88 L1257.68 211.514 L1249.37 213.181 L1249.37 208.922 L1257.64 207.255 L1262.31 207.255 L1262.31 237.88 L1269.95 237.88 L1269.95 241.815 L1250.04 241.815 L1250.04 237.88 Z" fill="#000000" fill-rule="nonzero" fill-opacity="1" /><path clip-path="url(#clip080)" d="M1279.39 235.935 L1284.28 235.935 L1284.28 241.815 L1279.39 241.815 L1279.39 235.935 Z" fill="#000000" fill-rule="nonzero" fill-opacity="1" /><path clip-path="url(#clip080)" d="M1304.46 210.334 Q1300.85 210.334 1299.02 213.898 Q1297.22 217.44 1297.22 224.57 Q1297.22 231.676 1299.02 235.241 Q1300.85 238.783 1304.46 238.783 Q1308.1 238.783 1309.9 235.241 Q1311.73 231.676 1311.73 224.57 Q1311.73 217.44 1309.9 213.898 Q1308.1 210.334 1304.46 210.334 M1304.46 206.63 Q1310.27 206.63 1313.33 211.236 Q1316.41 215.82 1316.41 224.57 Q1316.41 233.296 1313.33 237.903 Q1310.27 242.486 1304.46 242.486 Q1298.65 242.486 1295.58 237.903 Q1292.52 233.296 1292.52 224.57 Q1292.52 215.82 1295.58 211.236 Q1298.65 206.63 1304.46 206.63 Z" fill="#000000" fill-rule="nonzero" fill-opacity="1" /><path clip-path="url(#clip080)" d="M1334.63 210.334 Q1331.01 210.334 1329.19 213.898 Q1327.38 217.44 1327.38 224.57 Q1327.38 231.676 1329.19 235.241 Q1331.01 238.783 1334.63 238.783 Q1338.26 238.783 1340.07 235.241 Q1341.89 231.676 1341.89 224.57 Q1341.89 217.44 1340.07 213.898 Q1338.26 210.334 1334.63 210.334 M1334.63 206.63 Q1340.44 206.63 1343.49 211.236 Q1346.57 215.82 1346.57 224.57 Q1346.57 233.296 1343.49 237.903 Q1340.44 242.486 1334.63 242.486 Q1328.82 242.486 1325.74 237.903 Q1322.68 233.296 1322.68 224.57 Q1322.68 215.82 1325.74 211.236 Q1328.82 206.63 1334.63 206.63 Z" fill="#000000" fill-rule="nonzero" fill-opacity="1" /><path clip-path="url(#clip080)" d="M1772.53 14.0809 L1772.53 22.0612 Q1767.87 19.8332 1763.74 18.7395 Q1759.61 17.6457 1755.76 17.6457 Q1749.07 17.6457 1745.43 20.2383 Q1741.82 22.8309 1741.82 27.611 Q1741.82 31.6214 1744.21 33.6873 Q1746.64 35.7128 1753.37 36.9686 L1758.31 37.9813 Q1767.46 39.7232 1771.8 44.1387 Q1776.17 48.5136 1776.17 55.8863 Q1776.17 64.6767 1770.26 69.2137 Q1764.39 73.7508 1753 73.7508 Q1748.71 73.7508 1743.85 72.7785 Q1739.03 71.8063 1733.84 69.9024 L1733.84 61.4765 Q1738.82 64.2716 1743.6 65.6895 Q1748.38 67.1073 1753 67.1073 Q1760.01 67.1073 1763.82 64.3527 Q1767.63 61.598 1767.63 56.4939 Q1767.63 52.0379 1764.87 49.5264 Q1762.16 47.0148 1755.92 45.759 L1750.94 44.7868 Q1741.78 42.9639 1737.69 39.075 Q1733.6 35.1862 1733.6 28.2591 Q1733.6 20.2383 1739.23 15.6203 Q1744.9 11.0023 1754.83 11.0023 Q1759.08 11.0023 1763.49 11.7719 Q1767.91 12.5416 1772.53 14.0809 Z" fill="#000000" fill-rule="nonzero" fill-opacity="1" /><path clip-path="url(#clip080)" d="M1788.61 27.2059 L1796.06 27.2059 L1796.06 72.576 L1788.61 72.576 L1788.61 27.2059 M1788.61 9.54393 L1796.06 9.54393 L1796.06 18.9825 L1788.61 18.9825 L1788.61 9.54393 Z" fill="#000000" fill-rule="nonzero" fill-opacity="1" /><path clip-path="url(#clip080)" d="M1849.37 45.1919 L1849.37 72.576 L1841.92 72.576 L1841.92 45.4349 Q1841.92 38.994 1839.41 35.7938 Q1836.9 32.5936 1831.87 32.5936 Q1825.84 32.5936 1822.35 36.4419 Q1818.87 40.2903 1818.87 46.9338 L1818.87 72.576 L1811.38 72.576 L1811.38 27.2059 L1818.87 27.2059 L1818.87 34.2544 Q1821.54 30.163 1825.15 28.1376 Q1828.79 26.1121 1833.53 26.1121 Q1841.35 26.1121 1845.36 30.9732 Q1849.37 35.7938 1849.37 45.1919 Z" fill="#000000" fill-rule="nonzero" fill-opacity="1" /><path clip-path="url(#clip080)" d="M1890.61 9.54393 L1898.07 9.54393 L1898.07 72.576 L1890.61 72.576 L1890.61 9.54393 Z" fill="#000000" fill-rule="nonzero" fill-opacity="1" /><path clip-path="url(#clip080)" d="M1931.24 32.4315 Q1925.25 32.4315 1921.76 37.1306 Q1918.28 41.7891 1918.28 49.9314 Q1918.28 58.0738 1921.72 62.7728 Q1925.21 67.4314 1931.24 67.4314 Q1937.2 67.4314 1940.68 62.7323 Q1944.16 58.0333 1944.16 49.9314 Q1944.16 41.8701 1940.68 37.1711 Q1937.2 32.4315 1931.24 32.4315 M1931.24 26.1121 Q1940.96 26.1121 1946.51 32.4315 Q1952.06 38.7509 1952.06 49.9314 Q1952.06 61.0714 1946.51 67.4314 Q1940.96 73.7508 1931.24 73.7508 Q1921.48 73.7508 1915.93 67.4314 Q1910.42 61.0714 1910.42 49.9314 Q1910.42 38.7509 1915.93 32.4315 Q1921.48 26.1121 1931.24 26.1121 Z" fill="#000000" fill-rule="nonzero" fill-opacity="1" /><path clip-path="url(#clip080)" d="M1994.27 49.3643 Q1994.27 41.2625 1990.91 36.8065 Q1987.59 32.3505 1981.55 32.3505 Q1975.56 32.3505 1972.2 36.8065 Q1968.87 41.2625 1968.87 49.3643 Q1968.87 57.4256 1972.2 61.8816 Q1975.56 66.3376 1981.55 66.3376 Q1987.59 66.3376 1990.91 61.8816 Q1994.27 57.4256 1994.27 49.3643 M2001.73 66.9452 Q2001.73 78.5308 1996.58 84.1616 Q1991.44 89.8329 1980.83 89.8329 Q1976.9 89.8329 1973.41 89.2252 Q1969.93 88.6581 1966.65 87.4428 L1966.65 80.1917 Q1969.93 81.9741 1973.13 82.8248 Q1976.33 83.6755 1979.65 83.6755 Q1986.98 83.6755 1990.63 79.8271 Q1994.27 76.0193 1994.27 68.282 L1994.27 64.5957 Q1991.97 68.6061 1988.36 70.5911 Q1984.75 72.576 1979.73 72.576 Q1971.39 72.576 1966.28 66.2161 Q1961.18 59.8562 1961.18 49.3643 Q1961.18 38.832 1966.28 32.472 Q1971.39 26.1121 1979.73 26.1121 Q1984.75 26.1121 1988.36 28.0971 Q1991.97 30.082 1994.27 34.0924 L1994.27 27.2059 L2001.73 27.2059 L2001.73 66.9452 Z" fill="#000000" fill-rule="nonzero" fill-opacity="1" /><polyline clip-path="url(#clip083)" style="stroke:#009af9; stroke-linecap:round; stroke-linejoin:round; stroke-width:8; stroke-opacity:1; fill:none" stroke-dasharray="4, 8" points="654.931,1434.28 667.451,1433.56 679.971,1432.81 753.299,1427.49 826.627,1420.29 860.739,1416.12 894.851,1411.33 940.574,1403.75 986.297,1394.59 1024.08,1385.61 1061.86,1375.12 1096.99,1363.78 1132.12,1350.67 1154.18,1341.42 1176.23,1331.29 1198.28,1320.19 1220.33,1308.04 1240.11,1296.16 1259.89,1283.27 1279.67,1269.28 1299.45,1254.11 1322.1,1235.15 1344.74,1214.33 1367.38,1191.48 1390.02,1166.39 1406.95,1146.05 1423.87,1124.24 1440.8,1100.85 1457.72,1075.77 1479.37,1041.03 1501.01,1003.05 1511.84,982.753 1522.66,961.527 1533.48,939.333 1544.31,916.126 1554.19,894.021 1564.06,870.998 1573.94,847.017 1583.82,822.04 1593.7,796.025 1603.58,768.928 1613.46,740.704 1623.34,711.307 1634.58,676.361 1645.82,639.756 1657.07,601.414 1668.31,561.254 1679.55,519.188 1690.79,475.126 1702.04,428.973 1713.28,380.631 1722.19,340.685 1731.11,299.243 1740.02,256.25 1748.93,211.648 1751.16,200.239 1753.39,188.725 1755.62,177.105 1757.84,165.377 1758.96,162.047 1760.07,162.637 1761.19,163.228 1762.3,163.818 1764.53,164.997 1766.76,166.175 1775.67,170.876 1784.58,175.56 1806.73,187.123 1828.87,198.582 1851.02,209.937 1873.16,221.189 1907.08,238.224 1941,255.023 1964.92,266.725 1988.83,278.312 2012.74,289.785 2036.65,301.146 2045.58,305.362 2054.52,309.563 2056.75,310.611 2058.98,311.658 2060.1,312.181 2061.22,312.703 2062.33,317.374 2063.45,325.155 2065.69,340.557 2067.92,355.747 2070.15,370.729 2072.39,385.505 2081.32,442.611 2090.25,496.648 2099.19,547.78 2108.12,596.163 2118.28,648.033 2128.44,696.744 2138.6,742.489 2148.76,785.447 2158.92,825.79 2169.08,863.675 2179.24,899.253 2189.4,932.665 2199.47,963.748 2209.53,992.956 2219.59,1020.4 2229.65,1046.19 2239.71,1070.42 2249.78,1093.2 2259.84,1114.59 2269.9,1134.7 2280.97,1155.42 2292.04,1174.78 2303.11,1192.85 2314.18,1209.72 2325.25,1225.48 2336.32,1240.2 2347.39,1253.94 2358.46,1266.77 2375.37,1284.76 2392.28,1300.95 2409.19,1315.54 2426.11,1328.68 2447.45,1343.42 2468.79,1356.33 2490.13,1367.65 2511.47,1377.57 2550.94,1392.8 2590.42,1404.73 2631.13,1414.33 2671.84,1421.8 2713.11,1427.67 2754.38,1432.22 2840.56,1438.69 2908.45,1441.84 3063.05,1445.55 3080.4,1445.79 "/>
<polyline clip-path="url(#clip083)" style="stroke:#e26f46; stroke-linecap:round; stroke-linejoin:round; stroke-width:8; stroke-opacity:1; fill:none" points="654.931,1447.87 679.971,1447.87 826.627,1447.75 894.851,1447.48 986.297,1446.21 1024.08,1444.98 1061.86,1442.97 1096.99,1440.02 1132.12,1435.55 1154.18,1431.71 1176.23,1426.84 1198.28,1420.73 1220.33,1413.13 1240.11,1404.83 1259.89,1394.9 1279.67,1383.1 1299.45,1369.2 1310.78,1360.21 1322.1,1350.4 1333.42,1339.73 1344.74,1328.15 1356.06,1315.61 1367.38,1302.09 1378.7,1287.53 1390.02,1271.9 1406.95,1246.47 1423.87,1218.49 1440.8,1187.88 1457.72,1154.63 1468.54,1131.97 1479.37,1108.24 1490.19,1083.45 1501.01,1057.63 1511.84,1030.81 1522.66,1003.04 1533.48,974.36 1544.31,944.834 1564.06,888.987 1583.82,831.045 1603.58,771.599 1623.34,711.327 1645.82,642.695 1668.31,575.201 1679.55,542.284 1690.79,510.143 1702.04,478.946 1713.28,448.859 1722.19,425.908 1731.11,403.84 1740.02,382.735 1748.93,362.669 1757.84,343.718 1766.76,325.951 1775.67,309.437 1784.58,294.238 1795.65,277.277 1806.73,262.539 1817.8,250.115 1828.87,240.08 1839.95,232.497 1851.02,227.412 1862.09,224.858 1873.16,224.85 1881.64,226.566 1890.12,229.769 1898.6,234.449 1907.08,240.587 1915.56,248.161 1924.04,257.145 1932.52,267.504 1941,279.203 1952.96,297.891 1964.92,319.026 1976.87,342.461 1988.83,368.037 2000.78,395.581 2012.74,424.911 2024.69,455.837 2036.65,488.162 2054.52,538.649 2072.39,591.142 2090.25,644.974 2108.12,699.496 2128.44,761.557 2148.76,822.873 2169.08,882.692 2189.4,940.36 2199.47,967.947 2209.53,994.815 2219.59,1020.91 2229.65,1046.2 2239.71,1070.64 2249.78,1094.2 2259.84,1116.86 2269.9,1138.61 2280.97,1161.45 2292.04,1183.16 2303.11,1203.73 2314.18,1223.17 2325.25,1241.49 2336.32,1258.72 2347.39,1274.87 2358.46,1289.96 2375.37,1311.08 2392.28,1329.94 2409.19,1346.7 2426.11,1361.49 2447.45,1377.6 2468.79,1391.15 2490.13,1402.44 2511.47,1411.76 2531.21,1418.88 2550.94,1424.74 2570.68,1429.54 2590.42,1433.44 2631.13,1439.24 2671.84,1442.86 2713.11,1445.06 2754.38,1446.34 2840.56,1447.48 2908.45,1447.75 3063.05,1447.87 3080.4,1447.87 "/>
<polyline clip-path="url(#clip083)" style="stroke:#3da44d; stroke-linecap:round; stroke-linejoin:round; stroke-width:8; stroke-opacity:1; fill:none" points="654.931,1447.87 679.971,1447.87 826.627,1447.87 894.851,1447.87 986.297,1447.87 1061.86,1447.87 1132.12,1447.87 1220.33,1447.87 1299.45,1447.87 1390.02,1447.87 1457.72,1447.87 1501.01,1447.87 1544.31,1447.87 1564.06,1447.87 1583.82,1447.87 1593.7,1447.87 1603.58,1447.87 1608.52,1447.87 1613.46,1447.87 1615.93,1447.87 1618.4,1447.87 1619.63,1447.87 1620.87,1447.87 1622.1,1447.87 1623.34,1447.87 1624.04,1447.87 1624.74,1447.87 1625.44,705.43 1626.15,704.461 1626.85,703.491 1627.55,702.52 1628.26,701.548 1628.96,700.574 1631.77,696.667 1634.58,692.739 1640.2,684.822 1645.82,676.822 1657.07,660.57 1668.31,643.974 1690.79,609.727 1713.28,574.021 1731.11,544.638 1748.93,514.267 1766.76,482.875 1784.58,450.428 1806.73,408.592 1828.87,365.002 1851.02,319.583 1873.16,272.259 1877.4,262.975 1881.64,253.617 1883.76,248.911 1885.88,244.185 1888,239.442 1890.12,234.679 1891.18,232.291 1892.24,231.948 1893.3,236.192 1894.36,240.421 1896.48,248.834 1898.6,257.189 1902.84,273.725 1907.08,290.031 1915.56,321.967 1924.04,353.022 1932.52,383.221 1941,412.586 1952.96,452.617 1964.92,491.099 1976.87,528.094 1988.83,563.658 2000.78,597.848 2012.74,630.715 2024.69,662.311 2036.65,692.686 2054.52,735.907 2072.39,776.655 2090.25,815.071 2108.12,851.288 2128.44,889.962 2148.76,926.13 2169.08,959.953 2189.4,991.583 2199.47,1006.48 2209.53,1020.89 2214.56,1027.91 2219.59,1034.82 2222.11,1038.24 2224.62,1041.62 2225.88,1043.3 2227.14,1044.98 2228.39,1046.65 2229.65,1048.31 2230.28,1049.14 2230.91,1049.96 2231.54,1447.87 2232.17,1447.87 2232.8,1447.87 2233.43,1447.87 2234.05,1447.87 2234.68,1447.87 2237.2,1447.87 2239.71,1447.87 2244.74,1447.87 2249.78,1447.87 2259.84,1447.87 2269.9,1447.87 2292.04,1447.87 2314.18,1447.87 2336.32,1447.87 2358.46,1447.87 2392.28,1447.87 2426.11,1447.87 2511.47,1447.87 2590.42,1447.87 2671.84,1447.87 2754.38,1447.87 2840.56,1447.87 2908.45,1447.87 3063.05,1447.87 3080.4,1447.87 "/>
<circle clip-path="url(#clip083)" cx="1625.12" cy="705.881" r="14.4" fill="#c271d2" fill-rule="evenodd" fill-opacity="1" stroke="#000000" stroke-opacity="1" stroke-width="3.2"/>
<circle clip-path="url(#clip083)" cx="1891.92" cy="230.636" r="14.4" fill="#c271d2" fill-rule="evenodd" fill-opacity="1" stroke="#000000" stroke-opacity="1" stroke-width="3.2"/>
<circle clip-path="url(#clip083)" cx="2231.48" cy="1050.71" r="14.4" fill="#c271d2" fill-rule="evenodd" fill-opacity="1" stroke="#000000" stroke-opacity="1" stroke-width="3.2"/>
<path clip-path="url(#clip080)" d="M2057.34 376.265 L2320.42 376.265 L2320.42 168.905 L2057.34 168.905  Z" fill="#ffffff" fill-rule="evenodd" fill-opacity="1"/>
<polyline clip-path="url(#clip080)" style="stroke:#000000; stroke-linecap:round; stroke-linejoin:round; stroke-width:4; stroke-opacity:1; fill:none" points="2057.34,376.265 2320.42,376.265 2320.42,168.905 2057.34,168.905 2057.34,376.265 "/>
<polyline clip-path="url(#clip080)" style="stroke:#009af9; stroke-linecap:round; stroke-linejoin:round; stroke-width:8; stroke-opacity:1; fill:none" stroke-dasharray="4, 8" points="2068.12,220.745 2132.8,220.745 "/>
<path clip-path="url(#clip080)" d="M2149.28 220.622 Q2149.28 216.101 2152.19 212.893 Q2155.09 209.684 2159.26 209.684 Q2163.48 209.684 2165.66 212.424 Q2167.86 215.164 2167.86 219.099 Q2167.86 219.826 2167.67 219.966 Q2167.48 220.107 2166.66 220.107 L2153.27 220.107 Q2153.27 225.002 2154.72 227.297 Q2156.73 230.506 2160.13 230.506 Q2160.6 230.506 2161.16 230.412 Q2161.72 230.319 2162.87 229.921 Q2164.02 229.499 2165.02 228.398 Q2166.03 227.297 2166.62 225.564 Q2166.76 224.885 2167.23 224.908 Q2167.86 224.908 2167.86 225.47 Q2167.86 225.892 2167.39 226.852 Q2166.95 227.789 2166.08 228.913 Q2165.21 230.038 2163.53 230.881 Q2161.86 231.724 2159.85 231.724 Q2155.63 231.724 2152.45 228.539 Q2149.28 225.33 2149.28 220.622 M2153.31 219.099 L2164.7 219.099 Q2164.7 218.092 2164.51 216.968 Q2164.35 215.844 2163.83 214.298 Q2163.34 212.729 2162.17 211.745 Q2161 210.761 2159.26 210.761 Q2158.49 210.761 2157.65 211.089 Q2156.83 211.417 2155.82 212.213 Q2154.81 213.01 2154.11 214.813 Q2153.41 216.617 2153.31 219.099 Z" fill="#000000" fill-rule="nonzero" fill-opacity="1" /><path clip-path="url(#clip080)" d="M2169.28 231.185 L2169.28 229.71 Q2173.03 229.71 2175.42 226.829 Q2175.42 226.829 2179.92 221.114 L2175.16 214.93 Q2173.47 212.775 2172.73 212.401 Q2172 212.002 2169.52 212.002 L2169.52 210.503 Q2171.48 210.644 2174.06 210.644 Q2175.49 210.644 2179.26 210.503 L2179.26 212.002 Q2177.57 212.096 2177.57 213.197 Q2177.57 213.572 2178 214.064 L2181.74 218.912 L2184.72 215.164 Q2185.44 214.298 2185.44 213.478 Q2185.44 212.143 2184.04 212.002 L2184.04 210.503 Q2185.91 210.644 2188.65 210.644 Q2190.71 210.644 2192.59 210.503 L2192.59 212.002 Q2188.93 212.096 2186.87 214.485 Q2185.96 215.492 2182.47 219.919 L2188.89 228.211 Q2189.66 229.218 2190.53 229.476 Q2191.39 229.71 2193.45 229.71 L2193.45 231.185 Q2191.3 231.045 2188.84 231.045 Q2187.97 231.045 2183.66 231.185 L2183.66 229.71 Q2184.53 229.663 2184.95 229.288 Q2185.4 228.89 2185.4 228.492 Q2185.4 228.304 2184.39 226.923 L2180.74 222.121 Q2177.08 226.431 2176.61 227.438 Q2176.43 227.859 2176.43 228.211 Q2176.43 229.499 2177.81 229.71 L2177.81 231.185 Q2174.36 231.045 2173.26 231.045 Q2171.16 231.045 2169.28 231.185 Z" fill="#000000" fill-rule="nonzero" fill-opacity="1" /><path clip-path="url(#clip080)" d="M2191.04 239.009 Q2193.6 239.009 2194.18 238.681 Q2194.79 238.376 2194.79 236.854 L2194.79 214.392 Q2194.79 212.799 2194.18 212.401 Q2193.6 212.002 2191.04 212.002 L2191.04 210.503 L2197.95 209.988 L2197.95 213.15 Q2200.83 209.988 2204.68 209.988 Q2208.75 209.988 2211.73 213.15 Q2214.7 216.312 2214.7 220.833 Q2214.7 225.4 2211.54 228.562 Q2208.38 231.724 2204 231.724 Q2201.61 231.724 2199.99 230.506 Q2198.4 229.265 2198.09 228.351 L2198.09 228.796 L2198.09 236.854 Q2198.09 238.4 2198.7 238.704 Q2199.31 239.009 2201.84 239.009 L2201.84 240.484 Q2196.81 240.344 2196.43 240.344 Q2195.96 240.344 2191.04 240.484 L2191.04 239.009 M2198.09 225.728 Q2198.09 226.454 2198.19 226.712 Q2198.3 226.969 2198.77 227.742 Q2200.67 230.647 2203.76 230.647 Q2203.79 230.647 2203.81 230.647 Q2206.55 230.647 2208.63 227.859 Q2210.72 225.049 2210.72 220.833 Q2210.72 216.804 2208.82 213.993 Q2206.92 211.183 2204.3 211.183 Q2202.43 211.183 2200.79 212.19 Q2199.15 213.197 2198.09 215.024 L2198.09 225.728 Z" fill="#000000" fill-rule="nonzero" fill-opacity="1" /><path clip-path="url(#clip080)" d="M2223.09 219.193 Q2223.09 211.089 2226.12 204.554 Q2227.4 201.814 2229.21 199.518 Q2231.01 197.223 2232.2 196.216 Q2233.4 195.209 2233.73 195.209 Q2234.2 195.209 2234.22 195.677 Q2234.22 195.911 2233.59 196.497 Q2225.86 204.367 2225.88 219.193 Q2225.88 234.066 2233.4 241.632 Q2234.22 242.452 2234.22 242.709 Q2234.22 243.178 2233.73 243.178 Q2233.4 243.178 2232.25 242.217 Q2231.1 241.257 2229.32 239.055 Q2227.54 236.854 2226.26 234.16 Q2223.09 227.625 2223.09 219.193 Z" fill="#000000" fill-rule="nonzero" fill-opacity="1" /><path clip-path="url(#clip080)" d="M2266.17 224.323 Q2265.56 227.344 2264.74 229.077 Q2263.41 231.724 2261.18 231.724 Q2259.64 231.724 2258.47 230.858 Q2257.32 229.967 2256.92 228.492 Q2256.48 229.077 2256.08 229.476 Q2255.7 229.874 2254.98 230.483 Q2254.25 231.068 2253.27 231.396 Q2252.31 231.724 2251.21 231.724 Q2250.36 231.724 2249.59 231.56 Q2248.82 231.42 2248 231.021 Q2247.2 230.6 2246.62 229.967 Q2246.05 229.335 2245.68 228.304 Q2245.3 227.274 2245.3 225.962 Q2245.3 224.323 2245.94 222.098 Q2246.59 219.872 2248.09 215.891 Q2248.91 213.783 2248.91 212.611 Q2248.91 212.073 2248.79 211.721 Q2248.68 211.37 2248.44 211.253 Q2248.23 211.112 2248.09 211.089 Q2247.95 211.042 2247.72 211.042 Q2246.26 211.042 2245 212.518 Q2243.73 213.993 2242.87 216.991 Q2242.68 217.577 2242.56 217.718 Q2242.45 217.858 2242.09 217.858 Q2241.51 217.835 2241.51 217.366 Q2241.51 217.179 2241.72 216.453 Q2241.93 215.703 2242.42 214.602 Q2242.94 213.478 2243.64 212.471 Q2244.34 211.44 2245.44 210.714 Q2246.57 209.988 2247.86 209.988 Q2249.61 209.988 2250.69 211.136 Q2251.79 212.26 2251.79 213.923 Q2251.79 214.954 2250.97 216.945 Q2248.37 223.854 2248.37 226.735 Q2248.37 230.647 2251.35 230.647 Q2252.33 230.647 2253.24 230.249 Q2254.18 229.85 2254.79 229.288 Q2255.4 228.726 2255.87 228.117 Q2256.36 227.508 2256.57 227.11 Q2256.8 226.712 2256.83 226.618 L2260.41 212.19 Q2260.55 211.628 2260.81 211.253 Q2261.09 210.855 2261.42 210.714 Q2261.75 210.574 2261.93 210.55 Q2262.12 210.503 2262.28 210.503 Q2262.87 210.503 2263.27 210.855 Q2263.69 211.206 2263.69 211.815 Q2263.69 211.932 2263.55 212.494 Q2263.43 213.033 2263.25 213.829 Q2263.06 214.602 2262.96 215.024 Q2262.21 217.975 2262.14 218.28 L2260.81 223.456 Q2260.74 223.761 2260.5 224.744 Q2260.29 225.728 2260.18 226.243 Q2260.06 226.735 2259.94 227.414 Q2259.85 228.07 2259.85 228.445 Q2259.85 229.616 2260.2 230.131 Q2260.55 230.647 2261.32 230.647 Q2262.05 230.647 2262.61 230.155 Q2263.2 229.64 2263.64 228.656 Q2264.09 227.649 2264.35 226.829 Q2264.6 226.009 2264.93 224.721 Q2265.05 224.159 2265.14 224.018 Q2265.26 223.854 2265.59 223.854 Q2266.17 223.854 2266.17 224.323 Z" fill="#000000" fill-rule="nonzero" fill-opacity="1" /><path clip-path="url(#clip080)" d="M2286.25 232.834 Q2286.25 233.768 2285.68 234.326 Q2285.12 234.883 2284.41 234.883 Q2283.79 234.883 2283.46 234.523 Q2283.13 234.162 2283.13 233.703 Q2283.13 233.506 2283.22 233.26 Q2283.3 232.998 2283.48 232.686 Q2283.68 232.375 2284.09 232.145 Q2284.5 231.916 2285.05 231.883 Q2284.94 231.768 2284.91 231.752 Q2284.66 231.555 2284.2 231.489 Q2284.13 231.457 2283.91 231.457 Q2282.77 231.457 2281.63 232.293 Q2280.49 233.113 2279.1 234.67 Q2277.35 236.49 2276.22 237.162 Q2281.18 237.818 2281.18 240.687 Q2281.18 241.163 2281.05 241.737 Q2280.79 242.819 2280.79 243.606 Q2280.79 245.18 2281.86 245.18 Q2282.89 245.18 2283.54 244.131 Q2284.22 243.081 2284.77 241.032 Q2284.86 240.655 2284.94 240.54 Q2285.02 240.425 2285.25 240.425 Q2285.66 240.425 2285.66 240.753 Q2285.28 242.671 2284.45 244.147 Q2283.38 245.934 2281.79 245.934 Q2280.46 245.934 2279.58 245.016 Q2278.71 244.081 2278.71 242.606 Q2278.71 242.245 2278.84 241.425 Q2278.94 241.097 2278.94 240.72 Q2278.94 239.95 2278.51 239.376 Q2278.08 238.786 2277.4 238.49 Q2276.71 238.195 2276.13 238.064 Q2275.58 237.917 2275.04 237.867 Q2273.4 244.803 2273.17 245.229 Q2273.02 245.524 2272.69 245.721 Q2272.36 245.934 2272.02 245.934 Q2271.69 245.934 2271.36 245.705 Q2271.05 245.491 2271.05 244.983 Q2271.05 244.721 2271.18 244.245 L2276.05 224.898 L2276.15 224.243 Q2276.15 224.046 2276.07 223.947 Q2276 223.833 2275.61 223.751 Q2275.23 223.669 2274.48 223.669 Q2274.17 223.669 2274.02 223.652 Q2273.89 223.636 2273.77 223.554 Q2273.66 223.456 2273.66 223.259 Q2273.66 222.98 2273.77 222.833 Q2273.9 222.669 2274 222.636 Q2274.1 222.603 2274.3 222.587 Q2274.58 222.57 2275.51 222.488 Q2276.45 222.39 2277.25 222.324 Q2278.05 222.259 2278.4 222.259 Q2278.59 222.259 2278.69 222.357 Q2278.81 222.439 2278.82 222.537 L2278.84 222.619 L2275.35 236.785 Q2276.79 236.211 2279.07 233.67 Q2281.71 230.719 2283.97 230.719 Q2285.04 230.719 2285.64 231.375 Q2286.25 232.014 2286.25 232.834 Z" fill="#000000" fill-rule="nonzero" fill-opacity="1" /><path clip-path="url(#clip080)" d="M2291.22 242.709 Q2291.22 242.475 2291.83 241.889 Q2299.56 234.02 2299.56 219.193 Q2299.56 204.32 2292.13 196.801 Q2291.22 195.935 2291.22 195.677 Q2291.22 195.209 2291.69 195.209 Q2292.02 195.209 2293.17 196.169 Q2294.34 197.129 2296.09 199.331 Q2297.87 201.533 2299.18 204.226 Q2302.35 210.761 2302.35 219.193 Q2302.35 227.297 2299.33 233.832 Q2298.04 236.573 2296.23 238.868 Q2294.43 241.163 2293.24 242.171 Q2292.04 243.178 2291.69 243.178 Q2291.22 243.178 2291.22 242.709 Z" fill="#000000" fill-rule="nonzero" fill-opacity="1" /><polyline clip-path="url(#clip080)" style="stroke:#e26f46; stroke-linecap:round; stroke-linejoin:round; stroke-width:8; stroke-opacity:1; fill:none" points="2068.12,272.585 2132.8,272.585 "/>
<path clip-path="url(#clip080)" d="M2167.5 253.94 Q2167.5 255.228 2166.68 256.025 Q2165.88 256.821 2164.87 256.821 Q2164.15 256.821 2163.61 256.376 Q2163.09 255.931 2163.09 255.158 Q2163.09 254.362 2163.7 253.519 Q2164.31 252.675 2165.69 252.558 Q2164.78 251.692 2163.33 251.692 Q2162.6 251.692 2161.99 252.16 Q2161.41 252.605 2161.08 253.331 Q2160.73 254.081 2159.93 258.32 Q2159.67 259.702 2159.44 261.037 Q2159.21 262.372 2158.92 263.778 L2162.91 263.778 Q2163.42 263.778 2163.63 263.801 Q2163.84 263.824 2164.01 263.942 Q2164.19 264.059 2164.19 264.316 Q2164.19 264.972 2163.89 265.136 Q2163.61 265.277 2162.77 265.277 L2158.64 265.277 L2155.76 280.478 Q2155.69 280.923 2155.39 282.328 Q2155.11 283.71 2154.43 285.982 Q2153.75 288.278 2153.07 289.636 Q2152.69 290.409 2152.2 291.135 Q2151.73 291.885 2151.05 292.634 Q2150.38 293.384 2149.48 293.829 Q2148.59 294.297 2147.66 294.297 Q2146.07 294.297 2144.82 293.407 Q2143.58 292.517 2143.58 290.995 Q2143.58 289.706 2144.38 288.91 Q2145.2 288.114 2146.21 288.114 Q2146.93 288.114 2147.45 288.559 Q2147.99 289.004 2147.99 289.777 Q2147.99 290.104 2147.87 290.479 Q2147.75 290.854 2147.49 291.276 Q2147.24 291.721 2146.67 292.025 Q2146.11 292.33 2145.34 292.376 Q2146.25 293.243 2147.66 293.243 Q2148.1 293.243 2148.5 293.056 Q2148.9 292.892 2149.23 292.47 Q2149.58 292.049 2149.84 291.627 Q2150.09 291.229 2150.35 290.456 Q2150.61 289.706 2150.77 289.144 Q2150.94 288.582 2151.15 287.575 Q2151.38 286.568 2151.5 285.959 Q2151.62 285.373 2151.83 284.225 L2155.41 265.277 L2152.25 265.277 Q2151.69 265.277 2151.45 265.253 Q2151.24 265.23 2151.08 265.113 Q2150.91 264.972 2150.91 264.691 Q2150.91 264.246 2151.1 264.059 Q2151.31 263.848 2151.55 263.824 Q2151.78 263.778 2152.34 263.778 L2155.67 263.778 Q2156.79 257.852 2157.24 256.259 Q2157.75 254.573 2158.55 253.401 Q2159.35 252.207 2160.24 251.645 Q2161.13 251.083 2161.85 250.872 Q2162.6 250.638 2163.33 250.638 Q2164.97 250.638 2166.23 251.528 Q2167.5 252.394 2167.5 253.94 Z" fill="#000000" fill-rule="nonzero" fill-opacity="1" /><polyline clip-path="url(#clip080)" style="stroke:#3da44d; stroke-linecap:round; stroke-linejoin:round; stroke-width:8; stroke-opacity:1; fill:none" points="2068.12,324.425 2132.8,324.425 "/>
<path clip-path="url(#clip080)" d="M2149.28 324.302 Q2149.28 319.781 2152.19 316.573 Q2155.09 313.364 2159.26 313.364 Q2163.48 313.364 2165.66 316.104 Q2167.86 318.844 2167.86 322.779 Q2167.86 323.506 2167.67 323.646 Q2167.48 323.787 2166.66 323.787 L2153.27 323.787 Q2153.27 328.682 2154.72 330.977 Q2156.73 334.186 2160.13 334.186 Q2160.6 334.186 2161.16 334.092 Q2161.72 333.999 2162.87 333.601 Q2164.02 333.179 2165.02 332.078 Q2166.03 330.977 2166.62 329.244 Q2166.76 328.565 2167.23 328.588 Q2167.86 328.588 2167.86 329.15 Q2167.86 329.572 2167.39 330.532 Q2166.95 331.469 2166.08 332.593 Q2165.21 333.718 2163.53 334.561 Q2161.86 335.404 2159.85 335.404 Q2155.63 335.404 2152.45 332.219 Q2149.28 329.01 2149.28 324.302 M2153.31 322.779 L2164.7 322.779 Q2164.7 321.772 2164.51 320.648 Q2164.35 319.524 2163.83 317.978 Q2163.34 316.409 2162.17 315.425 Q2161 314.441 2159.26 314.441 Q2158.49 314.441 2157.65 314.769 Q2156.83 315.097 2155.82 315.893 Q2154.81 316.69 2154.11 318.493 Q2153.41 320.297 2153.31 322.779 Z" fill="#000000" fill-rule="nonzero" fill-opacity="1" /><path clip-path="url(#clip080)" d="M2169.28 334.865 L2169.28 333.39 Q2173.03 333.39 2175.42 330.509 Q2175.42 330.509 2179.92 324.794 L2175.16 318.61 Q2173.47 316.455 2172.73 316.081 Q2172 315.682 2169.52 315.682 L2169.52 314.183 Q2171.48 314.324 2174.06 314.324 Q2175.49 314.324 2179.26 314.183 L2179.26 315.682 Q2177.57 315.776 2177.57 316.877 Q2177.57 317.252 2178 317.744 L2181.74 322.592 L2184.72 318.844 Q2185.44 317.978 2185.44 317.158 Q2185.44 315.823 2184.04 315.682 L2184.04 314.183 Q2185.91 314.324 2188.65 314.324 Q2190.71 314.324 2192.59 314.183 L2192.59 315.682 Q2188.93 315.776 2186.87 318.165 Q2185.96 319.172 2182.47 323.599 L2188.89 331.891 Q2189.66 332.898 2190.53 333.156 Q2191.39 333.39 2193.45 333.39 L2193.45 334.865 Q2191.3 334.725 2188.84 334.725 Q2187.97 334.725 2183.66 334.865 L2183.66 333.39 Q2184.53 333.343 2184.95 332.968 Q2185.4 332.57 2185.4 332.172 Q2185.4 331.984 2184.39 330.603 L2180.74 325.801 Q2177.08 330.111 2176.61 331.118 Q2176.43 331.539 2176.43 331.891 Q2176.43 333.179 2177.81 333.39 L2177.81 334.865 Q2174.36 334.725 2173.26 334.725 Q2171.16 334.725 2169.28 334.865 Z" fill="#000000" fill-rule="nonzero" fill-opacity="1" /><path clip-path="url(#clip080)" d="M2191.04 342.689 Q2193.6 342.689 2194.18 342.361 Q2194.79 342.056 2194.79 340.534 L2194.79 318.072 Q2194.79 316.479 2194.18 316.081 Q2193.6 315.682 2191.04 315.682 L2191.04 314.183 L2197.95 313.668 L2197.95 316.83 Q2200.83 313.668 2204.68 313.668 Q2208.75 313.668 2211.73 316.83 Q2214.7 319.992 2214.7 324.513 Q2214.7 329.08 2211.54 332.242 Q2208.38 335.404 2204 335.404 Q2201.61 335.404 2199.99 334.186 Q2198.4 332.945 2198.09 332.031 L2198.09 332.476 L2198.09 340.534 Q2198.09 342.08 2198.7 342.384 Q2199.31 342.689 2201.84 342.689 L2201.84 344.164 Q2196.81 344.024 2196.43 344.024 Q2195.96 344.024 2191.04 344.164 L2191.04 342.689 M2198.09 329.408 Q2198.09 330.134 2198.19 330.392 Q2198.3 330.649 2198.77 331.422 Q2200.67 334.327 2203.76 334.327 Q2203.79 334.327 2203.81 334.327 Q2206.55 334.327 2208.63 331.539 Q2210.72 328.729 2210.72 324.513 Q2210.72 320.484 2208.82 317.673 Q2206.92 314.863 2204.3 314.863 Q2202.43 314.863 2200.79 315.87 Q2199.15 316.877 2198.09 318.704 L2198.09 329.408 Z" fill="#000000" fill-rule="nonzero" fill-opacity="1" /><path clip-path="url(#clip080)" d="M2223.09 322.873 Q2223.09 314.769 2226.12 308.234 Q2227.4 305.494 2229.21 303.198 Q2231.01 300.903 2232.2 299.896 Q2233.4 298.889 2233.73 298.889 Q2234.2 298.889 2234.22 299.357 Q2234.22 299.591 2233.59 300.177 Q2225.86 308.047 2225.88 322.873 Q2225.88 337.746 2233.4 345.312 Q2234.22 346.132 2234.22 346.389 Q2234.22 346.858 2233.73 346.858 Q2233.4 346.858 2232.25 345.897 Q2231.1 344.937 2229.32 342.735 Q2227.54 340.534 2226.26 337.84 Q2223.09 331.305 2223.09 322.873 Z" fill="#000000" fill-rule="nonzero" fill-opacity="1" /><path clip-path="url(#clip080)" d="M2251.77 302.097 L2244.86 329.83 Q2244.58 330.93 2244.58 332.125 Q2244.58 334.327 2246.03 334.327 Q2246.71 334.327 2247.27 333.882 Q2247.83 333.413 2248.25 332.5 Q2248.7 331.563 2248.98 330.673 Q2249.29 329.783 2249.66 328.401 Q2249.78 327.862 2249.89 327.698 Q2250.01 327.534 2250.34 327.534 Q2250.92 327.534 2250.92 328.003 Q2250.34 330.884 2249.47 332.711 Q2248.21 335.404 2245.87 335.404 Q2244.11 335.404 2242.8 334.186 Q2241.51 332.945 2241.51 330.977 Q2241.51 330.228 2241.74 329.338 L2247.79 305.353 L2247.95 304.416 Q2247.95 304.159 2247.86 304.018 Q2247.76 303.878 2247.2 303.737 Q2246.66 303.596 2245.58 303.596 Q2245.14 303.596 2244.93 303.573 Q2244.74 303.55 2244.55 303.433 Q2244.39 303.315 2244.39 303.058 Q2244.39 302.636 2244.55 302.402 Q2244.74 302.168 2244.88 302.121 Q2245.02 302.074 2245.3 302.051 Q2245.7 302.027 2247.04 301.91 Q2248.37 301.77 2249.52 301.676 Q2250.67 301.582 2251.16 301.582 Q2251.44 301.582 2251.58 301.723 Q2251.74 301.84 2251.77 301.98 L2251.77 302.097 Z" fill="#000000" fill-rule="nonzero" fill-opacity="1" /><path clip-path="url(#clip080)" d="M2271.98 336.514 Q2271.98 337.448 2271.41 338.006 Q2270.85 338.563 2270.15 338.563 Q2269.52 338.563 2269.2 338.203 Q2268.87 337.842 2268.87 337.383 Q2268.87 337.186 2268.95 336.94 Q2269.03 336.678 2269.21 336.366 Q2269.41 336.055 2269.82 335.825 Q2270.23 335.596 2270.79 335.563 Q2270.67 335.448 2270.64 335.432 Q2270.39 335.235 2269.93 335.169 Q2269.87 335.137 2269.64 335.137 Q2268.51 335.137 2267.36 335.973 Q2266.23 336.793 2264.84 338.35 Q2263.08 340.17 2261.95 340.842 Q2266.92 341.498 2266.92 344.367 Q2266.92 344.843 2266.79 345.417 Q2266.52 346.499 2266.52 347.286 Q2266.52 348.86 2267.59 348.86 Q2268.62 348.86 2269.28 347.811 Q2269.95 346.761 2270.51 344.712 Q2270.59 344.335 2270.67 344.22 Q2270.75 344.105 2270.98 344.105 Q2271.39 344.105 2271.39 344.433 Q2271.02 346.351 2270.18 347.827 Q2269.11 349.614 2267.52 349.614 Q2266.2 349.614 2265.31 348.696 Q2264.44 347.761 2264.44 346.286 Q2264.44 345.925 2264.57 345.105 Q2264.67 344.777 2264.67 344.4 Q2264.67 343.63 2264.25 343.056 Q2263.82 342.466 2263.13 342.17 Q2262.44 341.875 2261.87 341.744 Q2261.31 341.597 2260.77 341.547 Q2259.13 348.483 2258.9 348.909 Q2258.75 349.204 2258.42 349.401 Q2258.1 349.614 2257.75 349.614 Q2257.42 349.614 2257.1 349.385 Q2256.79 349.171 2256.79 348.663 Q2256.79 348.401 2256.92 347.925 L2261.79 328.578 L2261.88 327.923 Q2261.88 327.726 2261.8 327.627 Q2261.74 327.513 2261.34 327.431 Q2260.97 327.349 2260.21 327.349 Q2259.9 327.349 2259.75 327.332 Q2259.62 327.316 2259.51 327.234 Q2259.39 327.136 2259.39 326.939 Q2259.39 326.66 2259.51 326.513 Q2259.64 326.349 2259.74 326.316 Q2259.83 326.283 2260.03 326.267 Q2260.31 326.25 2261.25 326.168 Q2262.18 326.07 2262.98 326.004 Q2263.79 325.939 2264.13 325.939 Q2264.33 325.939 2264.43 326.037 Q2264.54 326.119 2264.56 326.217 L2264.57 326.299 L2261.08 340.465 Q2262.52 339.891 2264.8 337.35 Q2267.44 334.399 2269.71 334.399 Q2270.77 334.399 2271.38 335.055 Q2271.98 335.694 2271.98 336.514 Z" fill="#000000" fill-rule="nonzero" fill-opacity="1" /><path clip-path="url(#clip080)" d="M2276.96 346.389 Q2276.96 346.155 2277.56 345.569 Q2285.29 337.7 2285.29 322.873 Q2285.29 308 2277.87 300.481 Q2276.96 299.615 2276.96 299.357 Q2276.96 298.889 2277.42 298.889 Q2277.75 298.889 2278.9 299.849 Q2280.07 300.809 2281.83 303.011 Q2283.61 305.213 2284.92 307.906 Q2288.08 314.441 2288.08 322.873 Q2288.08 330.977 2285.06 337.512 Q2283.77 340.253 2281.97 342.548 Q2280.16 344.843 2278.97 345.851 Q2277.78 346.858 2277.42 346.858 Q2276.96 346.858 2276.96 346.389 Z" fill="#000000" fill-rule="nonzero" fill-opacity="1" /></svg>
