<?xml version="1.0" encoding="utf-8"?>
<svg xmlns="http://www.w3.org/2000/svg" xmlns:xlink="http://www.w3.org/1999/xlink" width="600" height="400" viewBox="0 0 2400 1600">
<defs>
  <clipPath id="clip340">
    <rect x="0" y="0" width="2400" height="1600"/>
  </clipPath>
</defs>
<path clip-path="url(#clip340)" d="M0 1600 L2400 1600 L2400 8.88178e-14 L0 8.88178e-14  Z" fill="#ffffff" fill-rule="evenodd" fill-opacity="1"/>
<defs>
  <clipPath id="clip341">
    <rect x="480" y="0" width="1681" height="1600"/>
  </clipPath>
</defs>
<path clip-path="url(#clip340)" d="M156.598 1486.45 L2352.76 1486.45 L2352.76 47.2441 L156.598 47.2441  Z" fill="#ffffff" fill-rule="evenodd" fill-opacity="1"/>
<defs>
  <clipPath id="clip342">
    <rect x="156" y="47" width="2197" height="1440"/>
  </clipPath>
</defs>
<polyline clip-path="url(#clip342)" style="stroke:#000000; stroke-linecap:round; stroke-linejoin:round; stroke-width:2; stroke-opacity:0.1; fill:none" points="277.391,1486.45 277.391,47.2441 "/>
<polyline clip-path="url(#clip342)" style="stroke:#000000; stroke-linecap:round; stroke-linejoin:round; stroke-width:2; stroke-opacity:0.1; fill:none" points="754.116,1486.45 754.116,47.2441 "/>
<polyline clip-path="url(#clip342)" style="stroke:#000000; stroke-linecap:round; stroke-linejoin:round; stroke-width:2; stroke-opacity:0.1; fill:none" points="1230.84,1486.45 1230.84,47.2441 "/>
<polyline clip-path="url(#clip342)" style="stroke:#000000; stroke-linecap:round; stroke-linejoin:round; stroke-width:2; stroke-opacity:0.1; fill:none" points="1707.57,1486.45 1707.57,47.2441 "/>
<polyline clip-path="url(#clip342)" style="stroke:#000000; stroke-linecap:round; stroke-linejoin:round; stroke-width:2; stroke-opacity:0.1; fill:none" points="2184.29,1486.45 2184.29,47.2441 "/>
<polyline clip-path="url(#clip342)" style="stroke:#000000; stroke-linecap:round; stroke-linejoin:round; stroke-width:2; stroke-opacity:0.1; fill:none" points="156.598,1486.45 2352.76,1486.45 "/>
<polyline clip-path="url(#clip342)" style="stroke:#000000; stroke-linecap:round; stroke-linejoin:round; stroke-width:2; stroke-opacity:0.1; fill:none" points="156.598,1134.99 2352.76,1134.99 "/>
<polyline clip-path="url(#clip342)" style="stroke:#000000; stroke-linecap:round; stroke-linejoin:round; stroke-width:2; stroke-opacity:0.1; fill:none" points="156.598,783.54 2352.76,783.54 "/>
<polyline clip-path="url(#clip342)" style="stroke:#000000; stroke-linecap:round; stroke-linejoin:round; stroke-width:2; stroke-opacity:0.1; fill:none" points="156.598,432.086 2352.76,432.086 "/>
<polyline clip-path="url(#clip342)" style="stroke:#000000; stroke-linecap:round; stroke-linejoin:round; stroke-width:2; stroke-opacity:0.1; fill:none" points="156.598,80.6322 2352.76,80.6322 "/>
<polyline clip-path="url(#clip340)" style="stroke:#000000; stroke-linecap:round; stroke-linejoin:round; stroke-width:4; stroke-opacity:1; fill:none" points="156.598,1486.45 2352.76,1486.45 "/>
<polyline clip-path="url(#clip340)" style="stroke:#000000; stroke-linecap:round; stroke-linejoin:round; stroke-width:4; stroke-opacity:1; fill:none" points="277.391,1486.45 277.391,1467.55 "/>
<polyline clip-path="url(#clip340)" style="stroke:#000000; stroke-linecap:round; stroke-linejoin:round; stroke-width:4; stroke-opacity:1; fill:none" points="754.116,1486.45 754.116,1467.55 "/>
<polyline clip-path="url(#clip340)" style="stroke:#000000; stroke-linecap:round; stroke-linejoin:round; stroke-width:4; stroke-opacity:1; fill:none" points="1230.84,1486.45 1230.84,1467.55 "/>
<polyline clip-path="url(#clip340)" style="stroke:#000000; stroke-linecap:round; stroke-linejoin:round; stroke-width:4; stroke-opacity:1; fill:none" points="1707.57,1486.45 1707.57,1467.55 "/>
<polyline clip-path="url(#clip340)" style="stroke:#000000; stroke-linecap:round; stroke-linejoin:round; stroke-width:4; stroke-opacity:1; fill:none" points="2184.29,1486.45 2184.29,1467.55 "/>
<path clip-path="url(#clip340)" d="M246.291 1532.02 L275.967 1532.02 L275.967 1535.95 L246.291 1535.95 L246.291 1532.02 Z" fill="#000000" fill-rule="nonzero" fill-opacity="1" /><path clip-path="url(#clip340)" d="M298.907 1518.36 L287.101 1536.81 L298.907 1536.81 L298.907 1518.36 M297.68 1514.29 L303.56 1514.29 L303.56 1536.81 L308.49 1536.81 L308.49 1540.7 L303.56 1540.7 L303.56 1548.85 L298.907 1548.85 L298.907 1540.7 L283.305 1540.7 L283.305 1536.19 L297.68 1514.29 Z" fill="#000000" fill-rule="nonzero" fill-opacity="1" /><path clip-path="url(#clip340)" d="M724.058 1532.02 L753.734 1532.02 L753.734 1535.95 L724.058 1535.95 L724.058 1532.02 Z" fill="#000000" fill-rule="nonzero" fill-opacity="1" /><path clip-path="url(#clip340)" d="M767.854 1544.91 L784.174 1544.91 L784.174 1548.85 L762.229 1548.85 L762.229 1544.91 Q764.891 1542.16 769.475 1537.53 Q774.081 1532.88 775.262 1531.53 Q777.507 1529.01 778.387 1527.27 Q779.289 1525.51 779.289 1523.82 Q779.289 1521.07 777.345 1519.33 Q775.424 1517.6 772.322 1517.6 Q770.123 1517.6 767.669 1518.36 Q765.238 1519.13 762.461 1520.68 L762.461 1515.95 Q765.285 1514.82 767.738 1514.24 Q770.192 1513.66 772.229 1513.66 Q777.599 1513.66 780.794 1516.35 Q783.988 1519.03 783.988 1523.52 Q783.988 1525.65 783.178 1527.57 Q782.391 1529.47 780.285 1532.07 Q779.706 1532.74 776.604 1535.95 Q773.502 1539.15 767.854 1544.91 Z" fill="#000000" fill-rule="nonzero" fill-opacity="1" /><path clip-path="url(#clip340)" d="M1230.84 1517.37 Q1227.23 1517.37 1225.4 1520.93 Q1223.6 1524.47 1223.6 1531.6 Q1223.6 1538.71 1225.4 1542.27 Q1227.23 1545.82 1230.84 1545.82 Q1234.48 1545.82 1236.28 1542.27 Q1238.11 1538.71 1238.11 1531.6 Q1238.11 1524.47 1236.28 1520.93 Q1234.48 1517.37 1230.84 1517.37 M1230.84 1513.66 Q1236.65 1513.66 1239.71 1518.27 Q1242.79 1522.85 1242.79 1531.6 Q1242.79 1540.33 1239.71 1544.94 Q1236.65 1549.52 1230.84 1549.52 Q1225.03 1549.52 1221.95 1544.94 Q1218.9 1540.33 1218.9 1531.6 Q1218.9 1522.85 1221.95 1518.27 Q1225.03 1513.66 1230.84 1513.66 Z" fill="#000000" fill-rule="nonzero" fill-opacity="1" /><path clip-path="url(#clip340)" d="M1702.22 1544.91 L1718.54 1544.91 L1718.54 1548.85 L1696.59 1548.85 L1696.59 1544.91 Q1699.26 1542.16 1703.84 1537.53 Q1708.45 1532.88 1709.63 1531.53 Q1711.87 1529.01 1712.75 1527.27 Q1713.65 1525.51 1713.65 1523.82 Q1713.65 1521.07 1711.71 1519.33 Q1709.79 1517.6 1706.69 1517.6 Q1704.49 1517.6 1702.03 1518.36 Q1699.6 1519.13 1696.83 1520.68 L1696.83 1515.95 Q1699.65 1514.82 1702.1 1514.24 Q1704.56 1513.66 1706.59 1513.66 Q1711.96 1513.66 1715.16 1516.35 Q1718.35 1519.03 1718.35 1523.52 Q1718.35 1525.65 1717.54 1527.57 Q1716.76 1529.47 1714.65 1532.07 Q1714.07 1532.74 1710.97 1535.95 Q1707.87 1539.15 1702.22 1544.91 Z" fill="#000000" fill-rule="nonzero" fill-opacity="1" /><path clip-path="url(#clip340)" d="M2187.3 1518.36 L2175.49 1536.81 L2187.3 1536.81 L2187.3 1518.36 M2186.07 1514.29 L2191.95 1514.29 L2191.95 1536.81 L2196.88 1536.81 L2196.88 1540.7 L2191.95 1540.7 L2191.95 1548.85 L2187.3 1548.85 L2187.3 1540.7 L2171.7 1540.7 L2171.7 1536.19 L2186.07 1514.29 Z" fill="#000000" fill-rule="nonzero" fill-opacity="1" /><polyline clip-path="url(#clip340)" style="stroke:#000000; stroke-linecap:round; stroke-linejoin:round; stroke-width:4; stroke-opacity:1; fill:none" points="156.598,1486.45 156.598,47.2441 "/>
<polyline clip-path="url(#clip340)" style="stroke:#000000; stroke-linecap:round; stroke-linejoin:round; stroke-width:4; stroke-opacity:1; fill:none" points="156.598,1486.45 175.496,1486.45 "/>
<polyline clip-path="url(#clip340)" style="stroke:#000000; stroke-linecap:round; stroke-linejoin:round; stroke-width:4; stroke-opacity:1; fill:none" points="156.598,1134.99 175.496,1134.99 "/>
<polyline clip-path="url(#clip340)" style="stroke:#000000; stroke-linecap:round; stroke-linejoin:round; stroke-width:4; stroke-opacity:1; fill:none" points="156.598,783.54 175.496,783.54 "/>
<polyline clip-path="url(#clip340)" style="stroke:#000000; stroke-linecap:round; stroke-linejoin:round; stroke-width:4; stroke-opacity:1; fill:none" points="156.598,432.086 175.496,432.086 "/>
<polyline clip-path="url(#clip340)" style="stroke:#000000; stroke-linecap:round; stroke-linejoin:round; stroke-width:4; stroke-opacity:1; fill:none" points="156.598,80.6322 175.496,80.6322 "/>
<path clip-path="url(#clip340)" d="M63.4226 1472.25 Q59.8115 1472.25 57.9828 1475.81 Q56.1773 1479.35 56.1773 1486.48 Q56.1773 1493.59 57.9828 1497.15 Q59.8115 1500.7 63.4226 1500.7 Q67.0569 1500.7 68.8624 1497.15 Q70.6911 1493.59 70.6911 1486.48 Q70.6911 1479.35 68.8624 1475.81 Q67.0569 1472.25 63.4226 1472.25 M63.4226 1468.54 Q69.2328 1468.54 72.2883 1473.15 Q75.367 1477.73 75.367 1486.48 Q75.367 1495.21 72.2883 1499.82 Q69.2328 1504.4 63.4226 1504.4 Q57.6125 1504.4 54.5338 1499.82 Q51.4782 1495.21 51.4782 1486.48 Q51.4782 1477.73 54.5338 1473.15 Q57.6125 1468.54 63.4226 1468.54 Z" fill="#000000" fill-rule="nonzero" fill-opacity="1" /><path clip-path="url(#clip340)" d="M83.5845 1497.85 L88.4688 1497.85 L88.4688 1503.73 L83.5845 1503.73 L83.5845 1497.85 Z" fill="#000000" fill-rule="nonzero" fill-opacity="1" /><path clip-path="url(#clip340)" d="M108.654 1472.25 Q105.043 1472.25 103.214 1475.81 Q101.409 1479.35 101.409 1486.48 Q101.409 1493.59 103.214 1497.15 Q105.043 1500.7 108.654 1500.7 Q112.288 1500.7 114.094 1497.15 Q115.922 1493.59 115.922 1486.48 Q115.922 1479.35 114.094 1475.81 Q112.288 1472.25 108.654 1472.25 M108.654 1468.54 Q114.464 1468.54 117.52 1473.15 Q120.598 1477.73 120.598 1486.48 Q120.598 1495.21 117.52 1499.82 Q114.464 1504.4 108.654 1504.4 Q102.844 1504.4 99.765 1499.82 Q96.7095 1495.21 96.7095 1486.48 Q96.7095 1477.73 99.765 1473.15 Q102.844 1468.54 108.654 1468.54 Z" fill="#000000" fill-rule="nonzero" fill-opacity="1" /><path clip-path="url(#clip340)" d="M64.6495 1120.79 Q61.0384 1120.79 59.2097 1124.36 Q57.4041 1127.9 57.4041 1135.03 Q57.4041 1142.14 59.2097 1145.7 Q61.0384 1149.24 64.6495 1149.24 Q68.2837 1149.24 70.0892 1145.7 Q71.9179 1142.14 71.9179 1135.03 Q71.9179 1127.9 70.0892 1124.36 Q68.2837 1120.79 64.6495 1120.79 M64.6495 1117.09 Q70.4596 1117.09 73.5152 1121.7 Q76.5938 1126.28 76.5938 1135.03 Q76.5938 1143.76 73.5152 1148.36 Q70.4596 1152.95 64.6495 1152.95 Q58.8393 1152.95 55.7606 1148.36 Q52.7051 1143.76 52.7051 1135.03 Q52.7051 1126.28 55.7606 1121.7 Q58.8393 1117.09 64.6495 1117.09 Z" fill="#000000" fill-rule="nonzero" fill-opacity="1" /><path clip-path="url(#clip340)" d="M84.8114 1146.39 L89.6956 1146.39 L89.6956 1152.27 L84.8114 1152.27 L84.8114 1146.39 Z" fill="#000000" fill-rule="nonzero" fill-opacity="1" /><path clip-path="url(#clip340)" d="M100.691 1148.34 L108.33 1148.34 L108.33 1121.97 L100.02 1123.64 L100.02 1119.38 L108.283 1117.71 L112.959 1117.71 L112.959 1148.34 L120.598 1148.34 L120.598 1152.27 L100.691 1152.27 L100.691 1148.34 Z" fill="#000000" fill-rule="nonzero" fill-opacity="1" /><path clip-path="url(#clip340)" d="M65.0198 769.339 Q61.4087 769.339 59.58 772.904 Q57.7745 776.445 57.7745 783.575 Q57.7745 790.681 59.58 794.246 Q61.4087 797.788 65.0198 797.788 Q68.6541 797.788 70.4596 794.246 Q72.2883 790.681 72.2883 783.575 Q72.2883 776.445 70.4596 772.904 Q68.6541 769.339 65.0198 769.339 M65.0198 765.635 Q70.83 765.635 73.8855 770.242 Q76.9642 774.825 76.9642 783.575 Q76.9642 792.302 73.8855 796.908 Q70.83 801.491 65.0198 801.491 Q59.2097 801.491 56.131 796.908 Q53.0754 792.302 53.0754 783.575 Q53.0754 774.825 56.131 770.242 Q59.2097 765.635 65.0198 765.635 Z" fill="#000000" fill-rule="nonzero" fill-opacity="1" /><path clip-path="url(#clip340)" d="M85.1818 794.94 L90.066 794.94 L90.066 800.82 L85.1818 800.82 L85.1818 794.94 Z" fill="#000000" fill-rule="nonzero" fill-opacity="1" /><path clip-path="url(#clip340)" d="M104.279 796.885 L120.598 796.885 L120.598 800.82 L98.6539 800.82 L98.6539 796.885 Q101.316 794.13 105.899 789.501 Q110.506 784.848 111.686 783.505 Q113.932 780.982 114.811 779.246 Q115.714 777.487 115.714 775.797 Q115.714 773.042 113.77 771.306 Q111.848 769.57 108.746 769.57 Q106.547 769.57 104.094 770.334 Q101.663 771.098 98.8854 772.649 L98.8854 767.927 Q101.709 766.792 104.163 766.214 Q106.617 765.635 108.654 765.635 Q114.024 765.635 117.219 768.32 Q120.413 771.005 120.413 775.496 Q120.413 777.626 119.603 779.547 Q118.816 781.445 116.709 784.038 Q116.131 784.709 113.029 787.927 Q109.927 791.121 104.279 796.885 Z" fill="#000000" fill-rule="nonzero" fill-opacity="1" /><path clip-path="url(#clip340)" d="M64.0708 417.885 Q60.4597 417.885 58.631 421.45 Q56.8254 424.991 56.8254 432.121 Q56.8254 439.227 58.631 442.792 Q60.4597 446.334 64.0708 446.334 Q67.705 446.334 69.5105 442.792 Q71.3392 439.227 71.3392 432.121 Q71.3392 424.991 69.5105 421.45 Q67.705 417.885 64.0708 417.885 M64.0708 414.181 Q69.8809 414.181 72.9365 418.788 Q76.0151 423.371 76.0151 432.121 Q76.0151 440.848 72.9365 445.454 Q69.8809 450.037 64.0708 450.037 Q58.2606 450.037 55.1819 445.454 Q52.1264 440.848 52.1264 432.121 Q52.1264 423.371 55.1819 418.788 Q58.2606 414.181 64.0708 414.181 Z" fill="#000000" fill-rule="nonzero" fill-opacity="1" /><path clip-path="url(#clip340)" d="M84.2327 443.487 L89.1169 443.487 L89.1169 449.366 L84.2327 449.366 L84.2327 443.487 Z" fill="#000000" fill-rule="nonzero" fill-opacity="1" /><path clip-path="url(#clip340)" d="M113.469 430.732 Q116.825 431.45 118.7 433.718 Q120.598 435.987 120.598 439.32 Q120.598 444.436 117.08 447.237 Q113.561 450.037 107.08 450.037 Q104.904 450.037 102.589 449.598 Q100.297 449.181 97.8437 448.324 L97.8437 443.811 Q99.7882 444.945 102.103 445.524 Q104.418 446.102 106.941 446.102 Q111.339 446.102 113.631 444.366 Q115.945 442.63 115.945 439.32 Q115.945 436.264 113.793 434.551 Q111.663 432.815 107.844 432.815 L103.816 432.815 L103.816 428.973 L108.029 428.973 Q111.478 428.973 113.307 427.607 Q115.135 426.218 115.135 423.626 Q115.135 420.964 113.237 419.551 Q111.362 418.116 107.844 418.116 Q105.922 418.116 103.723 418.533 Q101.524 418.95 98.8854 419.829 L98.8854 415.663 Q101.547 414.922 103.862 414.552 Q106.2 414.181 108.26 414.181 Q113.584 414.181 116.686 416.612 Q119.788 419.019 119.788 423.139 Q119.788 426.01 118.145 428.001 Q116.501 429.968 113.469 430.732 Z" fill="#000000" fill-rule="nonzero" fill-opacity="1" /><path clip-path="url(#clip340)" d="M62.9365 66.4309 Q59.3254 66.4309 57.4967 69.9957 Q55.6912 73.5373 55.6912 80.6669 Q55.6912 87.7734 57.4967 91.3382 Q59.3254 94.8798 62.9365 94.8798 Q66.5707 94.8798 68.3763 91.3382 Q70.205 87.7734 70.205 80.6669 Q70.205 73.5373 68.3763 69.9957 Q66.5707 66.4309 62.9365 66.4309 M62.9365 62.7272 Q68.7467 62.7272 71.8022 67.3337 Q74.8809 71.917 74.8809 80.6669 Q74.8809 89.3937 71.8022 94.0002 Q68.7467 98.5835 62.9365 98.5835 Q57.1264 98.5835 54.0477 94.0002 Q50.9921 89.3937 50.9921 80.6669 Q50.9921 71.917 54.0477 67.3337 Q57.1264 62.7272 62.9365 62.7272 Z" fill="#000000" fill-rule="nonzero" fill-opacity="1" /><path clip-path="url(#clip340)" d="M83.0984 92.0326 L87.9827 92.0326 L87.9827 97.9122 L83.0984 97.9122 L83.0984 92.0326 Z" fill="#000000" fill-rule="nonzero" fill-opacity="1" /><path clip-path="url(#clip340)" d="M111.015 67.4263 L99.2095 85.8752 L111.015 85.8752 L111.015 67.4263 M109.788 63.3522 L115.668 63.3522 L115.668 85.8752 L120.598 85.8752 L120.598 89.7641 L115.668 89.7641 L115.668 97.9122 L111.015 97.9122 L111.015 89.7641 L95.4132 89.7641 L95.4132 85.2502 L109.788 63.3522 Z" fill="#000000" fill-rule="nonzero" fill-opacity="1" /><path clip-path="url(#clip342)" d="M277.391 1484.69 L277.391 1486.45 L325.063 1486.45 L325.063 1484.69 L277.391 1484.69 L277.391 1484.69  Z" fill="#009af9" fill-rule="evenodd" fill-opacity="0.6"/>
<polyline clip-path="url(#clip342)" style="stroke:#000000; stroke-linecap:round; stroke-linejoin:round; stroke-width:4; stroke-opacity:0.6; fill:none" points="277.391,1484.69 277.391,1486.45 325.063,1486.45 325.063,1484.69 277.391,1484.69 "/>
<path clip-path="url(#clip342)" d="M325.063 1486.45 L325.063 1486.45 L372.736 1486.45 L372.736 1486.45 L325.063 1486.45 L325.063 1486.45  Z" fill="#009af9" fill-rule="evenodd" fill-opacity="0.6"/>
<polyline clip-path="url(#clip342)" style="stroke:#000000; stroke-linecap:round; stroke-linejoin:round; stroke-width:4; stroke-opacity:0.6; fill:none" points="325.063,1486.45 325.063,1486.45 372.736,1486.45 325.063,1486.45 "/>
<path clip-path="url(#clip342)" d="M372.736 1479.42 L372.736 1486.45 L420.408 1486.45 L420.408 1479.42 L372.736 1479.42 L372.736 1479.42  Z" fill="#009af9" fill-rule="evenodd" fill-opacity="0.6"/>
<polyline clip-path="url(#clip342)" style="stroke:#000000; stroke-linecap:round; stroke-linejoin:round; stroke-width:4; stroke-opacity:0.6; fill:none" points="372.736,1479.42 372.736,1486.45 420.408,1486.45 420.408,1479.42 372.736,1479.42 "/>
<path clip-path="url(#clip342)" d="M420.408 1482.93 L420.408 1486.45 L468.081 1486.45 L468.081 1482.93 L420.408 1482.93 L420.408 1482.93  Z" fill="#009af9" fill-rule="evenodd" fill-opacity="0.6"/>
<polyline clip-path="url(#clip342)" style="stroke:#000000; stroke-linecap:round; stroke-linejoin:round; stroke-width:4; stroke-opacity:0.6; fill:none" points="420.408,1482.93 420.408,1486.45 468.081,1486.45 468.081,1482.93 420.408,1482.93 "/>
<path clip-path="url(#clip342)" d="M468.081 1472.39 L468.081 1486.45 L515.753 1486.45 L515.753 1472.39 L468.081 1472.39 L468.081 1472.39  Z" fill="#009af9" fill-rule="evenodd" fill-opacity="0.6"/>
<polyline clip-path="url(#clip342)" style="stroke:#000000; stroke-linecap:round; stroke-linejoin:round; stroke-width:4; stroke-opacity:0.6; fill:none" points="468.081,1472.39 468.081,1486.45 515.753,1486.45 515.753,1472.39 468.081,1472.39 "/>
<path clip-path="url(#clip342)" d="M515.753 1465.36 L515.753 1486.45 L563.426 1486.45 L563.426 1465.36 L515.753 1465.36 L515.753 1465.36  Z" fill="#009af9" fill-rule="evenodd" fill-opacity="0.6"/>
<polyline clip-path="url(#clip342)" style="stroke:#000000; stroke-linecap:round; stroke-linejoin:round; stroke-width:4; stroke-opacity:0.6; fill:none" points="515.753,1465.36 515.753,1486.45 563.426,1486.45 563.426,1465.36 515.753,1465.36 "/>
<path clip-path="url(#clip342)" d="M563.426 1449.55 L563.426 1486.45 L611.098 1486.45 L611.098 1449.55 L563.426 1449.55 L563.426 1449.55  Z" fill="#009af9" fill-rule="evenodd" fill-opacity="0.6"/>
<polyline clip-path="url(#clip342)" style="stroke:#000000; stroke-linecap:round; stroke-linejoin:round; stroke-width:4; stroke-opacity:0.6; fill:none" points="563.426,1449.55 563.426,1486.45 611.098,1486.45 611.098,1449.55 563.426,1449.55 "/>
<path clip-path="url(#clip342)" d="M611.098 1395.07 L611.098 1486.45 L658.771 1486.45 L658.771 1395.07 L611.098 1395.07 L611.098 1395.07  Z" fill="#009af9" fill-rule="evenodd" fill-opacity="0.6"/>
<polyline clip-path="url(#clip342)" style="stroke:#000000; stroke-linecap:round; stroke-linejoin:round; stroke-width:4; stroke-opacity:0.6; fill:none" points="611.098,1395.07 611.098,1486.45 658.771,1486.45 658.771,1395.07 611.098,1395.07 "/>
<path clip-path="url(#clip342)" d="M658.771 1372.23 L658.771 1486.45 L706.443 1486.45 L706.443 1372.23 L658.771 1372.23 L658.771 1372.23  Z" fill="#009af9" fill-rule="evenodd" fill-opacity="0.6"/>
<polyline clip-path="url(#clip342)" style="stroke:#000000; stroke-linecap:round; stroke-linejoin:round; stroke-width:4; stroke-opacity:0.6; fill:none" points="658.771,1372.23 658.771,1486.45 706.443,1486.45 706.443,1372.23 658.771,1372.23 "/>
<path clip-path="url(#clip342)" d="M706.443 1352.9 L706.443 1486.45 L754.116 1486.45 L754.116 1352.9 L706.443 1352.9 L706.443 1352.9  Z" fill="#009af9" fill-rule="evenodd" fill-opacity="0.6"/>
<polyline clip-path="url(#clip342)" style="stroke:#000000; stroke-linecap:round; stroke-linejoin:round; stroke-width:4; stroke-opacity:0.6; fill:none" points="706.443,1352.9 706.443,1486.45 754.116,1486.45 754.116,1352.9 706.443,1352.9 "/>
<path clip-path="url(#clip342)" d="M754.116 1280.85 L754.116 1486.45 L801.788 1486.45 L801.788 1280.85 L754.116 1280.85 L754.116 1280.85  Z" fill="#009af9" fill-rule="evenodd" fill-opacity="0.6"/>
<polyline clip-path="url(#clip342)" style="stroke:#000000; stroke-linecap:round; stroke-linejoin:round; stroke-width:4; stroke-opacity:0.6; fill:none" points="754.116,1280.85 754.116,1486.45 801.788,1486.45 801.788,1280.85 754.116,1280.85 "/>
<path clip-path="url(#clip342)" d="M801.788 1138.51 L801.788 1486.45 L849.461 1486.45 L849.461 1138.51 L801.788 1138.51 L801.788 1138.51  Z" fill="#009af9" fill-rule="evenodd" fill-opacity="0.6"/>
<polyline clip-path="url(#clip342)" style="stroke:#000000; stroke-linecap:round; stroke-linejoin:round; stroke-width:4; stroke-opacity:0.6; fill:none" points="801.788,1138.51 801.788,1486.45 849.461,1486.45 849.461,1138.51 801.788,1138.51 "/>
<path clip-path="url(#clip342)" d="M849.461 1057.67 L849.461 1486.45 L897.133 1486.45 L897.133 1057.67 L849.461 1057.67 L849.461 1057.67  Z" fill="#009af9" fill-rule="evenodd" fill-opacity="0.6"/>
<polyline clip-path="url(#clip342)" style="stroke:#000000; stroke-linecap:round; stroke-linejoin:round; stroke-width:4; stroke-opacity:0.6; fill:none" points="849.461,1057.67 849.461,1486.45 897.133,1486.45 897.133,1057.67 849.461,1057.67 "/>
<path clip-path="url(#clip342)" d="M897.133 848.559 L897.133 1486.45 L944.806 1486.45 L944.806 848.559 L897.133 848.559 L897.133 848.559  Z" fill="#009af9" fill-rule="evenodd" fill-opacity="0.6"/>
<polyline clip-path="url(#clip342)" style="stroke:#000000; stroke-linecap:round; stroke-linejoin:round; stroke-width:4; stroke-opacity:0.6; fill:none" points="897.133,848.559 897.133,1486.45 944.806,1486.45 944.806,848.559 897.133,848.559 "/>
<path clip-path="url(#clip342)" d="M944.806 706.22 L944.806 1486.45 L992.478 1486.45 L992.478 706.22 L944.806 706.22 L944.806 706.22  Z" fill="#009af9" fill-rule="evenodd" fill-opacity="0.6"/>
<polyline clip-path="url(#clip342)" style="stroke:#000000; stroke-linecap:round; stroke-linejoin:round; stroke-width:4; stroke-opacity:0.6; fill:none" points="944.806,706.22 944.806,1486.45 992.478,1486.45 992.478,706.22 944.806,706.22 "/>
<path clip-path="url(#clip342)" d="M992.478 526.979 L992.478 1486.45 L1040.15 1486.45 L1040.15 526.979 L992.478 526.979 L992.478 526.979  Z" fill="#009af9" fill-rule="evenodd" fill-opacity="0.6"/>
<polyline clip-path="url(#clip342)" style="stroke:#000000; stroke-linecap:round; stroke-linejoin:round; stroke-width:4; stroke-opacity:0.6; fill:none" points="992.478,526.979 992.478,1486.45 1040.15,1486.45 1040.15,526.979 992.478,526.979 "/>
<path clip-path="url(#clip342)" d="M1040.15 419.785 L1040.15 1486.45 L1087.82 1486.45 L1087.82 419.785 L1040.15 419.785 L1040.15 419.785  Z" fill="#009af9" fill-rule="evenodd" fill-opacity="0.6"/>
<polyline clip-path="url(#clip342)" style="stroke:#000000; stroke-linecap:round; stroke-linejoin:round; stroke-width:4; stroke-opacity:0.6; fill:none" points="1040.15,419.785 1040.15,1486.45 1087.82,1486.45 1087.82,419.785 1040.15,419.785 "/>
<path clip-path="url(#clip342)" d="M1087.82 201.884 L1087.82 1486.45 L1135.5 1486.45 L1135.5 201.884 L1087.82 201.884 L1087.82 201.884  Z" fill="#009af9" fill-rule="evenodd" fill-opacity="0.6"/>
<polyline clip-path="url(#clip342)" style="stroke:#000000; stroke-linecap:round; stroke-linejoin:round; stroke-width:4; stroke-opacity:0.6; fill:none" points="1087.82,201.884 1087.82,1486.45 1135.5,1486.45 1135.5,201.884 1087.82,201.884 "/>
<path clip-path="url(#clip342)" d="M1135.5 219.457 L1135.5 1486.45 L1183.17 1486.45 L1183.17 219.457 L1135.5 219.457 L1135.5 219.457  Z" fill="#009af9" fill-rule="evenodd" fill-opacity="0.6"/>
<polyline clip-path="url(#clip342)" style="stroke:#000000; stroke-linecap:round; stroke-linejoin:round; stroke-width:4; stroke-opacity:0.6; fill:none" points="1135.5,219.457 1135.5,1486.45 1183.17,1486.45 1183.17,219.457 1135.5,219.457 "/>
<path clip-path="url(#clip342)" d="M1183.17 47.2441 L1183.17 1486.45 L1230.84 1486.45 L1230.84 47.2441 L1183.17 47.2441 L1183.17 47.2441  Z" fill="#009af9" fill-rule="evenodd" fill-opacity="0.6"/>
<polyline clip-path="url(#clip342)" style="stroke:#000000; stroke-linecap:round; stroke-linejoin:round; stroke-width:4; stroke-opacity:0.6; fill:none" points="1183.17,47.2441 1183.17,1486.45 1230.84,1486.45 1230.84,47.2441 1183.17,47.2441 "/>
<path clip-path="url(#clip342)" d="M1230.84 54.2732 L1230.84 1486.45 L1278.51 1486.45 L1278.51 54.2732 L1230.84 54.2732 L1230.84 54.2732  Z" fill="#009af9" fill-rule="evenodd" fill-opacity="0.6"/>
<polyline clip-path="url(#clip342)" style="stroke:#000000; stroke-linecap:round; stroke-linejoin:round; stroke-width:4; stroke-opacity:0.6; fill:none" points="1230.84,54.2732 1230.84,1486.45 1278.51,1486.45 1278.51,54.2732 1230.84,54.2732 "/>
<path clip-path="url(#clip342)" d="M1278.51 115.778 L1278.51 1486.45 L1326.19 1486.45 L1326.19 115.778 L1278.51 115.778 L1278.51 115.778  Z" fill="#009af9" fill-rule="evenodd" fill-opacity="0.6"/>
<polyline clip-path="url(#clip342)" style="stroke:#000000; stroke-linecap:round; stroke-linejoin:round; stroke-width:4; stroke-opacity:0.6; fill:none" points="1278.51,115.778 1278.51,1486.45 1326.19,1486.45 1326.19,115.778 1278.51,115.778 "/>
<path clip-path="url(#clip342)" d="M1326.19 303.805 L1326.19 1486.45 L1373.86 1486.45 L1373.86 303.805 L1326.19 303.805 L1326.19 303.805  Z" fill="#009af9" fill-rule="evenodd" fill-opacity="0.6"/>
<polyline clip-path="url(#clip342)" style="stroke:#000000; stroke-linecap:round; stroke-linejoin:round; stroke-width:4; stroke-opacity:0.6; fill:none" points="1326.19,303.805 1326.19,1486.45 1373.86,1486.45 1373.86,303.805 1326.19,303.805 "/>
<path clip-path="url(#clip342)" d="M1373.86 403.97 L1373.86 1486.45 L1421.53 1486.45 L1421.53 403.97 L1373.86 403.97 L1373.86 403.97  Z" fill="#009af9" fill-rule="evenodd" fill-opacity="0.6"/>
<polyline clip-path="url(#clip342)" style="stroke:#000000; stroke-linecap:round; stroke-linejoin:round; stroke-width:4; stroke-opacity:0.6; fill:none" points="1373.86,403.97 1373.86,1486.45 1421.53,1486.45 1421.53,403.97 1373.86,403.97 "/>
<path clip-path="url(#clip342)" d="M1421.53 593.755 L1421.53 1486.45 L1469.2 1486.45 L1469.2 593.755 L1421.53 593.755 L1421.53 593.755  Z" fill="#009af9" fill-rule="evenodd" fill-opacity="0.6"/>
<polyline clip-path="url(#clip342)" style="stroke:#000000; stroke-linecap:round; stroke-linejoin:round; stroke-width:4; stroke-opacity:0.6; fill:none" points="1421.53,593.755 1421.53,1486.45 1469.2,1486.45 1469.2,593.755 1421.53,593.755 "/>
<path clip-path="url(#clip342)" d="M1469.2 790.569 L1469.2 1486.45 L1516.88 1486.45 L1516.88 790.569 L1469.2 790.569 L1469.2 790.569  Z" fill="#009af9" fill-rule="evenodd" fill-opacity="0.6"/>
<polyline clip-path="url(#clip342)" style="stroke:#000000; stroke-linecap:round; stroke-linejoin:round; stroke-width:4; stroke-opacity:0.6; fill:none" points="1469.2,790.569 1469.2,1486.45 1516.88,1486.45 1516.88,790.569 1469.2,790.569 "/>
<path clip-path="url(#clip342)" d="M1516.88 839.773 L1516.88 1486.45 L1564.55 1486.45 L1564.55 839.773 L1516.88 839.773 L1516.88 839.773  Z" fill="#009af9" fill-rule="evenodd" fill-opacity="0.6"/>
<polyline clip-path="url(#clip342)" style="stroke:#000000; stroke-linecap:round; stroke-linejoin:round; stroke-width:4; stroke-opacity:0.6; fill:none" points="1516.88,839.773 1516.88,1486.45 1564.55,1486.45 1564.55,839.773 1516.88,839.773 "/>
<path clip-path="url(#clip342)" d="M1564.55 1052.4 L1564.55 1486.45 L1612.22 1486.45 L1612.22 1052.4 L1564.55 1052.4 L1564.55 1052.4  Z" fill="#009af9" fill-rule="evenodd" fill-opacity="0.6"/>
<polyline clip-path="url(#clip342)" style="stroke:#000000; stroke-linecap:round; stroke-linejoin:round; stroke-width:4; stroke-opacity:0.6; fill:none" points="1564.55,1052.4 1564.55,1486.45 1612.22,1486.45 1612.22,1052.4 1564.55,1052.4 "/>
<path clip-path="url(#clip342)" d="M1612.22 1126.21 L1612.22 1486.45 L1659.89 1486.45 L1659.89 1126.21 L1612.22 1126.21 L1612.22 1126.21  Z" fill="#009af9" fill-rule="evenodd" fill-opacity="0.6"/>
<polyline clip-path="url(#clip342)" style="stroke:#000000; stroke-linecap:round; stroke-linejoin:round; stroke-width:4; stroke-opacity:0.6; fill:none" points="1612.22,1126.21 1612.22,1486.45 1659.89,1486.45 1659.89,1126.21 1612.22,1126.21 "/>
<path clip-path="url(#clip342)" d="M1659.89 1247.46 L1659.89 1486.45 L1707.57 1486.45 L1707.57 1247.46 L1659.89 1247.46 L1659.89 1247.46  Z" fill="#009af9" fill-rule="evenodd" fill-opacity="0.6"/>
<polyline clip-path="url(#clip342)" style="stroke:#000000; stroke-linecap:round; stroke-linejoin:round; stroke-width:4; stroke-opacity:0.6; fill:none" points="1659.89,1247.46 1659.89,1486.45 1707.57,1486.45 1707.57,1247.46 1659.89,1247.46 "/>
<path clip-path="url(#clip342)" d="M1707.57 1319.51 L1707.57 1486.45 L1755.24 1486.45 L1755.24 1319.51 L1707.57 1319.51 L1707.57 1319.51  Z" fill="#009af9" fill-rule="evenodd" fill-opacity="0.6"/>
<polyline clip-path="url(#clip342)" style="stroke:#000000; stroke-linecap:round; stroke-linejoin:round; stroke-width:4; stroke-opacity:0.6; fill:none" points="1707.57,1319.51 1707.57,1486.45 1755.24,1486.45 1755.24,1319.51 1707.57,1319.51 "/>
<path clip-path="url(#clip342)" d="M1755.24 1388.04 L1755.24 1486.45 L1802.91 1486.45 L1802.91 1388.04 L1755.24 1388.04 L1755.24 1388.04  Z" fill="#009af9" fill-rule="evenodd" fill-opacity="0.6"/>
<polyline clip-path="url(#clip342)" style="stroke:#000000; stroke-linecap:round; stroke-linejoin:round; stroke-width:4; stroke-opacity:0.6; fill:none" points="1755.24,1388.04 1755.24,1486.45 1802.91,1486.45 1802.91,1388.04 1755.24,1388.04 "/>
<path clip-path="url(#clip342)" d="M1802.91 1435.49 L1802.91 1486.45 L1850.58 1486.45 L1850.58 1435.49 L1802.91 1435.49 L1802.91 1435.49  Z" fill="#009af9" fill-rule="evenodd" fill-opacity="0.6"/>
<polyline clip-path="url(#clip342)" style="stroke:#000000; stroke-linecap:round; stroke-linejoin:round; stroke-width:4; stroke-opacity:0.6; fill:none" points="1802.91,1435.49 1802.91,1486.45 1850.58,1486.45 1850.58,1435.49 1802.91,1435.49 "/>
<path clip-path="url(#clip342)" d="M1850.58 1449.55 L1850.58 1486.45 L1898.26 1486.45 L1898.26 1449.55 L1850.58 1449.55 L1850.58 1449.55  Z" fill="#009af9" fill-rule="evenodd" fill-opacity="0.6"/>
<polyline clip-path="url(#clip342)" style="stroke:#000000; stroke-linecap:round; stroke-linejoin:round; stroke-width:4; stroke-opacity:0.6; fill:none" points="1850.58,1449.55 1850.58,1486.45 1898.26,1486.45 1898.26,1449.55 1850.58,1449.55 "/>
<path clip-path="url(#clip342)" d="M1898.26 1456.57 L1898.26 1486.45 L1945.93 1486.45 L1945.93 1456.57 L1898.26 1456.57 L1898.26 1456.57  Z" fill="#009af9" fill-rule="evenodd" fill-opacity="0.6"/>
<polyline clip-path="url(#clip342)" style="stroke:#000000; stroke-linecap:round; stroke-linejoin:round; stroke-width:4; stroke-opacity:0.6; fill:none" points="1898.26,1456.57 1898.26,1486.45 1945.93,1486.45 1945.93,1456.57 1898.26,1456.57 "/>
<path clip-path="url(#clip342)" d="M1945.93 1481.18 L1945.93 1486.45 L1993.6 1486.45 L1993.6 1481.18 L1945.93 1481.18 L1945.93 1481.18  Z" fill="#009af9" fill-rule="evenodd" fill-opacity="0.6"/>
<polyline clip-path="url(#clip342)" style="stroke:#000000; stroke-linecap:round; stroke-linejoin:round; stroke-width:4; stroke-opacity:0.6; fill:none" points="1945.93,1481.18 1945.93,1486.45 1993.6,1486.45 1993.6,1481.18 1945.93,1481.18 "/>
<path clip-path="url(#clip342)" d="M1993.6 1484.69 L1993.6 1486.45 L2041.27 1486.45 L2041.27 1484.69 L1993.6 1484.69 L1993.6 1484.69  Z" fill="#009af9" fill-rule="evenodd" fill-opacity="0.6"/>
<polyline clip-path="url(#clip342)" style="stroke:#000000; stroke-linecap:round; stroke-linejoin:round; stroke-width:4; stroke-opacity:0.6; fill:none" points="1993.6,1484.69 1993.6,1486.45 2041.27,1486.45 2041.27,1484.69 1993.6,1484.69 "/>
<path clip-path="url(#clip342)" d="M2041.27 1484.69 L2041.27 1486.45 L2088.95 1486.45 L2088.95 1484.69 L2041.27 1484.69 L2041.27 1484.69  Z" fill="#009af9" fill-rule="evenodd" fill-opacity="0.6"/>
<polyline clip-path="url(#clip342)" style="stroke:#000000; stroke-linecap:round; stroke-linejoin:round; stroke-width:4; stroke-opacity:0.6; fill:none" points="2041.27,1484.69 2041.27,1486.45 2088.95,1486.45 2088.95,1484.69 2041.27,1484.69 "/>
<path clip-path="url(#clip342)" d="M2088.95 1486.45 L2088.95 1486.45 L2136.62 1486.45 L2136.62 1486.45 L2088.95 1486.45 L2088.95 1486.45  Z" fill="#009af9" fill-rule="evenodd" fill-opacity="0.6"/>
<polyline clip-path="url(#clip342)" style="stroke:#000000; stroke-linecap:round; stroke-linejoin:round; stroke-width:4; stroke-opacity:0.6; fill:none" points="2088.95,1486.45 2088.95,1486.45 2136.62,1486.45 2088.95,1486.45 "/>
<path clip-path="url(#clip342)" d="M2136.62 1484.69 L2136.62 1486.45 L2184.29 1486.45 L2184.29 1484.69 L2136.62 1484.69 L2136.62 1484.69  Z" fill="#009af9" fill-rule="evenodd" fill-opacity="0.6"/>
<polyline clip-path="url(#clip342)" style="stroke:#000000; stroke-linecap:round; stroke-linejoin:round; stroke-width:4; stroke-opacity:0.6; fill:none" points="2136.62,1484.69 2136.62,1486.45 2184.29,1486.45 2184.29,1484.69 2136.62,1484.69 "/>
<path clip-path="url(#clip342)" d="M2184.29 1484.69 L2184.29 1486.45 L2231.96 1486.45 L2231.96 1484.69 L2184.29 1484.69 L2184.29 1484.69  Z" fill="#009af9" fill-rule="evenodd" fill-opacity="0.6"/>
<polyline clip-path="url(#clip342)" style="stroke:#000000; stroke-linecap:round; stroke-linejoin:round; stroke-width:4; stroke-opacity:0.6; fill:none" points="2184.29,1484.69 2184.29,1486.45 2231.96,1486.45 2231.96,1484.69 2184.29,1484.69 "/>
<circle clip-path="url(#clip342)" style="fill:#009af9; stroke:none; fill-opacity:0" cx="301.227" cy="1484.69" r="2"/>
<circle clip-path="url(#clip342)" style="fill:#009af9; stroke:none; fill-opacity:0" cx="348.9" cy="1486.45" r="2"/>
<circle clip-path="url(#clip342)" style="fill:#009af9; stroke:none; fill-opacity:0" cx="396.572" cy="1479.42" r="2"/>
<circle clip-path="url(#clip342)" style="fill:#009af9; stroke:none; fill-opacity:0" cx="444.245" cy="1482.93" r="2"/>
<circle clip-path="url(#clip342)" style="fill:#009af9; stroke:none; fill-opacity:0" cx="491.917" cy="1472.39" r="2"/>
<circle clip-path="url(#clip342)" style="fill:#009af9; stroke:none; fill-opacity:0" cx="539.59" cy="1465.36" r="2"/>
<circle clip-path="url(#clip342)" style="fill:#009af9; stroke:none; fill-opacity:0" cx="587.262" cy="1449.55" r="2"/>
<circle clip-path="url(#clip342)" style="fill:#009af9; stroke:none; fill-opacity:0" cx="634.935" cy="1395.07" r="2"/>
<circle clip-path="url(#clip342)" style="fill:#009af9; stroke:none; fill-opacity:0" cx="682.607" cy="1372.23" r="2"/>
<circle clip-path="url(#clip342)" style="fill:#009af9; stroke:none; fill-opacity:0" cx="730.28" cy="1352.9" r="2"/>
<circle clip-path="url(#clip342)" style="fill:#009af9; stroke:none; fill-opacity:0" cx="777.952" cy="1280.85" r="2"/>
<circle clip-path="url(#clip342)" style="fill:#009af9; stroke:none; fill-opacity:0" cx="825.625" cy="1138.51" r="2"/>
<circle clip-path="url(#clip342)" style="fill:#009af9; stroke:none; fill-opacity:0" cx="873.297" cy="1057.67" r="2"/>
<circle clip-path="url(#clip342)" style="fill:#009af9; stroke:none; fill-opacity:0" cx="920.97" cy="848.559" r="2"/>
<circle clip-path="url(#clip342)" style="fill:#009af9; stroke:none; fill-opacity:0" cx="968.642" cy="706.22" r="2"/>
<circle clip-path="url(#clip342)" style="fill:#009af9; stroke:none; fill-opacity:0" cx="1016.31" cy="526.979" r="2"/>
<circle clip-path="url(#clip342)" style="fill:#009af9; stroke:none; fill-opacity:0" cx="1063.99" cy="419.785" r="2"/>
<circle clip-path="url(#clip342)" style="fill:#009af9; stroke:none; fill-opacity:0" cx="1111.66" cy="201.884" r="2"/>
<circle clip-path="url(#clip342)" style="fill:#009af9; stroke:none; fill-opacity:0" cx="1159.33" cy="219.457" r="2"/>
<circle clip-path="url(#clip342)" style="fill:#009af9; stroke:none; fill-opacity:0" cx="1207" cy="47.2441" r="2"/>
<circle clip-path="url(#clip342)" style="fill:#009af9; stroke:none; fill-opacity:0" cx="1254.68" cy="54.2732" r="2"/>
<circle clip-path="url(#clip342)" style="fill:#009af9; stroke:none; fill-opacity:0" cx="1302.35" cy="115.778" r="2"/>
<circle clip-path="url(#clip342)" style="fill:#009af9; stroke:none; fill-opacity:0" cx="1350.02" cy="303.805" r="2"/>
<circle clip-path="url(#clip342)" style="fill:#009af9; stroke:none; fill-opacity:0" cx="1397.69" cy="403.97" r="2"/>
<circle clip-path="url(#clip342)" style="fill:#009af9; stroke:none; fill-opacity:0" cx="1445.37" cy="593.755" r="2"/>
<circle clip-path="url(#clip342)" style="fill:#009af9; stroke:none; fill-opacity:0" cx="1493.04" cy="790.569" r="2"/>
<circle clip-path="url(#clip342)" style="fill:#009af9; stroke:none; fill-opacity:0" cx="1540.71" cy="839.773" r="2"/>
<circle clip-path="url(#clip342)" style="fill:#009af9; stroke:none; fill-opacity:0" cx="1588.38" cy="1052.4" r="2"/>
<circle clip-path="url(#clip342)" style="fill:#009af9; stroke:none; fill-opacity:0" cx="1636.06" cy="1126.21" r="2"/>
<circle clip-path="url(#clip342)" style="fill:#009af9; stroke:none; fill-opacity:0" cx="1683.73" cy="1247.46" r="2"/>
<circle clip-path="url(#clip342)" style="fill:#009af9; stroke:none; fill-opacity:0" cx="1731.4" cy="1319.51" r="2"/>
<circle clip-path="url(#clip342)" style="fill:#009af9; stroke:none; fill-opacity:0" cx="1779.07" cy="1388.04" r="2"/>
<circle clip-path="url(#clip342)" style="fill:#009af9; stroke:none; fill-opacity:0" cx="1826.75" cy="1435.49" r="2"/>
<circle clip-path="url(#clip342)" style="fill:#009af9; stroke:none; fill-opacity:0" cx="1874.42" cy="1449.55" r="2"/>
<circle clip-path="url(#clip342)" style="fill:#009af9; stroke:none; fill-opacity:0" cx="1922.09" cy="1456.57" r="2"/>
<circle clip-path="url(#clip342)" style="fill:#009af9; stroke:none; fill-opacity:0" cx="1969.76" cy="1481.18" r="2"/>
<circle clip-path="url(#clip342)" style="fill:#009af9; stroke:none; fill-opacity:0" cx="2017.44" cy="1484.69" r="2"/>
<circle clip-path="url(#clip342)" style="fill:#009af9; stroke:none; fill-opacity:0" cx="2065.11" cy="1484.69" r="2"/>
<circle clip-path="url(#clip342)" style="fill:#009af9; stroke:none; fill-opacity:0" cx="2112.78" cy="1486.45" r="2"/>
<circle clip-path="url(#clip342)" style="fill:#009af9; stroke:none; fill-opacity:0" cx="2160.45" cy="1484.69" r="2"/>
<circle clip-path="url(#clip342)" style="fill:#009af9; stroke:none; fill-opacity:0" cx="2208.13" cy="1484.69" r="2"/>
<polyline clip-path="url(#clip342)" style="stroke:#e26f46; stroke-linecap:round; stroke-linejoin:round; stroke-width:8; stroke-opacity:1; fill:none" points="218.754,1486.28 229.448,1486.24 240.143,1486.2 302.78,1485.73 365.417,1484.52 394.556,1483.47 423.695,1481.91 462.751,1478.65 501.808,1473.4 534.081,1466.89 566.354,1457.66 581.36,1452.2 596.365,1445.87 611.37,1438.57 626.376,1430.17 645.212,1417.9 664.049,1403.47 682.886,1386.62 701.723,1367.11 718.62,1347.12 735.516,1324.61 752.413,1299.39 769.31,1271.33 778.98,1253.94 788.651,1235.56 798.321,1216.17 807.991,1195.77 817.662,1174.33 827.332,1151.87 837.002,1128.38 846.672,1103.87 861.13,1065.36 875.587,1024.67 890.044,981.91 904.501,937.216 922.992,877.509 941.483,815.361 959.974,751.308 978.465,685.973 1012.22,565.77 1045.97,448.539 1055.58,416.463 1065.18,385.184 1074.78,354.829 1084.39,325.523 1093.99,297.391 1103.6,270.552 1113.2,245.124 1122.8,221.221 1130.42,203.426 1138.03,186.707 1145.64,171.113 1153.26,156.689 1160.87,143.478 1168.48,131.518 1176.1,120.846 1183.71,111.493 1193.17,101.753 1202.63,94.1381 1212.08,88.6838 1221.54,85.416 1231,84.3499 1240.46,85.4907 1249.92,88.833 1259.38,94.361 1266.62,100.057 1273.86,107.003 1281.11,115.182 1288.35,124.571 1295.59,135.144 1302.84,146.873 1310.08,159.725 1317.33,173.668 1327.54,195.103 1337.75,218.518 1347.96,243.792 1358.18,270.795 1368.39,299.393 1378.6,329.444 1388.81,360.802 1399.03,393.319 1414.29,443.748 1429.55,495.921 1444.82,549.334 1460.08,603.495 1494.79,726.994 1529.51,846.929 1546.7,903.702 1563.89,958.189 1581.08,1010.07 1598.27,1059.08 1607.73,1084.74 1617.18,1109.46 1626.64,1133.22 1636.1,1156 1645.55,1177.79 1655.01,1198.61 1664.46,1218.44 1673.92,1237.29 1688.37,1264.25 1702.81,1289.01 1717.26,1311.66 1731.7,1332.27 1749.93,1355.55 1768.16,1375.95 1786.39,1393.72 1804.62,1409.09 1821.48,1421.36 1838.34,1431.96 1855.2,1441.06 1872.06,1448.83 1906.84,1461.31 1941.61,1470.01 1976.86,1475.98 2012.11,1479.93 2085.73,1484.19 2143.72,1485.53 2275.78,1486.35 2290.6,1486.38 "/>
<path clip-path="url(#clip340)" d="M2036.67 198.898 L2279.55 198.898 L2279.55 95.2176 L2036.67 95.2176  Z" fill="#ffffff" fill-rule="evenodd" fill-opacity="1"/>
<polyline clip-path="url(#clip340)" style="stroke:#000000; stroke-linecap:round; stroke-linejoin:round; stroke-width:4; stroke-opacity:1; fill:none" points="2036.67,198.898 2279.55,198.898 2279.55,95.2176 2036.67,95.2176 2036.67,198.898 "/>
<polyline clip-path="url(#clip340)" style="stroke:#e26f46; stroke-linecap:round; stroke-linejoin:round; stroke-width:8; stroke-opacity:1; fill:none" points="2061.07,147.058 2207.48,147.058 "/>
<path clip-path="url(#clip340)" d="M2255.8 128.413 Q2255.8 129.701 2254.98 130.498 Q2254.18 131.294 2253.18 131.294 Q2252.45 131.294 2251.91 130.849 Q2251.4 130.404 2251.4 129.631 Q2251.4 128.835 2252.01 127.992 Q2252.61 127.148 2254 127.031 Q2253.08 126.165 2251.63 126.165 Q2250.9 126.165 2250.3 126.633 Q2249.71 127.078 2249.38 127.804 Q2249.03 128.554 2248.23 132.793 Q2247.98 134.175 2247.74 135.51 Q2247.51 136.845 2247.23 138.251 L2251.21 138.251 Q2251.72 138.251 2251.94 138.274 Q2252.15 138.297 2252.31 138.414 Q2252.5 138.532 2252.5 138.789 Q2252.5 139.445 2252.19 139.609 Q2251.91 139.75 2251.07 139.75 L2246.95 139.75 L2244.07 154.951 Q2244 155.396 2243.69 156.801 Q2243.41 158.183 2242.73 160.455 Q2242.05 162.75 2241.37 164.109 Q2241 164.882 2240.51 165.608 Q2240.04 166.357 2239.36 167.107 Q2238.68 167.857 2237.79 168.302 Q2236.9 168.77 2235.96 168.77 Q2234.37 168.77 2233.13 167.88 Q2231.89 166.99 2231.89 165.467 Q2231.89 164.179 2232.68 163.383 Q2233.5 162.586 2234.51 162.586 Q2235.24 162.586 2235.75 163.031 Q2236.29 163.477 2236.29 164.249 Q2236.29 164.577 2236.17 164.952 Q2236.06 165.327 2235.8 165.748 Q2235.54 166.194 2234.98 166.498 Q2234.42 166.802 2233.64 166.849 Q2234.56 167.716 2235.96 167.716 Q2236.41 167.716 2236.8 167.529 Q2237.2 167.365 2237.53 166.943 Q2237.88 166.521 2238.14 166.1 Q2238.4 165.702 2238.66 164.929 Q2238.91 164.179 2239.08 163.617 Q2239.24 163.055 2239.45 162.048 Q2239.69 161.041 2239.8 160.432 Q2239.92 159.846 2240.13 158.698 L2243.71 139.75 L2240.55 139.75 Q2239.99 139.75 2239.76 139.726 Q2239.55 139.703 2239.38 139.586 Q2239.22 139.445 2239.22 139.164 Q2239.22 138.719 2239.4 138.532 Q2239.62 138.321 2239.85 138.297 Q2240.08 138.251 2240.65 138.251 L2243.97 138.251 Q2245.1 132.325 2245.54 130.732 Q2246.06 129.046 2246.85 127.874 Q2247.65 126.68 2248.54 126.118 Q2249.43 125.556 2250.16 125.345 Q2250.9 125.111 2251.63 125.111 Q2253.27 125.111 2254.54 126.001 Q2255.8 126.867 2255.8 128.413 Z" fill="#000000" fill-rule="nonzero" fill-opacity="1" /></svg>
