<?xml version="1.0" encoding="UTF-8" standalone="no"?>
<svg
   width="600"
   height="400"
   viewBox="0 0 2400 1600"
   version="1.1"
   id="svg129"
   sodipodi:docname="cotas1.svg"
   inkscape:version="1.3.2 (091e20e, 2023-11-25)"
   xmlns:inkscape="http://www.inkscape.org/namespaces/inkscape"
   xmlns:sodipodi="http://sodipodi.sourceforge.net/DTD/sodipodi-0.dtd"
   xmlns="http://www.w3.org/2000/svg"
   xmlns:svg="http://www.w3.org/2000/svg">
  <sodipodi:namedview
     id="namedview129"
     pagecolor="#ffffff"
     bordercolor="#000000"
     borderopacity="0.25"
     inkscape:showpageshadow="2"
     inkscape:pageopacity="0.0"
     inkscape:pagecheckerboard="0"
     inkscape:deskcolor="#d1d1d1"
     inkscape:zoom="1.2995379"
     inkscape:cx="324.73083"
     inkscape:cy="200.07113"
     inkscape:window-width="1440"
     inkscape:window-height="847"
     inkscape:window-x="0"
     inkscape:window-y="25"
     inkscape:window-maximized="0"
     inkscape:current-layer="svg129" />
  <defs
     id="defs1">
    <clipPath
       id="clip460">
      <rect
         x="0"
         y="0"
         width="2400"
         height="1600"
         id="rect1" />
    </clipPath>
  </defs>
  <defs
     id="defs2">
    <clipPath
       id="clip461">
      <rect
         x="480"
         y="0"
         width="1681"
         height="1600"
         id="rect2" />
    </clipPath>
  </defs>
  <defs
     id="defs3">
    <clipPath
       id="clip462">
      <rect
         x="178"
         y="47"
         width="986"
         height="1377"
         id="rect3" />
    </clipPath>
  </defs>
  <polyline
     clip-path="url(#clip462)"
     style="stroke:#000000; stroke-linecap:round; stroke-linejoin:round; stroke-width:2; stroke-opacity:0.1; fill:none"
     points="178.867,1423.18 178.867,47.2441 "
     id="polyline3" />
  <polyline
     clip-path="url(#clip462)"
     style="stroke:#000000; stroke-linecap:round; stroke-linejoin:round; stroke-width:2; stroke-opacity:0.1; fill:none"
     points="343.078,1423.18 343.078,47.2441 "
     id="polyline4" />
  <polyline
     clip-path="url(#clip462)"
     style="stroke:#000000; stroke-linecap:round; stroke-linejoin:round; stroke-width:2; stroke-opacity:0.1; fill:none"
     points="507.289,1423.18 507.289,47.2441 "
     id="polyline5" />
  <polyline
     clip-path="url(#clip462)"
     style="stroke:#000000; stroke-linecap:round; stroke-linejoin:round; stroke-width:2; stroke-opacity:0.1; fill:none"
     points="671.5,1423.18 671.5,47.2441 "
     id="polyline6" />
  <polyline
     clip-path="url(#clip462)"
     style="stroke:#000000; stroke-linecap:round; stroke-linejoin:round; stroke-width:2; stroke-opacity:0.1; fill:none"
     points="835.711,1423.18 835.711,47.2441 "
     id="polyline7" />
  <polyline
     clip-path="url(#clip462)"
     style="stroke:#000000; stroke-linecap:round; stroke-linejoin:round; stroke-width:2; stroke-opacity:0.1; fill:none"
     points="999.922,1423.18 999.922,47.2441 "
     id="polyline8" />
  <polyline
     clip-path="url(#clip462)"
     style="stroke:#000000; stroke-linecap:round; stroke-linejoin:round; stroke-width:2; stroke-opacity:0.1; fill:none"
     points="1164.13,1423.18 1164.13,47.2441 "
     id="polyline9" />
  <polyline
     clip-path="url(#clip462)"
     style="stroke:#000000; stroke-linecap:round; stroke-linejoin:round; stroke-width:2; stroke-opacity:0.1; fill:none"
     points="178.867,1124.03 1164.13,1124.03 "
     id="polyline10" />
  <polyline
     clip-path="url(#clip462)"
     style="stroke:#000000; stroke-linecap:round; stroke-linejoin:round; stroke-width:2; stroke-opacity:0.1; fill:none"
     points="178.867,792.03 1164.13,792.03 "
     id="polyline11" />
  <polyline
     clip-path="url(#clip462)"
     style="stroke:#000000; stroke-linecap:round; stroke-linejoin:round; stroke-width:2; stroke-opacity:0.1; fill:none"
     points="178.867,460.036 1164.13,460.036 "
     id="polyline12" />
  <polyline
     clip-path="url(#clip462)"
     style="stroke:#000000; stroke-linecap:round; stroke-linejoin:round; stroke-width:2; stroke-opacity:0.1; fill:none"
     points="178.867,128.041 1164.13,128.041 "
     id="polyline13" />
  <polyline
     clip-path="url(#clip460)"
     style="stroke:#000000; stroke-linecap:round; stroke-linejoin:round; stroke-width:4; stroke-opacity:1; fill:none"
     points="178.867,1423.18 1164.13,1423.18 "
     id="polyline14" />
  <polyline
     clip-path="url(#clip460)"
     style="stroke:#000000; stroke-linecap:round; stroke-linejoin:round; stroke-width:4; stroke-opacity:1; fill:none"
     points="178.867,1423.18 178.867,1404.28 "
     id="polyline15" />
  <polyline
     clip-path="url(#clip460)"
     style="stroke:#000000; stroke-linecap:round; stroke-linejoin:round; stroke-width:4; stroke-opacity:1; fill:none"
     points="343.078,1423.18 343.078,1404.28 "
     id="polyline16" />
  <polyline
     clip-path="url(#clip460)"
     style="stroke:#000000; stroke-linecap:round; stroke-linejoin:round; stroke-width:4; stroke-opacity:1; fill:none"
     points="507.289,1423.18 507.289,1404.28 "
     id="polyline17" />
  <polyline
     clip-path="url(#clip460)"
     style="stroke:#000000; stroke-linecap:round; stroke-linejoin:round; stroke-width:4; stroke-opacity:1; fill:none"
     points="671.5,1423.18 671.5,1404.28 "
     id="polyline18" />
  <polyline
     clip-path="url(#clip460)"
     style="stroke:#000000; stroke-linecap:round; stroke-linejoin:round; stroke-width:4; stroke-opacity:1; fill:none"
     points="835.711,1423.18 835.711,1404.28 "
     id="polyline19" />
  <polyline
     clip-path="url(#clip460)"
     style="stroke:#000000; stroke-linecap:round; stroke-linejoin:round; stroke-width:4; stroke-opacity:1; fill:none"
     points="999.922,1423.18 999.922,1404.28 "
     id="polyline20" />
  <polyline
     clip-path="url(#clip460)"
     style="stroke:#000000; stroke-linecap:round; stroke-linejoin:round; stroke-width:4; stroke-opacity:1; fill:none"
     points="1164.13,1423.18 1164.13,1404.28 "
     id="polyline21" />
  <path
     clip-path="url(#clip460)"
     d="M147.929 1468.75 L177.605 1468.75 L177.605 1472.69 L147.929 1472.69 L147.929 1468.75 Z"
     fill="#000000"
     fill-rule="nonzero"
     fill-opacity="1"
     id="path21" />
  <path
     clip-path="url(#clip460)"
     d="M198.276 1466.44 Q195.128 1466.44 193.276 1468.59 Q191.448 1470.74 191.448 1474.49 Q191.448 1478.22 193.276 1480.39 Q195.128 1482.55 198.276 1482.55 Q201.424 1482.55 203.253 1480.39 Q205.105 1478.22 205.105 1474.49 Q205.105 1470.74 203.253 1468.59 Q201.424 1466.44 198.276 1466.44 M207.559 1451.78 L207.559 1456.04 Q205.799 1455.21 203.994 1454.77 Q202.211 1454.33 200.452 1454.33 Q195.823 1454.33 193.369 1457.45 Q190.938 1460.58 190.591 1466.9 Q191.957 1464.89 194.017 1463.82 Q196.077 1462.73 198.554 1462.73 Q203.762 1462.73 206.772 1465.9 Q209.804 1469.05 209.804 1474.49 Q209.804 1479.82 206.656 1483.03 Q203.508 1486.25 198.276 1486.25 Q192.281 1486.25 189.11 1481.67 Q185.938 1477.06 185.938 1468.33 Q185.938 1460.14 189.827 1455.28 Q193.716 1450.39 200.267 1450.39 Q202.026 1450.39 203.809 1450.74 Q205.614 1451.09 207.559 1451.78 Z"
     fill="#000000"
     fill-rule="nonzero"
     fill-opacity="1"
     id="path22" />
  <path
     clip-path="url(#clip460)"
     d="M311.978 1468.75 L341.654 1468.75 L341.654 1472.69 L311.978 1472.69 L311.978 1468.75 Z"
     fill="#000000"
     fill-rule="nonzero"
     fill-opacity="1"
     id="path23" />
  <path
     clip-path="url(#clip460)"
     d="M364.594 1455.09 L352.788 1473.54 L364.594 1473.54 L364.594 1455.09 M363.367 1451.02 L369.247 1451.02 L369.247 1473.54 L374.177 1473.54 L374.177 1477.43 L369.247 1477.43 L369.247 1485.58 L364.594 1485.58 L364.594 1477.43 L348.992 1477.43 L348.992 1472.92 L363.367 1451.02 Z"
     fill="#000000"
     fill-rule="nonzero"
     fill-opacity="1"
     id="path24" />
  <path
     clip-path="url(#clip460)"
     d="M477.231 1468.75 L506.907 1468.75 L506.907 1472.69 L477.231 1472.69 L477.231 1468.75 Z"
     fill="#000000"
     fill-rule="nonzero"
     fill-opacity="1"
     id="path25" />
  <path
     clip-path="url(#clip460)"
     d="M521.027 1481.64 L537.347 1481.64 L537.347 1485.58 L515.402 1485.58 L515.402 1481.64 Q518.064 1478.89 522.648 1474.26 Q527.254 1469.61 528.435 1468.27 Q530.68 1465.74 531.56 1464.01 Q532.462 1462.25 532.462 1460.56 Q532.462 1457.8 530.518 1456.07 Q528.597 1454.33 525.495 1454.33 Q523.296 1454.33 520.842 1455.09 Q518.411 1455.86 515.634 1457.41 L515.634 1452.69 Q518.458 1451.55 520.911 1450.97 Q523.365 1450.39 525.402 1450.39 Q530.772 1450.39 533.967 1453.08 Q537.161 1455.77 537.161 1460.26 Q537.161 1462.39 536.351 1464.31 Q535.564 1466.2 533.458 1468.8 Q532.879 1469.47 529.777 1472.69 Q526.675 1475.88 521.027 1481.64 Z"
     fill="#000000"
     fill-rule="nonzero"
     fill-opacity="1"
     id="path26" />
  <path
     clip-path="url(#clip460)"
     d="M671.5 1454.1 Q667.889 1454.1 666.06 1457.66 Q664.255 1461.2 664.255 1468.33 Q664.255 1475.44 666.06 1479.01 Q667.889 1482.55 671.5 1482.55 Q675.134 1482.55 676.94 1479.01 Q678.768 1475.44 678.768 1468.33 Q678.768 1461.2 676.94 1457.66 Q675.134 1454.1 671.5 1454.1 M671.5 1450.39 Q677.31 1450.39 680.366 1455 Q683.444 1459.58 683.444 1468.33 Q683.444 1477.06 680.366 1481.67 Q677.31 1486.25 671.5 1486.25 Q665.69 1486.25 662.611 1481.67 Q659.556 1477.06 659.556 1468.33 Q659.556 1459.58 662.611 1455 Q665.69 1450.39 671.5 1450.39 Z"
     fill="#000000"
     fill-rule="nonzero"
     fill-opacity="1"
     id="path27" />
  <path
     clip-path="url(#clip460)"
     d="M830.364 1481.64 L846.683 1481.64 L846.683 1485.58 L824.739 1485.58 L824.739 1481.64 Q827.401 1478.89 831.984 1474.26 Q836.591 1469.61 837.771 1468.27 Q840.017 1465.74 840.896 1464.01 Q841.799 1462.25 841.799 1460.56 Q841.799 1457.8 839.854 1456.07 Q837.933 1454.33 834.831 1454.33 Q832.632 1454.33 830.179 1455.09 Q827.748 1455.86 824.97 1457.41 L824.97 1452.69 Q827.794 1451.55 830.248 1450.97 Q832.702 1450.39 834.739 1450.39 Q840.109 1450.39 843.304 1453.08 Q846.498 1455.77 846.498 1460.26 Q846.498 1462.39 845.688 1464.31 Q844.901 1466.2 842.794 1468.8 Q842.216 1469.47 839.114 1472.69 Q836.012 1475.88 830.364 1481.64 Z"
     fill="#000000"
     fill-rule="nonzero"
     fill-opacity="1"
     id="path28" />
  <path
     clip-path="url(#clip460)"
     d="M1002.93 1455.09 L991.126 1473.54 L1002.93 1473.54 L1002.93 1455.09 M1001.7 1451.02 L1007.58 1451.02 L1007.58 1473.54 L1012.51 1473.54 L1012.51 1477.43 L1007.58 1477.43 L1007.58 1485.58 L1002.93 1485.58 L1002.93 1477.43 L987.33 1477.43 L987.33 1472.92 L1001.7 1451.02 Z"
     fill="#000000"
     fill-rule="nonzero"
     fill-opacity="1"
     id="path29" />
  <path
     clip-path="url(#clip460)"
     d="M1164.54 1466.44 Q1161.39 1466.44 1159.54 1468.59 Q1157.71 1470.74 1157.71 1474.49 Q1157.71 1478.22 1159.54 1480.39 Q1161.39 1482.55 1164.54 1482.55 Q1167.69 1482.55 1169.52 1480.39 Q1171.37 1478.22 1171.37 1474.49 Q1171.37 1470.74 1169.52 1468.59 Q1167.69 1466.44 1164.54 1466.44 M1173.82 1451.78 L1173.82 1456.04 Q1172.06 1455.21 1170.26 1454.77 Q1168.47 1454.33 1166.71 1454.33 Q1162.08 1454.33 1159.63 1457.45 Q1157.2 1460.58 1156.85 1466.9 Q1158.22 1464.89 1160.28 1463.82 Q1162.34 1462.73 1164.82 1462.73 Q1170.02 1462.73 1173.03 1465.9 Q1176.07 1469.05 1176.07 1474.49 Q1176.07 1479.82 1172.92 1483.03 Q1169.77 1486.25 1164.54 1486.25 Q1158.54 1486.25 1155.37 1481.67 Q1152.2 1477.06 1152.2 1468.33 Q1152.2 1460.14 1156.09 1455.28 Q1159.98 1450.39 1166.53 1450.39 Q1168.29 1450.39 1170.07 1450.74 Q1171.88 1451.09 1173.82 1451.78 Z"
     fill="#000000"
     fill-rule="nonzero"
     fill-opacity="1"
     id="path30" />
  <path
     clip-path="url(#clip460)"
     d="M685.673 1528.8 Q685.673 1530.61 684.546 1531.64 Q683.419 1532.64 682.131 1532.64 Q680.907 1532.64 680.263 1531.93 Q679.619 1531.22 679.619 1530.32 Q679.619 1529.09 680.52 1528.03 Q681.422 1526.97 682.775 1526.74 Q681.454 1525.91 679.49 1525.91 Q678.202 1525.91 677.074 1526.58 Q675.979 1527.26 675.303 1528.13 Q674.659 1529 674.079 1530.25 Q673.532 1531.48 673.306 1532.22 Q673.113 1532.93 672.952 1533.7 L670.698 1542.72 Q669.603 1547 669.603 1548.51 Q669.603 1550.38 670.504 1551.64 Q671.406 1552.86 673.21 1552.86 Q673.918 1552.86 674.723 1552.67 Q675.528 1552.44 676.559 1551.86 Q677.622 1551.25 678.556 1550.35 Q679.522 1549.42 680.456 1547.84 Q681.39 1546.26 682.002 1544.23 Q682.195 1543.52 682.839 1543.52 Q683.644 1543.52 683.644 1544.17 Q683.644 1544.71 683.193 1545.87 Q682.775 1547 681.841 1548.48 Q680.939 1549.93 679.747 1551.25 Q678.556 1552.54 676.784 1553.44 Q675.013 1554.34 673.081 1554.34 Q670.311 1554.34 668.475 1552.86 Q666.64 1551.38 665.963 1549.32 Q665.802 1549.61 665.577 1550 Q665.351 1550.38 664.675 1551.25 Q664.031 1552.09 663.29 1552.73 Q662.549 1553.34 661.39 1553.83 Q660.263 1554.34 659.039 1554.34 Q657.493 1554.34 656.108 1553.89 Q654.756 1553.44 653.79 1552.41 Q652.823 1551.38 652.823 1549.96 Q652.823 1548.38 653.886 1547.29 Q654.981 1546.16 656.463 1546.16 Q657.397 1546.16 658.137 1546.71 Q658.91 1547.26 658.91 1548.45 Q658.91 1549.77 658.008 1550.77 Q657.107 1551.77 655.818 1552.02 Q657.139 1552.86 659.103 1552.86 Q661.229 1552.86 662.904 1550.99 Q664.578 1549.13 665.384 1546 Q667.38 1538.5 668.153 1535.15 Q668.926 1531.77 668.926 1530.32 Q668.926 1528.96 668.572 1528.03 Q668.218 1527.1 667.606 1526.68 Q667.026 1526.23 666.479 1526.07 Q665.963 1525.91 665.384 1525.91 Q664.417 1525.91 663.322 1526.29 Q662.26 1526.68 660.971 1527.58 Q659.715 1528.45 658.524 1530.25 Q657.332 1532.06 656.527 1534.54 Q656.366 1535.28 655.657 1535.28 Q654.885 1535.24 654.885 1534.6 Q654.885 1534.05 655.303 1532.93 Q655.754 1531.77 656.656 1530.32 Q657.59 1528.87 658.781 1527.58 Q660.005 1526.26 661.777 1525.36 Q663.58 1524.46 665.512 1524.46 Q666.382 1524.46 667.219 1524.65 Q668.089 1524.81 669.119 1525.29 Q670.182 1525.78 671.116 1526.84 Q672.05 1527.9 672.63 1529.45 Q673.016 1528.71 673.532 1528 Q674.079 1527.29 674.917 1526.42 Q675.786 1525.52 676.978 1525 Q678.202 1524.46 679.554 1524.46 Q680.875 1524.46 682.163 1524.81 Q683.451 1525.13 684.546 1526.19 Q685.673 1527.23 685.673 1528.8 Z"
     fill="#000000"
     fill-rule="nonzero"
     fill-opacity="1"
     id="path31" />
  <polyline
     clip-path="url(#clip460)"
     style="stroke:#000000; stroke-linecap:round; stroke-linejoin:round; stroke-width:4; stroke-opacity:1; fill:none"
     points="178.867,1423.18 178.867,47.2441 "
     id="polyline31" />
  <polyline
     clip-path="url(#clip460)"
     style="stroke:#000000; stroke-linecap:round; stroke-linejoin:round; stroke-width:4; stroke-opacity:1; fill:none"
     points="178.867,1124.03 197.764,1124.03 "
     id="polyline32" />
  <polyline
     clip-path="url(#clip460)"
     style="stroke:#000000; stroke-linecap:round; stroke-linejoin:round; stroke-width:4; stroke-opacity:1; fill:none"
     points="178.867,792.03 197.764,792.03 "
     id="polyline33" />
  <polyline
     clip-path="url(#clip460)"
     style="stroke:#000000; stroke-linecap:round; stroke-linejoin:round; stroke-width:4; stroke-opacity:1; fill:none"
     points="178.867,460.036 197.764,460.036 "
     id="polyline34" />
  <polyline
     clip-path="url(#clip460)"
     style="stroke:#000000; stroke-linecap:round; stroke-linejoin:round; stroke-width:4; stroke-opacity:1; fill:none"
     points="178.867,128.041 197.764,128.041 "
     id="polyline35" />
  <path
     clip-path="url(#clip460)"
     d="M51.9875 1124.48 L81.6633 1124.48 L81.6633 1128.41 L51.9875 1128.41 L51.9875 1124.48 Z"
     fill="#000000"
     fill-rule="nonzero"
     fill-opacity="1"
     id="path35" />
  <path
     clip-path="url(#clip460)"
     d="M92.566 1137.37 L100.205 1137.37 L100.205 1111 L91.8947 1112.67 L91.8947 1108.41 L100.159 1106.75 L104.834 1106.75 L104.834 1137.37 L112.473 1137.37 L112.473 1141.31 L92.566 1141.31 L92.566 1137.37 Z"
     fill="#000000"
     fill-rule="nonzero"
     fill-opacity="1"
     id="path36" />
  <path
     clip-path="url(#clip460)"
     d="M121.964 1106.75 L140.32 1106.75 L140.32 1110.68 L126.246 1110.68 L126.246 1119.15 Q127.265 1118.81 128.283 1118.64 Q129.302 1118.46 130.32 1118.46 Q136.107 1118.46 139.487 1121.63 Q142.867 1124.8 142.867 1130.22 Q142.867 1135.8 139.394 1138.9 Q135.922 1141.98 129.603 1141.98 Q127.427 1141.98 125.158 1141.61 Q122.913 1141.24 120.506 1140.49 L120.506 1135.8 Q122.589 1136.93 124.811 1137.49 Q127.033 1138.04 129.51 1138.04 Q133.515 1138.04 135.853 1135.93 Q138.191 1133.83 138.191 1130.22 Q138.191 1126.61 135.853 1124.5 Q133.515 1122.39 129.51 1122.39 Q127.635 1122.39 125.76 1122.81 Q123.908 1123.23 121.964 1124.11 L121.964 1106.75 Z"
     fill="#000000"
     fill-rule="nonzero"
     fill-opacity="1"
     id="path37" />
  <path
     clip-path="url(#clip460)"
     d="M50.9921 792.482 L80.6679 792.482 L80.6679 796.417 L50.9921 796.417 L50.9921 792.482 Z"
     fill="#000000"
     fill-rule="nonzero"
     fill-opacity="1"
     id="path38" />
  <path
     clip-path="url(#clip460)"
     d="M91.5706 805.375 L99.2095 805.375 L99.2095 779.01 L90.8993 780.676 L90.8993 776.417 L99.1632 774.75 L103.839 774.75 L103.839 805.375 L111.478 805.375 L111.478 809.31 L91.5706 809.31 L91.5706 805.375 Z"
     fill="#000000"
     fill-rule="nonzero"
     fill-opacity="1"
     id="path39" />
  <path
     clip-path="url(#clip460)"
     d="M130.922 777.829 Q127.311 777.829 125.482 781.394 Q123.677 784.936 123.677 792.065 Q123.677 799.172 125.482 802.736 Q127.311 806.278 130.922 806.278 Q134.556 806.278 136.362 802.736 Q138.191 799.172 138.191 792.065 Q138.191 784.936 136.362 781.394 Q134.556 777.829 130.922 777.829 M130.922 774.125 Q136.732 774.125 139.788 778.732 Q142.867 783.315 142.867 792.065 Q142.867 800.792 139.788 805.398 Q136.732 809.982 130.922 809.982 Q125.112 809.982 122.033 805.398 Q118.978 800.792 118.978 792.065 Q118.978 783.315 122.033 778.732 Q125.112 774.125 130.922 774.125 Z"
     fill="#000000"
     fill-rule="nonzero"
     fill-opacity="1"
     id="path40" />
  <path
     clip-path="url(#clip460)"
     d="M82.1494 460.487 L111.825 460.487 L111.825 464.422 L82.1494 464.422 L82.1494 460.487 Z"
     fill="#000000"
     fill-rule="nonzero"
     fill-opacity="1"
     id="path41" />
  <path
     clip-path="url(#clip460)"
     d="M121.964 442.756 L140.32 442.756 L140.32 446.691 L126.246 446.691 L126.246 455.163 Q127.265 454.816 128.283 454.654 Q129.302 454.469 130.32 454.469 Q136.107 454.469 139.487 457.64 Q142.867 460.811 142.867 466.228 Q142.867 471.807 139.394 474.909 Q135.922 477.987 129.603 477.987 Q127.427 477.987 125.158 477.617 Q122.913 477.246 120.506 476.506 L120.506 471.807 Q122.589 472.941 124.811 473.497 Q127.033 474.052 129.51 474.052 Q133.515 474.052 135.853 471.946 Q138.191 469.839 138.191 466.228 Q138.191 462.617 135.853 460.51 Q133.515 458.404 129.51 458.404 Q127.635 458.404 125.76 458.821 Q123.908 459.237 121.964 460.117 L121.964 442.756 Z"
     fill="#000000"
     fill-rule="nonzero"
     fill-opacity="1"
     id="path42" />
  <path
     clip-path="url(#clip460)"
     d="M130.922 113.84 Q127.311 113.84 125.482 117.405 Q123.677 120.947 123.677 128.076 Q123.677 135.183 125.482 138.747 Q127.311 142.289 130.922 142.289 Q134.556 142.289 136.362 138.747 Q138.191 135.183 138.191 128.076 Q138.191 120.947 136.362 117.405 Q134.556 113.84 130.922 113.84 M130.922 110.136 Q136.732 110.136 139.788 114.743 Q142.867 119.326 142.867 128.076 Q142.867 136.803 139.788 141.409 Q136.732 145.993 130.922 145.993 Q125.112 145.993 122.033 141.409 Q118.978 136.803 118.978 128.076 Q118.978 119.326 122.033 114.743 Q125.112 110.136 130.922 110.136 Z"
     fill="#000000"
     fill-rule="nonzero"
     fill-opacity="1"
     id="path43" />
  <polyline
     clip-path="url(#clip462)"
     style="stroke:#009af9; stroke-linecap:round; stroke-linejoin:round; stroke-width:8; stroke-opacity:1; fill:none"
     points="178.867,1384.24 183.952,1359.69 189.038,1335.39 203.932,1265.71 218.825,1198.21 233.719,1132.9 248.612,1069.77 262.469,1013 276.326,958.121 285.613,922.399 294.9,887.527 304.186,853.504 313.473,820.33 328.821,767.369 344.168,716.728 358.44,671.719 372.711,628.715 390.627,577.571 408.543,529.589 424.613,489.238 440.684,451.431 449.881,430.938 459.079,411.278 468.276,392.451 477.473,374.457 491.224,349.111 504.974,325.627 522.56,298.304 540.147,274.028 556.199,254.53 572.25,237.57 581.384,229.051 590.519,221.354 599.653,214.48 608.787,208.426 623.269,200.514 637.751,194.667 655.743,190.281 673.735,189.083 687.514,190.321 701.292,193.429 711.006,196.744 720.719,200.988 730.432,206.162 740.145,212.264 754.662,223.117 769.179,236.046 785.688,253.271 802.197,273.181 818.546,295.544 834.896,320.54 852.883,351.082 870.871,384.811 884.61,412.721 898.349,442.49 915.687,482.709 933.025,525.89 949.061,568.462 965.096,613.568 981.635,662.739 998.173,714.605 1014.94,769.926 1031.7,828.014 1049.2,891.624 1066.71,958.251 1080.5,1012.86 1094.28,1069.34 1109.98,1135.94 1125.69,1204.96 1141.39,1276.41 1157.09,1350.29 1158.85,1358.73 1160.61,1367.2 1162.37,1375.71 1164.13,1384.24 "
     id="polyline43" />
  <polyline
     clip-path="url(#clip462)"
     style="stroke:#e26f46; stroke-linecap:round; stroke-linejoin:round; stroke-width:8; stroke-opacity:1; fill:none"
     points="178.867,281.595 189.038,278.313 248.612,259.093 276.326,250.152 313.473,238.167 344.168,228.265 372.711,219.056 390.627,213.276 408.543,207.496 424.613,202.311 440.684,197.126 449.881,194.159 459.079,191.192 461.378,190.45 463.677,189.708 464.827,189.337 465.977,189.058 467.126,189.058 468.276,189.058 472.875,189.058 477.473,189.058 484.348,189.058 491.224,189.058 498.099,189.058 504.974,189.058 540.147,189.058 572.25,189.058 608.787,189.058 637.751,189.058 673.735,189.058 701.292,189.058 740.145,189.058 769.179,189.058 802.197,189.058 834.896,189.058 843.889,189.058 852.883,189.058 861.877,189.058 870.871,189.058 872.588,189.058 874.306,189.058 876.023,189.058 877.74,189.197 879.458,189.751 881.175,190.306 882.893,190.86 884.61,191.414 891.48,193.63 898.349,195.846 915.687,201.44 933.025,207.034 949.061,212.207 965.096,217.381 998.173,228.052 1031.7,238.868 1066.71,250.163 1094.28,259.06 1157.09,279.322 1164.13,281.595 "
     id="polyline44" />
  <polyline
     clip-path="url(#clip462)"
     style="stroke:#3da44d; stroke-linecap:round; stroke-linejoin:round; stroke-width:8; stroke-opacity:1; fill:none"
     points="178.867,225.947 189.038,223.572 248.612,209.659 262.469,206.297 276.326,202.756 285.613,200.272 294.9,197.692 304.186,195.008 313.473,192.211 321.147,189.807 328.821,187.312 336.494,184.721 344.168,182.024 351.304,179.414 358.44,176.697 365.575,173.864 372.711,170.905 381.669,166.993 390.627,162.837 395.106,160.657 399.585,158.402 404.064,156.069 408.543,153.651 412.56,151.404 416.578,149.078 420.596,146.668 424.613,144.167 428.631,141.568 432.648,138.864 436.666,136.045 440.684,133.1 442.983,131.354 445.282,129.561 445.857,129.105 446.432,128.646 447.007,128.184 447.582,128.041 448.731,128.041 449.881,128.041 452.18,128.041 454.48,128.041 456.779,128.041 459.079,128.041 468.276,128.041 477.473,128.041 491.224,128.041 504.974,128.041 540.147,128.041 572.25,128.041 608.787,128.041 637.751,128.041 673.735,128.041 701.292,128.041 740.145,128.041 769.179,128.041 802.197,128.041 834.896,128.041 852.883,128.041 870.871,128.041 877.74,128.041 884.61,128.041 888.045,128.041 891.48,128.041 893.197,128.041 894.915,128.041 895.344,128.041 895.773,128.041 896.203,128.353 896.632,128.698 897.491,129.382 898.349,130.059 900.517,131.738 902.684,133.375 904.851,134.973 907.018,136.533 911.353,139.548 915.687,142.432 920.022,145.196 924.356,147.85 928.691,150.401 933.025,152.858 937.034,155.053 941.043,157.177 945.052,159.235 949.061,161.231 957.079,165.053 965.096,168.666 973.365,172.197 981.635,175.55 989.904,178.742 998.173,181.787 1006.55,184.738 1014.94,187.563 1023.32,190.272 1031.7,192.876 1040.45,195.489 1049.2,198.004 1057.95,200.427 1066.71,202.765 1080.5,206.288 1094.28,209.634 1125.69,216.971 1157.09,224.302 1160.61,225.124 1164.13,225.947 "
     id="polyline45" />
  <polyline
     clip-path="url(#clip462)"
     style="stroke:#c271d2; stroke-linecap:round; stroke-linejoin:round; stroke-width:8; stroke-opacity:1; fill:none"
     points="178.867,1054.88 181.41,1049.73 183.952,1044.57 186.495,1039.42 189.038,1034.27 203.932,1004.07 218.825,973.884 233.719,943.693 248.612,913.502 252.077,906.479 255.541,899.457 256.407,897.701 257.273,895.946 258.139,894.19 259.005,892.435 259.222,891.996 259.438,891.557 259.655,891.118 259.871,890.679 260.088,188.992 260.304,188.922 260.521,188.852 260.737,188.782 261.17,188.642 261.603,188.501 262.036,188.36 262.469,188.218 264.201,187.65 265.934,187.077 267.666,186.499 269.398,185.915 272.862,184.733 276.326,183.529 294.9,176.675 313.473,169.03 328.821,161.974 344.168,154.077 358.44,145.782 372.711,136.3 381.669,129.574 390.627,122.089 399.585,113.651 408.543,103.982 412.56,99.1423 416.578,93.9215 418.587,91.1486 420.596,88.2548 422.604,86.1857 424.613,86.1857 432.648,86.1857 440.684,86.1857 477.473,86.1857 504.974,86.1857 540.147,86.1857 572.25,86.1857 608.787,86.1857 637.751,86.1857 673.735,86.1857 701.292,86.1857 740.145,86.1857 769.179,86.1857 802.197,86.1857 834.896,86.1857 870.871,86.1857 898.349,86.1857 907.018,86.1857 915.687,86.1857 917.854,86.1857 920.022,86.1857 922.189,87.9369 924.356,91.0682 928.691,96.9198 933.025,102.297 941.043,111.224 949.061,119.092 957.079,126.126 965.096,132.485 981.635,143.945 998.173,153.716 1014.94,162.34 1031.7,169.971 1049.2,177.102 1066.71,183.541 1070.15,184.739 1073.6,185.915 1075.32,186.495 1077.05,187.071 1078.77,187.641 1080.5,188.207 1081.36,188.488 1082.22,188.768 1082.43,188.838 1082.65,188.907 1082.87,188.977 1083.08,189.047 1083.3,891.019 1083.51,891.456 1083.73,891.893 1083.94,892.329 1084.37,893.203 1084.8,894.076 1085.24,894.95 1085.67,895.823 1086.53,897.57 1087.39,899.317 1090.84,906.305 1094.28,913.293 1109.98,945.12 1125.69,976.947 1141.39,1008.77 1157.09,1040.6 1158.85,1044.17 1160.61,1047.74 1162.37,1051.31 1164.13,1054.88 "
     id="polyline46" />
  <path
     clip-path="url(#clip460)"
     d="M211.709 1377.32 L464.758 1377.32 L464.758 1080.41 L211.709 1080.41  Z"
     fill="#ffffff"
     fill-rule="evenodd"
     fill-opacity="1"
     id="path46" />
  <polyline
     clip-path="url(#clip460)"
     style="stroke:#000000; stroke-linecap:round; stroke-linejoin:round; stroke-width:4; stroke-opacity:1; fill:none"
     points="211.709,1377.32 464.758,1377.32 464.758,1080.41 211.709,1080.41 211.709,1377.32 "
     id="polyline47" />
  <polyline
     clip-path="url(#clip460)"
     style="stroke:#009af9; stroke-linecap:round; stroke-linejoin:round; stroke-width:8; stroke-opacity:1; fill:none"
     points="222.656,1139.79 288.341,1139.79 "
     id="polyline48" />
  <path
     clip-path="url(#clip460)"
     d="M304.99 1151.67 L304.99 1150.19 Q307.543 1150.19 308.129 1149.89 Q308.714 1149.56 308.714 1148.01 L308.714 1123.07 Q308.714 1121.29 308.082 1120.84 Q307.473 1120.4 304.99 1120.4 L304.99 1118.9 L311.876 1118.38 L311.876 1148.01 Q311.876 1149.56 312.485 1149.89 Q313.094 1150.19 315.624 1150.19 L315.624 1151.67 Q315.038 1151.67 313.82 1151.62 Q312.602 1151.57 311.712 1151.55 Q310.822 1151.52 310.307 1151.52 Q309.745 1151.52 304.99 1151.67 Z"
     fill="#000000"
     fill-rule="nonzero"
     fill-opacity="1"
     id="path48" />
  <path
     clip-path="url(#clip460)"
     d="M322.839 1149.09 Q319.677 1145.95 319.677 1141.41 Q319.677 1136.84 322.769 1133.51 Q325.884 1130.16 330.334 1130.16 Q334.691 1130.16 337.806 1133.49 Q340.944 1136.79 340.944 1141.41 Q340.944 1145.93 337.782 1149.07 Q334.644 1152.2 330.287 1152.2 Q326.024 1152.2 322.839 1149.09 M323.659 1141.01 Q323.659 1145.67 324.877 1147.78 Q326.75 1150.99 330.334 1150.99 Q332.114 1150.99 333.59 1150.03 Q335.089 1149.07 335.909 1147.45 Q336.963 1145.34 336.963 1141.01 Q336.963 1136.39 335.698 1134.36 Q333.824 1131.24 330.287 1131.24 Q328.741 1131.24 327.219 1132.06 Q325.72 1132.86 324.806 1134.45 Q323.659 1136.56 323.659 1141.01 Z"
     fill="#000000"
     fill-rule="nonzero"
     fill-opacity="1"
     id="path49" />
  <path
     clip-path="url(#clip460)"
     d="M341.699 1155.46 Q341.699 1153.91 342.87 1152.58 Q344.064 1151.24 346.126 1150.66 Q344.018 1149.32 344.018 1146.4 Q344.018 1144.15 345.493 1142.41 Q343.245 1140.54 343.245 1137.47 Q343.245 1134.64 345.493 1132.55 Q347.742 1130.47 351.021 1130.47 Q353.902 1130.47 356.104 1132.2 Q358.399 1129.95 361.186 1129.93 Q362.428 1129.93 363.013 1130.7 Q363.622 1131.48 363.622 1132.29 Q363.622 1133.02 363.154 1133.37 Q362.709 1133.72 362.24 1133.72 Q361.655 1133.72 361.233 1133.35 Q360.835 1132.95 360.835 1132.34 Q360.835 1131.33 361.608 1131.03 Q361.467 1130.98 361.139 1130.98 Q358.797 1130.98 356.806 1132.86 Q358.774 1134.68 358.774 1137.52 Q358.774 1140.35 356.525 1142.44 Q354.277 1144.52 351.021 1144.52 Q348.327 1144.52 346.266 1143.02 Q345.446 1143.98 345.446 1145.29 Q345.446 1146.49 346.172 1147.43 Q346.899 1148.36 347.999 1148.5 Q348.327 1148.55 351.583 1148.55 Q353.504 1148.55 354.558 1148.6 Q355.612 1148.64 357.111 1148.97 Q358.633 1149.28 359.828 1149.89 Q362.943 1151.62 362.966 1155.37 Q362.966 1158.11 359.804 1159.82 Q356.666 1161.55 352.309 1161.55 Q347.906 1161.55 344.791 1159.79 Q341.699 1158.06 341.699 1155.46 M344.205 1155.46 Q344.205 1157.43 346.524 1158.93 Q348.843 1160.45 352.356 1160.45 Q355.799 1160.45 358.118 1158.95 Q360.46 1157.47 360.46 1155.46 Q360.46 1154.03 359.64 1153.12 Q358.821 1152.2 357.134 1151.83 Q355.471 1151.48 354.3 1151.41 Q353.129 1151.34 350.974 1151.34 L348.14 1151.34 Q346.5 1151.43 345.353 1152.63 Q344.205 1153.82 344.205 1155.46 M346.828 1137.52 Q346.828 1143.42 351.021 1143.42 Q353.129 1143.42 354.417 1141.5 Q355.19 1140.21 355.19 1137.47 Q355.19 1131.57 351.021 1131.57 Q348.913 1131.57 347.601 1133.49 Q346.828 1134.78 346.828 1137.52 Z"
     fill="#000000"
     fill-rule="nonzero"
     fill-opacity="1"
     id="path50" />
  <path
     clip-path="url(#clip460)"
     d="M371.151 1139.67 Q371.151 1131.57 374.172 1125.03 Q375.46 1122.29 377.264 1120 Q379.068 1117.7 380.262 1116.7 Q381.457 1115.69 381.785 1115.69 Q382.253 1115.69 382.276 1116.16 Q382.276 1116.39 381.644 1116.98 Q373.915 1124.85 373.938 1139.67 Q373.938 1154.55 381.457 1162.11 Q382.276 1162.93 382.276 1163.19 Q382.276 1163.66 381.785 1163.66 Q381.457 1163.66 380.309 1162.7 Q379.161 1161.74 377.381 1159.54 Q375.601 1157.33 374.313 1154.64 Q371.151 1148.11 371.151 1139.67 Z"
     fill="#000000"
     fill-rule="nonzero"
     fill-opacity="1"
     id="path51" />
  <path
     clip-path="url(#clip460)"
     d="M410.601 1121.15 Q410.601 1122.43 409.781 1123.23 Q408.984 1124.03 407.977 1124.03 Q407.251 1124.03 406.712 1123.58 Q406.197 1123.14 406.197 1122.36 Q406.197 1121.57 406.806 1120.72 Q407.415 1119.88 408.797 1119.76 Q407.884 1118.9 406.431 1118.9 Q405.705 1118.9 405.096 1119.37 Q404.511 1119.81 404.183 1120.54 Q403.832 1121.29 403.035 1125.53 Q402.778 1126.91 402.543 1128.24 Q402.309 1129.58 402.028 1130.98 L406.01 1130.98 Q406.525 1130.98 406.736 1131.01 Q406.947 1131.03 407.111 1131.15 Q407.298 1131.26 407.298 1131.52 Q407.298 1132.18 406.994 1132.34 Q406.712 1132.48 405.869 1132.48 L401.747 1132.48 L398.866 1147.68 Q398.796 1148.13 398.491 1149.53 Q398.21 1150.92 397.531 1153.19 Q396.852 1155.48 396.172 1156.84 Q395.798 1157.61 395.306 1158.34 Q394.837 1159.09 394.158 1159.84 Q393.479 1160.59 392.589 1161.03 Q391.699 1161.5 390.762 1161.5 Q389.169 1161.5 387.928 1160.61 Q386.686 1159.72 386.686 1158.2 Q386.686 1156.91 387.483 1156.12 Q388.302 1155.32 389.31 1155.32 Q390.036 1155.32 390.551 1155.76 Q391.09 1156.21 391.09 1156.98 Q391.09 1157.31 390.973 1157.68 Q390.855 1158.06 390.598 1158.48 Q390.34 1158.93 389.778 1159.23 Q389.216 1159.54 388.443 1159.58 Q389.356 1160.45 390.762 1160.45 Q391.207 1160.45 391.605 1160.26 Q392.003 1160.1 392.331 1159.68 Q392.682 1159.25 392.94 1158.83 Q393.198 1158.43 393.455 1157.66 Q393.713 1156.91 393.877 1156.35 Q394.041 1155.79 394.252 1154.78 Q394.486 1153.77 394.603 1153.16 Q394.72 1152.58 394.931 1151.43 L398.515 1132.48 L395.353 1132.48 Q394.79 1132.48 394.556 1132.46 Q394.345 1132.44 394.181 1132.32 Q394.018 1132.18 394.018 1131.9 Q394.018 1131.45 394.205 1131.26 Q394.416 1131.05 394.65 1131.03 Q394.884 1130.98 395.446 1130.98 L398.772 1130.98 Q399.897 1125.06 400.342 1123.46 Q400.857 1121.78 401.653 1120.61 Q402.45 1119.41 403.34 1118.85 Q404.23 1118.29 404.956 1118.08 Q405.705 1117.84 406.431 1117.84 Q408.071 1117.84 409.336 1118.73 Q410.601 1119.6 410.601 1121.15 Z"
     fill="#000000"
     fill-rule="nonzero"
     fill-opacity="1"
     id="path52" />
  <path
     clip-path="url(#clip460)"
     d="M415.325 1163.19 Q415.325 1162.95 415.934 1162.37 Q423.664 1154.5 423.664 1139.67 Q423.664 1124.8 416.239 1117.28 Q415.325 1116.41 415.325 1116.16 Q415.325 1115.69 415.794 1115.69 Q416.122 1115.69 417.269 1116.65 Q418.44 1117.61 420.197 1119.81 Q421.977 1122.01 423.289 1124.71 Q426.451 1131.24 426.451 1139.67 Q426.451 1147.78 423.429 1154.31 Q422.141 1157.05 420.338 1159.35 Q418.534 1161.64 417.34 1162.65 Q416.145 1163.66 415.794 1163.66 Q415.325 1163.66 415.325 1163.19 Z"
     fill="#000000"
     fill-rule="nonzero"
     fill-opacity="1"
     id="path53" />
  <polyline
     clip-path="url(#clip460)"
     style="stroke:#e26f46; stroke-linecap:round; stroke-linejoin:round; stroke-width:8; stroke-opacity:1; fill:none"
     points="222.656,1199.17 288.341,1199.17 "
     id="polyline53" />
  <path
     clip-path="url(#clip460)"
     d="M304.99 1205.47 L304.99 1204 Q307.543 1204 308.129 1203.69 Q308.714 1203.36 308.714 1201.82 L308.714 1176.87 Q308.714 1175.09 308.082 1174.65 Q307.473 1174.2 304.99 1174.2 L304.99 1172.7 L311.876 1172.19 L311.876 1201.82 Q311.876 1203.36 312.485 1203.69 Q313.094 1204 315.624 1204 L315.624 1205.47 Q315.038 1205.47 313.82 1205.43 Q312.602 1205.38 311.712 1205.36 Q310.822 1205.33 310.307 1205.33 Q309.745 1205.33 304.99 1205.47 Z"
     fill="#000000"
     fill-rule="nonzero"
     fill-opacity="1"
     id="path54" />
  <path
     clip-path="url(#clip460)"
     d="M322.839 1202.9 Q319.677 1199.76 319.677 1195.21 Q319.677 1190.65 322.769 1187.32 Q325.884 1183.97 330.334 1183.97 Q334.691 1183.97 337.806 1187.3 Q340.944 1190.6 340.944 1195.21 Q340.944 1199.73 337.782 1202.87 Q334.644 1206.01 330.287 1206.01 Q326.024 1206.01 322.839 1202.9 M323.659 1194.82 Q323.659 1199.48 324.877 1201.58 Q326.75 1204.79 330.334 1204.79 Q332.114 1204.79 333.59 1203.83 Q335.089 1202.87 335.909 1201.26 Q336.963 1199.15 336.963 1194.82 Q336.963 1190.2 335.698 1188.16 Q333.824 1185.05 330.287 1185.05 Q328.741 1185.05 327.219 1185.87 Q325.72 1186.66 324.806 1188.26 Q323.659 1190.36 323.659 1194.82 Z"
     fill="#000000"
     fill-rule="nonzero"
     fill-opacity="1"
     id="path55" />
  <path
     clip-path="url(#clip460)"
     d="M341.699 1209.27 Q341.699 1207.72 342.87 1206.39 Q344.064 1205.05 346.126 1204.47 Q344.018 1203.13 344.018 1200.2 Q344.018 1197.95 345.493 1196.22 Q343.245 1194.35 343.245 1191.28 Q343.245 1188.44 345.493 1186.36 Q347.742 1184.28 351.021 1184.28 Q353.902 1184.28 356.104 1186.01 Q358.399 1183.76 361.186 1183.74 Q362.428 1183.74 363.013 1184.51 Q363.622 1185.28 363.622 1186.1 Q363.622 1186.83 363.154 1187.18 Q362.709 1187.53 362.24 1187.53 Q361.655 1187.53 361.233 1187.16 Q360.835 1186.76 360.835 1186.15 Q360.835 1185.14 361.608 1184.84 Q361.467 1184.79 361.139 1184.79 Q358.797 1184.79 356.806 1186.66 Q358.774 1188.49 358.774 1191.33 Q358.774 1194.16 356.525 1196.24 Q354.277 1198.33 351.021 1198.33 Q348.327 1198.33 346.266 1196.83 Q345.446 1197.79 345.446 1199.1 Q345.446 1200.3 346.172 1201.23 Q346.899 1202.17 347.999 1202.31 Q348.327 1202.36 351.583 1202.36 Q353.504 1202.36 354.558 1202.4 Q355.612 1202.45 357.111 1202.78 Q358.633 1203.08 359.828 1203.69 Q362.943 1205.43 362.966 1209.17 Q362.966 1211.91 359.804 1213.62 Q356.666 1215.36 352.309 1215.36 Q347.906 1215.36 344.791 1213.6 Q341.699 1211.87 341.699 1209.27 M344.205 1209.27 Q344.205 1211.23 346.524 1212.73 Q348.843 1214.26 352.356 1214.26 Q355.799 1214.26 358.118 1212.76 Q360.46 1211.28 360.46 1209.27 Q360.46 1207.84 359.64 1206.92 Q358.821 1206.01 357.134 1205.64 Q355.471 1205.28 354.3 1205.21 Q353.129 1205.14 350.974 1205.14 L348.14 1205.14 Q346.5 1205.24 345.353 1206.43 Q344.205 1207.63 344.205 1209.27 M346.828 1191.33 Q346.828 1197.23 351.021 1197.23 Q353.129 1197.23 354.417 1195.31 Q355.19 1194.02 355.19 1191.28 Q355.19 1185.38 351.021 1185.38 Q348.913 1185.38 347.601 1187.3 Q346.828 1188.58 346.828 1191.33 Z"
     fill="#000000"
     fill-rule="nonzero"
     fill-opacity="1"
     id="path56" />
  <path
     clip-path="url(#clip460)"
     d="M371.151 1193.48 Q371.151 1185.38 374.172 1178.84 Q375.46 1176.1 377.264 1173.81 Q379.068 1171.51 380.262 1170.5 Q381.457 1169.5 381.785 1169.5 Q382.253 1169.5 382.276 1169.96 Q382.276 1170.2 381.644 1170.78 Q373.915 1178.65 373.938 1193.48 Q373.938 1208.35 381.457 1215.92 Q382.276 1216.74 382.276 1217 Q382.276 1217.46 381.785 1217.46 Q381.457 1217.46 380.309 1216.5 Q379.161 1215.54 377.381 1213.34 Q375.601 1211.14 374.313 1208.45 Q371.151 1201.91 371.151 1193.48 Z"
     fill="#000000"
     fill-rule="nonzero"
     fill-opacity="1"
     id="path57" />
  <path
     clip-path="url(#clip460)"
     d="M411.583 1186.52 Q411.583 1186.55 411.443 1187.39 L406.103 1208.68 Q405.821 1209.81 405.025 1210.93 Q404.252 1212.08 403.011 1213.06 Q401.793 1214.07 399.919 1214.68 Q398.069 1215.31 395.937 1215.31 Q392.541 1215.31 391.042 1214.58 Q389.566 1213.88 389.566 1212.38 Q389.566 1211.07 390.386 1210.32 Q391.206 1209.59 392.143 1209.59 Q393.033 1209.59 393.501 1210.11 Q393.97 1210.63 393.97 1211.28 Q393.97 1212.01 393.478 1212.73 Q392.986 1213.48 392.002 1213.76 Q393.572 1214.26 395.844 1214.26 Q400.645 1214.26 402.706 1209.17 Q402.753 1209.1 402.753 1209.08 L404.346 1202.73 L404.276 1202.69 Q403.877 1203.15 403.245 1203.69 Q402.636 1204.21 401.324 1204.84 Q400.013 1205.47 398.724 1205.47 Q396.031 1205.47 394.181 1203.41 Q392.354 1201.33 392.354 1197.88 Q392.354 1195.38 393.361 1192.87 Q394.391 1190.34 395.984 1188.49 Q397.6 1186.62 399.661 1185.45 Q401.746 1184.28 403.76 1184.28 Q405.166 1184.28 406.36 1185.12 Q407.555 1185.94 408.211 1187.3 Q408.328 1186.17 408.96 1185.7 Q409.616 1185.24 410.178 1185.24 Q410.81 1185.24 411.185 1185.59 Q411.583 1185.91 411.583 1186.52 M407.648 1189.45 Q407.648 1189.31 407.555 1188.94 Q407.461 1188.54 407.18 1187.91 Q406.922 1187.27 406.524 1186.71 Q406.126 1186.15 405.4 1185.75 Q404.697 1185.33 403.807 1185.33 Q402.355 1185.33 400.903 1186.55 Q399.451 1187.74 398.443 1189.59 Q397.506 1191.37 396.616 1194.82 Q395.75 1198.26 395.75 1200.01 Q395.75 1201.75 396.499 1203.08 Q397.249 1204.42 398.865 1204.42 Q400.739 1204.42 402.753 1202.69 Q404.838 1200.88 405.189 1199.34 L407.508 1190.18 Q407.648 1189.62 407.648 1189.45 Z"
     fill="#000000"
     fill-rule="nonzero"
     fill-opacity="1"
     id="path58" />
  <path
     clip-path="url(#clip460)"
     d="M416.483 1209.33 L416.483 1208.28 Q420.517 1208.28 422.599 1206.13 Q423.173 1206.13 423.271 1206.26 Q423.369 1206.39 423.369 1207 L423.369 1225.84 Q423.369 1226.84 423.861 1227.15 Q424.353 1227.46 426.501 1227.46 L427.567 1227.46 L427.567 1228.5 Q426.386 1228.4 422.123 1228.4 Q417.86 1228.4 416.696 1228.5 L416.696 1227.46 L417.762 1227.46 Q419.877 1227.46 420.385 1227.17 Q420.894 1226.86 420.894 1225.84 L420.894 1208.44 Q419.139 1209.33 416.483 1209.33 Z"
     fill="#000000"
     fill-rule="nonzero"
     fill-opacity="1"
     id="path59" />
  <path
     clip-path="url(#clip460)"
     d="M432.573 1217 Q432.573 1216.76 433.182 1216.18 Q440.912 1208.31 440.912 1193.48 Q440.912 1178.61 433.487 1171.09 Q432.573 1170.22 432.573 1169.96 Q432.573 1169.5 433.042 1169.5 Q433.37 1169.5 434.518 1170.46 Q435.689 1171.42 437.445 1173.62 Q439.225 1175.82 440.537 1178.51 Q443.699 1185.05 443.699 1193.48 Q443.699 1201.58 440.678 1208.12 Q439.389 1210.86 437.586 1213.15 Q435.782 1215.45 434.588 1216.46 Q433.393 1217.46 433.042 1217.46 Q432.573 1217.46 432.573 1217 Z"
     fill="#000000"
     fill-rule="nonzero"
     fill-opacity="1"
     id="path60" />
  <polyline
     clip-path="url(#clip460)"
     style="stroke:#3da44d; stroke-linecap:round; stroke-linejoin:round; stroke-width:8; stroke-opacity:1; fill:none"
     points="222.656,1258.55 288.341,1258.55 "
     id="polyline60" />
  <path
     clip-path="url(#clip460)"
     d="M304.99 1264.85 L304.99 1263.38 Q307.543 1263.38 308.129 1263.07 Q308.714 1262.75 308.714 1261.2 L308.714 1236.25 Q308.714 1234.47 308.082 1234.03 Q307.473 1233.58 304.99 1233.58 L304.99 1232.09 L311.876 1231.57 L311.876 1261.2 Q311.876 1262.75 312.485 1263.07 Q313.094 1263.38 315.624 1263.38 L315.624 1264.85 Q315.038 1264.85 313.82 1264.81 Q312.602 1264.76 311.712 1264.74 Q310.822 1264.71 310.307 1264.71 Q309.745 1264.71 304.99 1264.85 Z"
     fill="#000000"
     fill-rule="nonzero"
     fill-opacity="1"
     id="path61" />
  <path
     clip-path="url(#clip460)"
     d="M322.839 1262.28 Q319.677 1259.14 319.677 1254.59 Q319.677 1250.03 322.769 1246.7 Q325.884 1243.35 330.334 1243.35 Q334.691 1243.35 337.806 1246.68 Q340.944 1249.98 340.944 1254.59 Q340.944 1259.12 337.782 1262.25 Q334.644 1265.39 330.287 1265.39 Q326.024 1265.39 322.839 1262.28 M323.659 1254.2 Q323.659 1258.86 324.877 1260.97 Q326.75 1264.17 330.334 1264.17 Q332.114 1264.17 333.59 1263.21 Q335.089 1262.25 335.909 1260.64 Q336.963 1258.53 336.963 1254.2 Q336.963 1249.58 335.698 1247.54 Q333.824 1244.43 330.287 1244.43 Q328.741 1244.43 327.219 1245.25 Q325.72 1246.05 324.806 1247.64 Q323.659 1249.75 323.659 1254.2 Z"
     fill="#000000"
     fill-rule="nonzero"
     fill-opacity="1"
     id="path62" />
  <path
     clip-path="url(#clip460)"
     d="M341.699 1268.65 Q341.699 1267.1 342.87 1265.77 Q344.064 1264.43 346.126 1263.85 Q344.018 1262.51 344.018 1259.58 Q344.018 1257.33 345.493 1255.6 Q343.245 1253.73 343.245 1250.66 Q343.245 1247.83 345.493 1245.74 Q347.742 1243.66 351.021 1243.66 Q353.902 1243.66 356.104 1245.39 Q358.399 1243.14 361.186 1243.12 Q362.428 1243.12 363.013 1243.89 Q363.622 1244.66 363.622 1245.48 Q363.622 1246.21 363.154 1246.56 Q362.709 1246.91 362.24 1246.91 Q361.655 1246.91 361.233 1246.54 Q360.835 1246.14 360.835 1245.53 Q360.835 1244.52 361.608 1244.22 Q361.467 1244.17 361.139 1244.17 Q358.797 1244.17 356.806 1246.05 Q358.774 1247.87 358.774 1250.71 Q358.774 1253.54 356.525 1255.63 Q354.277 1257.71 351.021 1257.71 Q348.327 1257.71 346.266 1256.21 Q345.446 1257.17 345.446 1258.48 Q345.446 1259.68 346.172 1260.61 Q346.899 1261.55 347.999 1261.69 Q348.327 1261.74 351.583 1261.74 Q353.504 1261.74 354.558 1261.79 Q355.612 1261.83 357.111 1262.16 Q358.633 1262.46 359.828 1263.07 Q362.943 1264.81 362.966 1268.55 Q362.966 1271.29 359.804 1273 Q356.666 1274.74 352.309 1274.74 Q347.906 1274.74 344.791 1272.98 Q341.699 1271.25 341.699 1268.65 M344.205 1268.65 Q344.205 1270.62 346.524 1272.11 Q348.843 1273.64 352.356 1273.64 Q355.799 1273.64 358.118 1272.14 Q360.46 1270.66 360.46 1268.65 Q360.46 1267.22 359.64 1266.31 Q358.821 1265.39 357.134 1265.02 Q355.471 1264.67 354.3 1264.6 Q353.129 1264.53 350.974 1264.53 L348.14 1264.53 Q346.5 1264.62 345.353 1265.81 Q344.205 1267.01 344.205 1268.65 M346.828 1250.71 Q346.828 1256.61 351.021 1256.61 Q353.129 1256.61 354.417 1254.69 Q355.19 1253.4 355.19 1250.66 Q355.19 1244.76 351.021 1244.76 Q348.913 1244.76 347.601 1246.68 Q346.828 1247.97 346.828 1250.71 Z"
     fill="#000000"
     fill-rule="nonzero"
     fill-opacity="1"
     id="path63" />
  <path
     clip-path="url(#clip460)"
     d="M371.151 1252.86 Q371.151 1244.76 374.172 1238.22 Q375.46 1235.48 377.264 1233.19 Q379.068 1230.89 380.262 1229.88 Q381.457 1228.88 381.785 1228.88 Q382.253 1228.88 382.276 1229.35 Q382.276 1229.58 381.644 1230.16 Q373.915 1238.03 373.938 1252.86 Q373.938 1267.73 381.457 1275.3 Q382.276 1276.12 382.276 1276.38 Q382.276 1276.85 381.785 1276.85 Q381.457 1276.85 380.309 1275.89 Q379.161 1274.93 377.381 1272.72 Q375.601 1270.52 374.313 1267.83 Q371.151 1261.29 371.151 1252.86 Z"
     fill="#000000"
     fill-rule="nonzero"
     fill-opacity="1"
     id="path64" />
  <path
     clip-path="url(#clip460)"
     d="M411.583 1245.9 Q411.583 1245.93 411.443 1246.77 L406.103 1268.06 Q405.821 1269.19 405.025 1270.31 Q404.252 1271.46 403.011 1272.44 Q401.793 1273.45 399.919 1274.06 Q398.069 1274.69 395.937 1274.69 Q392.541 1274.69 391.042 1273.96 Q389.566 1273.26 389.566 1271.76 Q389.566 1270.45 390.386 1269.7 Q391.206 1268.98 392.143 1268.98 Q393.033 1268.98 393.501 1269.49 Q393.97 1270.01 393.97 1270.66 Q393.97 1271.39 393.478 1272.11 Q392.986 1272.86 392.002 1273.15 Q393.572 1273.64 395.844 1273.64 Q400.645 1273.64 402.706 1268.55 Q402.753 1268.48 402.753 1268.46 L404.346 1262.11 L404.276 1262.07 Q403.877 1262.53 403.245 1263.07 Q402.636 1263.59 401.324 1264.22 Q400.013 1264.85 398.724 1264.85 Q396.031 1264.85 394.181 1262.79 Q392.354 1260.71 392.354 1257.26 Q392.354 1254.76 393.361 1252.25 Q394.391 1249.72 395.984 1247.87 Q397.6 1246 399.661 1244.83 Q401.746 1243.66 403.76 1243.66 Q405.166 1243.66 406.36 1244.5 Q407.555 1245.32 408.211 1246.68 Q408.328 1245.55 408.96 1245.09 Q409.616 1244.62 410.178 1244.62 Q410.81 1244.62 411.185 1244.97 Q411.583 1245.3 411.583 1245.9 M407.648 1248.83 Q407.648 1248.69 407.555 1248.32 Q407.461 1247.92 407.18 1247.29 Q406.922 1246.65 406.524 1246.09 Q406.126 1245.53 405.4 1245.13 Q404.697 1244.71 403.807 1244.71 Q402.355 1244.71 400.903 1245.93 Q399.451 1247.12 398.443 1248.97 Q397.506 1250.75 396.616 1254.2 Q395.75 1257.64 395.75 1259.4 Q395.75 1261.13 396.499 1262.46 Q397.249 1263.8 398.865 1263.8 Q400.739 1263.8 402.753 1262.07 Q404.838 1260.26 405.189 1258.72 L407.508 1249.56 Q407.648 1249 407.648 1248.83 Z"
     fill="#000000"
     fill-rule="nonzero"
     fill-opacity="1"
     id="path65" />
  <path
     clip-path="url(#clip460)"
     d="M416.483 1287.88 Q416.483 1287.27 416.532 1287.09 Q416.598 1286.91 416.86 1286.63 L423.304 1279.45 Q426.829 1275.48 426.829 1272.02 Q426.829 1269.78 425.648 1268.17 Q424.484 1266.56 422.336 1266.56 Q420.861 1266.56 419.615 1267.46 Q418.369 1268.37 417.795 1269.97 Q417.893 1269.94 418.238 1269.94 Q419.074 1269.94 419.533 1270.46 Q420.008 1270.99 420.008 1271.69 Q420.008 1272.6 419.418 1273.04 Q418.844 1273.47 418.27 1273.47 Q418.041 1273.47 417.729 1273.42 Q417.434 1273.37 416.959 1272.91 Q416.483 1272.43 416.483 1271.6 Q416.483 1269.25 418.254 1267.38 Q420.041 1265.51 422.763 1265.51 Q425.845 1265.51 427.862 1267.35 Q429.895 1269.17 429.895 1272.02 Q429.895 1273.02 429.583 1273.94 Q429.288 1274.84 428.878 1275.55 Q428.485 1276.25 427.403 1277.38 Q426.321 1278.52 425.452 1279.32 Q424.583 1280.12 422.632 1281.83 L419.074 1285.29 L425.124 1285.29 Q428.075 1285.29 428.304 1285.02 Q428.632 1284.55 429.042 1282.04 L429.895 1282.04 L428.944 1287.88 L416.483 1287.88 Z"
     fill="#000000"
     fill-rule="nonzero"
     fill-opacity="1"
     id="path66" />
  <path
     clip-path="url(#clip460)"
     d="M434.881 1276.38 Q434.881 1276.14 435.49 1275.56 Q443.22 1267.69 443.22 1252.86 Q443.22 1237.99 435.795 1230.47 Q434.881 1229.6 434.881 1229.35 Q434.881 1228.88 435.35 1228.88 Q435.678 1228.88 436.825 1229.84 Q437.996 1230.8 439.753 1233 Q441.533 1235.2 442.845 1237.89 Q446.007 1244.43 446.007 1252.86 Q446.007 1260.97 442.985 1267.5 Q441.697 1270.24 439.894 1272.54 Q438.09 1274.83 436.896 1275.84 Q435.701 1276.85 435.35 1276.85 Q434.881 1276.85 434.881 1276.38 Z"
     fill="#000000"
     fill-rule="nonzero"
     fill-opacity="1"
     id="path67" />
  <polyline
     clip-path="url(#clip460)"
     style="stroke:#c271d2; stroke-linecap:round; stroke-linejoin:round; stroke-width:8; stroke-opacity:1; fill:none"
     points="222.656,1317.93 288.341,1317.93 "
     id="polyline67" />
  <path
     clip-path="url(#clip460)"
     d="M304.99 1323.87 L304.99 1322.39 Q307.543 1322.39 308.129 1322.09 Q308.714 1321.76 308.714 1320.21 L308.714 1295.27 Q308.714 1293.49 308.082 1293.04 Q307.473 1292.6 304.99 1292.6 L304.99 1291.1 L311.876 1290.59 L311.876 1320.21 Q311.876 1321.76 312.485 1322.09 Q313.094 1322.39 315.624 1322.39 L315.624 1323.87 Q315.038 1323.87 313.82 1323.82 Q312.602 1323.77 311.712 1323.75 Q310.822 1323.73 310.307 1323.73 Q309.745 1323.73 304.99 1323.87 Z"
     fill="#000000"
     fill-rule="nonzero"
     fill-opacity="1"
     id="path68" />
  <path
     clip-path="url(#clip460)"
     d="M322.839 1321.29 Q319.677 1318.15 319.677 1313.61 Q319.677 1309.04 322.769 1305.72 Q325.884 1302.37 330.334 1302.37 Q334.691 1302.37 337.806 1305.69 Q340.944 1309 340.944 1313.61 Q340.944 1318.13 337.782 1321.27 Q334.644 1324.41 330.287 1324.41 Q326.024 1324.41 322.839 1321.29 M323.659 1313.21 Q323.659 1317.87 324.877 1319.98 Q326.75 1323.19 330.334 1323.19 Q332.114 1323.19 333.59 1322.23 Q335.089 1321.27 335.909 1319.65 Q336.963 1317.54 336.963 1313.21 Q336.963 1308.6 335.698 1306.56 Q333.824 1303.44 330.287 1303.44 Q328.741 1303.44 327.219 1304.26 Q325.72 1305.06 324.806 1306.65 Q323.659 1308.76 323.659 1313.21 Z"
     fill="#000000"
     fill-rule="nonzero"
     fill-opacity="1"
     id="path69" />
  <path
     clip-path="url(#clip460)"
     d="M341.699 1327.66 Q341.699 1326.12 342.87 1324.78 Q344.064 1323.45 346.126 1322.86 Q344.018 1321.53 344.018 1318.6 Q344.018 1316.35 345.493 1314.62 Q343.245 1312.74 343.245 1309.67 Q343.245 1306.84 345.493 1304.76 Q347.742 1302.67 351.021 1302.67 Q353.902 1302.67 356.104 1304.4 Q358.399 1302.16 361.186 1302.13 Q362.428 1302.13 363.013 1302.91 Q363.622 1303.68 363.622 1304.5 Q363.622 1305.22 363.154 1305.58 Q362.709 1305.93 362.24 1305.93 Q361.655 1305.93 361.233 1305.55 Q360.835 1305.15 360.835 1304.54 Q360.835 1303.54 361.608 1303.23 Q361.467 1303.19 361.139 1303.19 Q358.797 1303.19 356.806 1305.06 Q358.774 1306.89 358.774 1309.72 Q358.774 1312.56 356.525 1314.64 Q354.277 1316.72 351.021 1316.72 Q348.327 1316.72 346.266 1315.23 Q345.446 1316.19 345.446 1317.5 Q345.446 1318.69 346.172 1319.63 Q346.899 1320.57 347.999 1320.71 Q348.327 1320.75 351.583 1320.75 Q353.504 1320.75 354.558 1320.8 Q355.612 1320.85 357.111 1321.17 Q358.633 1321.48 359.828 1322.09 Q362.943 1323.82 362.966 1327.57 Q362.966 1330.31 359.804 1332.02 Q356.666 1333.75 352.309 1333.75 Q347.906 1333.75 344.791 1332 Q341.699 1330.26 341.699 1327.66 M344.205 1327.66 Q344.205 1329.63 346.524 1331.13 Q348.843 1332.65 352.356 1332.65 Q355.799 1332.65 358.118 1331.15 Q360.46 1329.68 360.46 1327.66 Q360.46 1326.23 359.64 1325.32 Q358.821 1324.41 357.134 1324.03 Q355.471 1323.68 354.3 1323.61 Q353.129 1323.54 350.974 1323.54 L348.14 1323.54 Q346.5 1323.63 345.353 1324.83 Q344.205 1326.02 344.205 1327.66 M346.828 1309.72 Q346.828 1315.62 351.021 1315.62 Q353.129 1315.62 354.417 1313.7 Q355.19 1312.41 355.19 1309.67 Q355.19 1303.77 351.021 1303.77 Q348.913 1303.77 347.601 1305.69 Q346.828 1306.98 346.828 1309.72 Z"
     fill="#000000"
     fill-rule="nonzero"
     fill-opacity="1"
     id="path70" />
  <path
     clip-path="url(#clip460)"
     d="M371.151 1311.88 Q371.151 1303.77 374.172 1297.24 Q375.46 1294.5 377.264 1292.2 Q379.068 1289.91 380.262 1288.9 Q381.457 1287.89 381.785 1287.89 Q382.253 1287.89 382.276 1288.36 Q382.276 1288.59 381.644 1289.18 Q373.915 1297.05 373.938 1311.88 Q373.938 1326.75 381.457 1334.31 Q382.276 1335.13 382.276 1335.39 Q382.276 1335.86 381.785 1335.86 Q381.457 1335.86 380.309 1334.9 Q379.161 1333.94 377.381 1331.74 Q375.601 1329.54 374.313 1326.84 Q371.151 1320.31 371.151 1311.88 Z"
     fill="#000000"
     fill-rule="nonzero"
     fill-opacity="1"
     id="path71" />
  <path
     clip-path="url(#clip460)"
     d="M411.583 1304.92 Q411.583 1304.94 411.443 1305.79 L406.103 1327.08 Q405.821 1328.2 405.025 1329.33 Q404.252 1330.47 403.011 1331.46 Q401.793 1332.46 399.919 1333.07 Q398.069 1333.71 395.937 1333.71 Q392.541 1333.71 391.042 1332.98 Q389.566 1332.28 389.566 1330.78 Q389.566 1329.47 390.386 1328.72 Q391.206 1327.99 392.143 1327.99 Q393.033 1327.99 393.501 1328.51 Q393.97 1329.02 393.97 1329.68 Q393.97 1330.4 393.478 1331.13 Q392.986 1331.88 392.002 1332.16 Q393.572 1332.65 395.844 1332.65 Q400.645 1332.65 402.706 1327.57 Q402.753 1327.5 402.753 1327.48 L404.346 1321.13 L404.276 1321.08 Q403.877 1321.55 403.245 1322.09 Q402.636 1322.6 401.324 1323.24 Q400.013 1323.87 398.724 1323.87 Q396.031 1323.87 394.181 1321.81 Q392.354 1319.72 392.354 1316.28 Q392.354 1313.77 393.361 1311.27 Q394.391 1308.74 395.984 1306.89 Q397.6 1305.01 399.661 1303.84 Q401.746 1302.67 403.76 1302.67 Q405.166 1302.67 406.36 1303.51 Q407.555 1304.33 408.211 1305.69 Q408.328 1304.57 408.96 1304.1 Q409.616 1303.63 410.178 1303.63 Q410.81 1303.63 411.185 1303.98 Q411.583 1304.31 411.583 1304.92 M407.648 1307.85 Q407.648 1307.71 407.555 1307.33 Q407.461 1306.93 407.18 1306.3 Q406.922 1305.67 406.524 1305.11 Q406.126 1304.54 405.4 1304.15 Q404.697 1303.73 403.807 1303.73 Q402.355 1303.73 400.903 1304.94 Q399.451 1306.14 398.443 1307.99 Q397.506 1309.77 396.616 1313.21 Q395.75 1316.65 395.75 1318.41 Q395.75 1320.14 396.499 1321.48 Q397.249 1322.81 398.865 1322.81 Q400.739 1322.81 402.753 1321.08 Q404.838 1319.28 405.189 1317.73 L407.508 1308.57 Q407.648 1308.01 407.648 1307.85 Z"
     fill="#000000"
     fill-rule="nonzero"
     fill-opacity="1"
     id="path72" />
  <path
     clip-path="url(#clip460)"
     d="M416.483 1342.37 Q416.483 1341.37 417.057 1340.89 Q417.631 1340.42 418.369 1340.42 Q419.139 1340.42 419.68 1340.92 Q420.238 1341.42 420.238 1342.28 Q420.238 1343.22 419.582 1343.74 Q418.943 1344.27 418.024 1344.14 Q418.828 1345.48 420.303 1346.09 Q421.795 1346.7 423.173 1346.7 Q424.615 1346.7 425.78 1345.45 Q426.96 1344.2 426.96 1341.15 Q426.96 1338.56 425.943 1337.07 Q424.943 1335.58 422.959 1335.58 L421.484 1335.58 Q420.976 1335.58 420.828 1335.53 Q420.68 1335.48 420.68 1335.2 Q420.68 1334.87 421.189 1334.81 Q421.697 1334.81 422.5 1334.71 Q424.451 1334.64 425.484 1332.96 Q426.419 1331.38 426.419 1329.14 Q426.419 1327.09 425.435 1326.23 Q424.468 1325.36 423.205 1325.36 Q422.025 1325.36 420.73 1325.86 Q419.434 1326.35 418.729 1327.45 Q420.812 1327.45 420.812 1329.14 Q420.812 1329.87 420.336 1330.37 Q419.877 1330.84 419.106 1330.84 Q418.369 1330.84 417.877 1330.38 Q417.385 1329.91 417.385 1329.1 Q417.385 1327.18 419.09 1325.86 Q420.812 1324.53 423.337 1324.53 Q425.829 1324.53 427.665 1325.84 Q429.518 1327.15 429.518 1329.17 Q429.518 1331.15 428.206 1332.78 Q426.894 1334.4 424.812 1335.07 Q427.37 1335.58 428.895 1337.32 Q430.42 1339.04 430.42 1341.15 Q430.42 1343.78 428.354 1345.71 Q426.288 1347.63 423.271 1347.63 Q420.484 1347.63 418.483 1346.12 Q416.483 1344.61 416.483 1342.37 Z"
     fill="#000000"
     fill-rule="nonzero"
     fill-opacity="1"
     id="path73" />
  <path
     clip-path="url(#clip460)"
     d="M435.395 1335.39 Q435.395 1335.16 436.004 1334.57 Q443.734 1326.7 443.734 1311.88 Q443.734 1297 436.309 1289.48 Q435.395 1288.62 435.395 1288.36 Q435.395 1287.89 435.864 1287.89 Q436.192 1287.89 437.339 1288.85 Q438.511 1289.81 440.267 1292.01 Q442.047 1294.22 443.359 1296.91 Q446.521 1303.44 446.521 1311.88 Q446.521 1319.98 443.5 1326.52 Q442.211 1329.26 440.408 1331.55 Q438.604 1333.85 437.41 1334.85 Q436.215 1335.86 435.864 1335.86 Q435.395 1335.86 435.395 1335.39 Z"
     fill="#000000"
     fill-rule="nonzero"
     fill-opacity="1"
     id="path74" />
  <defs
     id="defs75">
    <clipPath
       id="clip463">
      <rect
         x="1367"
         y="47"
         width="986"
         height="1377"
         id="rect75" />
    </clipPath>
  </defs>
  <polyline
     clip-path="url(#clip463)"
     style="stroke:#000000; stroke-linecap:round; stroke-linejoin:round; stroke-width:2; stroke-opacity:0.1; fill:none"
     points="1367.49,1423.18 1367.49,47.2441 "
     id="polyline75" />
  <polyline
     clip-path="url(#clip463)"
     style="stroke:#000000; stroke-linecap:round; stroke-linejoin:round; stroke-width:2; stroke-opacity:0.1; fill:none"
     points="1531.7,1423.18 1531.7,47.2441 "
     id="polyline76" />
  <polyline
     clip-path="url(#clip463)"
     style="stroke:#000000; stroke-linecap:round; stroke-linejoin:round; stroke-width:2; stroke-opacity:0.1; fill:none"
     points="1695.91,1423.18 1695.91,47.2441 "
     id="polyline77" />
  <polyline
     clip-path="url(#clip463)"
     style="stroke:#000000; stroke-linecap:round; stroke-linejoin:round; stroke-width:2; stroke-opacity:0.1; fill:none"
     points="1860.12,1423.18 1860.12,47.2441 "
     id="polyline78" />
  <polyline
     clip-path="url(#clip463)"
     style="stroke:#000000; stroke-linecap:round; stroke-linejoin:round; stroke-width:2; stroke-opacity:0.1; fill:none"
     points="2024.33,1423.18 2024.33,47.2441 "
     id="polyline79" />
  <polyline
     clip-path="url(#clip463)"
     style="stroke:#000000; stroke-linecap:round; stroke-linejoin:round; stroke-width:2; stroke-opacity:0.1; fill:none"
     points="2188.54,1423.18 2188.54,47.2441 "
     id="polyline80" />
  <polyline
     clip-path="url(#clip463)"
     style="stroke:#000000; stroke-linecap:round; stroke-linejoin:round; stroke-width:2; stroke-opacity:0.1; fill:none"
     points="2352.76,1423.18 2352.76,47.2441 "
     id="polyline81" />
  <polyline
     clip-path="url(#clip463)"
     style="stroke:#000000; stroke-linecap:round; stroke-linejoin:round; stroke-width:2; stroke-opacity:0.1; fill:none"
     points="1367.49,1384.24 2352.76,1384.24 "
     id="polyline82" />
  <polyline
     clip-path="url(#clip463)"
     style="stroke:#000000; stroke-linecap:round; stroke-linejoin:round; stroke-width:2; stroke-opacity:0.1; fill:none"
     points="1367.49,1038.7 2352.76,1038.7 "
     id="polyline83" />
  <polyline
     clip-path="url(#clip463)"
     style="stroke:#000000; stroke-linecap:round; stroke-linejoin:round; stroke-width:2; stroke-opacity:0.1; fill:none"
     points="1367.49,693.16 2352.76,693.16 "
     id="polyline84" />
  <polyline
     clip-path="url(#clip463)"
     style="stroke:#000000; stroke-linecap:round; stroke-linejoin:round; stroke-width:2; stroke-opacity:0.1; fill:none"
     points="1367.49,347.621 2352.76,347.621 "
     id="polyline85" />
  <polyline
     clip-path="url(#clip460)"
     style="stroke:#000000; stroke-linecap:round; stroke-linejoin:round; stroke-width:4; stroke-opacity:1; fill:none"
     points="1367.49,1423.18 2352.76,1423.18 "
     id="polyline86" />
  <polyline
     clip-path="url(#clip460)"
     style="stroke:#000000; stroke-linecap:round; stroke-linejoin:round; stroke-width:4; stroke-opacity:1; fill:none"
     points="1367.49,1423.18 1367.49,1404.28 "
     id="polyline87" />
  <polyline
     clip-path="url(#clip460)"
     style="stroke:#000000; stroke-linecap:round; stroke-linejoin:round; stroke-width:4; stroke-opacity:1; fill:none"
     points="1531.7,1423.18 1531.7,1404.28 "
     id="polyline88" />
  <polyline
     clip-path="url(#clip460)"
     style="stroke:#000000; stroke-linecap:round; stroke-linejoin:round; stroke-width:4; stroke-opacity:1; fill:none"
     points="1695.91,1423.18 1695.91,1404.28 "
     id="polyline89" />
  <polyline
     clip-path="url(#clip460)"
     style="stroke:#000000; stroke-linecap:round; stroke-linejoin:round; stroke-width:4; stroke-opacity:1; fill:none"
     points="1860.12,1423.18 1860.12,1404.28 "
     id="polyline90" />
  <polyline
     clip-path="url(#clip460)"
     style="stroke:#000000; stroke-linecap:round; stroke-linejoin:round; stroke-width:4; stroke-opacity:1; fill:none"
     points="2024.33,1423.18 2024.33,1404.28 "
     id="polyline91" />
  <polyline
     clip-path="url(#clip460)"
     style="stroke:#000000; stroke-linecap:round; stroke-linejoin:round; stroke-width:4; stroke-opacity:1; fill:none"
     points="2188.54,1423.18 2188.54,1404.28 "
     id="polyline92" />
  <polyline
     clip-path="url(#clip460)"
     style="stroke:#000000; stroke-linecap:round; stroke-linejoin:round; stroke-width:4; stroke-opacity:1; fill:none"
     points="2352.76,1423.18 2352.76,1404.28 "
     id="polyline93" />
  <path
     clip-path="url(#clip460)"
     d="M1336.55 1468.75 L1366.23 1468.75 L1366.23 1472.69 L1336.55 1472.69 L1336.55 1468.75 Z"
     fill="#000000"
     fill-rule="nonzero"
     fill-opacity="1"
     id="path93" />
  <path
     clip-path="url(#clip460)"
     d="M1386.9 1466.44 Q1383.75 1466.44 1381.9 1468.59 Q1380.07 1470.74 1380.07 1474.49 Q1380.07 1478.22 1381.9 1480.39 Q1383.75 1482.55 1386.9 1482.55 Q1390.05 1482.55 1391.88 1480.39 Q1393.73 1478.22 1393.73 1474.49 Q1393.73 1470.74 1391.88 1468.59 Q1390.05 1466.44 1386.9 1466.44 M1396.18 1451.78 L1396.18 1456.04 Q1394.42 1455.21 1392.62 1454.77 Q1390.83 1454.33 1389.07 1454.33 Q1384.45 1454.33 1381.99 1457.45 Q1379.56 1460.58 1379.21 1466.9 Q1380.58 1464.89 1382.64 1463.82 Q1384.7 1462.73 1387.18 1462.73 Q1392.39 1462.73 1395.39 1465.9 Q1398.43 1469.05 1398.43 1474.49 Q1398.43 1479.82 1395.28 1483.03 Q1392.13 1486.25 1386.9 1486.25 Q1380.9 1486.25 1377.73 1481.67 Q1374.56 1477.06 1374.56 1468.33 Q1374.56 1460.14 1378.45 1455.28 Q1382.34 1450.39 1388.89 1450.39 Q1390.65 1450.39 1392.43 1450.74 Q1394.24 1451.09 1396.18 1451.78 Z"
     fill="#000000"
     fill-rule="nonzero"
     fill-opacity="1"
     id="path94" />
  <path
     clip-path="url(#clip460)"
     d="M1500.6 1468.75 L1530.28 1468.75 L1530.28 1472.69 L1500.6 1472.69 L1500.6 1468.75 Z"
     fill="#000000"
     fill-rule="nonzero"
     fill-opacity="1"
     id="path95" />
  <path
     clip-path="url(#clip460)"
     d="M1553.22 1455.09 L1541.41 1473.54 L1553.22 1473.54 L1553.22 1455.09 M1551.99 1451.02 L1557.87 1451.02 L1557.87 1473.54 L1562.8 1473.54 L1562.8 1477.43 L1557.87 1477.43 L1557.87 1485.58 L1553.22 1485.58 L1553.22 1477.43 L1537.61 1477.43 L1537.61 1472.92 L1551.99 1451.02 Z"
     fill="#000000"
     fill-rule="nonzero"
     fill-opacity="1"
     id="path96" />
  <path
     clip-path="url(#clip460)"
     d="M1665.85 1468.75 L1695.53 1468.75 L1695.53 1472.69 L1665.85 1472.69 L1665.85 1468.75 Z"
     fill="#000000"
     fill-rule="nonzero"
     fill-opacity="1"
     id="path97" />
  <path
     clip-path="url(#clip460)"
     d="M1709.65 1481.64 L1725.97 1481.64 L1725.97 1485.58 L1704.02 1485.58 L1704.02 1481.64 Q1706.69 1478.89 1711.27 1474.26 Q1715.88 1469.61 1717.06 1468.27 Q1719.3 1465.74 1720.18 1464.01 Q1721.09 1462.25 1721.09 1460.56 Q1721.09 1457.8 1719.14 1456.07 Q1717.22 1454.33 1714.12 1454.33 Q1711.92 1454.33 1709.46 1455.09 Q1707.03 1455.86 1704.26 1457.41 L1704.26 1452.69 Q1707.08 1451.55 1709.53 1450.97 Q1711.99 1450.39 1714.02 1450.39 Q1719.4 1450.39 1722.59 1453.08 Q1725.78 1455.77 1725.78 1460.26 Q1725.78 1462.39 1724.97 1464.31 Q1724.19 1466.2 1722.08 1468.8 Q1721.5 1469.47 1718.4 1472.69 Q1715.3 1475.88 1709.65 1481.64 Z"
     fill="#000000"
     fill-rule="nonzero"
     fill-opacity="1"
     id="path98" />
  <path
     clip-path="url(#clip460)"
     d="M1860.12 1454.1 Q1856.51 1454.1 1854.68 1457.66 Q1852.88 1461.2 1852.88 1468.33 Q1852.88 1475.44 1854.68 1479.01 Q1856.51 1482.55 1860.12 1482.55 Q1863.76 1482.55 1865.56 1479.01 Q1867.39 1475.44 1867.39 1468.33 Q1867.39 1461.2 1865.56 1457.66 Q1863.76 1454.1 1860.12 1454.1 M1860.12 1450.39 Q1865.93 1450.39 1868.99 1455 Q1872.07 1459.58 1872.07 1468.33 Q1872.07 1477.06 1868.99 1481.67 Q1865.93 1486.25 1860.12 1486.25 Q1854.31 1486.25 1851.23 1481.67 Q1848.18 1477.06 1848.18 1468.33 Q1848.18 1459.58 1851.23 1455 Q1854.31 1450.39 1860.12 1450.39 Z"
     fill="#000000"
     fill-rule="nonzero"
     fill-opacity="1"
     id="path99" />
  <path
     clip-path="url(#clip460)"
     d="M2018.99 1481.64 L2035.31 1481.64 L2035.31 1485.58 L2013.36 1485.58 L2013.36 1481.64 Q2016.02 1478.89 2020.61 1474.26 Q2025.21 1469.61 2026.39 1468.27 Q2028.64 1465.74 2029.52 1464.01 Q2030.42 1462.25 2030.42 1460.56 Q2030.42 1457.8 2028.48 1456.07 Q2026.56 1454.33 2023.45 1454.33 Q2021.26 1454.33 2018.8 1455.09 Q2016.37 1455.86 2013.59 1457.41 L2013.59 1452.69 Q2016.42 1451.55 2018.87 1450.97 Q2021.32 1450.39 2023.36 1450.39 Q2028.73 1450.39 2031.93 1453.08 Q2035.12 1455.77 2035.12 1460.26 Q2035.12 1462.39 2034.31 1464.31 Q2033.52 1466.2 2031.42 1468.8 Q2030.84 1469.47 2027.74 1472.69 Q2024.63 1475.88 2018.99 1481.64 Z"
     fill="#000000"
     fill-rule="nonzero"
     fill-opacity="1"
     id="path100" />
  <path
     clip-path="url(#clip460)"
     d="M2191.55 1455.09 L2179.75 1473.54 L2191.55 1473.54 L2191.55 1455.09 M2190.33 1451.02 L2196.21 1451.02 L2196.21 1473.54 L2201.14 1473.54 L2201.14 1477.43 L2196.21 1477.43 L2196.21 1485.58 L2191.55 1485.58 L2191.55 1477.43 L2175.95 1477.43 L2175.95 1472.92 L2190.33 1451.02 Z"
     fill="#000000"
     fill-rule="nonzero"
     fill-opacity="1"
     id="path101" />
  <path
     clip-path="url(#clip460)"
     d="M2353.16 1466.44 Q2350.01 1466.44 2348.16 1468.59 Q2346.33 1470.74 2346.33 1474.49 Q2346.33 1478.22 2348.16 1480.39 Q2350.01 1482.55 2353.16 1482.55 Q2356.31 1482.55 2358.14 1480.39 Q2359.99 1478.22 2359.99 1474.49 Q2359.99 1470.74 2358.14 1468.59 Q2356.31 1466.44 2353.16 1466.44 M2362.44 1451.78 L2362.44 1456.04 Q2360.68 1455.21 2358.88 1454.77 Q2357.1 1454.33 2355.34 1454.33 Q2350.71 1454.33 2348.25 1457.45 Q2345.82 1460.58 2345.48 1466.9 Q2346.84 1464.89 2348.9 1463.82 Q2350.96 1462.73 2353.44 1462.73 Q2358.65 1462.73 2361.66 1465.9 Q2364.69 1469.05 2364.69 1474.49 Q2364.69 1479.82 2361.54 1483.03 Q2358.39 1486.25 2353.16 1486.25 Q2347.17 1486.25 2343.99 1481.67 Q2340.82 1477.06 2340.82 1468.33 Q2340.82 1460.14 2344.71 1455.28 Q2348.6 1450.39 2355.15 1450.39 Q2356.91 1450.39 2358.69 1450.74 Q2360.5 1451.09 2362.44 1451.78 Z"
     fill="#000000"
     fill-rule="nonzero"
     fill-opacity="1"
     id="path102" />
  <path
     clip-path="url(#clip460)"
     d="M1874.3 1528.8 Q1874.3 1530.61 1873.17 1531.64 Q1872.04 1532.64 1870.75 1532.64 Q1869.53 1532.64 1868.89 1531.93 Q1868.24 1531.22 1868.24 1530.32 Q1868.24 1529.09 1869.14 1528.03 Q1870.04 1526.97 1871.4 1526.74 Q1870.08 1525.91 1868.11 1525.91 Q1866.82 1525.91 1865.7 1526.58 Q1864.6 1527.26 1863.93 1528.13 Q1863.28 1529 1862.7 1530.25 Q1862.15 1531.48 1861.93 1532.22 Q1861.74 1532.93 1861.57 1533.7 L1859.32 1542.72 Q1858.23 1547 1858.23 1548.51 Q1858.23 1550.38 1859.13 1551.64 Q1860.03 1552.86 1861.83 1552.86 Q1862.54 1552.86 1863.35 1552.67 Q1864.15 1552.44 1865.18 1551.86 Q1866.24 1551.25 1867.18 1550.35 Q1868.14 1549.42 1869.08 1547.84 Q1870.01 1546.26 1870.62 1544.23 Q1870.82 1543.52 1871.46 1543.52 Q1872.27 1543.52 1872.27 1544.17 Q1872.27 1544.71 1871.82 1545.87 Q1871.4 1547 1870.46 1548.48 Q1869.56 1549.93 1868.37 1551.25 Q1867.18 1552.54 1865.41 1553.44 Q1863.64 1554.34 1861.7 1554.34 Q1858.93 1554.34 1857.1 1552.86 Q1855.26 1551.38 1854.59 1549.32 Q1854.43 1549.61 1854.2 1550 Q1853.97 1550.38 1853.3 1551.25 Q1852.65 1552.09 1851.91 1552.73 Q1851.17 1553.34 1850.01 1553.83 Q1848.89 1554.34 1847.66 1554.34 Q1846.12 1554.34 1844.73 1553.89 Q1843.38 1553.44 1842.41 1552.41 Q1841.45 1551.38 1841.45 1549.96 Q1841.45 1548.38 1842.51 1547.29 Q1843.6 1546.16 1845.09 1546.16 Q1846.02 1546.16 1846.76 1546.71 Q1847.53 1547.26 1847.53 1548.45 Q1847.53 1549.77 1846.63 1550.77 Q1845.73 1551.77 1844.44 1552.02 Q1845.76 1552.86 1847.73 1552.86 Q1849.85 1552.86 1851.53 1550.99 Q1853.2 1549.13 1854.01 1546 Q1856 1538.5 1856.78 1535.15 Q1857.55 1531.77 1857.55 1530.32 Q1857.55 1528.96 1857.19 1528.03 Q1856.84 1527.1 1856.23 1526.68 Q1855.65 1526.23 1855.1 1526.07 Q1854.59 1525.91 1854.01 1525.91 Q1853.04 1525.91 1851.95 1526.29 Q1850.88 1526.68 1849.59 1527.58 Q1848.34 1528.45 1847.15 1530.25 Q1845.95 1532.06 1845.15 1534.54 Q1844.99 1535.28 1844.28 1535.28 Q1843.51 1535.24 1843.51 1534.6 Q1843.51 1534.05 1843.93 1532.93 Q1844.38 1531.77 1845.28 1530.32 Q1846.21 1528.87 1847.4 1527.58 Q1848.63 1526.26 1850.4 1525.36 Q1852.2 1524.46 1854.14 1524.46 Q1855 1524.46 1855.84 1524.65 Q1856.71 1524.81 1857.74 1525.29 Q1858.81 1525.78 1859.74 1526.84 Q1860.67 1527.9 1861.25 1529.45 Q1861.64 1528.71 1862.15 1528 Q1862.7 1527.29 1863.54 1526.42 Q1864.41 1525.52 1865.6 1525 Q1866.82 1524.46 1868.18 1524.46 Q1869.5 1524.46 1870.79 1524.81 Q1872.07 1525.13 1873.17 1526.19 Q1874.3 1527.23 1874.3 1528.8 Z"
     fill="#000000"
     fill-rule="nonzero"
     fill-opacity="1"
     id="path103" />
  <polyline
     clip-path="url(#clip460)"
     style="stroke:#000000; stroke-linecap:round; stroke-linejoin:round; stroke-width:4; stroke-opacity:1; fill:none"
     points="1367.49,1423.18 1367.49,47.2441 "
     id="polyline103" />
  <polyline
     clip-path="url(#clip460)"
     style="stroke:#000000; stroke-linecap:round; stroke-linejoin:round; stroke-width:4; stroke-opacity:1; fill:none"
     points="1367.49,1384.24 1386.39,1384.24 "
     id="polyline104" />
  <polyline
     clip-path="url(#clip460)"
     style="stroke:#000000; stroke-linecap:round; stroke-linejoin:round; stroke-width:4; stroke-opacity:1; fill:none"
     points="1367.49,1038.7 1386.39,1038.7 "
     id="polyline105" />
  <polyline
     clip-path="url(#clip460)"
     style="stroke:#000000; stroke-linecap:round; stroke-linejoin:round; stroke-width:4; stroke-opacity:1; fill:none"
     points="1367.49,693.16 1386.39,693.16 "
     id="polyline106" />
  <polyline
     clip-path="url(#clip460)"
     style="stroke:#000000; stroke-linecap:round; stroke-linejoin:round; stroke-width:4; stroke-opacity:1; fill:none"
     points="1367.49,347.621 1386.39,347.621 "
     id="polyline107" />
  <path
     clip-path="url(#clip460)"
     d="M1274.31 1370.04 Q1270.7 1370.04 1268.87 1373.6 Q1267.07 1377.14 1267.07 1384.27 Q1267.07 1391.38 1268.87 1394.94 Q1270.7 1398.49 1274.31 1398.49 Q1277.95 1398.49 1279.75 1394.94 Q1281.58 1391.38 1281.58 1384.27 Q1281.58 1377.14 1279.75 1373.6 Q1277.95 1370.04 1274.31 1370.04 M1274.31 1366.33 Q1280.12 1366.33 1283.18 1370.94 Q1286.26 1375.52 1286.26 1384.27 Q1286.26 1393 1283.18 1397.61 Q1280.12 1402.19 1274.31 1402.19 Q1268.5 1402.19 1265.42 1397.61 Q1262.37 1393 1262.37 1384.27 Q1262.37 1375.52 1265.42 1370.94 Q1268.5 1366.33 1274.31 1366.33 Z"
     fill="#000000"
     fill-rule="nonzero"
     fill-opacity="1"
     id="path107" />
  <path
     clip-path="url(#clip460)"
     d="M1294.48 1395.64 L1299.36 1395.64 L1299.36 1401.52 L1294.48 1401.52 L1294.48 1395.64 Z"
     fill="#000000"
     fill-rule="nonzero"
     fill-opacity="1"
     id="path108" />
  <path
     clip-path="url(#clip460)"
     d="M1319.54 1370.04 Q1315.93 1370.04 1314.11 1373.6 Q1312.3 1377.14 1312.3 1384.27 Q1312.3 1391.38 1314.11 1394.94 Q1315.93 1398.49 1319.54 1398.49 Q1323.18 1398.49 1324.98 1394.94 Q1326.81 1391.38 1326.81 1384.27 Q1326.81 1377.14 1324.98 1373.6 Q1323.18 1370.04 1319.54 1370.04 M1319.54 1366.33 Q1325.36 1366.33 1328.41 1370.94 Q1331.49 1375.52 1331.49 1384.27 Q1331.49 1393 1328.41 1397.61 Q1325.36 1402.19 1319.54 1402.19 Q1313.73 1402.19 1310.66 1397.61 Q1307.6 1393 1307.6 1384.27 Q1307.6 1375.52 1310.66 1370.94 Q1313.73 1366.33 1319.54 1366.33 Z"
     fill="#000000"
     fill-rule="nonzero"
     fill-opacity="1"
     id="path109" />
  <path
     clip-path="url(#clip460)"
     d="M1275.31 1024.5 Q1271.7 1024.5 1269.87 1028.06 Q1268.06 1031.6 1268.06 1038.73 Q1268.06 1045.84 1269.87 1049.41 Q1271.7 1052.95 1275.31 1052.95 Q1278.94 1052.95 1280.75 1049.41 Q1282.58 1045.84 1282.58 1038.73 Q1282.58 1031.6 1280.75 1028.06 Q1278.94 1024.5 1275.31 1024.5 M1275.31 1020.79 Q1281.12 1020.79 1284.17 1025.4 Q1287.25 1029.98 1287.25 1038.73 Q1287.25 1047.46 1284.17 1052.07 Q1281.12 1056.65 1275.31 1056.65 Q1269.5 1056.65 1266.42 1052.07 Q1263.36 1047.46 1263.36 1038.73 Q1263.36 1029.98 1266.42 1025.4 Q1269.5 1020.79 1275.31 1020.79 Z"
     fill="#000000"
     fill-rule="nonzero"
     fill-opacity="1"
     id="path110" />
  <path
     clip-path="url(#clip460)"
     d="M1295.47 1050.1 L1300.36 1050.1 L1300.36 1055.98 L1295.47 1055.98 L1295.47 1050.1 Z"
     fill="#000000"
     fill-rule="nonzero"
     fill-opacity="1"
     id="path111" />
  <path
     clip-path="url(#clip460)"
     d="M1310.59 1021.42 L1328.94 1021.42 L1328.94 1025.35 L1314.87 1025.35 L1314.87 1033.83 Q1315.89 1033.48 1316.91 1033.32 Q1317.92 1033.13 1318.94 1033.13 Q1324.73 1033.13 1328.11 1036.3 Q1331.49 1039.47 1331.49 1044.89 Q1331.49 1050.47 1328.02 1053.57 Q1324.54 1056.65 1318.23 1056.65 Q1316.05 1056.65 1313.78 1056.28 Q1311.54 1055.91 1309.13 1055.17 L1309.13 1050.47 Q1311.21 1051.6 1313.43 1052.16 Q1315.66 1052.72 1318.13 1052.72 Q1322.14 1052.72 1324.48 1050.61 Q1326.81 1048.5 1326.81 1044.89 Q1326.81 1041.28 1324.48 1039.17 Q1322.14 1037.07 1318.13 1037.07 Q1316.26 1037.07 1314.38 1037.48 Q1312.53 1037.9 1310.59 1038.78 L1310.59 1021.42 Z"
     fill="#000000"
     fill-rule="nonzero"
     fill-opacity="1"
     id="path112" />
  <path
     clip-path="url(#clip460)"
     d="M1265.12 706.505 L1272.76 706.505 L1272.76 680.139 L1264.45 681.806 L1264.45 677.547 L1272.72 675.88 L1277.39 675.88 L1277.39 706.505 L1285.03 706.505 L1285.03 710.44 L1265.12 710.44 L1265.12 706.505 Z"
     fill="#000000"
     fill-rule="nonzero"
     fill-opacity="1"
     id="path113" />
  <path
     clip-path="url(#clip460)"
     d="M1294.48 704.561 L1299.36 704.561 L1299.36 710.44 L1294.48 710.44 L1294.48 704.561 Z"
     fill="#000000"
     fill-rule="nonzero"
     fill-opacity="1"
     id="path114" />
  <path
     clip-path="url(#clip460)"
     d="M1319.54 678.959 Q1315.93 678.959 1314.11 682.524 Q1312.3 686.065 1312.3 693.195 Q1312.3 700.301 1314.11 703.866 Q1315.93 707.408 1319.54 707.408 Q1323.18 707.408 1324.98 703.866 Q1326.81 700.301 1326.81 693.195 Q1326.81 686.065 1324.98 682.524 Q1323.18 678.959 1319.54 678.959 M1319.54 675.255 Q1325.36 675.255 1328.41 679.862 Q1331.49 684.445 1331.49 693.195 Q1331.49 701.922 1328.41 706.528 Q1325.36 711.111 1319.54 711.111 Q1313.73 711.111 1310.66 706.528 Q1307.6 701.922 1307.6 693.195 Q1307.6 684.445 1310.66 679.862 Q1313.73 675.255 1319.54 675.255 Z"
     fill="#000000"
     fill-rule="nonzero"
     fill-opacity="1"
     id="path115" />
  <path
     clip-path="url(#clip460)"
     d="M1266.12 360.966 L1273.76 360.966 L1273.76 334.6 L1265.45 336.267 L1265.45 332.008 L1273.71 330.341 L1278.39 330.341 L1278.39 360.966 L1286.03 360.966 L1286.03 364.901 L1266.12 364.901 L1266.12 360.966 Z"
     fill="#000000"
     fill-rule="nonzero"
     fill-opacity="1"
     id="path116" />
  <path
     clip-path="url(#clip460)"
     d="M1295.47 359.022 L1300.36 359.022 L1300.36 364.901 L1295.47 364.901 L1295.47 359.022 Z"
     fill="#000000"
     fill-rule="nonzero"
     fill-opacity="1"
     id="path117" />
  <path
     clip-path="url(#clip460)"
     d="M1310.59 330.341 L1328.94 330.341 L1328.94 334.276 L1314.87 334.276 L1314.87 342.748 Q1315.89 342.401 1316.91 342.239 Q1317.92 342.054 1318.94 342.054 Q1324.73 342.054 1328.11 345.225 Q1331.49 348.397 1331.49 353.813 Q1331.49 359.392 1328.02 362.494 Q1324.54 365.572 1318.23 365.572 Q1316.05 365.572 1313.78 365.202 Q1311.54 364.832 1309.13 364.091 L1309.13 359.392 Q1311.21 360.526 1313.43 361.082 Q1315.66 361.637 1318.13 361.637 Q1322.14 361.637 1324.48 359.531 Q1326.81 357.424 1326.81 353.813 Q1326.81 350.202 1324.48 348.096 Q1322.14 345.989 1318.13 345.989 Q1316.26 345.989 1314.38 346.406 Q1312.53 346.823 1310.59 347.702 L1310.59 330.341 Z"
     fill="#000000"
     fill-rule="nonzero"
     fill-opacity="1"
     id="path118" />
  <polyline
     clip-path="url(#clip463)"
     style="stroke:#009af9; stroke-linecap:round; stroke-linejoin:round; stroke-width:8; stroke-opacity:1; fill:none"
     points="1367.49,1384.24 1377.66,1384.24 1437.24,1384.24 1464.95,1384.24 1502.1,1384.22 1532.79,1384.14 1561.33,1383.87 1579.25,1383.45 1597.17,1382.6 1605.2,1382.01 1613.24,1381.24 1621.27,1380.23 1629.31,1378.94 1638.5,1377.02 1647.7,1374.53 1652.3,1373.04 1656.9,1371.35 1661.5,1369.46 1666.1,1367.34 1672.97,1363.72 1679.85,1359.49 1686.72,1354.6 1693.6,1348.99 1697.99,1345 1702.39,1340.68 1706.79,1336.03 1711.18,1331.04 1715.58,1325.7 1719.98,1320 1724.37,1313.96 1728.77,1307.56 1732.78,1301.42 1736.8,1295.01 1740.81,1288.32 1744.82,1281.39 1748.83,1274.21 1752.85,1266.82 1756.86,1259.22 1760.87,1251.46 1770.01,1233.28 1779.14,1214.73 1788.28,1196.24 1797.41,1178.29 1801.03,1171.44 1804.65,1164.8 1808.27,1158.38 1811.89,1152.23 1815.51,1146.37 1819.13,1140.84 1822.75,1135.66 1826.37,1130.87 1830.87,1125.49 1835.37,1120.79 1837.62,1118.7 1839.87,1116.8 1842.12,1115.09 1844.37,1113.57 1846.61,1112.24 1848.86,1111.12 1851.11,1110.19 1853.36,1109.47 1855.61,1108.95 1857.86,1108.64 1860.11,1108.54 1862.36,1108.64 1865.8,1109.2 1869.25,1110.24 1872.69,1111.75 1876.14,1113.73 1879.58,1116.17 1883.03,1119.06 1886.47,1122.37 1889.92,1126.1 1894.77,1132.03 1899.63,1138.67 1904.48,1145.98 1909.34,1153.88 1914.2,1162.29 1919.05,1171.15 1923.91,1180.36 1928.77,1189.86 1943.28,1219.17 1957.8,1248.37 1961.93,1256.42 1966.06,1264.3 1970.18,1271.97 1974.31,1279.42 1978.44,1286.62 1982.56,1293.56 1986.69,1300.21 1990.82,1306.58 1994.91,1312.58 1998.99,1318.29 2003.08,1323.69 2007.17,1328.78 2011.26,1333.58 2015.34,1338.07 2019.43,1342.27 2023.52,1346.18 2028.02,1350.16 2032.51,1353.82 2037.01,1357.16 2041.51,1360.21 2046,1362.98 2050.5,1365.49 2055,1367.75 2059.49,1369.78 2066.36,1372.48 2073.23,1374.74 2080.1,1376.62 2086.97,1378.17 2095.64,1379.73 2104.31,1380.93 2112.98,1381.83 2121.65,1382.51 2137.68,1383.33 2153.72,1383.78 2186.8,1384.14 2220.32,1384.22 2255.33,1384.24 2282.91,1384.24 2345.71,1384.24 2352.76,1384.24 "
     id="polyline118" />
  <polyline
     clip-path="url(#clip463)"
     style="stroke:#e26f46; stroke-linecap:round; stroke-linejoin:round; stroke-width:8; stroke-opacity:1; fill:none"
     points="1367.49,1315.82 1370.03,1314.97 1372.58,1314.11 1375.12,1313.23 1377.66,1312.35 1392.55,1306.96 1407.45,1301.16 1422.34,1294.92 1437.24,1288.22 1444.16,1284.93 1451.09,1281.53 1458.02,1278.02 1464.95,1274.38 1474.24,1269.31 1483.52,1264 1492.81,1258.45 1502.1,1252.65 1509.77,1247.65 1517.44,1242.46 1525.12,1237.07 1532.79,1231.48 1539.93,1226.09 1547.06,1220.51 1554.2,1214.74 1561.33,1208.76 1570.29,1200.95 1579.25,1192.8 1588.21,1184.28 1597.17,1175.38 1605.2,1167.07 1613.24,1158.42 1621.27,1149.43 1629.31,1140.08 1633.91,1134.57 1638.5,1128.92 1643.1,1123.16 1647.7,1117.26 1650,1114.26 1652.3,1111.22 1653.45,1109.69 1654.6,1108.54 1655.75,1108.54 1656.9,1108.54 1659.2,1108.54 1661.5,1108.54 1663.8,1108.54 1666.1,1108.54 1672.97,1108.54 1679.85,1108.54 1686.72,1108.54 1693.6,1108.54 1728.77,1108.54 1760.87,1108.54 1797.41,1108.54 1826.37,1108.54 1862.36,1108.54 1889.92,1108.54 1928.77,1108.54 1957.8,1108.54 1990.82,1108.54 2023.52,1108.54 2032.51,1108.54 2041.51,1108.54 2050.5,1108.54 2059.49,1108.54 2061.21,1108.54 2062.93,1108.54 2063.79,1108.54 2064.65,1108.54 2065.5,1108.54 2066.36,1109.12 2068.08,1111.4 2069.8,1113.67 2071.52,1115.92 2073.23,1118.15 2080.1,1126.88 2086.97,1135.33 2095.64,1145.6 2104.31,1155.44 2112.98,1164.88 2121.65,1173.93 2129.67,1181.96 2137.68,1189.69 2145.7,1197.12 2153.72,1204.27 2161.99,1211.36 2170.26,1218.17 2178.53,1224.71 2186.8,1230.99 2195.18,1237.11 2203.56,1242.98 2211.94,1248.62 2220.32,1254.03 2229.07,1259.45 2237.83,1264.65 2246.58,1269.62 2255.33,1274.4 2262.22,1278.01 2269.12,1281.51 2276.01,1284.9 2282.91,1288.17 2298.61,1295.23 2314.31,1301.77 2330.01,1307.82 2345.71,1313.44 2347.47,1314.04 2349.23,1314.64 2350.99,1315.23 2352.76,1315.82 "
     id="polyline119" />
  <polyline
     clip-path="url(#clip463)"
     style="stroke:#3da44d; stroke-linecap:round; stroke-linejoin:round; stroke-width:8; stroke-opacity:1; fill:none"
     points="1367.49,1226.06 1370.03,1224.64 1372.58,1223.2 1375.12,1221.76 1377.66,1220.3 1392.55,1211.48 1407.45,1202.2 1422.34,1192.41 1437.24,1182.08 1444.16,1176.96 1451.09,1171.58 1458.02,1165.91 1464.95,1159.93 1474.24,1151.38 1483.52,1142.16 1492.81,1132.17 1502.1,1121.32 1509.77,1111.63 1517.44,1101.19 1525.12,1089.93 1532.79,1077.73 1539.93,1065.44 1547.06,1052.12 1554.2,1037.65 1561.33,1021.85 1565.81,1011.18 1570.29,999.864 1574.77,987.836 1579.25,975.032 1583.73,961.373 1588.21,946.771 1592.69,931.124 1597.17,914.316 1601.18,898.142 1605.2,880.815 1607.21,871.68 1609.22,862.207 1611.23,852.378 1613.24,842.171 1615.24,831.564 1617.25,820.535 1619.26,809.056 1621.27,797.1 1623.28,784.637 1625.29,771.632 1627.3,758.052 1629.31,743.855 1631.61,726.794 1633.91,708.799 1634.48,704.145 1635.05,699.427 1635.34,697.043 1635.63,694.643 1635.92,693.16 1636.2,693.16 1636.78,693.16 1637.35,693.16 1637.93,693.16 1638.5,693.16 1640.8,693.16 1643.1,693.16 1645.4,693.16 1647.7,693.16 1656.9,693.16 1666.1,693.16 1679.85,693.16 1693.6,693.16 1728.77,693.16 1760.87,693.16 1797.41,693.16 1826.37,693.16 1862.36,693.16 1889.92,693.16 1928.77,693.16 1957.8,693.16 1990.82,693.16 2023.52,693.16 2041.51,693.16 2059.49,693.16 2066.36,693.16 2073.23,693.16 2076.67,693.16 2080.1,693.16 2080.96,693.16 2081.82,693.16 2082.68,693.16 2083.54,693.16 2083.97,693.16 2084.4,693.16 2084.83,696.395 2085.25,699.957 2086.11,706.97 2086.97,713.842 2089.14,730.579 2091.31,746.501 2093.47,761.666 2095.64,776.126 2097.81,789.93 2099.98,803.121 2102.14,815.74 2104.31,827.821 2106.48,839.401 2108.64,850.507 2110.81,861.171 2112.98,871.416 2115.15,881.268 2117.31,890.748 2119.48,899.878 2121.65,908.676 2125.66,924.135 2129.67,938.621 2133.67,952.223 2137.68,965.019 2141.69,977.078 2145.7,988.463 2149.71,999.229 2153.72,1009.42 2157.85,1019.39 2161.99,1028.84 2166.12,1037.81 2170.26,1046.34 2178.53,1062.2 2186.8,1076.63 2195.18,1090 2203.56,1102.26 2211.94,1113.53 2220.32,1123.94 2229.07,1133.99 2237.83,1143.29 2246.58,1151.92 2255.33,1159.96 2269.12,1171.55 2282.91,1182 2298.61,1192.88 2314.31,1203.16 2330.01,1212.89 2345.71,1222.09 2347.47,1223.09 2349.23,1224.08 2350.99,1225.07 2352.76,1226.06 "
     id="polyline120" />
  <polyline
     clip-path="url(#clip463)"
     style="stroke:#c271d2; stroke-linecap:round; stroke-linejoin:round; stroke-width:8; stroke-opacity:1; fill:none"
     points="1367.49,1384.24 1370.03,1384.24 1372.58,1384.24 1375.12,1384.24 1377.66,1384.24 1392.55,1384.24 1407.45,1384.24 1422.34,1384.24 1437.24,1384.23 1440.7,1384.23 1444.16,1384.23 1445.03,1384.23 1445.9,1384.23 1446.76,1384.23 1447.63,1384.23 1447.84,1384.23 1448.06,1384.23 1448.28,1384.23 1448.49,1384.23 1448.71,1108.26 1448.93,1107.97 1449.14,1107.68 1449.36,1107.39 1449.79,1106.8 1450.23,1106.22 1450.66,1105.62 1451.09,1105.03 1452.82,1102.63 1454.56,1100.19 1456.29,1097.7 1458.02,1095.18 1461.48,1089.98 1464.95,1084.6 1474.24,1069.15 1483.52,1052.01 1492.81,1032.91 1502.1,1011.48 1509.77,991.687 1517.44,969.678 1525.12,945.055 1532.79,917.323 1536.36,903.2 1539.93,888.195 1543.49,872.225 1547.06,855.192 1550.63,836.987 1554.2,817.485 1557.77,796.541 1561.33,773.989 1563.57,758.928 1565.81,743.106 1568.05,726.461 1570.29,708.929 1572.53,690.437 1574.77,670.904 1577.01,650.239 1579.25,628.341 1581.49,605.097 1583.73,580.377 1585.97,554.037 1588.21,525.913 1590.45,495.817 1592.69,463.533 1594.93,428.814 1597.17,391.375 1599.17,355.204 1601.18,316.298 1602.19,295.72 1603.19,274.334 1604.2,252.091 1605.2,228.938 1606.21,204.818 1607.21,179.67 1608.21,153.425 1609.22,126.012 1609.72,111.843 1610.22,97.35 1610.47,89.9793 1610.72,86.1857 1610.98,86.1857 1611.23,86.1857 1612.23,86.1857 1613.24,86.1857 1615.24,86.1857 1617.25,86.1857 1619.26,86.1857 1621.27,86.1857 1625.29,86.1857 1629.31,86.1857 1666.1,86.1857 1693.6,86.1857 1728.77,86.1857 1760.87,86.1857 1797.41,86.1857 1826.37,86.1857 1862.36,86.1857 1889.92,86.1857 1928.77,86.1857 1957.8,86.1857 1990.82,86.1857 2023.52,86.1857 2059.49,86.1857 2086.97,86.1857 2091.31,86.1857 2095.64,86.1857 2099.98,86.1857 2104.31,86.1857 2105.39,86.1857 2106.48,86.1857 2107.56,86.1857 2108.64,86.1857 2108.92,86.1857 2109.19,86.1857 2109.46,86.1857 2109.73,88.6939 2110,96.6581 2110.27,104.525 2110.54,112.296 2110.81,119.974 2111.9,149.779 2112.98,178.211 2114.06,205.363 2115.15,231.319 2116.23,256.157 2117.31,279.947 2118.4,302.755 2119.48,324.64 2120.56,345.656 2121.65,365.855 2123.65,401.22 2125.66,434.211 2127.66,465.059 2129.67,493.967 2131.67,521.113 2133.67,546.652 2135.68,570.723 2137.68,593.449 2139.69,614.94 2141.69,635.293 2143.7,654.598 2145.7,672.932 2147.71,690.368 2149.71,706.969 2151.71,722.794 2153.72,737.897 2157.85,766.968 2161.99,793.537 2166.12,817.912 2170.26,840.356 2174.39,861.089 2178.53,880.299 2182.66,898.148 2186.8,914.776 2190.99,930.509 2195.18,945.221 2199.37,959.009 2203.56,971.957 2211.94,995.624 2220.32,1016.72 2229.07,1036.44 2237.83,1054.15 2246.58,1070.14 2255.33,1084.65 2258.78,1090.01 2262.22,1095.17 2263.95,1097.69 2265.67,1100.16 2267.39,1102.59 2269.12,1104.98 2269.98,1106.16 2270.84,1107.33 2271.06,1107.62 2271.27,1107.91 2271.49,1108.2 2271.7,1108.49 2271.92,1384.23 2272.13,1384.23 2272.35,1384.23 2272.57,1384.23 2273,1384.23 2273.43,1384.23 2273.86,1384.23 2274.29,1384.23 2275.15,1384.23 2276.01,1384.23 2279.46,1384.23 2282.91,1384.23 2298.61,1384.24 2314.31,1384.24 2330.01,1384.24 2345.71,1384.24 2347.47,1384.24 2349.23,1384.24 2350.99,1384.24 2352.76,1384.24 "
     id="polyline121" />
  <path
     clip-path="url(#clip460)"
     d="M1400.33 352.309 L1544.69 352.309 L1544.69 93.1086 L1400.33 93.1086  Z"
     fill="#ffffff"
     fill-rule="evenodd"
     fill-opacity="1"
     id="path121" />
  <polyline
     clip-path="url(#clip460)"
     style="stroke:#000000; stroke-linecap:round; stroke-linejoin:round; stroke-width:4; stroke-opacity:1; fill:none"
     points="1400.33,352.309 1544.69,352.309 1544.69,93.1086 1400.33,93.1086 1400.33,352.309 "
     id="polyline122" />
  <polyline
     clip-path="url(#clip460)"
     style="stroke:#009af9; stroke-linecap:round; stroke-linejoin:round; stroke-width:8; stroke-opacity:1; fill:none"
     points="1411.28,144.949 1476.96,144.949 "
     id="polyline123" />
  <path
     clip-path="url(#clip460)"
     d="M1511.83 126.304 Q1511.83 127.592 1511.01 128.389 Q1510.21 129.185 1509.2 129.185 Q1508.48 129.185 1507.94 128.74 Q1507.42 128.295 1507.42 127.522 Q1507.42 126.726 1508.03 125.883 Q1508.64 125.039 1510.02 124.922 Q1509.11 124.056 1507.66 124.056 Q1506.93 124.056 1506.32 124.524 Q1505.74 124.969 1505.41 125.695 Q1505.06 126.445 1504.26 130.684 Q1504 132.066 1503.77 133.401 Q1503.53 134.736 1503.25 136.142 L1507.23 136.142 Q1507.75 136.142 1507.96 136.165 Q1508.17 136.188 1508.34 136.306 Q1508.52 136.423 1508.52 136.68 Q1508.52 137.336 1508.22 137.5 Q1507.94 137.641 1507.09 137.641 L1502.97 137.641 L1500.09 152.842 Q1500.02 153.287 1499.72 154.692 Q1499.43 156.074 1498.76 158.346 Q1498.08 160.641 1497.4 162 Q1497.02 162.773 1496.53 163.499 Q1496.06 164.249 1495.38 164.998 Q1494.7 165.748 1493.81 166.193 Q1492.92 166.661 1491.99 166.661 Q1490.39 166.661 1489.15 165.771 Q1487.91 164.881 1487.91 163.358 Q1487.91 162.07 1488.71 161.274 Q1489.53 160.478 1490.53 160.478 Q1491.26 160.478 1491.78 160.923 Q1492.31 161.368 1492.31 162.141 Q1492.31 162.468 1492.2 162.843 Q1492.08 163.218 1491.82 163.64 Q1491.56 164.085 1491 164.389 Q1490.44 164.694 1489.67 164.74 Q1490.58 165.607 1491.99 165.607 Q1492.43 165.607 1492.83 165.42 Q1493.23 165.256 1493.56 164.834 Q1493.91 164.412 1494.16 163.991 Q1494.42 163.593 1494.68 162.82 Q1494.94 162.07 1495.1 161.508 Q1495.27 160.946 1495.48 159.939 Q1495.71 158.932 1495.83 158.323 Q1495.94 157.737 1496.16 156.589 L1499.74 137.641 L1496.58 137.641 Q1496.02 137.641 1495.78 137.617 Q1495.57 137.594 1495.41 137.477 Q1495.24 137.336 1495.24 137.055 Q1495.24 136.61 1495.43 136.423 Q1495.64 136.212 1495.87 136.188 Q1496.11 136.142 1496.67 136.142 L1500 136.142 Q1501.12 130.216 1501.57 128.623 Q1502.08 126.937 1502.88 125.765 Q1503.67 124.571 1504.56 124.009 Q1505.45 123.447 1506.18 123.236 Q1506.93 123.002 1507.66 123.002 Q1509.3 123.002 1510.56 123.892 Q1511.83 124.758 1511.83 126.304 Z"
     fill="#000000"
     fill-rule="nonzero"
     fill-opacity="1"
     id="path123" />
  <polyline
     clip-path="url(#clip460)"
     style="stroke:#e26f46; stroke-linecap:round; stroke-linejoin:round; stroke-width:8; stroke-opacity:1; fill:none"
     points="1411.28,196.789 1476.96,196.789 "
     id="polyline124" />
  <path
     clip-path="url(#clip460)"
     d="M1509.93 176.82 Q1509.93 176.844 1509.79 177.687 L1504.45 198.978 Q1504.17 200.102 1503.37 201.227 Q1502.6 202.374 1501.36 203.358 Q1500.14 204.365 1498.26 204.974 Q1496.41 205.607 1494.28 205.607 Q1490.89 205.607 1489.39 204.88 Q1487.91 204.178 1487.91 202.679 Q1487.91 201.367 1488.73 200.618 Q1489.55 199.891 1490.49 199.891 Q1491.38 199.891 1491.85 200.407 Q1492.31 200.922 1492.31 201.578 Q1492.31 202.304 1491.82 203.03 Q1491.33 203.78 1490.35 204.061 Q1491.92 204.553 1494.19 204.553 Q1498.99 204.553 1501.05 199.47 Q1501.1 199.4 1501.1 199.376 L1502.69 193.029 L1502.62 192.982 Q1502.22 193.45 1501.59 193.989 Q1500.98 194.504 1499.67 195.137 Q1498.36 195.769 1497.07 195.769 Q1494.38 195.769 1492.53 193.708 Q1490.7 191.623 1490.7 188.18 Q1490.7 185.674 1491.71 183.168 Q1492.74 180.638 1494.33 178.788 Q1495.94 176.914 1498.01 175.743 Q1500.09 174.572 1502.1 174.572 Q1503.51 174.572 1504.7 175.415 Q1505.9 176.235 1506.56 177.593 Q1506.67 176.469 1507.3 176.001 Q1507.96 175.532 1508.52 175.532 Q1509.16 175.532 1509.53 175.883 Q1509.93 176.211 1509.93 176.82 M1505.99 179.748 Q1505.99 179.608 1505.9 179.233 Q1505.81 178.835 1505.52 178.202 Q1505.27 177.57 1504.87 177.008 Q1504.47 176.446 1503.74 176.047 Q1503.04 175.626 1502.15 175.626 Q1500.7 175.626 1499.25 176.844 Q1497.8 178.038 1496.79 179.889 Q1495.85 181.669 1494.96 185.112 Q1494.09 188.555 1494.09 190.312 Q1494.09 192.045 1494.84 193.38 Q1495.59 194.715 1497.21 194.715 Q1499.08 194.715 1501.1 192.982 Q1503.18 191.178 1503.53 189.632 L1505.85 180.474 Q1505.99 179.912 1505.99 179.748 Z"
     fill="#000000"
     fill-rule="nonzero"
     fill-opacity="1"
     id="path124" />
  <path
     clip-path="url(#clip460)"
     d="M1514.83 199.626 L1514.83 198.577 Q1518.86 198.577 1520.94 196.429 Q1521.52 196.429 1521.62 196.56 Q1521.71 196.691 1521.71 197.298 L1521.71 216.136 Q1521.71 217.137 1522.21 217.448 Q1522.7 217.76 1524.85 217.76 L1525.91 217.76 L1525.91 218.793 Q1524.73 218.694 1520.47 218.694 Q1516.2 218.694 1515.04 218.793 L1515.04 217.76 L1516.11 217.76 Q1518.22 217.76 1518.73 217.464 Q1519.24 217.153 1519.24 216.136 L1519.24 198.741 Q1517.48 199.626 1514.83 199.626 Z"
     fill="#000000"
     fill-rule="nonzero"
     fill-opacity="1"
     id="path125" />
  <polyline
     clip-path="url(#clip460)"
     style="stroke:#3da44d; stroke-linecap:round; stroke-linejoin:round; stroke-width:8; stroke-opacity:1; fill:none"
     points="1411.28,248.629 1476.96,248.629 "
     id="polyline125" />
  <path
     clip-path="url(#clip460)"
     d="M1509.93 228.66 Q1509.93 228.684 1509.79 229.527 L1504.45 250.818 Q1504.17 251.942 1503.37 253.067 Q1502.6 254.214 1501.36 255.198 Q1500.14 256.205 1498.26 256.814 Q1496.41 257.447 1494.28 257.447 Q1490.89 257.447 1489.39 256.72 Q1487.91 256.018 1487.91 254.519 Q1487.91 253.207 1488.73 252.458 Q1489.55 251.731 1490.49 251.731 Q1491.38 251.731 1491.85 252.247 Q1492.31 252.762 1492.31 253.418 Q1492.31 254.144 1491.82 254.87 Q1491.33 255.62 1490.35 255.901 Q1491.92 256.393 1494.19 256.393 Q1498.99 256.393 1501.05 251.31 Q1501.1 251.24 1501.1 251.216 L1502.69 244.869 L1502.62 244.822 Q1502.22 245.29 1501.59 245.829 Q1500.98 246.344 1499.67 246.977 Q1498.36 247.609 1497.07 247.609 Q1494.38 247.609 1492.53 245.548 Q1490.7 243.463 1490.7 240.02 Q1490.7 237.514 1491.71 235.008 Q1492.74 232.478 1494.33 230.628 Q1495.94 228.754 1498.01 227.583 Q1500.09 226.412 1502.1 226.412 Q1503.51 226.412 1504.7 227.255 Q1505.9 228.075 1506.56 229.433 Q1506.67 228.309 1507.3 227.841 Q1507.96 227.372 1508.52 227.372 Q1509.16 227.372 1509.53 227.723 Q1509.93 228.051 1509.93 228.66 M1505.99 231.588 Q1505.99 231.448 1505.9 231.073 Q1505.81 230.675 1505.52 230.042 Q1505.27 229.41 1504.87 228.848 Q1504.47 228.286 1503.74 227.887 Q1503.04 227.466 1502.15 227.466 Q1500.7 227.466 1499.25 228.684 Q1497.8 229.878 1496.79 231.729 Q1495.85 233.509 1494.96 236.952 Q1494.09 240.395 1494.09 242.152 Q1494.09 243.885 1494.84 245.22 Q1495.59 246.555 1497.21 246.555 Q1499.08 246.555 1501.1 244.822 Q1503.18 243.018 1503.53 241.472 L1505.85 232.314 Q1505.99 231.752 1505.99 231.588 Z"
     fill="#000000"
     fill-rule="nonzero"
     fill-opacity="1"
     id="path126" />
  <path
     clip-path="url(#clip460)"
     d="M1514.83 270.633 Q1514.83 270.026 1514.88 269.846 Q1514.94 269.665 1515.2 269.386 L1521.65 262.205 Q1525.17 258.237 1525.17 254.778 Q1525.17 252.532 1523.99 250.925 Q1522.83 249.318 1520.68 249.318 Q1519.21 249.318 1517.96 250.22 Q1516.71 251.122 1516.14 252.728 Q1516.24 252.696 1516.58 252.696 Q1517.42 252.696 1517.88 253.22 Q1518.35 253.745 1518.35 254.45 Q1518.35 255.352 1517.76 255.794 Q1517.19 256.221 1516.61 256.221 Q1516.39 256.221 1516.07 256.172 Q1515.78 256.122 1515.3 255.663 Q1514.83 255.188 1514.83 254.352 Q1514.83 252.007 1516.6 250.138 Q1518.39 248.269 1521.11 248.269 Q1524.19 248.269 1526.21 250.105 Q1528.24 251.925 1528.24 254.778 Q1528.24 255.778 1527.93 256.696 Q1527.63 257.598 1527.22 258.303 Q1526.83 259.008 1525.75 260.139 Q1524.67 261.271 1523.8 262.074 Q1522.93 262.877 1520.98 264.583 L1517.42 268.042 L1523.47 268.042 Q1526.42 268.042 1526.65 267.78 Q1526.98 267.304 1527.39 264.796 L1528.24 264.796 L1527.29 270.633 L1514.83 270.633 Z"
     fill="#000000"
     fill-rule="nonzero"
     fill-opacity="1"
     id="path127" />
  <polyline
     clip-path="url(#clip460)"
     style="stroke:#c271d2; stroke-linecap:round; stroke-linejoin:round; stroke-width:8; stroke-opacity:1; fill:none"
     points="1411.28,300.469 1476.96,300.469 "
     id="polyline127" />
  <path
     clip-path="url(#clip460)"
     d="M1509.93 280.134 Q1509.93 280.157 1509.79 281.001 L1504.45 302.292 Q1504.17 303.416 1503.37 304.54 Q1502.6 305.688 1501.36 306.672 Q1500.14 307.679 1498.26 308.288 Q1496.41 308.92 1494.28 308.92 Q1490.89 308.92 1489.39 308.194 Q1487.91 307.491 1487.91 305.992 Q1487.91 304.681 1488.73 303.931 Q1489.55 303.205 1490.49 303.205 Q1491.38 303.205 1491.85 303.72 Q1492.31 304.236 1492.31 304.891 Q1492.31 305.618 1491.82 306.344 Q1491.33 307.093 1490.35 307.374 Q1491.92 307.866 1494.19 307.866 Q1498.99 307.866 1501.05 302.783 Q1501.1 302.713 1501.1 302.69 L1502.69 296.342 L1502.62 296.295 Q1502.22 296.764 1501.59 297.303 Q1500.98 297.818 1499.67 298.45 Q1498.36 299.083 1497.07 299.083 Q1494.38 299.083 1492.53 297.022 Q1490.7 294.937 1490.7 291.494 Q1490.7 288.988 1491.71 286.481 Q1492.74 283.952 1494.33 282.101 Q1495.94 280.228 1498.01 279.056 Q1500.09 277.885 1502.1 277.885 Q1503.51 277.885 1504.7 278.729 Q1505.9 279.548 1506.56 280.907 Q1506.67 279.783 1507.3 279.314 Q1507.96 278.846 1508.52 278.846 Q1509.16 278.846 1509.53 279.197 Q1509.93 279.525 1509.93 280.134 M1505.99 283.062 Q1505.99 282.921 1505.9 282.546 Q1505.81 282.148 1505.52 281.516 Q1505.27 280.883 1504.87 280.321 Q1504.47 279.759 1503.74 279.361 Q1503.04 278.939 1502.15 278.939 Q1500.7 278.939 1499.25 280.157 Q1497.8 281.352 1496.79 283.202 Q1495.85 284.982 1494.96 288.425 Q1494.09 291.869 1494.09 293.625 Q1494.09 295.359 1494.84 296.694 Q1495.59 298.029 1497.21 298.029 Q1499.08 298.029 1501.1 296.295 Q1503.18 294.492 1503.53 292.946 L1505.85 283.788 Q1505.99 283.226 1505.99 283.062 Z"
     fill="#000000"
     fill-rule="nonzero"
     fill-opacity="1"
     id="path128" />
  <path
     clip-path="url(#clip460)"
     d="M1514.83 317.581 Q1514.83 316.581 1515.4 316.105 Q1515.98 315.63 1516.71 315.63 Q1517.48 315.63 1518.02 316.138 Q1518.58 316.63 1518.58 317.499 Q1518.58 318.433 1517.93 318.958 Q1517.29 319.483 1516.37 319.352 Q1517.17 320.696 1518.65 321.303 Q1520.14 321.909 1521.52 321.909 Q1522.96 321.909 1524.12 320.663 Q1525.3 319.417 1525.3 316.368 Q1525.3 313.777 1524.29 312.285 Q1523.29 310.793 1521.3 310.793 L1519.83 310.793 Q1519.32 310.793 1519.17 310.744 Q1519.03 310.695 1519.03 310.416 Q1519.03 310.088 1519.53 310.022 Q1520.04 310.022 1520.84 309.924 Q1522.8 309.859 1523.83 308.17 Q1524.76 306.596 1524.76 304.35 Q1524.76 302.3 1523.78 301.448 Q1522.81 300.579 1521.55 300.579 Q1520.37 300.579 1519.07 301.07 Q1517.78 301.562 1517.07 302.661 Q1519.16 302.661 1519.16 304.35 Q1519.16 305.087 1518.68 305.579 Q1518.22 306.055 1517.45 306.055 Q1516.71 306.055 1516.22 305.596 Q1515.73 305.12 1515.73 304.317 Q1515.73 302.398 1517.43 301.07 Q1519.16 299.742 1521.68 299.742 Q1524.17 299.742 1526.01 301.054 Q1527.86 302.366 1527.86 304.382 Q1527.86 306.366 1526.55 307.989 Q1525.24 309.613 1523.16 310.285 Q1525.71 310.793 1527.24 312.531 Q1528.76 314.253 1528.76 316.368 Q1528.76 318.991 1526.7 320.926 Q1524.63 322.844 1521.62 322.844 Q1518.83 322.844 1516.83 321.336 Q1514.83 319.827 1514.83 317.581 Z"
     fill="#000000"
     fill-rule="nonzero"
     fill-opacity="1"
     id="path129" />
</svg>
