<?xml version="1.0" encoding="UTF-8" standalone="no"?>
<svg
   width="600"
   height="400"
   viewBox="0 0 2400 1600"
   version="1.1"
   id="svg108"
   sodipodi:docname="cotas3.svg"
   inkscape:version="1.3.2 (091e20e, 2023-11-25)"
   xmlns:inkscape="http://www.inkscape.org/namespaces/inkscape"
   xmlns:sodipodi="http://sodipodi.sourceforge.net/DTD/sodipodi-0.dtd"
   xmlns="http://www.w3.org/2000/svg"
   xmlns:svg="http://www.w3.org/2000/svg">
  <sodipodi:namedview
     id="namedview108"
     pagecolor="#ffffff"
     bordercolor="#000000"
     borderopacity="0.25"
     inkscape:showpageshadow="2"
     inkscape:pageopacity="0.0"
     inkscape:pagecheckerboard="0"
     inkscape:deskcolor="#d1d1d1"
     inkscape:zoom="1.3395832"
     inkscape:cx="351.60191"
     inkscape:cy="165.72319"
     inkscape:window-width="1440"
     inkscape:window-height="847"
     inkscape:window-x="0"
     inkscape:window-y="25"
     inkscape:window-maximized="0"
     inkscape:current-layer="svg108" />
  <defs
     id="defs1">
    <clipPath
       id="clip070">
      <rect
         x="0"
         y="0"
         width="2400"
         height="1600"
         id="rect1" />
    </clipPath>
  </defs>
  <defs
     id="defs2">
    <clipPath
       id="clip071">
      <rect
         x="480"
         y="0"
         width="1681"
         height="1600"
         id="rect2" />
    </clipPath>
  </defs>
  <defs
     id="defs3">
    <clipPath
       id="clip072">
      <rect
         x="178"
         y="47"
         width="1008"
         height="1377"
         id="rect3" />
    </clipPath>
  </defs>
  <polyline
     clip-path="url(#clip072)"
     style="stroke:#000000; stroke-linecap:round; stroke-linejoin:round; stroke-width:2; stroke-opacity:0.1; fill:none"
     points="178.867,1423.18 178.867,47.2441 "
     id="polyline3" />
  <polyline
     clip-path="url(#clip072)"
     style="stroke:#000000; stroke-linecap:round; stroke-linejoin:round; stroke-width:2; stroke-opacity:0.1; fill:none"
     points="430.675,1423.18 430.675,47.2441 "
     id="polyline4" />
  <polyline
     clip-path="url(#clip072)"
     style="stroke:#000000; stroke-linecap:round; stroke-linejoin:round; stroke-width:2; stroke-opacity:0.1; fill:none"
     points="682.484,1423.18 682.484,47.2441 "
     id="polyline5" />
  <polyline
     clip-path="url(#clip072)"
     style="stroke:#000000; stroke-linecap:round; stroke-linejoin:round; stroke-width:2; stroke-opacity:0.1; fill:none"
     points="934.292,1423.18 934.292,47.2441 "
     id="polyline6" />
  <polyline
     clip-path="url(#clip072)"
     style="stroke:#000000; stroke-linecap:round; stroke-linejoin:round; stroke-width:2; stroke-opacity:0.1; fill:none"
     points="1186.1,1423.18 1186.1,47.2441 "
     id="polyline7" />
  <polyline
     clip-path="url(#clip072)"
     style="stroke:#000000; stroke-linecap:round; stroke-linejoin:round; stroke-width:2; stroke-opacity:0.1; fill:none"
     points="178.867,1361.5 1186.1,1361.5 "
     id="polyline8" />
  <polyline
     clip-path="url(#clip072)"
     style="stroke:#000000; stroke-linecap:round; stroke-linejoin:round; stroke-width:2; stroke-opacity:0.1; fill:none"
     points="178.867,1114.11 1186.1,1114.11 "
     id="polyline9" />
  <polyline
     clip-path="url(#clip072)"
     style="stroke:#000000; stroke-linecap:round; stroke-linejoin:round; stroke-width:2; stroke-opacity:0.1; fill:none"
     points="178.867,866.708 1186.1,866.708 "
     id="polyline10" />
  <polyline
     clip-path="url(#clip072)"
     style="stroke:#000000; stroke-linecap:round; stroke-linejoin:round; stroke-width:2; stroke-opacity:0.1; fill:none"
     points="178.867,619.311 1186.1,619.311 "
     id="polyline11" />
  <polyline
     clip-path="url(#clip072)"
     style="stroke:#000000; stroke-linecap:round; stroke-linejoin:round; stroke-width:2; stroke-opacity:0.1; fill:none"
     points="178.867,371.913 1186.1,371.913 "
     id="polyline12" />
  <polyline
     clip-path="url(#clip072)"
     style="stroke:#000000; stroke-linecap:round; stroke-linejoin:round; stroke-width:2; stroke-opacity:0.1; fill:none"
     points="178.867,124.515 1186.1,124.515 "
     id="polyline13" />
  <polyline
     clip-path="url(#clip070)"
     style="stroke:#000000; stroke-linecap:round; stroke-linejoin:round; stroke-width:4; stroke-opacity:1; fill:none"
     points="178.867,1423.18 1186.1,1423.18 "
     id="polyline14" />
  <polyline
     clip-path="url(#clip070)"
     style="stroke:#000000; stroke-linecap:round; stroke-linejoin:round; stroke-width:4; stroke-opacity:1; fill:none"
     points="178.867,1423.18 178.867,1404.28 "
     id="polyline15" />
  <polyline
     clip-path="url(#clip070)"
     style="stroke:#000000; stroke-linecap:round; stroke-linejoin:round; stroke-width:4; stroke-opacity:1; fill:none"
     points="430.675,1423.18 430.675,1404.28 "
     id="polyline16" />
  <polyline
     clip-path="url(#clip070)"
     style="stroke:#000000; stroke-linecap:round; stroke-linejoin:round; stroke-width:4; stroke-opacity:1; fill:none"
     points="682.484,1423.18 682.484,1404.28 "
     id="polyline17" />
  <polyline
     clip-path="url(#clip070)"
     style="stroke:#000000; stroke-linecap:round; stroke-linejoin:round; stroke-width:4; stroke-opacity:1; fill:none"
     points="934.292,1423.18 934.292,1404.28 "
     id="polyline18" />
  <polyline
     clip-path="url(#clip070)"
     style="stroke:#000000; stroke-linecap:round; stroke-linejoin:round; stroke-width:4; stroke-opacity:1; fill:none"
     points="1186.1,1423.18 1186.1,1404.28 "
     id="polyline19" />
  <path
     clip-path="url(#clip070)"
     d="M132.929 1468.75 L162.605 1468.75 L162.605 1472.69 L132.929 1472.69 L132.929 1468.75 Z"
     fill="#000000"
     fill-rule="nonzero"
     fill-opacity="1"
     id="path19" />
  <path
     clip-path="url(#clip070)"
     d="M173.508 1481.64 L181.147 1481.64 L181.147 1455.28 L172.837 1456.95 L172.837 1452.69 L181.1 1451.02 L185.776 1451.02 L185.776 1481.64 L193.415 1481.64 L193.415 1485.58 L173.508 1485.58 L173.508 1481.64 Z"
     fill="#000000"
     fill-rule="nonzero"
     fill-opacity="1"
     id="path20" />
  <path
     clip-path="url(#clip070)"
     d="M212.86 1454.1 Q209.248 1454.1 207.42 1457.66 Q205.614 1461.2 205.614 1468.33 Q205.614 1475.44 207.42 1479.01 Q209.248 1482.55 212.86 1482.55 Q216.494 1482.55 218.299 1479.01 Q220.128 1475.44 220.128 1468.33 Q220.128 1461.2 218.299 1457.66 Q216.494 1454.1 212.86 1454.1 M212.86 1450.39 Q218.67 1450.39 221.725 1455 Q224.804 1459.58 224.804 1468.33 Q224.804 1477.06 221.725 1481.67 Q218.67 1486.25 212.86 1486.25 Q207.049 1486.25 203.971 1481.67 Q200.915 1477.06 200.915 1468.33 Q200.915 1459.58 203.971 1455 Q207.049 1450.39 212.86 1450.39 Z"
     fill="#000000"
     fill-rule="nonzero"
     fill-opacity="1"
     id="path21" />
  <path
     clip-path="url(#clip070)"
     d="M400.317 1468.75 L429.992 1468.75 L429.992 1472.69 L400.317 1472.69 L400.317 1468.75 Z"
     fill="#000000"
     fill-rule="nonzero"
     fill-opacity="1"
     id="path22" />
  <path
     clip-path="url(#clip070)"
     d="M440.131 1451.02 L458.487 1451.02 L458.487 1454.96 L444.413 1454.96 L444.413 1463.43 Q445.432 1463.08 446.451 1462.92 Q447.469 1462.73 448.488 1462.73 Q454.275 1462.73 457.654 1465.9 Q461.034 1469.08 461.034 1474.49 Q461.034 1480.07 457.562 1483.17 Q454.089 1486.25 447.77 1486.25 Q445.594 1486.25 443.326 1485.88 Q441.08 1485.51 438.673 1484.77 L438.673 1480.07 Q440.756 1481.2 442.978 1481.76 Q445.201 1482.32 447.677 1482.32 Q451.682 1482.32 454.02 1480.21 Q456.358 1478.1 456.358 1474.49 Q456.358 1470.88 454.02 1468.77 Q451.682 1466.67 447.677 1466.67 Q445.802 1466.67 443.927 1467.08 Q442.076 1467.5 440.131 1468.38 L440.131 1451.02 Z"
     fill="#000000"
     fill-rule="nonzero"
     fill-opacity="1"
     id="path23" />
  <path
     clip-path="url(#clip070)"
     d="M682.484 1454.1 Q678.873 1454.1 677.044 1457.66 Q675.238 1461.2 675.238 1468.33 Q675.238 1475.44 677.044 1479.01 Q678.873 1482.55 682.484 1482.55 Q686.118 1482.55 687.923 1479.01 Q689.752 1475.44 689.752 1468.33 Q689.752 1461.2 687.923 1457.66 Q686.118 1454.1 682.484 1454.1 M682.484 1450.39 Q688.294 1450.39 691.349 1455 Q694.428 1459.58 694.428 1468.33 Q694.428 1477.06 691.349 1481.67 Q688.294 1486.25 682.484 1486.25 Q676.673 1486.25 673.595 1481.67 Q670.539 1477.06 670.539 1468.33 Q670.539 1459.58 673.595 1455 Q676.673 1450.39 682.484 1450.39 Z"
     fill="#000000"
     fill-rule="nonzero"
     fill-opacity="1"
     id="path24" />
  <path
     clip-path="url(#clip070)"
     d="M924.57 1451.02 L942.926 1451.02 L942.926 1454.96 L928.852 1454.96 L928.852 1463.43 Q929.871 1463.08 930.889 1462.92 Q931.908 1462.73 932.926 1462.73 Q938.713 1462.73 942.093 1465.9 Q945.473 1469.08 945.473 1474.49 Q945.473 1480.07 942 1483.17 Q938.528 1486.25 932.209 1486.25 Q930.033 1486.25 927.764 1485.88 Q925.519 1485.51 923.112 1484.77 L923.112 1480.07 Q925.195 1481.2 927.417 1481.76 Q929.639 1482.32 932.116 1482.32 Q936.121 1482.32 938.459 1480.21 Q940.797 1478.1 940.797 1474.49 Q940.797 1470.88 938.459 1468.77 Q936.121 1466.67 932.116 1466.67 Q930.241 1466.67 928.366 1467.08 Q926.514 1467.5 924.57 1468.38 L924.57 1451.02 Z"
     fill="#000000"
     fill-rule="nonzero"
     fill-opacity="1"
     id="path25" />
  <path
     clip-path="url(#clip070)"
     d="M1160.79 1481.64 L1168.43 1481.64 L1168.43 1455.28 L1160.12 1456.95 L1160.12 1452.69 L1168.38 1451.02 L1173.06 1451.02 L1173.06 1481.64 L1180.7 1481.64 L1180.7 1485.58 L1160.79 1485.58 L1160.79 1481.64 Z"
     fill="#000000"
     fill-rule="nonzero"
     fill-opacity="1"
     id="path26" />
  <path
     clip-path="url(#clip070)"
     d="M1200.14 1454.1 Q1196.53 1454.1 1194.7 1457.66 Q1192.89 1461.2 1192.89 1468.33 Q1192.89 1475.44 1194.7 1479.01 Q1196.53 1482.55 1200.14 1482.55 Q1203.77 1482.55 1205.58 1479.01 Q1207.41 1475.44 1207.41 1468.33 Q1207.41 1461.2 1205.58 1457.66 Q1203.77 1454.1 1200.14 1454.1 M1200.14 1450.39 Q1205.95 1450.39 1209.01 1455 Q1212.08 1459.58 1212.08 1468.33 Q1212.08 1477.06 1209.01 1481.67 Q1205.95 1486.25 1200.14 1486.25 Q1194.33 1486.25 1191.25 1481.67 Q1188.2 1477.06 1188.2 1468.33 Q1188.2 1459.58 1191.25 1455 Q1194.33 1450.39 1200.14 1450.39 Z"
     fill="#000000"
     fill-rule="nonzero"
     fill-opacity="1"
     id="path27" />
  <polyline
     clip-path="url(#clip070)"
     style="stroke:#000000; stroke-linecap:round; stroke-linejoin:round; stroke-width:4; stroke-opacity:1; fill:none"
     points="178.867,1423.18 178.867,47.2441 "
     id="polyline27" />
  <polyline
     clip-path="url(#clip070)"
     style="stroke:#000000; stroke-linecap:round; stroke-linejoin:round; stroke-width:4; stroke-opacity:1; fill:none"
     points="178.867,1361.5 197.764,1361.5 "
     id="polyline28" />
  <polyline
     clip-path="url(#clip070)"
     style="stroke:#000000; stroke-linecap:round; stroke-linejoin:round; stroke-width:4; stroke-opacity:1; fill:none"
     points="178.867,1114.11 197.764,1114.11 "
     id="polyline29" />
  <polyline
     clip-path="url(#clip070)"
     style="stroke:#000000; stroke-linecap:round; stroke-linejoin:round; stroke-width:4; stroke-opacity:1; fill:none"
     points="178.867,866.708 197.764,866.708 "
     id="polyline30" />
  <polyline
     clip-path="url(#clip070)"
     style="stroke:#000000; stroke-linecap:round; stroke-linejoin:round; stroke-width:4; stroke-opacity:1; fill:none"
     points="178.867,619.311 197.764,619.311 "
     id="polyline31" />
  <polyline
     clip-path="url(#clip070)"
     style="stroke:#000000; stroke-linecap:round; stroke-linejoin:round; stroke-width:4; stroke-opacity:1; fill:none"
     points="178.867,371.913 197.764,371.913 "
     id="polyline32" />
  <polyline
     clip-path="url(#clip070)"
     style="stroke:#000000; stroke-linecap:round; stroke-linejoin:round; stroke-width:4; stroke-opacity:1; fill:none"
     points="178.867,124.515 197.764,124.515 "
     id="polyline33" />
  <path
     clip-path="url(#clip070)"
     d="M50.9921 1361.96 L80.6679 1361.96 L80.6679 1365.89 L50.9921 1365.89 L50.9921 1361.96 Z"
     fill="#000000"
     fill-rule="nonzero"
     fill-opacity="1"
     id="path33" />
  <path
     clip-path="url(#clip070)"
     d="M90.8067 1344.22 L109.163 1344.22 L109.163 1348.16 L95.0891 1348.16 L95.0891 1356.63 Q96.1076 1356.28 97.1261 1356.12 Q98.1447 1355.94 99.1632 1355.94 Q104.95 1355.94 108.33 1359.11 Q111.709 1362.28 111.709 1367.7 Q111.709 1373.27 108.237 1376.38 Q104.765 1379.46 98.4456 1379.46 Q96.2697 1379.46 94.0012 1379.08 Q91.7558 1378.71 89.3484 1377.97 L89.3484 1373.27 Q91.4317 1374.41 93.6539 1374.96 Q95.8761 1375.52 98.353 1375.52 Q102.358 1375.52 104.696 1373.41 Q107.033 1371.31 107.033 1367.7 Q107.033 1364.08 104.696 1361.98 Q102.358 1359.87 98.353 1359.87 Q96.478 1359.87 94.603 1360.29 Q92.7512 1360.71 90.8067 1361.58 L90.8067 1344.22 Z"
     fill="#000000"
     fill-rule="nonzero"
     fill-opacity="1"
     id="path34" />
  <path
     clip-path="url(#clip070)"
     d="M130.922 1347.3 Q127.311 1347.3 125.482 1350.87 Q123.677 1354.41 123.677 1361.54 Q123.677 1368.65 125.482 1372.21 Q127.311 1375.75 130.922 1375.75 Q134.556 1375.75 136.362 1372.21 Q138.191 1368.65 138.191 1361.54 Q138.191 1354.41 136.362 1350.87 Q134.556 1347.3 130.922 1347.3 M130.922 1343.6 Q136.732 1343.6 139.788 1348.21 Q142.867 1352.79 142.867 1361.54 Q142.867 1370.27 139.788 1374.87 Q136.732 1379.46 130.922 1379.46 Q125.112 1379.46 122.033 1374.87 Q118.978 1370.27 118.978 1361.54 Q118.978 1352.79 122.033 1348.21 Q125.112 1343.6 130.922 1343.6 Z"
     fill="#000000"
     fill-rule="nonzero"
     fill-opacity="1"
     id="path35" />
  <path
     clip-path="url(#clip070)"
     d="M50.9921 1114.56 L80.6679 1114.56 L80.6679 1118.49 L50.9921 1118.49 L50.9921 1114.56 Z"
     fill="#000000"
     fill-rule="nonzero"
     fill-opacity="1"
     id="path36" />
  <path
     clip-path="url(#clip070)"
     d="M103.608 1100.9 L91.8021 1119.35 L103.608 1119.35 L103.608 1100.9 M102.381 1096.83 L108.26 1096.83 L108.26 1119.35 L113.191 1119.35 L113.191 1123.24 L108.26 1123.24 L108.26 1131.39 L103.608 1131.39 L103.608 1123.24 L88.0058 1123.24 L88.0058 1118.72 L102.381 1096.83 Z"
     fill="#000000"
     fill-rule="nonzero"
     fill-opacity="1"
     id="path37" />
  <path
     clip-path="url(#clip070)"
     d="M130.922 1099.9 Q127.311 1099.9 125.482 1103.47 Q123.677 1107.01 123.677 1114.14 Q123.677 1121.25 125.482 1124.81 Q127.311 1128.35 130.922 1128.35 Q134.556 1128.35 136.362 1124.81 Q138.191 1121.25 138.191 1114.14 Q138.191 1107.01 136.362 1103.47 Q134.556 1099.9 130.922 1099.9 M130.922 1096.2 Q136.732 1096.2 139.788 1100.81 Q142.867 1105.39 142.867 1114.14 Q142.867 1122.87 139.788 1127.47 Q136.732 1132.06 130.922 1132.06 Q125.112 1132.06 122.033 1127.47 Q118.978 1122.87 118.978 1114.14 Q118.978 1105.39 122.033 1100.81 Q125.112 1096.2 130.922 1096.2 Z"
     fill="#000000"
     fill-rule="nonzero"
     fill-opacity="1"
     id="path38" />
  <path
     clip-path="url(#clip070)"
     d="M50.9921 867.16 L80.6679 867.16 L80.6679 871.095 L50.9921 871.095 L50.9921 867.16 Z"
     fill="#000000"
     fill-rule="nonzero"
     fill-opacity="1"
     id="path39" />
  <path
     clip-path="url(#clip070)"
     d="M104.927 865.354 Q108.283 866.072 110.158 868.34 Q112.057 870.609 112.057 873.942 Q112.057 879.058 108.538 881.859 Q105.02 884.66 98.5382 884.66 Q96.3623 884.66 94.0475 884.22 Q91.7558 883.803 89.3021 882.947 L89.3021 878.433 Q91.2465 879.567 93.5613 880.146 Q95.8761 880.725 98.3993 880.725 Q102.797 880.725 105.089 878.988 Q107.404 877.252 107.404 873.942 Q107.404 870.887 105.251 869.174 Q103.121 867.438 99.3021 867.438 L95.2743 867.438 L95.2743 863.595 L99.4872 863.595 Q102.936 863.595 104.765 862.229 Q106.594 860.84 106.594 858.248 Q106.594 855.586 104.696 854.174 Q102.821 852.739 99.3021 852.739 Q97.3808 852.739 95.1817 853.155 Q92.9826 853.572 90.3438 854.452 L90.3438 850.285 Q93.0058 849.544 95.3206 849.174 Q97.6585 848.803 99.7187 848.803 Q105.043 848.803 108.145 851.234 Q111.246 853.641 111.246 857.762 Q111.246 860.632 109.603 862.623 Q107.959 864.59 104.927 865.354 Z"
     fill="#000000"
     fill-rule="nonzero"
     fill-opacity="1"
     id="path40" />
  <path
     clip-path="url(#clip070)"
     d="M130.922 852.507 Q127.311 852.507 125.482 856.072 Q123.677 859.614 123.677 866.743 Q123.677 873.85 125.482 877.414 Q127.311 880.956 130.922 880.956 Q134.556 880.956 136.362 877.414 Q138.191 873.85 138.191 866.743 Q138.191 859.614 136.362 856.072 Q134.556 852.507 130.922 852.507 M130.922 848.803 Q136.732 848.803 139.788 853.41 Q142.867 857.993 142.867 866.743 Q142.867 875.47 139.788 880.076 Q136.732 884.66 130.922 884.66 Q125.112 884.66 122.033 880.076 Q118.978 875.47 118.978 866.743 Q118.978 857.993 122.033 853.41 Q125.112 848.803 130.922 848.803 Z"
     fill="#000000"
     fill-rule="nonzero"
     fill-opacity="1"
     id="path41" />
  <path
     clip-path="url(#clip070)"
     d="M50.9921 619.762 L80.6679 619.762 L80.6679 623.697 L50.9921 623.697 L50.9921 619.762 Z"
     fill="#000000"
     fill-rule="nonzero"
     fill-opacity="1"
     id="path42" />
  <path
     clip-path="url(#clip070)"
     d="M94.7882 632.656 L111.108 632.656 L111.108 636.591 L89.1632 636.591 L89.1632 632.656 Q91.8252 629.901 96.4085 625.271 Q101.015 620.619 102.196 619.276 Q104.441 616.753 105.321 615.017 Q106.223 613.257 106.223 611.568 Q106.223 608.813 104.279 607.077 Q102.358 605.341 99.2558 605.341 Q97.0567 605.341 94.603 606.105 Q92.1725 606.869 89.3947 608.42 L89.3947 603.697 Q92.2188 602.563 94.6724 601.984 Q97.1261 601.406 99.1632 601.406 Q104.534 601.406 107.728 604.091 Q110.922 606.776 110.922 611.267 Q110.922 613.396 110.112 615.318 Q109.325 617.216 107.219 619.808 Q106.64 620.48 103.538 623.697 Q100.436 626.892 94.7882 632.656 Z"
     fill="#000000"
     fill-rule="nonzero"
     fill-opacity="1"
     id="path43" />
  <path
     clip-path="url(#clip070)"
     d="M130.922 605.109 Q127.311 605.109 125.482 608.674 Q123.677 612.216 123.677 619.345 Q123.677 626.452 125.482 630.017 Q127.311 633.558 130.922 633.558 Q134.556 633.558 136.362 630.017 Q138.191 626.452 138.191 619.345 Q138.191 612.216 136.362 608.674 Q134.556 605.109 130.922 605.109 M130.922 601.406 Q136.732 601.406 139.788 606.012 Q142.867 610.595 142.867 619.345 Q142.867 628.072 139.788 632.679 Q136.732 637.262 130.922 637.262 Q125.112 637.262 122.033 632.679 Q118.978 628.072 118.978 619.345 Q118.978 610.595 122.033 606.012 Q125.112 601.406 130.922 601.406 Z"
     fill="#000000"
     fill-rule="nonzero"
     fill-opacity="1"
     id="path44" />
  <path
     clip-path="url(#clip070)"
     d="M50.9921 372.364 L80.6679 372.364 L80.6679 376.299 L50.9921 376.299 L50.9921 372.364 Z"
     fill="#000000"
     fill-rule="nonzero"
     fill-opacity="1"
     id="path45" />
  <path
     clip-path="url(#clip070)"
     d="M91.5706 385.258 L99.2095 385.258 L99.2095 358.892 L90.8993 360.559 L90.8993 356.3 L99.1632 354.633 L103.839 354.633 L103.839 385.258 L111.478 385.258 L111.478 389.193 L91.5706 389.193 L91.5706 385.258 Z"
     fill="#000000"
     fill-rule="nonzero"
     fill-opacity="1"
     id="path46" />
  <path
     clip-path="url(#clip070)"
     d="M130.922 357.712 Q127.311 357.712 125.482 361.276 Q123.677 364.818 123.677 371.948 Q123.677 379.054 125.482 382.619 Q127.311 386.161 130.922 386.161 Q134.556 386.161 136.362 382.619 Q138.191 379.054 138.191 371.948 Q138.191 364.818 136.362 361.276 Q134.556 357.712 130.922 357.712 M130.922 354.008 Q136.732 354.008 139.788 358.614 Q142.867 363.198 142.867 371.948 Q142.867 380.674 139.788 385.281 Q136.732 389.864 130.922 389.864 Q125.112 389.864 122.033 385.281 Q118.978 380.674 118.978 371.948 Q118.978 363.198 122.033 358.614 Q125.112 354.008 130.922 354.008 Z"
     fill="#000000"
     fill-rule="nonzero"
     fill-opacity="1"
     id="path47" />
  <path
     clip-path="url(#clip070)"
     d="M130.922 110.314 Q127.311 110.314 125.482 113.879 Q123.677 117.42 123.677 124.55 Q123.677 131.656 125.482 135.221 Q127.311 138.763 130.922 138.763 Q134.556 138.763 136.362 135.221 Q138.191 131.656 138.191 124.55 Q138.191 117.42 136.362 113.879 Q134.556 110.314 130.922 110.314 M130.922 106.61 Q136.732 106.61 139.788 111.217 Q142.867 115.8 142.867 124.55 Q142.867 133.277 139.788 137.883 Q136.732 142.466 130.922 142.466 Q125.112 142.466 122.033 137.883 Q118.978 133.277 118.978 124.55 Q118.978 115.8 122.033 111.217 Q125.112 106.61 130.922 106.61 Z"
     fill="#000000"
     fill-rule="nonzero"
     fill-opacity="1"
     id="path48" />
  <polyline
     clip-path="url(#clip072)"
     style="stroke:#009af9; stroke-linecap:round; stroke-linejoin:round; stroke-width:8; stroke-opacity:1; fill:none"
     points="178.867,1361.5 184.066,1336.1 189.265,1310.95 204.491,1238.83 219.716,1168.97 234.942,1101.37 250.167,1036.04 264.333,977.281 278.499,920.481 287.993,883.509 297.487,847.417 306.981,812.204 316.474,777.87 332.164,723.056 347.854,670.644 362.443,624.06 377.033,579.552 395.348,526.619 413.663,476.958 430.092,435.196 446.521,396.066 455.924,374.856 465.326,354.508 474.729,335.023 484.131,316.4 498.188,290.167 512.245,265.861 530.223,237.583 548.202,212.457 564.612,192.277 581.021,174.724 590.359,165.907 599.697,157.941 609.035,150.826 618.373,144.561 633.177,136.372 647.982,130.321 666.375,125.781 684.768,124.541 698.854,125.822 712.94,129.039 722.87,132.47 732.8,136.863 742.73,142.217 752.659,148.533 767.5,159.766 782.34,173.147 799.217,190.975 816.094,211.581 832.808,234.727 849.523,260.597 867.911,292.207 886.3,327.116 900.345,356.002 914.391,386.812 932.115,428.439 949.84,473.129 966.233,517.191 982.626,563.875 999.533,614.766 1016.44,668.446 1033.58,725.702 1050.71,785.823 1068.61,851.657 1086.5,920.615 1100.6,977.136 1114.69,1035.59 1130.75,1104.52 1146.8,1175.96 1162.85,1249.91 1178.9,1326.37 1180.7,1335.11 1182.5,1343.87 1184.3,1352.67 1186.1,1361.5 "
     id="polyline48" />
  <polyline
     clip-path="url(#clip072)"
     style="stroke:#e26f46; stroke-linecap:round; stroke-linejoin:round; stroke-width:8; stroke-opacity:0.7; fill:none"
     stroke-dasharray="4, 8"
     points="178.867,1384.24 184.066,1358.83 189.265,1333.68 204.491,1261.56 219.716,1191.71 234.942,1124.11 250.167,1058.77 264.333,1000.02 278.499,943.215 287.993,906.244 297.487,870.151 306.981,834.938 316.474,800.604 332.164,745.791 347.854,693.378 362.443,646.794 377.033,602.286 395.348,549.353 413.663,499.692 430.092,457.93 446.521,418.8 455.924,397.59 465.326,377.243 474.729,357.757 484.131,339.134 498.188,312.901 512.245,288.595 530.223,260.317 548.202,235.192 564.612,215.012 581.021,197.458 590.359,188.642 599.697,180.676 609.035,173.56 618.373,167.296 633.177,159.106 647.982,153.055 666.375,148.515 684.768,147.275 698.854,148.557 712.94,151.774 722.87,155.204 732.8,159.597 742.73,164.951 752.659,171.268 767.5,182.5 782.34,195.881 799.217,213.709 816.094,234.315 832.808,257.461 849.523,283.331 867.911,314.942 886.3,349.85 900.345,378.736 914.391,409.547 932.115,451.173 949.84,495.864 966.233,539.926 982.626,586.609 999.533,637.501 1016.44,691.181 1033.58,748.437 1050.71,808.557 1068.61,874.392 1086.5,943.35 1100.6,999.87 1114.69,1058.33 1130.75,1127.25 1146.8,1198.69 1162.85,1272.64 1178.9,1349.11 1180.7,1357.84 1182.5,1366.61 1184.3,1375.41 1186.1,1384.24 "
     id="polyline49" />
  <polyline
     clip-path="url(#clip072)"
     style="stroke:#3da44d; stroke-linecap:round; stroke-linejoin:round; stroke-width:8; stroke-opacity:1; fill:none"
     points="178.867,120.494 189.265,119.019 250.167,110.382 278.499,106.365 316.474,100.98 347.854,96.5297 377.033,92.3917 386.191,91.0931 395.348,89.7945 404.506,88.4958 413.663,87.1972 415.717,86.906 417.771,86.6148 418.797,86.4692 419.824,86.3235 420.851,86.1857 421.878,86.1857 423.931,86.1857 425.985,86.1857 428.039,86.1857 430.092,86.1857 438.307,86.1857 446.521,86.1857 465.326,86.1857 484.131,86.1857 498.188,86.1857 512.245,86.1857 548.202,86.1857 581.021,86.1857 618.373,86.1857 647.982,86.1857 684.768,86.1857 712.94,86.1857 752.659,86.1857 782.34,86.1857 816.094,86.1857 849.523,86.1857 867.911,86.1857 886.3,86.1857 900.345,86.1857 914.391,86.1857 923.253,86.1857 932.115,86.1857 936.546,86.1857 940.978,86.1857 942.085,86.1857 943.193,86.1857 944.301,86.2041 945.409,86.3612 947.624,86.6754 949.84,86.9896 953.938,87.5708 958.036,88.152 962.135,88.7331 966.233,89.3143 974.43,90.4767 982.626,91.639 1016.44,96.4341 1050.71,101.294 1086.5,106.37 1114.69,110.368 1178.9,119.472 1186.1,120.494 "
     id="polyline50" />
  <path
     clip-path="url(#clip070)"
     d="M896.294 330.634 L1152.53 330.634 L1152.53 93.1086 L896.294 93.1086  Z"
     fill="#ffffff"
     fill-rule="evenodd"
     fill-opacity="1"
     id="path50" />
  <polyline
     clip-path="url(#clip070)"
     style="stroke:#000000; stroke-linecap:round; stroke-linejoin:round; stroke-width:4; stroke-opacity:1; fill:none"
     points="896.294,330.634 1152.53,330.634 1152.53,93.1086 896.294,93.1086 896.294,330.634 "
     id="polyline51" />
  <polyline
     clip-path="url(#clip070)"
     style="stroke:#009af9; stroke-linecap:round; stroke-linejoin:round; stroke-width:8; stroke-opacity:1; fill:none"
     points="907.486,152.49 974.634,152.49 "
     id="polyline52" />
  <path
     clip-path="url(#clip070)"
     d="M991.528 163.392 L991.528 161.917 Q994.081 161.917 994.667 161.612 Q995.252 161.284 995.252 159.738 L995.252 134.793 Q995.252 133.013 994.62 132.568 Q994.011 132.123 991.528 132.123 L991.528 130.624 L998.414 130.109 L998.414 159.738 Q998.414 161.284 999.023 161.612 Q999.632 161.917 1002.16 161.917 L1002.16 163.392 Q1001.58 163.392 1000.36 163.345 Q999.14 163.299 998.25 163.275 Q997.36 163.252 996.845 163.252 Q996.283 163.252 991.528 163.392 Z"
     fill="#000000"
     fill-rule="nonzero"
     fill-opacity="1"
     id="path52" />
  <path
     clip-path="url(#clip070)"
     d="M1009.38 160.816 Q1006.21 157.677 1006.21 153.133 Q1006.21 148.566 1009.31 145.24 Q1012.42 141.89 1016.87 141.89 Q1021.23 141.89 1024.34 145.216 Q1027.48 148.519 1027.48 153.133 Q1027.48 157.654 1024.32 160.792 Q1021.18 163.931 1016.82 163.931 Q1012.56 163.931 1009.38 160.816 M1010.2 152.735 Q1010.2 157.396 1011.41 159.504 Q1013.29 162.713 1016.87 162.713 Q1018.65 162.713 1020.13 161.753 Q1021.63 160.792 1022.45 159.176 Q1023.5 157.068 1023.5 152.735 Q1023.5 148.121 1022.24 146.083 Q1020.36 142.968 1016.82 142.968 Q1015.28 142.968 1013.76 143.788 Q1012.26 144.584 1011.34 146.177 Q1010.2 148.285 1010.2 152.735 Z"
     fill="#000000"
     fill-rule="nonzero"
     fill-opacity="1"
     id="path53" />
  <path
     clip-path="url(#clip070)"
     d="M1028.24 167.187 Q1028.24 165.641 1029.41 164.306 Q1030.6 162.971 1032.66 162.385 Q1030.56 161.05 1030.56 158.122 Q1030.56 155.874 1032.03 154.14 Q1029.78 152.267 1029.78 149.198 Q1029.78 146.364 1032.03 144.279 Q1034.28 142.195 1037.56 142.195 Q1040.44 142.195 1042.64 143.928 Q1044.94 141.68 1047.72 141.656 Q1048.97 141.656 1049.55 142.429 Q1050.16 143.202 1050.16 144.022 Q1050.16 144.748 1049.69 145.099 Q1049.25 145.451 1048.78 145.451 Q1048.19 145.451 1047.77 145.076 Q1047.37 144.678 1047.37 144.069 Q1047.37 143.062 1048.15 142.757 Q1048.01 142.71 1047.68 142.71 Q1045.33 142.71 1043.34 144.584 Q1045.31 146.411 1045.31 149.245 Q1045.31 152.079 1043.06 154.164 Q1040.81 156.248 1037.56 156.248 Q1034.87 156.248 1032.8 154.749 Q1031.98 155.71 1031.98 157.021 Q1031.98 158.216 1032.71 159.153 Q1033.44 160.09 1034.54 160.23 Q1034.87 160.277 1038.12 160.277 Q1040.04 160.277 1041.1 160.324 Q1042.15 160.371 1043.65 160.699 Q1045.17 161.003 1046.37 161.612 Q1049.48 163.345 1049.5 167.093 Q1049.5 169.833 1046.34 171.543 Q1043.2 173.276 1038.85 173.276 Q1034.44 173.276 1031.33 171.52 Q1028.24 169.787 1028.24 167.187 M1030.74 167.187 Q1030.74 169.154 1033.06 170.653 Q1035.38 172.176 1038.89 172.176 Q1042.34 172.176 1044.66 170.677 Q1047 169.201 1047 167.187 Q1047 165.758 1046.18 164.844 Q1045.36 163.931 1043.67 163.556 Q1042.01 163.205 1040.84 163.135 Q1039.67 163.064 1037.51 163.064 L1034.68 163.064 Q1033.04 163.158 1031.89 164.353 Q1030.74 165.547 1030.74 167.187 M1033.37 149.245 Q1033.37 155.148 1037.56 155.148 Q1039.67 155.148 1040.95 153.227 Q1041.73 151.939 1041.73 149.198 Q1041.73 143.296 1037.56 143.296 Q1035.45 143.296 1034.14 145.216 Q1033.37 146.505 1033.37 149.245 Z"
     fill="#000000"
     fill-rule="nonzero"
     fill-opacity="1"
     id="path54" />
  <path
     clip-path="url(#clip070)"
     d="M1057.69 151.4 Q1057.69 143.296 1060.71 136.761 Q1062 134.02 1063.8 131.725 Q1065.61 129.43 1066.8 128.423 Q1067.99 127.415 1068.32 127.415 Q1068.79 127.415 1068.81 127.884 Q1068.81 128.118 1068.18 128.704 Q1060.45 136.574 1060.48 151.4 Q1060.48 166.273 1067.99 173.839 Q1068.81 174.658 1068.81 174.916 Q1068.81 175.385 1068.32 175.385 Q1067.99 175.385 1066.85 174.424 Q1065.7 173.464 1063.92 171.262 Q1062.14 169.06 1060.85 166.367 Q1057.69 159.832 1057.69 151.4 Z"
     fill="#000000"
     fill-rule="nonzero"
     fill-opacity="1"
     id="path55" />
  <path
     clip-path="url(#clip070)"
     d="M1099.64 156.529 Q1099.64 156.717 1099.43 157.443 Q1099.22 158.169 1098.71 159.293 Q1098.21 160.418 1097.54 161.448 Q1096.86 162.455 1095.73 163.205 Q1094.63 163.931 1093.37 163.931 Q1091.68 163.931 1090.56 162.807 Q1089.43 161.682 1089.43 159.996 Q1089.43 159.762 1089.45 159.528 Q1089.48 159.293 1089.5 159.153 Q1089.53 158.989 1089.6 158.731 Q1089.69 158.45 1089.71 158.333 Q1089.76 158.216 1089.88 157.865 Q1090.02 157.49 1090.06 157.349 Q1093.04 149.76 1093.04 146.598 Q1093.04 143.249 1090.44 143.249 Q1088.12 143.249 1085.82 144.935 Q1084.77 145.779 1083.76 147.278 Q1082.76 148.777 1082.57 149.339 Q1082.36 150.557 1082.05 151.494 Q1081.91 152.149 1081.23 154.702 L1080.18 159.036 L1079.27 162.666 Q1079.08 163.181 1078.56 163.556 Q1078.05 163.931 1077.49 163.931 Q1077.02 163.931 1076.55 163.603 Q1076.1 163.299 1076.1 162.572 Q1076.1 162.198 1076.29 161.518 L1083.25 133.88 L1083.39 132.943 Q1083.39 132.662 1083.27 132.521 Q1083.18 132.357 1082.62 132.24 Q1082.08 132.123 1081 132.123 Q1080.55 132.123 1080.34 132.1 Q1080.16 132.076 1079.99 131.959 Q1079.83 131.819 1079.83 131.538 Q1079.83 131.14 1079.99 130.929 Q1080.18 130.694 1080.32 130.648 Q1080.46 130.601 1080.74 130.577 Q1081.14 130.554 1082.48 130.437 Q1083.81 130.296 1084.96 130.203 Q1086.11 130.109 1086.6 130.109 Q1086.88 130.109 1087.02 130.249 Q1087.18 130.367 1087.21 130.507 L1087.23 130.624 L1083.48 145.872 Q1086.46 142.195 1090.58 142.195 Q1093.25 142.195 1094.68 143.577 Q1096.11 144.935 1096.11 147.324 Q1096.11 150.065 1093.18 157.865 Q1092.31 160.043 1092.31 161.284 Q1092.31 162.104 1092.57 162.479 Q1092.85 162.853 1093.46 162.853 Q1094.4 162.853 1095.22 162.315 Q1096.06 161.753 1096.65 160.839 Q1097.23 159.902 1097.63 158.965 Q1098.05 158.005 1098.36 156.928 Q1098.54 156.342 1098.64 156.202 Q1098.75 156.061 1099.08 156.061 Q1099.64 156.061 1099.64 156.529 Z"
     fill="#000000"
     fill-rule="nonzero"
     fill-opacity="1"
     id="path56" />
  <path
     clip-path="url(#clip070)"
     d="M1104.52 177.213 Q1104.52 176.606 1104.57 176.426 Q1104.64 176.245 1104.9 175.966 L1111.34 168.785 Q1114.87 164.817 1114.87 161.358 Q1114.87 159.112 1113.69 157.505 Q1112.52 155.898 1110.37 155.898 Q1108.9 155.898 1107.65 156.8 Q1106.41 157.702 1105.83 159.308 Q1105.93 159.276 1106.28 159.276 Q1107.11 159.276 1107.57 159.8 Q1108.05 160.325 1108.05 161.03 Q1108.05 161.932 1107.46 162.374 Q1106.88 162.801 1106.31 162.801 Q1106.08 162.801 1105.77 162.752 Q1105.47 162.702 1105 162.243 Q1104.52 161.768 1104.52 160.932 Q1104.52 158.587 1106.29 156.718 Q1108.08 154.849 1110.8 154.849 Q1113.88 154.849 1115.9 156.685 Q1117.93 158.505 1117.93 161.358 Q1117.93 162.358 1117.62 163.276 Q1117.33 164.178 1116.92 164.883 Q1116.52 165.588 1115.44 166.719 Q1114.36 167.851 1113.49 168.654 Q1112.62 169.457 1110.67 171.163 L1107.11 174.622 L1113.16 174.622 Q1116.11 174.622 1116.34 174.36 Q1116.67 173.884 1117.08 171.376 L1117.93 171.376 L1116.98 177.213 L1104.52 177.213 Z"
     fill="#000000"
     fill-rule="nonzero"
     fill-opacity="1"
     id="path57" />
  <path
     clip-path="url(#clip070)"
     d="M1122.92 174.916 Q1122.92 174.682 1123.53 174.096 Q1131.26 166.226 1131.26 151.4 Q1131.26 136.527 1123.83 129.008 Q1122.92 128.141 1122.92 127.884 Q1122.92 127.415 1123.39 127.415 Q1123.72 127.415 1124.86 128.376 Q1126.03 129.336 1127.79 131.538 Q1129.57 133.739 1130.88 136.433 Q1134.04 142.968 1134.04 151.4 Q1134.04 159.504 1131.02 166.039 Q1129.74 168.779 1127.93 171.075 Q1126.13 173.37 1124.93 174.377 Q1123.74 175.385 1123.39 175.385 Q1122.92 175.385 1122.92 174.916 Z"
     fill="#000000"
     fill-rule="nonzero"
     fill-opacity="1"
     id="path58" />
  <polyline
     clip-path="url(#clip070)"
     style="stroke:#e26f46; stroke-linecap:round; stroke-linejoin:round; stroke-width:8; stroke-opacity:0.7; fill:none"
     stroke-dasharray="4, 8"
     points="907.486,211.871 974.634,211.871 "
     id="polyline58" />
  <path
     clip-path="url(#clip070)"
     d="M1009.74 193.227 Q1009.74 194.515 1008.92 195.311 Q1008.12 196.108 1007.12 196.108 Q1006.39 196.108 1005.85 195.663 Q1005.34 195.218 1005.34 194.445 Q1005.34 193.648 1005.95 192.805 Q1006.55 191.962 1007.94 191.845 Q1007.02 190.978 1005.57 190.978 Q1004.84 190.978 1004.24 191.447 Q1003.65 191.892 1003.32 192.618 Q1002.97 193.367 1002.17 197.607 Q1001.92 198.989 1001.68 200.324 Q1001.45 201.659 1001.17 203.064 L1005.15 203.064 Q1005.66 203.064 1005.88 203.088 Q1006.09 203.111 1006.25 203.228 Q1006.44 203.345 1006.44 203.603 Q1006.44 204.259 1006.13 204.423 Q1005.85 204.563 1005.01 204.563 L1000.89 204.563 L998.006 219.764 Q997.935 220.209 997.631 221.615 Q997.35 222.997 996.671 225.269 Q995.991 227.564 995.312 228.922 Q994.937 229.695 994.445 230.422 Q993.977 231.171 993.298 231.921 Q992.618 232.67 991.728 233.115 Q990.838 233.584 989.901 233.584 Q988.309 233.584 987.067 232.693 Q985.826 231.803 985.826 230.281 Q985.826 228.993 986.622 228.196 Q987.442 227.4 988.449 227.4 Q989.175 227.4 989.691 227.845 Q990.229 228.29 990.229 229.063 Q990.229 229.391 990.112 229.766 Q989.995 230.14 989.738 230.562 Q989.48 231.007 988.918 231.312 Q988.356 231.616 987.583 231.663 Q988.496 232.53 989.901 232.53 Q990.346 232.53 990.745 232.342 Q991.143 232.178 991.471 231.757 Q991.822 231.335 992.08 230.913 Q992.337 230.515 992.595 229.742 Q992.853 228.993 993.017 228.431 Q993.181 227.868 993.391 226.861 Q993.626 225.854 993.743 225.245 Q993.86 224.66 994.071 223.512 L997.654 204.563 L994.492 204.563 Q993.93 204.563 993.696 204.54 Q993.485 204.516 993.321 204.399 Q993.157 204.259 993.157 203.978 Q993.157 203.533 993.345 203.345 Q993.555 203.134 993.79 203.111 Q994.024 203.064 994.586 203.064 L997.912 203.064 Q999.036 197.138 999.481 195.545 Q999.997 193.859 1000.79 192.688 Q1001.59 191.493 1002.48 190.931 Q1003.37 190.369 1004.1 190.158 Q1004.84 189.924 1005.57 189.924 Q1007.21 189.924 1008.48 190.814 Q1009.74 191.681 1009.74 193.227 Z"
     fill="#000000"
     fill-rule="nonzero"
     fill-opacity="1"
     id="path59" />
  <polyline
     clip-path="url(#clip070)"
     style="stroke:#3da44d; stroke-linecap:round; stroke-linejoin:round; stroke-width:8; stroke-opacity:1; fill:none"
     points="907.486,271.252 974.634,271.252 "
     id="polyline59" />
  <path
     clip-path="url(#clip070)"
     d="M991.528 277.187 L991.528 275.711 Q994.081 275.711 994.667 275.407 Q995.252 275.079 995.252 273.533 L995.252 248.588 Q995.252 246.808 994.62 246.363 Q994.011 245.918 991.528 245.918 L991.528 244.419 L998.414 243.903 L998.414 273.533 Q998.414 275.079 999.023 275.407 Q999.632 275.711 1002.16 275.711 L1002.16 277.187 Q1001.58 277.187 1000.36 277.14 Q999.14 277.093 998.25 277.07 Q997.36 277.046 996.845 277.046 Q996.283 277.046 991.528 277.187 Z"
     fill="#000000"
     fill-rule="nonzero"
     fill-opacity="1"
     id="path60" />
  <path
     clip-path="url(#clip070)"
     d="M1009.38 274.61 Q1006.21 271.472 1006.21 266.928 Q1006.21 262.36 1009.31 259.034 Q1012.42 255.685 1016.87 255.685 Q1021.23 255.685 1024.34 259.011 Q1027.48 262.313 1027.48 266.928 Q1027.48 271.448 1024.32 274.587 Q1021.18 277.725 1016.82 277.725 Q1012.56 277.725 1009.38 274.61 M1010.2 266.53 Q1010.2 271.191 1011.41 273.299 Q1013.29 276.507 1016.87 276.507 Q1018.65 276.507 1020.13 275.547 Q1021.63 274.587 1022.45 272.971 Q1023.5 270.863 1023.5 266.53 Q1023.5 261.915 1022.24 259.878 Q1020.36 256.762 1016.82 256.762 Q1015.28 256.762 1013.76 257.582 Q1012.26 258.379 1011.34 259.971 Q1010.2 262.079 1010.2 266.53 Z"
     fill="#000000"
     fill-rule="nonzero"
     fill-opacity="1"
     id="path61" />
  <path
     clip-path="url(#clip070)"
     d="M1028.24 280.981 Q1028.24 279.435 1029.41 278.1 Q1030.6 276.765 1032.66 276.18 Q1030.56 274.844 1030.56 271.917 Q1030.56 269.668 1032.03 267.935 Q1029.78 266.061 1029.78 262.993 Q1029.78 260.159 1032.03 258.074 Q1034.28 255.989 1037.56 255.989 Q1040.44 255.989 1042.64 257.723 Q1044.94 255.474 1047.72 255.451 Q1048.97 255.451 1049.55 256.224 Q1050.16 256.997 1050.16 257.816 Q1050.16 258.542 1049.69 258.894 Q1049.25 259.245 1048.78 259.245 Q1048.19 259.245 1047.77 258.87 Q1047.37 258.472 1047.37 257.863 Q1047.37 256.856 1048.15 256.552 Q1048.01 256.505 1047.68 256.505 Q1045.33 256.505 1043.34 258.379 Q1045.31 260.205 1045.31 263.04 Q1045.31 265.874 1043.06 267.958 Q1040.81 270.043 1037.56 270.043 Q1034.87 270.043 1032.8 268.544 Q1031.98 269.504 1031.98 270.816 Q1031.98 272.01 1032.71 272.947 Q1033.44 273.884 1034.54 274.025 Q1034.87 274.072 1038.12 274.072 Q1040.04 274.072 1041.1 274.118 Q1042.15 274.165 1043.65 274.493 Q1045.17 274.798 1046.37 275.407 Q1049.48 277.14 1049.5 280.887 Q1049.5 283.628 1046.34 285.338 Q1043.2 287.071 1038.85 287.071 Q1034.44 287.071 1031.33 285.314 Q1028.24 283.581 1028.24 280.981 M1030.74 280.981 Q1030.74 282.949 1033.06 284.448 Q1035.38 285.97 1038.89 285.97 Q1042.34 285.97 1044.66 284.471 Q1047 282.996 1047 280.981 Q1047 279.552 1046.18 278.639 Q1045.36 277.725 1043.67 277.351 Q1042.01 276.999 1040.84 276.929 Q1039.67 276.859 1037.51 276.859 L1034.68 276.859 Q1033.04 276.953 1031.89 278.147 Q1030.74 279.342 1030.74 280.981 M1033.37 263.04 Q1033.37 268.942 1037.56 268.942 Q1039.67 268.942 1040.95 267.021 Q1041.73 265.733 1041.73 262.993 Q1041.73 257.09 1037.56 257.09 Q1035.45 257.09 1034.14 259.011 Q1033.37 260.299 1033.37 263.04 Z"
     fill="#000000"
     fill-rule="nonzero"
     fill-opacity="1"
     id="path62" />
  <path
     clip-path="url(#clip070)"
     d="M1057.69 265.194 Q1057.69 257.09 1060.71 250.555 Q1062 247.815 1063.8 245.52 Q1065.61 243.224 1066.8 242.217 Q1067.99 241.21 1068.32 241.21 Q1068.79 241.21 1068.81 241.678 Q1068.81 241.913 1068.18 242.498 Q1060.45 250.368 1060.48 265.194 Q1060.48 280.068 1067.99 287.633 Q1068.81 288.453 1068.81 288.711 Q1068.81 289.179 1068.32 289.179 Q1067.99 289.179 1066.85 288.219 Q1065.7 287.258 1063.92 285.057 Q1062.14 282.855 1060.85 280.161 Q1057.69 273.627 1057.69 265.194 Z"
     fill="#000000"
     fill-rule="nonzero"
     fill-opacity="1"
     id="path63" />
  <path
     clip-path="url(#clip070)"
     d="M1098.12 258.238 Q1098.12 258.261 1097.98 259.105 L1092.64 280.396 Q1092.36 281.52 1091.56 282.644 Q1090.79 283.792 1089.55 284.776 Q1088.33 285.783 1086.46 286.392 Q1084.61 287.024 1082.48 287.024 Q1079.08 287.024 1077.58 286.298 Q1076.1 285.595 1076.1 284.096 Q1076.1 282.785 1076.92 282.035 Q1077.74 281.309 1078.68 281.309 Q1079.57 281.309 1080.04 281.824 Q1080.51 282.34 1080.51 282.996 Q1080.51 283.722 1080.02 284.448 Q1079.52 285.197 1078.54 285.478 Q1080.11 285.97 1082.38 285.97 Q1087.18 285.97 1089.24 280.887 Q1089.29 280.817 1089.29 280.794 L1090.88 274.446 L1090.81 274.399 Q1090.42 274.868 1089.78 275.407 Q1089.17 275.922 1087.86 276.554 Q1086.55 277.187 1085.26 277.187 Q1082.57 277.187 1080.72 275.126 Q1078.89 273.041 1078.89 269.598 Q1078.89 267.092 1079.9 264.585 Q1080.93 262.056 1082.52 260.205 Q1084.14 258.332 1086.2 257.161 Q1088.28 255.989 1090.3 255.989 Q1091.7 255.989 1092.9 256.833 Q1094.09 257.652 1094.75 259.011 Q1094.87 257.887 1095.5 257.418 Q1096.15 256.95 1096.72 256.95 Q1097.35 256.95 1097.72 257.301 Q1098.12 257.629 1098.12 258.238 M1094.19 261.166 Q1094.19 261.025 1094.09 260.65 Q1094 260.252 1093.72 259.62 Q1093.46 258.988 1093.06 258.425 Q1092.66 257.863 1091.94 257.465 Q1091.24 257.043 1090.34 257.043 Q1088.89 257.043 1087.44 258.261 Q1085.99 259.456 1084.98 261.306 Q1084.04 263.086 1083.15 266.53 Q1082.29 269.973 1082.29 271.729 Q1082.29 273.463 1083.04 274.798 Q1083.79 276.133 1085.4 276.133 Q1087.28 276.133 1089.29 274.399 Q1091.38 272.596 1091.73 271.05 L1094.05 261.892 Q1094.19 261.33 1094.19 261.166 Z"
     fill="#000000"
     fill-rule="nonzero"
     fill-opacity="1"
     id="path64" />
  <path
     clip-path="url(#clip070)"
     d="M1103.02 294.8 Q1103.02 293.799 1103.56 293.422 Q1104.1 293.029 1104.68 293.029 Q1105.45 293.029 1105.89 293.521 Q1106.35 293.996 1106.35 294.668 Q1106.35 295.341 1105.89 295.833 Q1105.45 296.308 1104.68 296.308 Q1104.3 296.308 1104.1 296.242 Q1104.55 297.784 1105.89 298.899 Q1107.25 300.013 1109.04 300.013 Q1111.28 300.013 1112.63 297.833 Q1113.43 296.423 1113.43 293.226 Q1113.43 290.406 1112.83 288.996 Q1111.89 286.848 1109.97 286.848 Q1107.25 286.848 1105.64 289.192 Q1105.45 289.487 1105.22 289.504 Q1104.89 289.504 1104.81 289.323 Q1104.74 289.127 1104.74 288.618 L1104.74 278.683 Q1104.74 277.879 1105.07 277.879 Q1105.2 277.879 1105.48 277.978 Q1107.6 278.912 1109.94 278.929 Q1112.35 278.929 1114.51 277.945 Q1114.68 277.846 1114.78 277.846 Q1115.1 277.846 1115.12 278.224 Q1115.12 278.355 1114.84 278.748 Q1114.58 279.125 1114.01 279.634 Q1113.43 280.125 1112.69 280.601 Q1111.96 281.076 1110.87 281.404 Q1109.81 281.716 1108.63 281.716 Q1107.22 281.716 1105.78 281.273 L1105.78 287.815 Q1107.51 286.11 1110.04 286.11 Q1112.73 286.11 1114.58 288.274 Q1116.43 290.438 1116.43 293.455 Q1116.43 296.62 1114.24 298.784 Q1112.06 300.948 1109.1 300.948 Q1106.41 300.948 1104.71 299.03 Q1103.02 297.111 1103.02 294.8 Z"
     fill="#000000"
     fill-rule="nonzero"
     fill-opacity="1"
     id="path65" />
  <path
     clip-path="url(#clip070)"
     d="M1121.42 288.711 Q1121.42 288.476 1122.03 287.891 Q1129.76 280.021 1129.76 265.194 Q1129.76 250.321 1122.33 242.803 Q1121.42 241.936 1121.42 241.678 Q1121.42 241.21 1121.89 241.21 Q1122.22 241.21 1123.36 242.17 Q1124.53 243.131 1126.29 245.332 Q1128.07 247.534 1129.38 250.228 Q1132.54 256.762 1132.54 265.194 Q1132.54 273.299 1129.52 279.833 Q1128.24 282.574 1126.43 284.869 Q1124.63 287.165 1123.43 288.172 Q1122.24 289.179 1121.89 289.179 Q1121.42 289.179 1121.42 288.711 Z"
     fill="#000000"
     fill-rule="nonzero"
     fill-opacity="1"
     id="path66" />
  <defs
     id="defs67">
    <clipPath
       id="clip073">
      <rect
         x="1345"
         y="47"
         width="1008"
         height="1377"
         id="rect67" />
    </clipPath>
  </defs>
  <polyline
     clip-path="url(#clip073)"
     style="stroke:#000000; stroke-linecap:round; stroke-linejoin:round; stroke-width:2; stroke-opacity:0.1; fill:none"
     points="1345.52,1423.18 1345.52,47.2441 "
     id="polyline67" />
  <polyline
     clip-path="url(#clip073)"
     style="stroke:#000000; stroke-linecap:round; stroke-linejoin:round; stroke-width:2; stroke-opacity:0.1; fill:none"
     points="1597.33,1423.18 1597.33,47.2441 "
     id="polyline68" />
  <polyline
     clip-path="url(#clip073)"
     style="stroke:#000000; stroke-linecap:round; stroke-linejoin:round; stroke-width:2; stroke-opacity:0.1; fill:none"
     points="1849.14,1423.18 1849.14,47.2441 "
     id="polyline69" />
  <polyline
     clip-path="url(#clip073)"
     style="stroke:#000000; stroke-linecap:round; stroke-linejoin:round; stroke-width:2; stroke-opacity:0.1; fill:none"
     points="2100.95,1423.18 2100.95,47.2441 "
     id="polyline70" />
  <polyline
     clip-path="url(#clip073)"
     style="stroke:#000000; stroke-linecap:round; stroke-linejoin:round; stroke-width:2; stroke-opacity:0.1; fill:none"
     points="2352.76,1423.18 2352.76,47.2441 "
     id="polyline71" />
  <polyline
     clip-path="url(#clip073)"
     style="stroke:#000000; stroke-linecap:round; stroke-linejoin:round; stroke-width:2; stroke-opacity:0.1; fill:none"
     points="1345.52,1384.24 2352.76,1384.24 "
     id="polyline72" />
  <polyline
     clip-path="url(#clip073)"
     style="stroke:#000000; stroke-linecap:round; stroke-linejoin:round; stroke-width:2; stroke-opacity:0.1; fill:none"
     points="1345.52,1108.54 2352.76,1108.54 "
     id="polyline73" />
  <polyline
     clip-path="url(#clip073)"
     style="stroke:#000000; stroke-linecap:round; stroke-linejoin:round; stroke-width:2; stroke-opacity:0.1; fill:none"
     points="1345.52,832.838 2352.76,832.838 "
     id="polyline74" />
  <polyline
     clip-path="url(#clip073)"
     style="stroke:#000000; stroke-linecap:round; stroke-linejoin:round; stroke-width:2; stroke-opacity:0.1; fill:none"
     points="1345.52,557.137 2352.76,557.137 "
     id="polyline75" />
  <polyline
     clip-path="url(#clip073)"
     style="stroke:#000000; stroke-linecap:round; stroke-linejoin:round; stroke-width:2; stroke-opacity:0.1; fill:none"
     points="1345.52,281.437 2352.76,281.437 "
     id="polyline76" />
  <polyline
     clip-path="url(#clip070)"
     style="stroke:#000000; stroke-linecap:round; stroke-linejoin:round; stroke-width:4; stroke-opacity:1; fill:none"
     points="1345.52,1423.18 2352.76,1423.18 "
     id="polyline77" />
  <polyline
     clip-path="url(#clip070)"
     style="stroke:#000000; stroke-linecap:round; stroke-linejoin:round; stroke-width:4; stroke-opacity:1; fill:none"
     points="1345.52,1423.18 1345.52,1404.28 "
     id="polyline78" />
  <polyline
     clip-path="url(#clip070)"
     style="stroke:#000000; stroke-linecap:round; stroke-linejoin:round; stroke-width:4; stroke-opacity:1; fill:none"
     points="1597.33,1423.18 1597.33,1404.28 "
     id="polyline79" />
  <polyline
     clip-path="url(#clip070)"
     style="stroke:#000000; stroke-linecap:round; stroke-linejoin:round; stroke-width:4; stroke-opacity:1; fill:none"
     points="1849.14,1423.18 1849.14,1404.28 "
     id="polyline80" />
  <polyline
     clip-path="url(#clip070)"
     style="stroke:#000000; stroke-linecap:round; stroke-linejoin:round; stroke-width:4; stroke-opacity:1; fill:none"
     points="2100.95,1423.18 2100.95,1404.28 "
     id="polyline81" />
  <polyline
     clip-path="url(#clip070)"
     style="stroke:#000000; stroke-linecap:round; stroke-linejoin:round; stroke-width:4; stroke-opacity:1; fill:none"
     points="2352.76,1423.18 2352.76,1404.28 "
     id="polyline82" />
  <path
     clip-path="url(#clip070)"
     d="M1299.58 1468.75 L1329.26 1468.75 L1329.26 1472.69 L1299.58 1472.69 L1299.58 1468.75 Z"
     fill="#000000"
     fill-rule="nonzero"
     fill-opacity="1"
     id="path82" />
  <path
     clip-path="url(#clip070)"
     d="M1340.16 1481.64 L1347.8 1481.64 L1347.8 1455.28 L1339.49 1456.95 L1339.49 1452.69 L1347.76 1451.02 L1352.43 1451.02 L1352.43 1481.64 L1360.07 1481.64 L1360.07 1485.58 L1340.16 1485.58 L1340.16 1481.64 Z"
     fill="#000000"
     fill-rule="nonzero"
     fill-opacity="1"
     id="path83" />
  <path
     clip-path="url(#clip070)"
     d="M1379.51 1454.1 Q1375.9 1454.1 1374.07 1457.66 Q1372.27 1461.2 1372.27 1468.33 Q1372.27 1475.44 1374.07 1479.01 Q1375.9 1482.55 1379.51 1482.55 Q1383.15 1482.55 1384.95 1479.01 Q1386.78 1475.44 1386.78 1468.33 Q1386.78 1461.2 1384.95 1457.66 Q1383.15 1454.1 1379.51 1454.1 M1379.51 1450.39 Q1385.32 1450.39 1388.38 1455 Q1391.46 1459.58 1391.46 1468.33 Q1391.46 1477.06 1388.38 1481.67 Q1385.32 1486.25 1379.51 1486.25 Q1373.7 1486.25 1370.63 1481.67 Q1367.57 1477.06 1367.57 1468.33 Q1367.57 1459.58 1370.63 1455 Q1373.7 1450.39 1379.51 1450.39 Z"
     fill="#000000"
     fill-rule="nonzero"
     fill-opacity="1"
     id="path84" />
  <path
     clip-path="url(#clip070)"
     d="M1566.97 1468.75 L1596.65 1468.75 L1596.65 1472.69 L1566.97 1472.69 L1566.97 1468.75 Z"
     fill="#000000"
     fill-rule="nonzero"
     fill-opacity="1"
     id="path85" />
  <path
     clip-path="url(#clip070)"
     d="M1606.79 1451.02 L1625.14 1451.02 L1625.14 1454.96 L1611.07 1454.96 L1611.07 1463.43 Q1612.09 1463.08 1613.11 1462.92 Q1614.12 1462.73 1615.14 1462.73 Q1620.93 1462.73 1624.31 1465.9 Q1627.69 1469.08 1627.69 1474.49 Q1627.69 1480.07 1624.22 1483.17 Q1620.74 1486.25 1614.43 1486.25 Q1612.25 1486.25 1609.98 1485.88 Q1607.74 1485.51 1605.33 1484.77 L1605.33 1480.07 Q1607.41 1481.2 1609.63 1481.76 Q1611.86 1482.32 1614.33 1482.32 Q1618.34 1482.32 1620.68 1480.21 Q1623.01 1478.1 1623.01 1474.49 Q1623.01 1470.88 1620.68 1468.77 Q1618.34 1466.67 1614.33 1466.67 Q1612.46 1466.67 1610.58 1467.08 Q1608.73 1467.5 1606.79 1468.38 L1606.79 1451.02 Z"
     fill="#000000"
     fill-rule="nonzero"
     fill-opacity="1"
     id="path86" />
  <path
     clip-path="url(#clip070)"
     d="M1849.14 1454.1 Q1845.53 1454.1 1843.7 1457.66 Q1841.89 1461.2 1841.89 1468.33 Q1841.89 1475.44 1843.7 1479.01 Q1845.53 1482.55 1849.14 1482.55 Q1852.77 1482.55 1854.58 1479.01 Q1856.41 1475.44 1856.41 1468.33 Q1856.41 1461.2 1854.58 1457.66 Q1852.77 1454.1 1849.14 1454.1 M1849.14 1450.39 Q1854.95 1450.39 1858 1455 Q1861.08 1459.58 1861.08 1468.33 Q1861.08 1477.06 1858 1481.67 Q1854.95 1486.25 1849.14 1486.25 Q1843.33 1486.25 1840.25 1481.67 Q1837.19 1477.06 1837.19 1468.33 Q1837.19 1459.58 1840.25 1455 Q1843.33 1450.39 1849.14 1450.39 Z"
     fill="#000000"
     fill-rule="nonzero"
     fill-opacity="1"
     id="path87" />
  <path
     clip-path="url(#clip070)"
     d="M2091.23 1451.02 L2109.58 1451.02 L2109.58 1454.96 L2095.51 1454.96 L2095.51 1463.43 Q2096.53 1463.08 2097.54 1462.92 Q2098.56 1462.73 2099.58 1462.73 Q2105.37 1462.73 2108.75 1465.9 Q2112.13 1469.08 2112.13 1474.49 Q2112.13 1480.07 2108.66 1483.17 Q2105.18 1486.25 2098.86 1486.25 Q2096.69 1486.25 2094.42 1485.88 Q2092.17 1485.51 2089.77 1484.77 L2089.77 1480.07 Q2091.85 1481.2 2094.07 1481.76 Q2096.29 1482.32 2098.77 1482.32 Q2102.78 1482.32 2105.11 1480.21 Q2107.45 1478.1 2107.45 1474.49 Q2107.45 1470.88 2105.11 1468.77 Q2102.78 1466.67 2098.77 1466.67 Q2096.9 1466.67 2095.02 1467.08 Q2093.17 1467.5 2091.23 1468.38 L2091.23 1451.02 Z"
     fill="#000000"
     fill-rule="nonzero"
     fill-opacity="1"
     id="path88" />
  <path
     clip-path="url(#clip070)"
     d="M2327.44 1481.64 L2335.08 1481.64 L2335.08 1455.28 L2326.77 1456.95 L2326.77 1452.69 L2335.04 1451.02 L2339.71 1451.02 L2339.71 1481.64 L2347.35 1481.64 L2347.35 1485.58 L2327.44 1485.58 L2327.44 1481.64 Z"
     fill="#000000"
     fill-rule="nonzero"
     fill-opacity="1"
     id="path89" />
  <path
     clip-path="url(#clip070)"
     d="M2366.8 1454.1 Q2363.18 1454.1 2361.36 1457.66 Q2359.55 1461.2 2359.55 1468.33 Q2359.55 1475.44 2361.36 1479.01 Q2363.18 1482.55 2366.8 1482.55 Q2370.43 1482.55 2372.23 1479.01 Q2374.06 1475.44 2374.06 1468.33 Q2374.06 1461.2 2372.23 1457.66 Q2370.43 1454.1 2366.8 1454.1 M2366.8 1450.39 Q2372.61 1450.39 2375.66 1455 Q2378.74 1459.58 2378.74 1468.33 Q2378.74 1477.06 2375.66 1481.67 Q2372.61 1486.25 2366.8 1486.25 Q2360.99 1486.25 2357.91 1481.67 Q2354.85 1477.06 2354.85 1468.33 Q2354.85 1459.58 2357.91 1455 Q2360.99 1450.39 2366.8 1450.39 Z"
     fill="#000000"
     fill-rule="nonzero"
     fill-opacity="1"
     id="path90" />
  <path
     clip-path="url(#clip070)"
     d="M1863.31 1528.8 Q1863.31 1530.61 1862.19 1531.64 Q1861.06 1532.64 1859.77 1532.64 Q1858.55 1532.64 1857.9 1531.93 Q1857.26 1531.22 1857.26 1530.32 Q1857.26 1529.09 1858.16 1528.03 Q1859.06 1526.97 1860.41 1526.74 Q1859.09 1525.91 1857.13 1525.91 Q1855.84 1525.91 1854.71 1526.58 Q1853.62 1527.26 1852.94 1528.13 Q1852.3 1529 1851.72 1530.25 Q1851.17 1531.48 1850.95 1532.22 Q1850.75 1532.93 1850.59 1533.7 L1848.34 1542.72 Q1847.24 1547 1847.24 1548.51 Q1847.24 1550.38 1848.14 1551.64 Q1849.05 1552.86 1850.85 1552.86 Q1851.56 1552.86 1852.36 1552.67 Q1853.17 1552.44 1854.2 1551.86 Q1855.26 1551.25 1856.19 1550.35 Q1857.16 1549.42 1858.09 1547.84 Q1859.03 1546.26 1859.64 1544.23 Q1859.83 1543.52 1860.48 1543.52 Q1861.28 1543.52 1861.28 1544.17 Q1861.28 1544.71 1860.83 1545.87 Q1860.41 1547 1859.48 1548.48 Q1858.58 1549.93 1857.39 1551.25 Q1856.19 1552.54 1854.42 1553.44 Q1852.65 1554.34 1850.72 1554.34 Q1847.95 1554.34 1846.11 1552.86 Q1844.28 1551.38 1843.6 1549.32 Q1843.44 1549.61 1843.22 1550 Q1842.99 1550.38 1842.31 1551.25 Q1841.67 1552.09 1840.93 1552.73 Q1840.19 1553.34 1839.03 1553.83 Q1837.9 1554.34 1836.68 1554.34 Q1835.13 1554.34 1833.75 1553.89 Q1832.39 1553.44 1831.43 1552.41 Q1830.46 1551.38 1830.46 1549.96 Q1830.46 1548.38 1831.53 1547.29 Q1832.62 1546.16 1834.1 1546.16 Q1835.04 1546.16 1835.78 1546.71 Q1836.55 1547.26 1836.55 1548.45 Q1836.55 1549.77 1835.65 1550.77 Q1834.75 1551.77 1833.46 1552.02 Q1834.78 1552.86 1836.74 1552.86 Q1838.87 1552.86 1840.54 1550.99 Q1842.22 1549.13 1843.02 1546 Q1845.02 1538.5 1845.79 1535.15 Q1846.57 1531.77 1846.57 1530.32 Q1846.57 1528.96 1846.21 1528.03 Q1845.86 1527.1 1845.24 1526.68 Q1844.67 1526.23 1844.12 1526.07 Q1843.6 1525.91 1843.02 1525.91 Q1842.06 1525.91 1840.96 1526.29 Q1839.9 1526.68 1838.61 1527.58 Q1837.35 1528.45 1836.16 1530.25 Q1834.97 1532.06 1834.17 1534.54 Q1834 1535.28 1833.3 1535.28 Q1832.52 1535.24 1832.52 1534.6 Q1832.52 1534.05 1832.94 1532.93 Q1833.39 1531.77 1834.29 1530.32 Q1835.23 1528.87 1836.42 1527.58 Q1837.64 1526.26 1839.42 1525.36 Q1841.22 1524.46 1843.15 1524.46 Q1844.02 1524.46 1844.86 1524.65 Q1845.73 1524.81 1846.76 1525.29 Q1847.82 1525.78 1848.76 1526.84 Q1849.69 1527.9 1850.27 1529.45 Q1850.66 1528.71 1851.17 1528 Q1851.72 1527.29 1852.56 1526.42 Q1853.43 1525.52 1854.62 1525 Q1855.84 1524.46 1857.19 1524.46 Q1858.51 1524.46 1859.8 1524.81 Q1861.09 1525.13 1862.19 1526.19 Q1863.31 1527.23 1863.31 1528.8 Z"
     fill="#000000"
     fill-rule="nonzero"
     fill-opacity="1"
     id="path91" />
  <polyline
     clip-path="url(#clip070)"
     style="stroke:#000000; stroke-linecap:round; stroke-linejoin:round; stroke-width:4; stroke-opacity:1; fill:none"
     points="1345.52,1423.18 1345.52,47.2441 "
     id="polyline91" />
  <polyline
     clip-path="url(#clip070)"
     style="stroke:#000000; stroke-linecap:round; stroke-linejoin:round; stroke-width:4; stroke-opacity:1; fill:none"
     points="1345.52,1384.24 1364.42,1384.24 "
     id="polyline92" />
  <polyline
     clip-path="url(#clip070)"
     style="stroke:#000000; stroke-linecap:round; stroke-linejoin:round; stroke-width:4; stroke-opacity:1; fill:none"
     points="1345.52,1108.54 1364.42,1108.54 "
     id="polyline93" />
  <polyline
     clip-path="url(#clip070)"
     style="stroke:#000000; stroke-linecap:round; stroke-linejoin:round; stroke-width:4; stroke-opacity:1; fill:none"
     points="1345.52,832.838 1364.42,832.838 "
     id="polyline94" />
  <polyline
     clip-path="url(#clip070)"
     style="stroke:#000000; stroke-linecap:round; stroke-linejoin:round; stroke-width:4; stroke-opacity:1; fill:none"
     points="1345.52,557.137 1364.42,557.137 "
     id="polyline95" />
  <polyline
     clip-path="url(#clip070)"
     style="stroke:#000000; stroke-linecap:round; stroke-linejoin:round; stroke-width:4; stroke-opacity:1; fill:none"
     points="1345.52,281.437 1364.42,281.437 "
     id="polyline96" />
  <path
     clip-path="url(#clip070)"
     d="M1297.58 1370.04 Q1293.97 1370.04 1292.14 1373.6 Q1290.33 1377.14 1290.33 1384.27 Q1290.33 1391.38 1292.14 1394.94 Q1293.97 1398.49 1297.58 1398.49 Q1301.21 1398.49 1303.02 1394.94 Q1304.85 1391.38 1304.85 1384.27 Q1304.85 1377.14 1303.02 1373.6 Q1301.21 1370.04 1297.58 1370.04 M1297.58 1366.33 Q1303.39 1366.33 1306.44 1370.94 Q1309.52 1375.52 1309.52 1384.27 Q1309.52 1393 1306.44 1397.61 Q1303.39 1402.19 1297.58 1402.19 Q1291.77 1402.19 1288.69 1397.61 Q1285.63 1393 1285.63 1384.27 Q1285.63 1375.52 1288.69 1370.94 Q1291.77 1366.33 1297.58 1366.33 Z"
     fill="#000000"
     fill-rule="nonzero"
     fill-opacity="1"
     id="path96" />
  <path
     clip-path="url(#clip070)"
     d="M1289.61 1121.88 L1297.25 1121.88 L1297.25 1095.52 L1288.94 1097.18 L1288.94 1092.92 L1297.21 1091.26 L1301.88 1091.26 L1301.88 1121.88 L1309.52 1121.88 L1309.52 1125.82 L1289.61 1125.82 L1289.61 1121.88 Z"
     fill="#000000"
     fill-rule="nonzero"
     fill-opacity="1"
     id="path97" />
  <path
     clip-path="url(#clip070)"
     d="M1293.2 846.183 L1309.52 846.183 L1309.52 850.118 L1287.58 850.118 L1287.58 846.183 Q1290.24 843.428 1294.82 838.798 Q1299.43 834.146 1300.61 832.803 Q1302.86 830.28 1303.73 828.544 Q1304.64 826.785 1304.64 825.095 Q1304.64 822.34 1302.69 820.604 Q1300.77 818.868 1297.67 818.868 Q1295.47 818.868 1293.02 819.632 Q1290.59 820.396 1287.81 821.947 L1287.81 817.224 Q1290.63 816.09 1293.09 815.511 Q1295.54 814.933 1297.58 814.933 Q1302.95 814.933 1306.14 817.618 Q1309.34 820.303 1309.34 824.794 Q1309.34 826.923 1308.53 828.845 Q1307.74 830.743 1305.63 833.335 Q1305.05 834.007 1301.95 837.224 Q1298.85 840.419 1293.2 846.183 Z"
     fill="#000000"
     fill-rule="nonzero"
     fill-opacity="1"
     id="path98" />
  <path
     clip-path="url(#clip070)"
     d="M1302.39 555.783 Q1305.75 556.501 1307.62 558.769 Q1309.52 561.038 1309.52 564.371 Q1309.52 569.487 1306 572.288 Q1302.48 575.089 1296 575.089 Q1293.83 575.089 1291.51 574.649 Q1289.22 574.232 1286.77 573.376 L1286.77 568.862 Q1288.71 569.996 1291.03 570.575 Q1293.34 571.154 1295.86 571.154 Q1300.26 571.154 1302.55 569.418 Q1304.87 567.681 1304.87 564.371 Q1304.87 561.316 1302.72 559.603 Q1300.59 557.867 1296.77 557.867 L1292.74 557.867 L1292.74 554.024 L1296.95 554.024 Q1300.4 554.024 1302.23 552.658 Q1304.06 551.269 1304.06 548.677 Q1304.06 546.015 1302.16 544.603 Q1300.29 543.168 1296.77 543.168 Q1294.85 543.168 1292.65 543.584 Q1290.45 544.001 1287.81 544.881 L1287.81 540.714 Q1290.47 539.973 1292.79 539.603 Q1295.12 539.232 1297.18 539.232 Q1302.51 539.232 1305.61 541.663 Q1308.71 544.07 1308.71 548.191 Q1308.71 551.061 1307.07 553.052 Q1305.42 555.019 1302.39 555.783 Z"
     fill="#000000"
     fill-rule="nonzero"
     fill-opacity="1"
     id="path99" />
  <path
     clip-path="url(#clip070)"
     d="M1299.94 268.231 L1288.13 286.68 L1299.94 286.68 L1299.94 268.231 M1298.71 264.157 L1304.59 264.157 L1304.59 286.68 L1309.52 286.68 L1309.52 290.569 L1304.59 290.569 L1304.59 298.717 L1299.94 298.717 L1299.94 290.569 L1284.34 290.569 L1284.34 286.055 L1298.71 264.157 Z"
     fill="#000000"
     fill-rule="nonzero"
     fill-opacity="1"
     id="path100" />
  <polyline
     clip-path="url(#clip073)"
     style="stroke:#009af9; stroke-linecap:round; stroke-linejoin:round; stroke-width:8; stroke-opacity:1; fill:none"
     points="1345.52,1384.24 1355.92,1384.24 1416.82,1384.24 1445.15,1384.24 1483.13,1384.24 1514.51,1384.24 1543.69,1384.24 1580.32,1384.24 1613.18,1384.23 1631.98,1384.21 1650.79,1384.12 1664.84,1383.9 1678.9,1383.33 1687.89,1382.6 1696.88,1381.38 1701.37,1380.51 1705.87,1379.42 1710.36,1378.05 1714.86,1376.36 1718.96,1374.48 1723.06,1372.23 1727.16,1369.56 1731.27,1366.42 1735.37,1362.75 1739.47,1358.49 1741.52,1356.13 1743.57,1353.59 1745.63,1350.89 1747.68,1348.01 1750.01,1344.51 1752.35,1340.76 1754.68,1336.76 1757.01,1332.5 1759.35,1327.98 1761.68,1323.2 1764.02,1318.15 1766.35,1312.85 1768.69,1307.28 1771.02,1301.45 1773.36,1295.37 1775.69,1289.05 1778.02,1282.51 1780.36,1275.74 1782.69,1268.78 1785.03,1261.62 1792.43,1237.98 1799.83,1213.51 1803.53,1201.27 1807.24,1189.21 1810.94,1177.47 1814.64,1166.2 1816.94,1159.51 1819.24,1153.1 1821.53,1146.99 1823.83,1141.23 1826.13,1135.85 1828.43,1130.88 1830.73,1126.35 1833.03,1122.29 1835.33,1118.71 1837.63,1115.65 1839.93,1113.11 1842.23,1111.12 1844.53,1109.69 1846.83,1108.83 1849.12,1108.54 1851.42,1108.82 1853.18,1109.43 1854.95,1110.36 1856.71,1111.63 1858.47,1113.23 1860.23,1115.14 1861.99,1117.37 1863.75,1119.9 1865.51,1122.73 1867.27,1125.84 1869.03,1129.23 1870.79,1132.88 1872.55,1136.78 1874.31,1140.92 1876.07,1145.28 1877.83,1149.85 1879.6,1154.61 1882.08,1161.63 1884.56,1168.95 1887.04,1176.54 1889.53,1184.35 1894.49,1200.44 1899.46,1216.87 1904.42,1233.3 1909.38,1249.44 1911.87,1257.31 1914.35,1265.01 1916.83,1272.52 1919.31,1279.81 1923.02,1290.25 1926.73,1300.11 1930.44,1309.34 1934.16,1317.92 1937.87,1325.83 1941.58,1333.08 1945.29,1339.67 1949,1345.63 1951.11,1348.73 1953.21,1351.65 1955.32,1354.38 1957.43,1356.93 1961.65,1361.51 1965.87,1365.45 1970.09,1368.82 1974.31,1371.68 1978.53,1374.07 1982.75,1376.07 1986.93,1377.71 1991.11,1379.05 1995.29,1380.15 1999.46,1381.03 2007.82,1382.31 2016.18,1383.11 2034.57,1383.92 2052.95,1384.16 2067,1384.21 2081.05,1384.23 2116.5,1384.24 2149.28,1384.24 2183.1,1384.24 2217.37,1384.24 2253.16,1384.24 2281.35,1384.24 2345.55,1384.24 2352.76,1384.24 "
     id="polyline100" />
  <polyline
     clip-path="url(#clip073)"
     style="stroke:#e26f46; stroke-linecap:round; stroke-linejoin:round; stroke-width:8; stroke-opacity:0.7; fill:none"
     stroke-dasharray="4, 8"
     points="1345.52,1384.24 1355.92,1384.24 1416.82,1384.24 1445.15,1384.24 1483.13,1384.24 1514.51,1384.24 1543.69,1384.24 1580.32,1384.24 1613.18,1384.24 1631.98,1384.23 1650.79,1384.19 1664.84,1384.1 1678.9,1383.88 1687.89,1383.58 1696.88,1383.1 1701.37,1382.75 1705.87,1382.32 1710.36,1381.77 1714.86,1381.09 1718.96,1380.34 1723.06,1379.45 1727.16,1378.38 1731.27,1377.13 1735.37,1375.66 1739.47,1373.97 1741.52,1373.02 1743.57,1372.01 1745.63,1370.93 1747.68,1369.79 1750.01,1368.39 1752.35,1366.89 1754.68,1365.3 1757.01,1363.6 1759.35,1361.79 1761.68,1359.89 1764.02,1357.87 1766.35,1355.76 1768.69,1353.53 1771.02,1351.21 1773.36,1348.79 1775.69,1346.27 1778.02,1343.65 1780.36,1340.95 1782.69,1338.18 1785.03,1335.32 1792.43,1325.89 1799.83,1316.13 1803.53,1311.25 1807.24,1306.43 1810.94,1301.75 1814.64,1297.26 1816.94,1294.59 1819.24,1292.03 1821.53,1289.59 1823.83,1287.29 1826.13,1285.15 1828.43,1283.16 1830.73,1281.36 1833.03,1279.73 1835.33,1278.31 1837.63,1277.09 1839.93,1276.07 1842.23,1275.28 1844.53,1274.71 1846.83,1274.37 1849.12,1274.25 1851.42,1274.36 1853.18,1274.6 1854.95,1274.98 1856.71,1275.48 1858.47,1276.12 1860.23,1276.88 1861.99,1277.77 1863.75,1278.78 1865.51,1279.91 1867.27,1281.15 1869.03,1282.5 1870.79,1283.96 1872.55,1285.52 1874.31,1287.17 1876.07,1288.91 1877.83,1290.73 1879.6,1292.63 1882.08,1295.43 1884.56,1298.35 1887.04,1301.38 1889.53,1304.49 1894.49,1310.91 1899.46,1317.47 1904.42,1324.02 1909.38,1330.46 1911.87,1333.6 1914.35,1336.68 1916.83,1339.67 1919.31,1342.58 1923.02,1346.74 1926.73,1350.68 1930.44,1354.36 1934.16,1357.78 1937.87,1360.94 1941.58,1363.83 1945.29,1366.46 1949,1368.83 1951.11,1370.07 1953.21,1371.24 1955.32,1372.33 1957.43,1373.34 1961.65,1375.17 1965.87,1376.74 1970.09,1378.09 1974.31,1379.23 1978.53,1380.18 1982.75,1380.98 1986.93,1381.63 1991.11,1382.17 1995.29,1382.61 1999.46,1382.96 2007.82,1383.47 2016.18,1383.79 2034.57,1384.11 2052.95,1384.21 2067,1384.23 2081.05,1384.24 2116.5,1384.24 2149.28,1384.24 2183.1,1384.24 2217.37,1384.24 2253.16,1384.24 2281.35,1384.24 2345.55,1384.24 2352.76,1384.24 "
     id="polyline101" />
  <polyline
     clip-path="url(#clip073)"
     style="stroke:#3da44d; stroke-linecap:round; stroke-linejoin:round; stroke-width:8; stroke-opacity:1; fill:none"
     points="1345.52,1059.87 1348.12,1055 1350.72,1050.06 1353.32,1045.04 1355.92,1039.95 1363.53,1024.6 1371.15,1008.55 1378.76,991.798 1386.37,974.294 1393.98,956.01 1401.6,936.909 1409.21,916.957 1416.82,896.115 1423.91,875.89 1430.99,854.826 1438.07,832.89 1445.15,810.045 1454.65,777.932 1464.14,744.023 1473.64,708.218 1483.13,670.41 1490.97,637.579 1498.82,603.238 1506.66,567.318 1514.51,529.745 1521.8,493.257 1529.1,455.211 1536.39,415.541 1543.69,374.176 1548.27,347.316 1552.85,319.74 1557.42,291.432 1562,262.371 1566.58,232.537 1571.16,201.909 1575.74,170.467 1580.32,138.189 1582.37,123.435 1584.43,108.506 1585.45,100.975 1586.48,93.3997 1586.99,89.5954 1587.51,86.1857 1588.02,86.1857 1588.53,86.1857 1590.59,86.1857 1592.64,86.1857 1594.69,86.1857 1596.75,86.1857 1604.96,86.1857 1613.18,86.1857 1650.79,86.1857 1678.9,86.1857 1714.86,86.1857 1747.68,86.1857 1785.03,86.1857 1814.64,86.1857 1851.42,86.1857 1879.6,86.1857 1919.31,86.1857 1949,86.1857 1982.75,86.1857 2016.18,86.1857 2052.95,86.1857 2081.05,86.1857 2089.91,86.1857 2098.77,86.1857 2103.2,86.1857 2107.63,86.1857 2108.74,86.1857 2109.85,86.1857 2110.4,86.1857 2110.96,87.1537 2111.51,91.2653 2112.06,95.3639 2114.28,111.629 2116.5,127.688 2120.59,156.863 2124.69,185.36 2128.79,213.195 2132.89,240.384 2141.08,292.883 2149.28,342.973 2157.73,392.225 2166.19,439.147 2174.64,483.85 2183.1,526.438 2191.66,567.551 2200.23,606.693 2208.8,643.96 2217.37,679.44 2226.32,714.674 2235.26,748.147 2244.21,779.947 2253.16,810.157 2260.21,832.887 2267.25,854.718 2274.3,875.684 2281.35,895.82 2289.38,917.779 2297.4,938.751 2305.43,958.78 2313.45,977.908 2321.48,996.177 2329.5,1013.62 2337.53,1030.29 2345.55,1046.2 2347.35,1049.67 2349.15,1053.11 2350.96,1056.51 2352.76,1059.87 "
     id="polyline102" />
  <path
     clip-path="url(#clip070)"
     d="M2171.64 300.469 L2319.18 300.469 L2319.18 93.1086 L2171.64 93.1086  Z"
     fill="#ffffff"
     fill-rule="evenodd"
     fill-opacity="1"
     id="path102" />
  <polyline
     clip-path="url(#clip070)"
     style="stroke:#000000; stroke-linecap:round; stroke-linejoin:round; stroke-width:4; stroke-opacity:1; fill:none"
     points="2171.64,300.469 2319.18,300.469 2319.18,93.1086 2171.64,93.1086 2171.64,300.469 "
     id="polyline103" />
  <polyline
     clip-path="url(#clip070)"
     style="stroke:#009af9; stroke-linecap:round; stroke-linejoin:round; stroke-width:8; stroke-opacity:1; fill:none"
     points="2182.83,144.949 2249.98,144.949 "
     id="polyline104" />
  <path
     clip-path="url(#clip070)"
     d="M2284.71 147.652 Q2284.71 147.84 2284.5 148.566 Q2284.29 149.292 2283.78 150.416 Q2283.29 151.54 2282.61 152.571 Q2281.93 153.578 2280.8 154.328 Q2279.7 155.054 2278.44 155.054 Q2276.75 155.054 2275.63 153.929 Q2274.5 152.805 2274.5 151.119 Q2274.5 150.885 2274.53 150.65 Q2274.55 150.416 2274.57 150.276 Q2274.6 150.112 2274.67 149.854 Q2274.76 149.573 2274.78 149.456 Q2274.83 149.339 2274.95 148.987 Q2275.09 148.613 2275.13 148.472 Q2278.11 140.883 2278.11 137.721 Q2278.11 134.372 2275.51 134.372 Q2273.19 134.372 2270.9 136.058 Q2269.84 136.901 2268.83 138.4 Q2267.83 139.899 2267.64 140.462 Q2267.43 141.68 2267.12 142.616 Q2266.98 143.272 2266.3 145.825 L2265.25 150.158 L2264.34 153.789 Q2264.15 154.304 2263.63 154.679 Q2263.12 155.054 2262.56 155.054 Q2262.09 155.054 2261.62 154.726 Q2261.17 154.421 2261.17 153.695 Q2261.17 153.32 2261.36 152.641 L2268.32 125.003 L2268.46 124.066 Q2268.46 123.785 2268.34 123.644 Q2268.25 123.48 2267.69 123.363 Q2267.15 123.246 2266.07 123.246 Q2265.63 123.246 2265.41 123.223 Q2265.23 123.199 2265.06 123.082 Q2264.9 122.942 2264.9 122.661 Q2264.9 122.262 2265.06 122.052 Q2265.25 121.817 2265.39 121.77 Q2265.53 121.724 2265.81 121.7 Q2266.21 121.677 2267.55 121.56 Q2268.88 121.419 2270.03 121.325 Q2271.18 121.232 2271.67 121.232 Q2271.95 121.232 2272.09 121.372 Q2272.25 121.489 2272.28 121.63 L2272.3 121.747 L2268.55 136.995 Q2271.53 133.318 2275.65 133.318 Q2278.32 133.318 2279.75 134.7 Q2281.18 136.058 2281.18 138.447 Q2281.18 141.188 2278.25 148.987 Q2277.38 151.166 2277.38 152.407 Q2277.38 153.227 2277.64 153.602 Q2277.92 153.976 2278.53 153.976 Q2279.47 153.976 2280.29 153.438 Q2281.13 152.875 2281.72 151.962 Q2282.3 151.025 2282.7 150.088 Q2283.12 149.128 2283.43 148.05 Q2283.61 147.465 2283.71 147.324 Q2283.82 147.184 2284.15 147.184 Q2284.71 147.184 2284.71 147.652 Z"
     fill="#000000"
     fill-rule="nonzero"
     fill-opacity="1"
     id="path104" />
  <path
     clip-path="url(#clip070)"
     d="M2289.59 168.335 Q2289.59 167.729 2289.64 167.548 Q2289.71 167.368 2289.97 167.089 L2296.41 159.908 Q2299.94 155.94 2299.94 152.481 Q2299.94 150.234 2298.76 148.628 Q2297.59 147.021 2295.45 147.021 Q2293.97 147.021 2292.72 147.923 Q2291.48 148.824 2290.9 150.431 Q2291 150.398 2291.35 150.398 Q2292.18 150.398 2292.64 150.923 Q2293.12 151.448 2293.12 152.153 Q2293.12 153.055 2292.53 153.497 Q2291.95 153.924 2291.38 153.924 Q2291.15 153.924 2290.84 153.874 Q2290.54 153.825 2290.07 153.366 Q2289.59 152.891 2289.59 152.054 Q2289.59 149.71 2291.36 147.841 Q2293.15 145.972 2295.87 145.972 Q2298.95 145.972 2300.97 147.808 Q2303 149.628 2303 152.481 Q2303 153.481 2302.69 154.399 Q2302.4 155.301 2301.99 156.006 Q2301.59 156.711 2300.51 157.842 Q2299.43 158.973 2298.56 159.777 Q2297.69 160.58 2295.74 162.285 L2292.18 165.745 L2298.23 165.745 Q2301.18 165.745 2301.41 165.482 Q2301.74 165.007 2302.15 162.498 L2303 162.498 L2302.05 168.335 L2289.59 168.335 Z"
     fill="#000000"
     fill-rule="nonzero"
     fill-opacity="1"
     id="path105" />
  <polyline
     clip-path="url(#clip070)"
     style="stroke:#e26f46; stroke-linecap:round; stroke-linejoin:round; stroke-width:8; stroke-opacity:0.7; fill:none"
     stroke-dasharray="4, 8"
     points="2182.83,196.789 2249.98,196.789 "
     id="polyline105" />
  <path
     clip-path="url(#clip070)"
     d="M2285.09 178.144 Q2285.09 179.432 2284.27 180.229 Q2283.47 181.025 2282.47 181.025 Q2281.74 181.025 2281.2 180.58 Q2280.69 180.135 2280.69 179.362 Q2280.69 178.566 2281.29 177.723 Q2281.9 176.879 2283.29 176.762 Q2282.37 175.896 2280.92 175.896 Q2280.19 175.896 2279.58 176.364 Q2279 176.809 2278.67 177.535 Q2278.32 178.285 2277.52 182.524 Q2277.27 183.906 2277.03 185.241 Q2276.8 186.576 2276.52 187.982 L2280.5 187.982 Q2281.01 187.982 2281.22 188.005 Q2281.44 188.028 2281.6 188.146 Q2281.79 188.263 2281.79 188.52 Q2281.79 189.176 2281.48 189.34 Q2281.2 189.481 2280.36 189.481 L2276.24 189.481 L2273.35 204.682 Q2273.28 205.127 2272.98 206.532 Q2272.7 207.914 2272.02 210.186 Q2271.34 212.481 2270.66 213.84 Q2270.29 214.613 2269.79 215.339 Q2269.33 216.089 2268.65 216.838 Q2267.97 217.588 2267.08 218.033 Q2266.19 218.501 2265.25 218.501 Q2263.66 218.501 2262.42 217.611 Q2261.17 216.721 2261.17 215.198 Q2261.17 213.91 2261.97 213.114 Q2262.79 212.318 2263.8 212.318 Q2264.52 212.318 2265.04 212.763 Q2265.58 213.208 2265.58 213.981 Q2265.58 214.308 2265.46 214.683 Q2265.34 215.058 2265.09 215.48 Q2264.83 215.925 2264.27 216.229 Q2263.7 216.534 2262.93 216.58 Q2263.85 217.447 2265.25 217.447 Q2265.7 217.447 2266.09 217.26 Q2266.49 217.096 2266.82 216.674 Q2267.17 216.252 2267.43 215.831 Q2267.69 215.433 2267.94 214.66 Q2268.2 213.91 2268.37 213.348 Q2268.53 212.786 2268.74 211.779 Q2268.97 210.772 2269.09 210.163 Q2269.21 209.577 2269.42 208.429 L2273 189.481 L2269.84 189.481 Q2269.28 189.481 2269.04 189.457 Q2268.83 189.434 2268.67 189.317 Q2268.51 189.176 2268.51 188.895 Q2268.51 188.45 2268.69 188.263 Q2268.9 188.052 2269.14 188.028 Q2269.37 187.982 2269.93 187.982 L2273.26 187.982 Q2274.39 182.056 2274.83 180.463 Q2275.35 178.777 2276.14 177.605 Q2276.94 176.411 2277.83 175.849 Q2278.72 175.287 2279.44 175.076 Q2280.19 174.842 2280.92 174.842 Q2282.56 174.842 2283.82 175.732 Q2285.09 176.598 2285.09 178.144 Z"
     fill="#000000"
     fill-rule="nonzero"
     fill-opacity="1"
     id="path106" />
  <polyline
     clip-path="url(#clip070)"
     style="stroke:#3da44d; stroke-linecap:round; stroke-linejoin:round; stroke-width:8; stroke-opacity:1; fill:none"
     points="2182.83,248.629 2249.98,248.629 "
     id="polyline106" />
  <path
     clip-path="url(#clip070)"
     d="M2283.19 228.294 Q2283.19 228.317 2283.05 229.161 L2277.71 250.452 Q2277.43 251.576 2276.63 252.7 Q2275.86 253.848 2274.62 254.832 Q2273.4 255.839 2271.53 256.448 Q2269.68 257.08 2267.55 257.08 Q2264.15 257.08 2262.65 256.354 Q2261.17 255.651 2261.17 254.152 Q2261.17 252.841 2261.99 252.091 Q2262.81 251.365 2263.75 251.365 Q2264.64 251.365 2265.11 251.88 Q2265.58 252.396 2265.58 253.051 Q2265.58 253.778 2265.09 254.504 Q2264.59 255.253 2263.61 255.534 Q2265.18 256.026 2267.45 256.026 Q2272.25 256.026 2274.31 250.943 Q2274.36 250.873 2274.36 250.85 L2275.95 244.502 L2275.88 244.455 Q2275.49 244.924 2274.85 245.463 Q2274.24 245.978 2272.93 246.61 Q2271.62 247.243 2270.33 247.243 Q2267.64 247.243 2265.79 245.182 Q2263.96 243.097 2263.96 239.654 Q2263.96 237.148 2264.97 234.641 Q2266 232.112 2267.59 230.261 Q2269.21 228.388 2271.27 227.216 Q2273.35 226.045 2275.37 226.045 Q2276.77 226.045 2277.97 226.889 Q2279.16 227.708 2279.82 229.067 Q2279.94 227.943 2280.57 227.474 Q2281.22 227.006 2281.79 227.006 Q2282.42 227.006 2282.79 227.357 Q2283.19 227.685 2283.19 228.294 M2279.26 231.222 Q2279.26 231.081 2279.16 230.706 Q2279.07 230.308 2278.79 229.676 Q2278.53 229.043 2278.13 228.481 Q2277.73 227.919 2277.01 227.521 Q2276.31 227.099 2275.42 227.099 Q2273.96 227.099 2272.51 228.317 Q2271.06 229.512 2270.05 231.362 Q2269.12 233.142 2268.23 236.585 Q2267.36 240.029 2267.36 241.785 Q2267.36 243.519 2268.11 244.854 Q2268.86 246.189 2270.47 246.189 Q2272.35 246.189 2274.36 244.455 Q2276.45 242.652 2276.8 241.106 L2279.12 231.948 Q2279.26 231.386 2279.26 231.222 Z"
     fill="#000000"
     fill-rule="nonzero"
     fill-opacity="1"
     id="path107" />
  <path
     clip-path="url(#clip070)"
     d="M2288.09 264.856 Q2288.09 263.855 2288.63 263.478 Q2289.17 263.085 2289.75 263.085 Q2290.52 263.085 2290.96 263.577 Q2291.42 264.052 2291.42 264.724 Q2291.42 265.397 2290.96 265.888 Q2290.52 266.364 2289.75 266.364 Q2289.37 266.364 2289.17 266.298 Q2289.62 267.84 2290.96 268.954 Q2292.32 270.069 2294.11 270.069 Q2296.36 270.069 2297.7 267.889 Q2298.5 266.479 2298.5 263.282 Q2298.5 260.461 2297.9 259.051 Q2296.96 256.904 2295.04 256.904 Q2292.32 256.904 2290.72 259.248 Q2290.52 259.543 2290.29 259.56 Q2289.96 259.56 2289.88 259.379 Q2289.81 259.183 2289.81 258.674 L2289.81 248.739 Q2289.81 247.935 2290.14 247.935 Q2290.27 247.935 2290.55 248.034 Q2292.67 248.968 2295.01 248.984 Q2297.42 248.984 2299.59 248.001 Q2299.75 247.902 2299.85 247.902 Q2300.18 247.902 2300.19 248.279 Q2300.19 248.411 2299.91 248.804 Q2299.65 249.181 2299.08 249.69 Q2298.5 250.181 2297.77 250.657 Q2297.03 251.132 2295.95 251.46 Q2294.88 251.772 2293.7 251.772 Q2292.29 251.772 2290.85 251.329 L2290.85 257.871 Q2292.58 256.166 2295.11 256.166 Q2297.8 256.166 2299.65 258.33 Q2301.5 260.494 2301.5 263.511 Q2301.5 266.675 2299.31 268.84 Q2297.13 271.004 2294.17 271.004 Q2291.49 271.004 2289.78 269.086 Q2288.09 267.167 2288.09 264.856 Z"
     fill="#000000"
     fill-rule="nonzero"
     fill-opacity="1"
     id="path108" />
</svg>
