<?xml version="1.0" encoding="UTF-8" standalone="no"?>
<svg
   width="600"
   height="400"
   viewBox="0 0 2400 1600"
   version="1.1"
   id="svg135"
   sodipodi:docname="cotas2.svg"
   inkscape:version="1.3.2 (091e20e, 2023-11-25)"
   xmlns:inkscape="http://www.inkscape.org/namespaces/inkscape"
   xmlns:sodipodi="http://sodipodi.sourceforge.net/DTD/sodipodi-0.dtd"
   xmlns="http://www.w3.org/2000/svg"
   xmlns:svg="http://www.w3.org/2000/svg">
  <sodipodi:namedview
     id="namedview135"
     pagecolor="#ffffff"
     bordercolor="#000000"
     borderopacity="0.25"
     inkscape:showpageshadow="2"
     inkscape:pageopacity="0.0"
     inkscape:pagecheckerboard="0"
     inkscape:deskcolor="#d1d1d1"
     inkscape:zoom="1.2247605"
     inkscape:cx="274.33935"
     inkscape:cy="200.03911"
     inkscape:window-width="1440"
     inkscape:window-height="847"
     inkscape:window-x="0"
     inkscape:window-y="25"
     inkscape:window-maximized="0"
     inkscape:current-layer="svg135" />
  <defs
     id="defs1">
    <clipPath
       id="clip720">
      <rect
         x="0"
         y="0"
         width="2400"
         height="1600"
         id="rect1" />
    </clipPath>
  </defs>
  <defs
     id="defs2">
    <clipPath
       id="clip721">
      <rect
         x="480"
         y="0"
         width="1681"
         height="1600"
         id="rect2" />
    </clipPath>
  </defs>
  <defs
     id="defs3">
    <clipPath
       id="clip722">
      <rect
         x="178"
         y="47"
         width="971"
         height="1377"
         id="rect3" />
    </clipPath>
  </defs>
  <polyline
     clip-path="url(#clip722)"
     style="stroke:#000000; stroke-linecap:round; stroke-linejoin:round; stroke-width:2; stroke-opacity:0.1; fill:none"
     points="178.867,1423.18 178.867,47.2441 "
     id="polyline3" />
  <polyline
     clip-path="url(#clip722)"
     style="stroke:#000000; stroke-linecap:round; stroke-linejoin:round; stroke-width:2; stroke-opacity:0.1; fill:none"
     points="421.413,1423.18 421.413,47.2441 "
     id="polyline4" />
  <polyline
     clip-path="url(#clip722)"
     style="stroke:#000000; stroke-linecap:round; stroke-linejoin:round; stroke-width:2; stroke-opacity:0.1; fill:none"
     points="663.959,1423.18 663.959,47.2441 "
     id="polyline5" />
  <polyline
     clip-path="url(#clip722)"
     style="stroke:#000000; stroke-linecap:round; stroke-linejoin:round; stroke-width:2; stroke-opacity:0.1; fill:none"
     points="906.506,1423.18 906.506,47.2441 "
     id="polyline6" />
  <polyline
     clip-path="url(#clip722)"
     style="stroke:#000000; stroke-linecap:round; stroke-linejoin:round; stroke-width:2; stroke-opacity:0.1; fill:none"
     points="1149.05,1423.18 1149.05,47.2441 "
     id="polyline7" />
  <polyline
     clip-path="url(#clip722)"
     style="stroke:#000000; stroke-linecap:round; stroke-linejoin:round; stroke-width:2; stroke-opacity:0.1; fill:none"
     points="178.867,1360.81 1149.05,1360.81 "
     id="polyline8" />
  <polyline
     clip-path="url(#clip722)"
     style="stroke:#000000; stroke-linecap:round; stroke-linejoin:round; stroke-width:2; stroke-opacity:0.1; fill:none"
     points="178.867,1105.89 1149.05,1105.89 "
     id="polyline9" />
  <polyline
     clip-path="url(#clip722)"
     style="stroke:#000000; stroke-linecap:round; stroke-linejoin:round; stroke-width:2; stroke-opacity:0.1; fill:none"
     points="178.867,850.962 1149.05,850.962 "
     id="polyline10" />
  <polyline
     clip-path="url(#clip722)"
     style="stroke:#000000; stroke-linecap:round; stroke-linejoin:round; stroke-width:2; stroke-opacity:0.1; fill:none"
     points="178.867,596.036 1149.05,596.036 "
     id="polyline11" />
  <polyline
     clip-path="url(#clip722)"
     style="stroke:#000000; stroke-linecap:round; stroke-linejoin:round; stroke-width:2; stroke-opacity:0.1; fill:none"
     points="178.867,341.111 1149.05,341.111 "
     id="polyline12" />
  <polyline
     clip-path="url(#clip722)"
     style="stroke:#000000; stroke-linecap:round; stroke-linejoin:round; stroke-width:2; stroke-opacity:0.1; fill:none"
     points="178.867,86.1857 1149.05,86.1857 "
     id="polyline13" />
  <polyline
     clip-path="url(#clip720)"
     style="stroke:#000000; stroke-linecap:round; stroke-linejoin:round; stroke-width:4; stroke-opacity:1; fill:none"
     points="178.867,1423.18 1149.05,1423.18 "
     id="polyline14" />
  <polyline
     clip-path="url(#clip720)"
     style="stroke:#000000; stroke-linecap:round; stroke-linejoin:round; stroke-width:4; stroke-opacity:1; fill:none"
     points="178.867,1423.18 178.867,1404.28 "
     id="polyline15" />
  <polyline
     clip-path="url(#clip720)"
     style="stroke:#000000; stroke-linecap:round; stroke-linejoin:round; stroke-width:4; stroke-opacity:1; fill:none"
     points="421.413,1423.18 421.413,1404.28 "
     id="polyline16" />
  <polyline
     clip-path="url(#clip720)"
     style="stroke:#000000; stroke-linecap:round; stroke-linejoin:round; stroke-width:4; stroke-opacity:1; fill:none"
     points="663.959,1423.18 663.959,1404.28 "
     id="polyline17" />
  <polyline
     clip-path="url(#clip720)"
     style="stroke:#000000; stroke-linecap:round; stroke-linejoin:round; stroke-width:4; stroke-opacity:1; fill:none"
     points="906.506,1423.18 906.506,1404.28 "
     id="polyline18" />
  <polyline
     clip-path="url(#clip720)"
     style="stroke:#000000; stroke-linecap:round; stroke-linejoin:round; stroke-width:4; stroke-opacity:1; fill:none"
     points="1149.05,1423.18 1149.05,1404.28 "
     id="polyline19" />
  <path
     clip-path="url(#clip720)"
     d="M132.929 1468.75 L162.605 1468.75 L162.605 1472.69 L132.929 1472.69 L132.929 1468.75 Z"
     fill="#000000"
     fill-rule="nonzero"
     fill-opacity="1"
     id="path19" />
  <path
     clip-path="url(#clip720)"
     d="M173.508 1481.64 L181.147 1481.64 L181.147 1455.28 L172.837 1456.95 L172.837 1452.69 L181.1 1451.02 L185.776 1451.02 L185.776 1481.64 L193.415 1481.64 L193.415 1485.58 L173.508 1485.58 L173.508 1481.64 Z"
     fill="#000000"
     fill-rule="nonzero"
     fill-opacity="1"
     id="path20" />
  <path
     clip-path="url(#clip720)"
     d="M212.86 1454.1 Q209.248 1454.1 207.42 1457.66 Q205.614 1461.2 205.614 1468.33 Q205.614 1475.44 207.42 1479.01 Q209.248 1482.55 212.86 1482.55 Q216.494 1482.55 218.299 1479.01 Q220.128 1475.44 220.128 1468.33 Q220.128 1461.2 218.299 1457.66 Q216.494 1454.1 212.86 1454.1 M212.86 1450.39 Q218.67 1450.39 221.725 1455 Q224.804 1459.58 224.804 1468.33 Q224.804 1477.06 221.725 1481.67 Q218.67 1486.25 212.86 1486.25 Q207.049 1486.25 203.971 1481.67 Q200.915 1477.06 200.915 1468.33 Q200.915 1459.58 203.971 1455 Q207.049 1450.39 212.86 1450.39 Z"
     fill="#000000"
     fill-rule="nonzero"
     fill-opacity="1"
     id="path21" />
  <path
     clip-path="url(#clip720)"
     d="M391.054 1468.75 L420.73 1468.75 L420.73 1472.69 L391.054 1472.69 L391.054 1468.75 Z"
     fill="#000000"
     fill-rule="nonzero"
     fill-opacity="1"
     id="path22" />
  <path
     clip-path="url(#clip720)"
     d="M430.869 1451.02 L449.225 1451.02 L449.225 1454.96 L435.151 1454.96 L435.151 1463.43 Q436.17 1463.08 437.188 1462.92 Q438.207 1462.73 439.225 1462.73 Q445.012 1462.73 448.392 1465.9 Q451.772 1469.08 451.772 1474.49 Q451.772 1480.07 448.299 1483.17 Q444.827 1486.25 438.508 1486.25 Q436.332 1486.25 434.063 1485.88 Q431.818 1485.51 429.411 1484.77 L429.411 1480.07 Q431.494 1481.2 433.716 1481.76 Q435.938 1482.32 438.415 1482.32 Q442.42 1482.32 444.758 1480.21 Q447.096 1478.1 447.096 1474.49 Q447.096 1470.88 444.758 1468.77 Q442.42 1466.67 438.415 1466.67 Q436.54 1466.67 434.665 1467.08 Q432.813 1467.5 430.869 1468.38 L430.869 1451.02 Z"
     fill="#000000"
     fill-rule="nonzero"
     fill-opacity="1"
     id="path23" />
  <path
     clip-path="url(#clip720)"
     d="M663.959 1454.1 Q660.348 1454.1 658.52 1457.66 Q656.714 1461.2 656.714 1468.33 Q656.714 1475.44 658.52 1479.01 Q660.348 1482.55 663.959 1482.55 Q667.594 1482.55 669.399 1479.01 Q671.228 1475.44 671.228 1468.33 Q671.228 1461.2 669.399 1457.66 Q667.594 1454.1 663.959 1454.1 M663.959 1450.39 Q669.77 1450.39 672.825 1455 Q675.904 1459.58 675.904 1468.33 Q675.904 1477.06 672.825 1481.67 Q669.77 1486.25 663.959 1486.25 Q658.149 1486.25 655.071 1481.67 Q652.015 1477.06 652.015 1468.33 Q652.015 1459.58 655.071 1455 Q658.149 1450.39 663.959 1450.39 Z"
     fill="#000000"
     fill-rule="nonzero"
     fill-opacity="1"
     id="path24" />
  <path
     clip-path="url(#clip720)"
     d="M896.784 1451.02 L915.14 1451.02 L915.14 1454.96 L901.066 1454.96 L901.066 1463.43 Q902.085 1463.08 903.103 1462.92 Q904.122 1462.73 905.14 1462.73 Q910.927 1462.73 914.307 1465.9 Q917.686 1469.08 917.686 1474.49 Q917.686 1480.07 914.214 1483.17 Q910.742 1486.25 904.423 1486.25 Q902.247 1486.25 899.978 1485.88 Q897.733 1485.51 895.325 1484.77 L895.325 1480.07 Q897.409 1481.2 899.631 1481.76 Q901.853 1482.32 904.33 1482.32 Q908.335 1482.32 910.672 1480.21 Q913.01 1478.1 913.01 1474.49 Q913.01 1470.88 910.672 1468.77 Q908.335 1466.67 904.33 1466.67 Q902.455 1466.67 900.58 1467.08 Q898.728 1467.5 896.784 1468.38 L896.784 1451.02 Z"
     fill="#000000"
     fill-rule="nonzero"
     fill-opacity="1"
     id="path25" />
  <path
     clip-path="url(#clip720)"
     d="M1123.74 1481.64 L1131.38 1481.64 L1131.38 1455.28 L1123.07 1456.95 L1123.07 1452.69 L1131.33 1451.02 L1136.01 1451.02 L1136.01 1481.64 L1143.65 1481.64 L1143.65 1485.58 L1123.74 1485.58 L1123.74 1481.64 Z"
     fill="#000000"
     fill-rule="nonzero"
     fill-opacity="1"
     id="path26" />
  <path
     clip-path="url(#clip720)"
     d="M1163.09 1454.1 Q1159.48 1454.1 1157.65 1457.66 Q1155.85 1461.2 1155.85 1468.33 Q1155.85 1475.44 1157.65 1479.01 Q1159.48 1482.55 1163.09 1482.55 Q1166.73 1482.55 1168.53 1479.01 Q1170.36 1475.44 1170.36 1468.33 Q1170.36 1461.2 1168.53 1457.66 Q1166.73 1454.1 1163.09 1454.1 M1163.09 1450.39 Q1168.9 1450.39 1171.96 1455 Q1175.04 1459.58 1175.04 1468.33 Q1175.04 1477.06 1171.96 1481.67 Q1168.9 1486.25 1163.09 1486.25 Q1157.28 1486.25 1154.2 1481.67 Q1151.15 1477.06 1151.15 1468.33 Q1151.15 1459.58 1154.2 1455 Q1157.28 1450.39 1163.09 1450.39 Z"
     fill="#000000"
     fill-rule="nonzero"
     fill-opacity="1"
     id="path27" />
  <path
     clip-path="url(#clip720)"
     d="M678.133 1528.8 Q678.133 1530.61 677.006 1531.64 Q675.878 1532.64 674.59 1532.64 Q673.366 1532.64 672.722 1531.93 Q672.078 1531.22 672.078 1530.32 Q672.078 1529.09 672.98 1528.03 Q673.882 1526.97 675.234 1526.74 Q673.914 1525.91 671.949 1525.91 Q670.661 1525.91 669.534 1526.58 Q668.439 1527.26 667.763 1528.13 Q667.118 1529 666.539 1530.25 Q665.991 1531.48 665.766 1532.22 Q665.573 1532.93 665.412 1533.7 L663.157 1542.72 Q662.062 1547 662.062 1548.51 Q662.062 1550.38 662.964 1551.64 Q663.866 1552.86 665.669 1552.86 Q666.378 1552.86 667.183 1552.67 Q667.988 1552.44 669.019 1551.86 Q670.081 1551.25 671.015 1550.35 Q671.982 1549.42 672.915 1547.84 Q673.849 1546.26 674.461 1544.23 Q674.655 1543.52 675.299 1543.52 Q676.104 1543.52 676.104 1544.17 Q676.104 1544.71 675.653 1545.87 Q675.234 1547 674.3 1548.48 Q673.399 1549.93 672.207 1551.25 Q671.015 1552.54 669.244 1553.44 Q667.473 1554.34 665.54 1554.34 Q662.771 1554.34 660.935 1552.86 Q659.099 1551.38 658.423 1549.32 Q658.262 1549.61 658.036 1550 Q657.811 1550.38 657.135 1551.25 Q656.491 1552.09 655.75 1552.73 Q655.009 1553.34 653.85 1553.83 Q652.722 1554.34 651.499 1554.34 Q649.953 1554.34 648.568 1553.89 Q647.215 1553.44 646.249 1552.41 Q645.283 1551.38 645.283 1549.96 Q645.283 1548.38 646.346 1547.29 Q647.441 1546.16 648.922 1546.16 Q649.856 1546.16 650.597 1546.71 Q651.37 1547.26 651.37 1548.45 Q651.37 1549.77 650.468 1550.77 Q649.566 1551.77 648.278 1552.02 Q649.598 1552.86 651.563 1552.86 Q653.689 1552.86 655.363 1550.99 Q657.038 1549.13 657.843 1546 Q659.84 1538.5 660.613 1535.15 Q661.386 1531.77 661.386 1530.32 Q661.386 1528.96 661.032 1528.03 Q660.677 1527.1 660.065 1526.68 Q659.486 1526.23 658.938 1526.07 Q658.423 1525.91 657.843 1525.91 Q656.877 1525.91 655.782 1526.29 Q654.719 1526.68 653.431 1527.58 Q652.175 1528.45 650.983 1530.25 Q649.792 1532.06 648.987 1534.54 Q648.826 1535.28 648.117 1535.28 Q647.344 1535.24 647.344 1534.6 Q647.344 1534.05 647.763 1532.93 Q648.214 1531.77 649.115 1530.32 Q650.049 1528.87 651.241 1527.58 Q652.465 1526.26 654.236 1525.36 Q656.04 1524.46 657.972 1524.46 Q658.842 1524.46 659.679 1524.65 Q660.548 1524.81 661.579 1525.29 Q662.642 1525.78 663.576 1526.84 Q664.51 1527.9 665.089 1529.45 Q665.476 1528.71 665.991 1528 Q666.539 1527.29 667.376 1526.42 Q668.246 1525.52 669.437 1525 Q670.661 1524.46 672.014 1524.46 Q673.334 1524.46 674.622 1524.81 Q675.911 1525.13 677.006 1526.19 Q678.133 1527.23 678.133 1528.8 Z"
     fill="#000000"
     fill-rule="nonzero"
     fill-opacity="1"
     id="path28" />
  <polyline
     clip-path="url(#clip720)"
     style="stroke:#000000; stroke-linecap:round; stroke-linejoin:round; stroke-width:4; stroke-opacity:1; fill:none"
     points="178.867,1423.18 178.867,47.2441 "
     id="polyline28" />
  <polyline
     clip-path="url(#clip720)"
     style="stroke:#000000; stroke-linecap:round; stroke-linejoin:round; stroke-width:4; stroke-opacity:1; fill:none"
     points="178.867,1360.81 197.764,1360.81 "
     id="polyline29" />
  <polyline
     clip-path="url(#clip720)"
     style="stroke:#000000; stroke-linecap:round; stroke-linejoin:round; stroke-width:4; stroke-opacity:1; fill:none"
     points="178.867,1105.89 197.764,1105.89 "
     id="polyline30" />
  <polyline
     clip-path="url(#clip720)"
     style="stroke:#000000; stroke-linecap:round; stroke-linejoin:round; stroke-width:4; stroke-opacity:1; fill:none"
     points="178.867,850.962 197.764,850.962 "
     id="polyline31" />
  <polyline
     clip-path="url(#clip720)"
     style="stroke:#000000; stroke-linecap:round; stroke-linejoin:round; stroke-width:4; stroke-opacity:1; fill:none"
     points="178.867,596.036 197.764,596.036 "
     id="polyline32" />
  <polyline
     clip-path="url(#clip720)"
     style="stroke:#000000; stroke-linecap:round; stroke-linejoin:round; stroke-width:4; stroke-opacity:1; fill:none"
     points="178.867,341.111 197.764,341.111 "
     id="polyline33" />
  <polyline
     clip-path="url(#clip720)"
     style="stroke:#000000; stroke-linecap:round; stroke-linejoin:round; stroke-width:4; stroke-opacity:1; fill:none"
     points="178.867,86.1857 197.764,86.1857 "
     id="polyline34" />
  <path
     clip-path="url(#clip720)"
     d="M50.9921 1361.26 L80.6679 1361.26 L80.6679 1365.2 L50.9921 1365.2 L50.9921 1361.26 Z"
     fill="#000000"
     fill-rule="nonzero"
     fill-opacity="1"
     id="path34" />
  <path
     clip-path="url(#clip720)"
     d="M90.8067 1343.53 L109.163 1343.53 L109.163 1347.47 L95.0891 1347.47 L95.0891 1355.94 Q96.1076 1355.59 97.1261 1355.43 Q98.1447 1355.25 99.1632 1355.25 Q104.95 1355.25 108.33 1358.42 Q111.709 1361.59 111.709 1367 Q111.709 1372.58 108.237 1375.68 Q104.765 1378.76 98.4456 1378.76 Q96.2697 1378.76 94.0012 1378.39 Q91.7558 1378.02 89.3484 1377.28 L89.3484 1372.58 Q91.4317 1373.72 93.6539 1374.27 Q95.8761 1374.83 98.353 1374.83 Q102.358 1374.83 104.696 1372.72 Q107.033 1370.62 107.033 1367 Q107.033 1363.39 104.696 1361.29 Q102.358 1359.18 98.353 1359.18 Q96.478 1359.18 94.603 1359.6 Q92.7512 1360.01 90.8067 1360.89 L90.8067 1343.53 Z"
     fill="#000000"
     fill-rule="nonzero"
     fill-opacity="1"
     id="path35" />
  <path
     clip-path="url(#clip720)"
     d="M130.922 1346.61 Q127.311 1346.61 125.482 1350.18 Q123.677 1353.72 123.677 1360.85 Q123.677 1367.95 125.482 1371.52 Q127.311 1375.06 130.922 1375.06 Q134.556 1375.06 136.362 1371.52 Q138.191 1367.95 138.191 1360.85 Q138.191 1353.72 136.362 1350.18 Q134.556 1346.61 130.922 1346.61 M130.922 1342.91 Q136.732 1342.91 139.788 1347.51 Q142.867 1352.1 142.867 1360.85 Q142.867 1369.57 139.788 1374.18 Q136.732 1378.76 130.922 1378.76 Q125.112 1378.76 122.033 1374.18 Q118.978 1369.57 118.978 1360.85 Q118.978 1352.1 122.033 1347.51 Q125.112 1342.91 130.922 1342.91 Z"
     fill="#000000"
     fill-rule="nonzero"
     fill-opacity="1"
     id="path36" />
  <path
     clip-path="url(#clip720)"
     d="M50.9921 1106.34 L80.6679 1106.34 L80.6679 1110.27 L50.9921 1110.27 L50.9921 1106.34 Z"
     fill="#000000"
     fill-rule="nonzero"
     fill-opacity="1"
     id="path37" />
  <path
     clip-path="url(#clip720)"
     d="M103.608 1092.68 L91.8021 1111.13 L103.608 1111.13 L103.608 1092.68 M102.381 1088.61 L108.26 1088.61 L108.26 1111.13 L113.191 1111.13 L113.191 1115.02 L108.26 1115.02 L108.26 1123.17 L103.608 1123.17 L103.608 1115.02 L88.0058 1115.02 L88.0058 1110.5 L102.381 1088.61 Z"
     fill="#000000"
     fill-rule="nonzero"
     fill-opacity="1"
     id="path38" />
  <path
     clip-path="url(#clip720)"
     d="M130.922 1091.69 Q127.311 1091.69 125.482 1095.25 Q123.677 1098.79 123.677 1105.92 Q123.677 1113.03 125.482 1116.59 Q127.311 1120.13 130.922 1120.13 Q134.556 1120.13 136.362 1116.59 Q138.191 1113.03 138.191 1105.92 Q138.191 1098.79 136.362 1095.25 Q134.556 1091.69 130.922 1091.69 M130.922 1087.98 Q136.732 1087.98 139.788 1092.59 Q142.867 1097.17 142.867 1105.92 Q142.867 1114.65 139.788 1119.25 Q136.732 1123.84 130.922 1123.84 Q125.112 1123.84 122.033 1119.25 Q118.978 1114.65 118.978 1105.92 Q118.978 1097.17 122.033 1092.59 Q125.112 1087.98 130.922 1087.98 Z"
     fill="#000000"
     fill-rule="nonzero"
     fill-opacity="1"
     id="path39" />
  <path
     clip-path="url(#clip720)"
     d="M50.9921 851.413 L80.6679 851.413 L80.6679 855.348 L50.9921 855.348 L50.9921 851.413 Z"
     fill="#000000"
     fill-rule="nonzero"
     fill-opacity="1"
     id="path40" />
  <path
     clip-path="url(#clip720)"
     d="M104.927 849.607 Q108.283 850.325 110.158 852.594 Q112.057 854.862 112.057 858.195 Q112.057 863.311 108.538 866.112 Q105.02 868.913 98.5382 868.913 Q96.3623 868.913 94.0475 868.473 Q91.7558 868.056 89.3021 867.2 L89.3021 862.686 Q91.2465 863.82 93.5613 864.399 Q95.8761 864.978 98.3993 864.978 Q102.797 864.978 105.089 863.242 Q107.404 861.506 107.404 858.195 Q107.404 855.14 105.251 853.427 Q103.121 851.691 99.3021 851.691 L95.2743 851.691 L95.2743 847.848 L99.4872 847.848 Q102.936 847.848 104.765 846.482 Q106.594 845.094 106.594 842.501 Q106.594 839.839 104.696 838.427 Q102.821 836.992 99.3021 836.992 Q97.3808 836.992 95.1817 837.408 Q92.9826 837.825 90.3438 838.705 L90.3438 834.538 Q93.0058 833.797 95.3206 833.427 Q97.6585 833.057 99.7187 833.057 Q105.043 833.057 108.145 835.487 Q111.246 837.895 111.246 842.015 Q111.246 844.885 109.603 846.876 Q107.959 848.844 104.927 849.607 Z"
     fill="#000000"
     fill-rule="nonzero"
     fill-opacity="1"
     id="path41" />
  <path
     clip-path="url(#clip720)"
     d="M130.922 836.76 Q127.311 836.76 125.482 840.325 Q123.677 843.867 123.677 850.996 Q123.677 858.103 125.482 861.668 Q127.311 865.209 130.922 865.209 Q134.556 865.209 136.362 861.668 Q138.191 858.103 138.191 850.996 Q138.191 843.867 136.362 840.325 Q134.556 836.76 130.922 836.76 M130.922 833.057 Q136.732 833.057 139.788 837.663 Q142.867 842.246 142.867 850.996 Q142.867 859.723 139.788 864.33 Q136.732 868.913 130.922 868.913 Q125.112 868.913 122.033 864.33 Q118.978 859.723 118.978 850.996 Q118.978 842.246 122.033 837.663 Q125.112 833.057 130.922 833.057 Z"
     fill="#000000"
     fill-rule="nonzero"
     fill-opacity="1"
     id="path42" />
  <path
     clip-path="url(#clip720)"
     d="M50.9921 596.488 L80.6679 596.488 L80.6679 600.423 L50.9921 600.423 L50.9921 596.488 Z"
     fill="#000000"
     fill-rule="nonzero"
     fill-opacity="1"
     id="path43" />
  <path
     clip-path="url(#clip720)"
     d="M94.7882 609.381 L111.108 609.381 L111.108 613.316 L89.1632 613.316 L89.1632 609.381 Q91.8252 606.627 96.4085 601.997 Q101.015 597.344 102.196 596.002 Q104.441 593.478 105.321 591.742 Q106.223 589.983 106.223 588.293 Q106.223 585.539 104.279 583.803 Q102.358 582.066 99.2558 582.066 Q97.0567 582.066 94.603 582.83 Q92.1725 583.594 89.3947 585.145 L89.3947 580.423 Q92.2188 579.289 94.6724 578.71 Q97.1261 578.131 99.1632 578.131 Q104.534 578.131 107.728 580.816 Q110.922 583.502 110.922 587.992 Q110.922 590.122 110.112 592.043 Q109.325 593.941 107.219 596.534 Q106.64 597.205 103.538 600.423 Q100.436 603.617 94.7882 609.381 Z"
     fill="#000000"
     fill-rule="nonzero"
     fill-opacity="1"
     id="path44" />
  <path
     clip-path="url(#clip720)"
     d="M130.922 581.835 Q127.311 581.835 125.482 585.4 Q123.677 588.941 123.677 596.071 Q123.677 603.177 125.482 606.742 Q127.311 610.284 130.922 610.284 Q134.556 610.284 136.362 606.742 Q138.191 603.177 138.191 596.071 Q138.191 588.941 136.362 585.4 Q134.556 581.835 130.922 581.835 M130.922 578.131 Q136.732 578.131 139.788 582.738 Q142.867 587.321 142.867 596.071 Q142.867 604.798 139.788 609.404 Q136.732 613.988 130.922 613.988 Q125.112 613.988 122.033 609.404 Q118.978 604.798 118.978 596.071 Q118.978 587.321 122.033 582.738 Q125.112 578.131 130.922 578.131 Z"
     fill="#000000"
     fill-rule="nonzero"
     fill-opacity="1"
     id="path45" />
  <path
     clip-path="url(#clip720)"
     d="M50.9921 341.562 L80.6679 341.562 L80.6679 345.498 L50.9921 345.498 L50.9921 341.562 Z"
     fill="#000000"
     fill-rule="nonzero"
     fill-opacity="1"
     id="path46" />
  <path
     clip-path="url(#clip720)"
     d="M91.5706 354.456 L99.2095 354.456 L99.2095 328.09 L90.8993 329.757 L90.8993 325.498 L99.1632 323.831 L103.839 323.831 L103.839 354.456 L111.478 354.456 L111.478 358.391 L91.5706 358.391 L91.5706 354.456 Z"
     fill="#000000"
     fill-rule="nonzero"
     fill-opacity="1"
     id="path47" />
  <path
     clip-path="url(#clip720)"
     d="M130.922 326.91 Q127.311 326.91 125.482 330.474 Q123.677 334.016 123.677 341.146 Q123.677 348.252 125.482 351.817 Q127.311 355.359 130.922 355.359 Q134.556 355.359 136.362 351.817 Q138.191 348.252 138.191 341.146 Q138.191 334.016 136.362 330.474 Q134.556 326.91 130.922 326.91 M130.922 323.206 Q136.732 323.206 139.788 327.812 Q142.867 332.396 142.867 341.146 Q142.867 349.873 139.788 354.479 Q136.732 359.062 130.922 359.062 Q125.112 359.062 122.033 354.479 Q118.978 349.873 118.978 341.146 Q118.978 332.396 122.033 327.812 Q125.112 323.206 130.922 323.206 Z"
     fill="#000000"
     fill-rule="nonzero"
     fill-opacity="1"
     id="path48" />
  <path
     clip-path="url(#clip720)"
     d="M130.922 71.9844 Q127.311 71.9844 125.482 75.5492 Q123.677 79.0908 123.677 86.2204 Q123.677 93.3268 125.482 96.8916 Q127.311 100.433 130.922 100.433 Q134.556 100.433 136.362 96.8916 Q138.191 93.3268 138.191 86.2204 Q138.191 79.0908 136.362 75.5492 Q134.556 71.9844 130.922 71.9844 M130.922 68.2807 Q136.732 68.2807 139.788 72.8871 Q142.867 77.4704 142.867 86.2204 Q142.867 94.9472 139.788 99.5537 Q136.732 104.137 130.922 104.137 Q125.112 104.137 122.033 99.5537 Q118.978 94.9472 118.978 86.2204 Q118.978 77.4704 122.033 72.8871 Q125.112 68.2807 130.922 68.2807 Z"
     fill="#000000"
     fill-rule="nonzero"
     fill-opacity="1"
     id="path49" />
  <polyline
     clip-path="url(#clip722)"
     style="stroke:#009af9; stroke-linecap:round; stroke-linejoin:round; stroke-width:8; stroke-opacity:1; fill:none"
     points="178.867,1360.81 183.875,1334.63 188.883,1308.72 203.548,1234.41 218.214,1162.42 232.879,1092.77 247.545,1025.44 261.19,964.899 274.835,906.37 283.979,868.274 293.124,831.083 302.268,794.799 311.413,759.42 326.525,702.939 341.638,648.931 355.691,600.93 369.744,555.068 387.386,500.524 405.027,449.352 420.852,406.319 436.676,365.999 445.733,344.144 454.789,323.177 463.846,303.099 472.903,283.909 486.442,256.878 499.982,231.832 517.3,202.694 534.617,176.804 550.423,156.01 566.229,137.922 575.223,128.837 584.218,120.629 593.212,113.297 602.207,106.842 616.467,98.4033 630.727,92.1678 648.444,87.4897 666.16,86.2119 679.728,87.5325 693.296,90.8475 702.86,94.3827 712.425,98.9089 721.989,104.426 731.554,110.934 745.848,122.509 760.143,136.297 776.399,154.667 792.656,175.901 808.755,199.75 824.854,226.408 842.566,258.98 860.279,294.951 873.808,324.716 887.337,356.464 904.409,399.357 921.482,445.407 937.272,490.81 953.062,538.914 969.347,591.354 985.632,646.667 1002.14,705.665 1018.65,767.615 1035.88,835.453 1053.12,906.509 1066.69,964.749 1080.27,1024.99 1095.73,1096.01 1111.19,1169.62 1126.65,1245.82 1142.11,1324.61 1143.85,1333.61 1145.58,1342.65 1147.32,1351.71 1149.05,1360.81 "
     id="polyline49" />
  <polyline
     clip-path="url(#clip722)"
     style="stroke:#e26f46; stroke-linecap:round; stroke-linejoin:round; stroke-width:8; stroke-opacity:0.7; fill:none"
     stroke-dasharray="4, 8"
     points="178.867,1384.24 183.875,1358.06 188.883,1332.15 203.548,1257.83 218.214,1185.85 232.879,1116.19 247.545,1048.87 261.19,988.325 274.835,929.796 283.979,891.7 293.124,854.509 302.268,818.225 311.413,782.846 326.525,726.365 341.638,672.357 355.691,624.356 369.744,578.494 387.386,523.95 405.027,472.778 420.852,429.745 436.676,389.425 445.733,367.57 454.789,346.603 463.846,326.525 472.903,307.335 486.442,280.304 499.982,255.258 517.3,226.12 534.617,200.23 550.423,179.436 566.229,161.348 575.223,152.263 584.218,144.055 593.212,136.723 602.207,130.268 616.467,121.829 630.727,115.594 648.444,110.916 666.16,109.638 679.728,110.959 693.296,114.274 702.86,117.809 712.425,122.335 721.989,127.852 731.554,134.361 745.848,145.935 760.143,159.723 776.399,178.093 792.656,199.327 808.755,223.176 824.854,249.834 842.566,282.406 860.279,318.377 873.808,348.142 887.337,379.89 904.409,422.783 921.482,468.833 937.272,514.236 953.062,562.34 969.347,614.78 985.632,670.093 1002.14,729.091 1018.65,791.041 1035.88,858.879 1053.12,929.935 1066.69,988.175 1080.27,1048.41 1095.73,1119.43 1111.19,1193.05 1126.65,1269.25 1142.11,1348.04 1143.85,1357.04 1145.58,1366.07 1147.32,1375.14 1149.05,1384.24 "
     id="polyline50" />
  <polyline
     clip-path="url(#clip722)"
     style="stroke:#3da44d; stroke-linecap:round; stroke-linejoin:round; stroke-width:8; stroke-opacity:1; fill:none"
     points="178.867,124.424 188.883,123.109 247.545,115.402 274.835,111.816 311.413,107.011 341.638,103.04 369.744,99.3471 405.027,94.7116 436.676,90.5535 445.733,89.3637 454.789,88.1738 459.318,87.5789 463.846,86.984 466.11,86.6865 468.374,86.389 469.507,86.2403 470.639,86.1857 471.771,86.1857 472.903,86.1857 476.288,86.1857 479.673,86.1857 483.058,86.1857 486.442,86.1857 493.212,86.1857 499.982,86.1857 534.617,86.1857 566.229,86.1857 602.207,86.1857 630.727,86.1857 666.16,86.1857 693.296,86.1857 731.554,86.1857 760.143,86.1857 792.656,86.1857 824.854,86.1857 833.71,86.1857 842.566,86.1857 846.994,86.1857 851.422,86.1857 853.636,86.1857 855.851,86.1857 856.958,86.1857 858.065,86.1946 859.172,86.34 860.279,86.4855 863.661,86.9298 867.043,87.3742 870.425,87.8186 873.808,88.2629 880.572,89.1516 887.337,90.0404 921.482,94.5263 953.062,98.6753 985.632,102.954 1018.65,107.292 1053.12,111.821 1080.27,115.388 1142.11,123.513 1149.05,124.424 "
     id="polyline51" />
  <polyline
     clip-path="url(#clip722)"
     style="stroke:#c271d2; stroke-linecap:round; stroke-linejoin:round; stroke-width:8; stroke-opacity:1; fill:none"
     points="178.867,134.284 188.883,132.764 247.545,123.865 274.835,119.725 311.413,114.176 341.638,109.591 369.744,105.327 405.027,99.9743 436.676,95.173 454.789,92.4251 472.903,89.6772 479.673,88.6502 486.442,87.6232 489.827,87.1097 493.212,86.5962 494.905,86.3394 496.597,86.1857 498.29,86.1857 499.982,86.1857 508.641,86.1857 517.3,86.1857 525.958,86.1857 534.617,86.1857 550.423,86.1857 566.229,86.1857 602.207,86.1857 630.727,86.1857 666.16,86.1857 693.296,86.1857 731.554,86.1857 760.143,86.1857 776.399,86.1857 792.656,86.1857 800.705,86.1857 808.755,86.1857 816.805,86.1857 824.854,86.1857 827.068,86.1857 829.282,86.1857 830.389,86.1857 831.496,86.1857 832.603,86.2771 833.71,86.4451 838.138,87.1168 842.566,87.7886 851.422,89.1321 860.279,90.4756 873.808,92.528 887.337,94.5804 921.482,99.7603 953.062,104.551 985.632,109.492 1018.65,114.5 1053.12,119.73 1080.27,123.85 1142.11,133.231 1149.05,134.284 "
     id="polyline52" />
  <path
     clip-path="url(#clip720)"
     d="M211.206 1377.32 L463.688 1377.32 L463.688 1080.41 L211.206 1080.41  Z"
     fill="#ffffff"
     fill-rule="evenodd"
     fill-opacity="1"
     id="path52" />
  <polyline
     clip-path="url(#clip720)"
     style="stroke:#000000; stroke-linecap:round; stroke-linejoin:round; stroke-width:4; stroke-opacity:1; fill:none"
     points="211.206,1377.32 463.688,1377.32 463.688,1080.41 211.206,1080.41 211.206,1377.32 "
     id="polyline53" />
  <polyline
     clip-path="url(#clip720)"
     style="stroke:#009af9; stroke-linecap:round; stroke-linejoin:round; stroke-width:8; stroke-opacity:1; fill:none"
     points="221.986,1139.79 286.665,1139.79 "
     id="polyline54" />
  <path
     clip-path="url(#clip720)"
     d="M303.147 1150.69 L303.147 1149.22 Q305.7 1149.22 306.285 1148.91 Q306.871 1148.58 306.871 1147.04 L306.871 1122.09 Q306.871 1120.31 306.239 1119.87 Q305.63 1119.42 303.147 1119.42 L303.147 1117.92 L310.033 1117.41 L310.033 1147.04 Q310.033 1148.58 310.642 1148.91 Q311.251 1149.22 313.781 1149.22 L313.781 1150.69 Q313.195 1150.69 311.977 1150.65 Q310.759 1150.6 309.869 1150.58 Q308.979 1150.55 308.464 1150.55 Q307.902 1150.55 303.147 1150.69 Z"
     fill="#000000"
     fill-rule="nonzero"
     fill-opacity="1"
     id="path54" />
  <path
     clip-path="url(#clip720)"
     d="M320.996 1148.12 Q317.834 1144.98 317.834 1140.43 Q317.834 1135.87 320.925 1132.54 Q324.04 1129.19 328.491 1129.19 Q332.847 1129.19 335.962 1132.52 Q339.101 1135.82 339.101 1140.43 Q339.101 1144.95 335.939 1148.09 Q332.8 1151.23 328.444 1151.23 Q324.181 1151.23 320.996 1148.12 M321.815 1140.04 Q321.815 1144.7 323.033 1146.8 Q324.907 1150.01 328.491 1150.01 Q330.271 1150.01 331.746 1149.05 Q333.245 1148.09 334.065 1146.48 Q335.119 1144.37 335.119 1140.04 Q335.119 1135.42 333.854 1133.38 Q331.981 1130.27 328.444 1130.27 Q326.898 1130.27 325.376 1131.09 Q323.877 1131.88 322.963 1133.48 Q321.815 1135.59 321.815 1140.04 Z"
     fill="#000000"
     fill-rule="nonzero"
     fill-opacity="1"
     id="path55" />
  <path
     clip-path="url(#clip720)"
     d="M339.856 1154.49 Q339.856 1152.94 341.027 1151.61 Q342.221 1150.27 344.282 1149.69 Q342.174 1148.35 342.174 1145.42 Q342.174 1143.17 343.65 1141.44 Q341.401 1139.57 341.401 1136.5 Q341.401 1133.66 343.65 1131.58 Q345.899 1129.5 349.178 1129.5 Q352.059 1129.5 354.26 1131.23 Q356.556 1128.98 359.343 1128.96 Q360.584 1128.96 361.17 1129.73 Q361.779 1130.5 361.779 1131.32 Q361.779 1132.05 361.31 1132.4 Q360.865 1132.75 360.397 1132.75 Q359.811 1132.75 359.39 1132.38 Q358.992 1131.98 358.992 1131.37 Q358.992 1130.36 359.765 1130.06 Q359.624 1130.01 359.296 1130.01 Q356.954 1130.01 354.963 1131.88 Q356.93 1133.71 356.93 1136.55 Q356.93 1139.38 354.682 1141.46 Q352.433 1143.55 349.178 1143.55 Q346.484 1143.55 344.423 1142.05 Q343.603 1143.01 343.603 1144.32 Q343.603 1145.52 344.329 1146.45 Q345.055 1147.39 346.156 1147.53 Q346.484 1147.58 349.74 1147.58 Q351.66 1147.58 352.714 1147.62 Q353.768 1147.67 355.267 1148 Q356.79 1148.3 357.984 1148.91 Q361.1 1150.65 361.123 1154.39 Q361.123 1157.13 357.961 1158.84 Q354.822 1160.58 350.466 1160.58 Q346.062 1160.58 342.947 1158.82 Q339.856 1157.09 339.856 1154.49 M342.362 1154.49 Q342.362 1156.45 344.681 1157.95 Q346.999 1159.48 350.513 1159.48 Q353.956 1159.48 356.275 1157.98 Q358.617 1156.5 358.617 1154.49 Q358.617 1153.06 357.797 1152.14 Q356.977 1151.23 355.291 1150.86 Q353.628 1150.51 352.457 1150.44 Q351.286 1150.36 349.131 1150.36 L346.297 1150.36 Q344.657 1150.46 343.509 1151.65 Q342.362 1152.85 342.362 1154.49 M344.985 1136.55 Q344.985 1142.45 349.178 1142.45 Q351.286 1142.45 352.574 1140.53 Q353.347 1139.24 353.347 1136.5 Q353.347 1130.6 349.178 1130.6 Q347.07 1130.6 345.758 1132.52 Q344.985 1133.81 344.985 1136.55 Z"
     fill="#000000"
     fill-rule="nonzero"
     fill-opacity="1"
     id="path56" />
  <path
     clip-path="url(#clip720)"
     d="M369.308 1138.7 Q369.308 1130.6 372.329 1124.06 Q373.617 1121.32 375.421 1119.03 Q377.224 1116.73 378.419 1115.72 Q379.613 1114.72 379.941 1114.72 Q380.41 1114.72 380.433 1115.18 Q380.433 1115.42 379.801 1116 Q372.071 1123.87 372.095 1138.7 Q372.095 1153.57 379.613 1161.14 Q380.433 1161.96 380.433 1162.22 Q380.433 1162.68 379.941 1162.68 Q379.613 1162.68 378.466 1161.72 Q377.318 1160.76 375.538 1158.56 Q373.758 1156.36 372.47 1153.67 Q369.308 1147.13 369.308 1138.7 Z"
     fill="#000000"
     fill-rule="nonzero"
     fill-opacity="1"
     id="path57" />
  <path
     clip-path="url(#clip720)"
     d="M411.263 1143.83 Q411.263 1144.02 411.052 1144.74 Q410.841 1145.47 410.326 1146.59 Q409.834 1147.72 409.155 1148.75 Q408.475 1149.76 407.351 1150.51 Q406.25 1151.23 404.985 1151.23 Q403.299 1151.23 402.175 1150.11 Q401.05 1148.98 401.05 1147.3 Q401.05 1147.06 401.074 1146.83 Q401.097 1146.59 401.121 1146.45 Q401.144 1146.29 401.214 1146.03 Q401.308 1145.75 401.332 1145.63 Q401.378 1145.52 401.495 1145.16 Q401.636 1144.79 401.683 1144.65 Q404.657 1137.06 404.657 1133.9 Q404.657 1130.55 402.058 1130.55 Q399.739 1130.55 397.443 1132.24 Q396.389 1133.08 395.382 1134.58 Q394.375 1136.08 394.188 1136.64 Q393.977 1137.86 393.672 1138.79 Q393.532 1139.45 392.853 1142 L391.799 1146.34 L390.885 1149.97 Q390.698 1150.48 390.182 1150.86 Q389.667 1151.23 389.105 1151.23 Q388.637 1151.23 388.168 1150.9 Q387.723 1150.6 387.723 1149.87 Q387.723 1149.5 387.91 1148.82 L394.867 1121.18 L395.007 1120.24 Q395.007 1119.96 394.89 1119.82 Q394.797 1119.66 394.235 1119.54 Q393.696 1119.42 392.618 1119.42 Q392.173 1119.42 391.963 1119.4 Q391.775 1119.38 391.611 1119.26 Q391.447 1119.12 391.447 1118.84 Q391.447 1118.44 391.611 1118.23 Q391.799 1117.99 391.939 1117.95 Q392.08 1117.9 392.361 1117.88 Q392.759 1117.85 394.094 1117.74 Q395.429 1117.6 396.577 1117.5 Q397.724 1117.41 398.216 1117.41 Q398.497 1117.41 398.638 1117.55 Q398.802 1117.67 398.825 1117.81 L398.849 1117.92 L395.101 1133.17 Q398.076 1129.5 402.198 1129.5 Q404.868 1129.5 406.297 1130.88 Q407.726 1132.24 407.726 1134.62 Q407.726 1137.37 404.798 1145.16 Q403.931 1147.34 403.931 1148.58 Q403.931 1149.4 404.189 1149.78 Q404.47 1150.15 405.079 1150.15 Q406.016 1150.15 406.836 1149.62 Q407.679 1149.05 408.265 1148.14 Q408.85 1147.2 409.248 1146.27 Q409.67 1145.31 409.974 1144.23 Q410.162 1143.64 410.255 1143.5 Q410.373 1143.36 410.7 1143.36 Q411.263 1143.36 411.263 1143.83 Z"
     fill="#000000"
     fill-rule="nonzero"
     fill-opacity="1"
     id="path58" />
  <path
     clip-path="url(#clip720)"
     d="M416.14 1145.35 L416.14 1144.3 Q420.173 1144.3 422.256 1142.15 Q422.829 1142.15 422.928 1142.28 Q423.026 1142.41 423.026 1143.02 L423.026 1161.86 Q423.026 1162.86 423.518 1163.17 Q424.01 1163.48 426.158 1163.48 L427.223 1163.48 L427.223 1164.51 Q426.043 1164.41 421.78 1164.41 Q417.517 1164.41 416.353 1164.51 L416.353 1163.48 L417.419 1163.48 Q419.534 1163.48 420.042 1163.18 Q420.55 1162.87 420.55 1161.86 L420.55 1144.46 Q418.796 1145.35 416.14 1145.35 Z"
     fill="#000000"
     fill-rule="nonzero"
     fill-opacity="1"
     id="path59" />
  <path
     clip-path="url(#clip720)"
     d="M432.23 1162.22 Q432.23 1161.98 432.839 1161.4 Q440.569 1153.53 440.569 1138.7 Q440.569 1123.83 433.144 1116.31 Q432.23 1115.44 432.23 1115.18 Q432.23 1114.72 432.699 1114.72 Q433.027 1114.72 434.174 1115.68 Q435.345 1116.64 437.102 1118.84 Q438.882 1121.04 440.194 1123.73 Q443.356 1130.27 443.356 1138.7 Q443.356 1146.8 440.334 1153.34 Q439.046 1156.08 437.243 1158.38 Q435.439 1160.67 434.245 1161.68 Q433.05 1162.68 432.699 1162.68 Q432.23 1162.68 432.23 1162.22 Z"
     fill="#000000"
     fill-rule="nonzero"
     fill-opacity="1"
     id="path60" />
  <polyline
     clip-path="url(#clip720)"
     style="stroke:#e26f46; stroke-linecap:round; stroke-linejoin:round; stroke-width:8; stroke-opacity:0.7; fill:none"
     stroke-dasharray="4, 8"
     points="221.986,1199.17 286.665,1199.17 "
     id="polyline60" />
  <path
     clip-path="url(#clip720)"
     d="M321.359 1180.53 Q321.359 1181.82 320.539 1182.61 Q319.743 1183.41 318.736 1183.41 Q318.01 1183.41 317.471 1182.96 Q316.956 1182.52 316.956 1181.75 Q316.956 1180.95 317.565 1180.11 Q318.174 1179.26 319.556 1179.15 Q318.642 1178.28 317.19 1178.28 Q316.464 1178.28 315.855 1178.75 Q315.269 1179.19 314.941 1179.92 Q314.59 1180.67 313.794 1184.91 Q313.536 1186.29 313.302 1187.62 Q313.068 1188.96 312.787 1190.36 L316.768 1190.36 Q317.284 1190.36 317.494 1190.39 Q317.705 1190.41 317.869 1190.53 Q318.057 1190.65 318.057 1190.9 Q318.057 1191.56 317.752 1191.72 Q317.471 1191.86 316.628 1191.86 L312.506 1191.86 L309.625 1207.06 Q309.554 1207.51 309.25 1208.92 Q308.969 1210.3 308.289 1212.57 Q307.61 1214.86 306.931 1216.22 Q306.556 1217 306.064 1217.72 Q305.596 1218.47 304.917 1219.22 Q304.237 1219.97 303.347 1220.42 Q302.457 1220.88 301.52 1220.88 Q299.928 1220.88 298.686 1219.99 Q297.445 1219.1 297.445 1217.58 Q297.445 1216.29 298.241 1215.5 Q299.061 1214.7 300.068 1214.7 Q300.794 1214.7 301.31 1215.15 Q301.848 1215.59 301.848 1216.36 Q301.848 1216.69 301.731 1217.07 Q301.614 1217.44 301.356 1217.86 Q301.099 1218.31 300.537 1218.61 Q299.974 1218.92 299.202 1218.96 Q300.115 1219.83 301.52 1219.83 Q301.965 1219.83 302.364 1219.64 Q302.762 1219.48 303.09 1219.06 Q303.441 1218.64 303.699 1218.21 Q303.956 1217.82 304.214 1217.04 Q304.472 1216.29 304.636 1215.73 Q304.8 1215.17 305.01 1214.16 Q305.245 1213.15 305.362 1212.55 Q305.479 1211.96 305.69 1210.81 L309.273 1191.86 L306.111 1191.86 Q305.549 1191.86 305.315 1191.84 Q305.104 1191.82 304.94 1191.7 Q304.776 1191.56 304.776 1191.28 Q304.776 1190.83 304.963 1190.65 Q305.174 1190.43 305.409 1190.41 Q305.643 1190.36 306.205 1190.36 L309.531 1190.36 Q310.655 1184.44 311.1 1182.85 Q311.615 1181.16 312.412 1179.99 Q313.208 1178.79 314.098 1178.23 Q314.988 1177.67 315.714 1177.46 Q316.464 1177.22 317.19 1177.22 Q318.83 1177.22 320.094 1178.11 Q321.359 1178.98 321.359 1180.53 Z"
     fill="#000000"
     fill-rule="nonzero"
     fill-opacity="1"
     id="path61" />
  <polyline
     clip-path="url(#clip720)"
     style="stroke:#3da44d; stroke-linecap:round; stroke-linejoin:round; stroke-width:8; stroke-opacity:1; fill:none"
     points="221.986,1258.55 286.665,1258.55 "
     id="polyline61" />
  <path
     clip-path="url(#clip720)"
     d="M303.147 1264.74 L303.147 1263.27 Q305.7 1263.27 306.285 1262.96 Q306.871 1262.63 306.871 1261.09 L306.871 1236.14 Q306.871 1234.36 306.239 1233.92 Q305.63 1233.47 303.147 1233.47 L303.147 1231.97 L310.033 1231.46 L310.033 1261.09 Q310.033 1262.63 310.642 1262.96 Q311.251 1263.27 313.781 1263.27 L313.781 1264.74 Q313.195 1264.74 311.977 1264.7 Q310.759 1264.65 309.869 1264.62 Q308.979 1264.6 308.464 1264.6 Q307.902 1264.6 303.147 1264.74 Z"
     fill="#000000"
     fill-rule="nonzero"
     fill-opacity="1"
     id="path62" />
  <path
     clip-path="url(#clip720)"
     d="M320.996 1262.17 Q317.834 1259.03 317.834 1254.48 Q317.834 1249.92 320.925 1246.59 Q324.04 1243.24 328.491 1243.24 Q332.847 1243.24 335.962 1246.57 Q339.101 1249.87 339.101 1254.48 Q339.101 1259 335.939 1262.14 Q332.8 1265.28 328.444 1265.28 Q324.181 1265.28 320.996 1262.17 M321.815 1254.08 Q321.815 1258.75 323.033 1260.85 Q324.907 1264.06 328.491 1264.06 Q330.271 1264.06 331.746 1263.1 Q333.245 1262.14 334.065 1260.53 Q335.119 1258.42 335.119 1254.08 Q335.119 1249.47 333.854 1247.43 Q331.981 1244.32 328.444 1244.32 Q326.898 1244.32 325.376 1245.14 Q323.877 1245.93 322.963 1247.53 Q321.815 1249.63 321.815 1254.08 Z"
     fill="#000000"
     fill-rule="nonzero"
     fill-opacity="1"
     id="path63" />
  <path
     clip-path="url(#clip720)"
     d="M339.856 1268.54 Q339.856 1266.99 341.027 1265.66 Q342.221 1264.32 344.282 1263.73 Q342.174 1262.4 342.174 1259.47 Q342.174 1257.22 343.65 1255.49 Q341.401 1253.62 341.401 1250.55 Q341.401 1247.71 343.65 1245.63 Q345.899 1243.54 349.178 1243.54 Q352.059 1243.54 354.26 1245.28 Q356.556 1243.03 359.343 1243.01 Q360.584 1243.01 361.17 1243.78 Q361.779 1244.55 361.779 1245.37 Q361.779 1246.1 361.31 1246.45 Q360.865 1246.8 360.397 1246.8 Q359.811 1246.8 359.39 1246.43 Q358.992 1246.03 358.992 1245.42 Q358.992 1244.41 359.765 1244.11 Q359.624 1244.06 359.296 1244.06 Q356.954 1244.06 354.963 1245.93 Q356.93 1247.76 356.93 1250.59 Q356.93 1253.43 354.682 1255.51 Q352.433 1257.6 349.178 1257.6 Q346.484 1257.6 344.423 1256.1 Q343.603 1257.06 343.603 1258.37 Q343.603 1259.57 344.329 1260.5 Q345.055 1261.44 346.156 1261.58 Q346.484 1261.63 349.74 1261.63 Q351.66 1261.63 352.714 1261.67 Q353.768 1261.72 355.267 1262.05 Q356.79 1262.35 357.984 1262.96 Q361.1 1264.7 361.123 1268.44 Q361.123 1271.18 357.961 1272.89 Q354.822 1274.63 350.466 1274.63 Q346.062 1274.63 342.947 1272.87 Q339.856 1271.14 339.856 1268.54 M342.362 1268.54 Q342.362 1270.5 344.681 1272 Q346.999 1273.53 350.513 1273.53 Q353.956 1273.53 356.275 1272.03 Q358.617 1270.55 358.617 1268.54 Q358.617 1267.11 357.797 1266.19 Q356.977 1265.28 355.291 1264.91 Q353.628 1264.55 352.457 1264.48 Q351.286 1264.41 349.131 1264.41 L346.297 1264.41 Q344.657 1264.51 343.509 1265.7 Q342.362 1266.9 342.362 1268.54 M344.985 1250.59 Q344.985 1256.5 349.178 1256.5 Q351.286 1256.5 352.574 1254.58 Q353.347 1253.29 353.347 1250.55 Q353.347 1244.65 349.178 1244.65 Q347.07 1244.65 345.758 1246.57 Q344.985 1247.85 344.985 1250.59 Z"
     fill="#000000"
     fill-rule="nonzero"
     fill-opacity="1"
     id="path64" />
  <path
     clip-path="url(#clip720)"
     d="M369.308 1252.75 Q369.308 1244.65 372.329 1238.11 Q373.617 1235.37 375.421 1233.07 Q377.224 1230.78 378.419 1229.77 Q379.613 1228.77 379.941 1228.77 Q380.41 1228.77 380.433 1229.23 Q380.433 1229.47 379.801 1230.05 Q372.071 1237.92 372.095 1252.75 Q372.095 1267.62 379.613 1275.19 Q380.433 1276.01 380.433 1276.27 Q380.433 1276.73 379.941 1276.73 Q379.613 1276.73 378.466 1275.77 Q377.318 1274.81 375.538 1272.61 Q373.758 1270.41 372.47 1267.72 Q369.308 1261.18 369.308 1252.75 Z"
     fill="#000000"
     fill-rule="nonzero"
     fill-opacity="1"
     id="path65" />
  <path
     clip-path="url(#clip720)"
     d="M409.74 1245.79 Q409.74 1245.82 409.6 1246.66 L404.259 1267.95 Q403.978 1269.08 403.182 1270.2 Q402.409 1271.35 401.168 1272.33 Q399.95 1273.34 398.076 1273.95 Q396.225 1274.58 394.094 1274.58 Q390.698 1274.58 389.199 1273.85 Q387.723 1273.15 387.723 1271.65 Q387.723 1270.34 388.543 1269.59 Q389.363 1268.86 390.3 1268.86 Q391.19 1268.86 391.658 1269.38 Q392.126 1269.89 392.126 1270.55 Q392.126 1271.28 391.635 1272 Q391.143 1272.75 390.159 1273.03 Q391.728 1273.53 394 1273.53 Q398.802 1273.53 400.863 1268.44 Q400.91 1268.37 400.91 1268.35 L402.503 1262 L402.432 1261.95 Q402.034 1262.42 401.402 1262.96 Q400.793 1263.48 399.481 1264.11 Q398.169 1264.74 396.881 1264.74 Q394.188 1264.74 392.337 1262.68 Q390.51 1260.6 390.51 1257.15 Q390.51 1254.65 391.517 1252.14 Q392.548 1249.61 394.141 1247.76 Q395.757 1245.89 397.818 1244.72 Q399.903 1243.54 401.917 1243.54 Q403.322 1243.54 404.517 1244.39 Q405.712 1245.21 406.367 1246.57 Q406.484 1245.44 407.117 1244.97 Q407.773 1244.51 408.335 1244.51 Q408.967 1244.51 409.342 1244.86 Q409.74 1245.18 409.74 1245.79 M405.805 1248.72 Q405.805 1248.58 405.712 1248.21 Q405.618 1247.81 405.337 1247.18 Q405.079 1246.54 404.681 1245.98 Q404.283 1245.42 403.557 1245.02 Q402.854 1244.6 401.964 1244.6 Q400.512 1244.6 399.06 1245.82 Q397.607 1247.01 396.6 1248.86 Q395.663 1250.64 394.773 1254.08 Q393.907 1257.53 393.907 1259.28 Q393.907 1261.02 394.656 1262.35 Q395.406 1263.69 397.022 1263.69 Q398.896 1263.69 400.91 1261.95 Q402.994 1260.15 403.346 1258.61 L405.665 1249.45 Q405.805 1248.89 405.805 1248.72 Z"
     fill="#000000"
     fill-rule="nonzero"
     fill-opacity="1"
     id="path66" />
  <path
     clip-path="url(#clip720)"
     d="M414.64 1282.45 L414.64 1281.41 L424.953 1265.66 Q425.215 1265.25 425.625 1265.26 Q426.002 1265.26 426.084 1265.41 Q426.166 1265.56 426.166 1266.13 L426.166 1281.41 L429.527 1281.41 L429.527 1282.45 L426.166 1282.45 L426.166 1285.37 Q426.166 1286.33 426.56 1286.64 Q426.97 1286.96 428.707 1286.96 L429.412 1286.96 L429.412 1287.99 Q428.035 1287.89 424.854 1287.89 Q421.69 1287.89 420.313 1287.99 L420.313 1286.96 L421.018 1286.96 Q422.756 1286.96 423.166 1286.66 Q423.576 1286.35 423.576 1285.37 L423.576 1282.45 L414.64 1282.45 M415.591 1281.41 L423.772 1281.41 L423.772 1268.89 L415.591 1281.41 Z"
     fill="#000000"
     fill-rule="nonzero"
     fill-opacity="1"
     id="path67" />
  <path
     clip-path="url(#clip720)"
     d="M434.493 1276.27 Q434.493 1276.03 435.102 1275.45 Q442.831 1267.58 442.831 1252.75 Q442.831 1237.88 435.406 1230.36 Q434.493 1229.49 434.493 1229.23 Q434.493 1228.77 434.961 1228.77 Q435.289 1228.77 436.437 1229.73 Q437.608 1230.69 439.365 1232.89 Q441.145 1235.09 442.456 1237.78 Q445.618 1244.32 445.618 1252.75 Q445.618 1260.85 442.597 1267.39 Q441.309 1270.13 439.505 1272.42 Q437.702 1274.72 436.507 1275.73 Q435.313 1276.73 434.961 1276.73 Q434.493 1276.73 434.493 1276.27 Z"
     fill="#000000"
     fill-rule="nonzero"
     fill-opacity="1"
     id="path68" />
  <polyline
     clip-path="url(#clip720)"
     style="stroke:#c271d2; stroke-linecap:round; stroke-linejoin:round; stroke-width:8; stroke-opacity:1; fill:none"
     points="221.986,1317.93 286.665,1317.93 "
     id="polyline68" />
  <path
     clip-path="url(#clip720)"
     d="M303.147 1323.87 L303.147 1322.39 Q305.7 1322.39 306.285 1322.09 Q306.871 1321.76 306.871 1320.21 L306.871 1295.27 Q306.871 1293.49 306.239 1293.04 Q305.63 1292.6 303.147 1292.6 L303.147 1291.1 L310.033 1290.59 L310.033 1320.21 Q310.033 1321.76 310.642 1322.09 Q311.251 1322.39 313.781 1322.39 L313.781 1323.87 Q313.195 1323.87 311.977 1323.82 Q310.759 1323.77 309.869 1323.75 Q308.979 1323.73 308.464 1323.73 Q307.902 1323.73 303.147 1323.87 Z"
     fill="#000000"
     fill-rule="nonzero"
     fill-opacity="1"
     id="path69" />
  <path
     clip-path="url(#clip720)"
     d="M320.996 1321.29 Q317.834 1318.15 317.834 1313.61 Q317.834 1309.04 320.925 1305.72 Q324.04 1302.37 328.491 1302.37 Q332.847 1302.37 335.962 1305.69 Q339.101 1309 339.101 1313.61 Q339.101 1318.13 335.939 1321.27 Q332.8 1324.41 328.444 1324.41 Q324.181 1324.41 320.996 1321.29 M321.815 1313.21 Q321.815 1317.87 323.033 1319.98 Q324.907 1323.19 328.491 1323.19 Q330.271 1323.19 331.746 1322.23 Q333.245 1321.27 334.065 1319.65 Q335.119 1317.54 335.119 1313.21 Q335.119 1308.6 333.854 1306.56 Q331.981 1303.44 328.444 1303.44 Q326.898 1303.44 325.376 1304.26 Q323.877 1305.06 322.963 1306.65 Q321.815 1308.76 321.815 1313.21 Z"
     fill="#000000"
     fill-rule="nonzero"
     fill-opacity="1"
     id="path70" />
  <path
     clip-path="url(#clip720)"
     d="M339.856 1327.66 Q339.856 1326.12 341.027 1324.78 Q342.221 1323.45 344.282 1322.86 Q342.174 1321.53 342.174 1318.6 Q342.174 1316.35 343.65 1314.62 Q341.401 1312.74 341.401 1309.67 Q341.401 1306.84 343.65 1304.76 Q345.899 1302.67 349.178 1302.67 Q352.059 1302.67 354.26 1304.4 Q356.556 1302.16 359.343 1302.13 Q360.584 1302.13 361.17 1302.91 Q361.779 1303.68 361.779 1304.5 Q361.779 1305.22 361.31 1305.58 Q360.865 1305.93 360.397 1305.93 Q359.811 1305.93 359.39 1305.55 Q358.992 1305.15 358.992 1304.54 Q358.992 1303.54 359.765 1303.23 Q359.624 1303.19 359.296 1303.19 Q356.954 1303.19 354.963 1305.06 Q356.93 1306.89 356.93 1309.72 Q356.93 1312.56 354.682 1314.64 Q352.433 1316.72 349.178 1316.72 Q346.484 1316.72 344.423 1315.23 Q343.603 1316.19 343.603 1317.5 Q343.603 1318.69 344.329 1319.63 Q345.055 1320.57 346.156 1320.71 Q346.484 1320.75 349.74 1320.75 Q351.66 1320.75 352.714 1320.8 Q353.768 1320.85 355.267 1321.17 Q356.79 1321.48 357.984 1322.09 Q361.1 1323.82 361.123 1327.57 Q361.123 1330.31 357.961 1332.02 Q354.822 1333.75 350.466 1333.75 Q346.062 1333.75 342.947 1332 Q339.856 1330.26 339.856 1327.66 M342.362 1327.66 Q342.362 1329.63 344.681 1331.13 Q346.999 1332.65 350.513 1332.65 Q353.956 1332.65 356.275 1331.15 Q358.617 1329.68 358.617 1327.66 Q358.617 1326.23 357.797 1325.32 Q356.977 1324.41 355.291 1324.03 Q353.628 1323.68 352.457 1323.61 Q351.286 1323.54 349.131 1323.54 L346.297 1323.54 Q344.657 1323.63 343.509 1324.83 Q342.362 1326.02 342.362 1327.66 M344.985 1309.72 Q344.985 1315.62 349.178 1315.62 Q351.286 1315.62 352.574 1313.7 Q353.347 1312.41 353.347 1309.67 Q353.347 1303.77 349.178 1303.77 Q347.07 1303.77 345.758 1305.69 Q344.985 1306.98 344.985 1309.72 Z"
     fill="#000000"
     fill-rule="nonzero"
     fill-opacity="1"
     id="path71" />
  <path
     clip-path="url(#clip720)"
     d="M369.308 1311.88 Q369.308 1303.77 372.329 1297.24 Q373.617 1294.5 375.421 1292.2 Q377.224 1289.91 378.419 1288.9 Q379.613 1287.89 379.941 1287.89 Q380.41 1287.89 380.433 1288.36 Q380.433 1288.59 379.801 1289.18 Q372.071 1297.05 372.095 1311.88 Q372.095 1326.75 379.613 1334.31 Q380.433 1335.13 380.433 1335.39 Q380.433 1335.86 379.941 1335.86 Q379.613 1335.86 378.466 1334.9 Q377.318 1333.94 375.538 1331.74 Q373.758 1329.54 372.47 1326.84 Q369.308 1320.31 369.308 1311.88 Z"
     fill="#000000"
     fill-rule="nonzero"
     fill-opacity="1"
     id="path72" />
  <path
     clip-path="url(#clip720)"
     d="M409.74 1304.92 Q409.74 1304.94 409.6 1305.79 L404.259 1327.08 Q403.978 1328.2 403.182 1329.33 Q402.409 1330.47 401.168 1331.46 Q399.95 1332.46 398.076 1333.07 Q396.225 1333.71 394.094 1333.71 Q390.698 1333.71 389.199 1332.98 Q387.723 1332.28 387.723 1330.78 Q387.723 1329.47 388.543 1328.72 Q389.363 1327.99 390.3 1327.99 Q391.19 1327.99 391.658 1328.51 Q392.126 1329.02 392.126 1329.68 Q392.126 1330.4 391.635 1331.13 Q391.143 1331.88 390.159 1332.16 Q391.728 1332.65 394 1332.65 Q398.802 1332.65 400.863 1327.57 Q400.91 1327.5 400.91 1327.48 L402.503 1321.13 L402.432 1321.08 Q402.034 1321.55 401.402 1322.09 Q400.793 1322.6 399.481 1323.24 Q398.169 1323.87 396.881 1323.87 Q394.188 1323.87 392.337 1321.81 Q390.51 1319.72 390.51 1316.28 Q390.51 1313.77 391.517 1311.27 Q392.548 1308.74 394.141 1306.89 Q395.757 1305.01 397.818 1303.84 Q399.903 1302.67 401.917 1302.67 Q403.322 1302.67 404.517 1303.51 Q405.712 1304.33 406.367 1305.69 Q406.484 1304.57 407.117 1304.1 Q407.773 1303.63 408.335 1303.63 Q408.967 1303.63 409.342 1303.98 Q409.74 1304.31 409.74 1304.92 M405.805 1307.85 Q405.805 1307.71 405.712 1307.33 Q405.618 1306.93 405.337 1306.3 Q405.079 1305.67 404.681 1305.11 Q404.283 1304.54 403.557 1304.15 Q402.854 1303.73 401.964 1303.73 Q400.512 1303.73 399.06 1304.94 Q397.607 1306.14 396.6 1307.99 Q395.663 1309.77 394.773 1313.21 Q393.907 1316.65 393.907 1318.41 Q393.907 1320.14 394.656 1321.48 Q395.406 1322.81 397.022 1322.81 Q398.896 1322.81 400.91 1321.08 Q402.994 1319.28 403.346 1317.73 L405.665 1308.57 Q405.805 1308.01 405.805 1307.85 Z"
     fill="#000000"
     fill-rule="nonzero"
     fill-opacity="1"
     id="path73" />
  <path
     clip-path="url(#clip720)"
     d="M414.64 1336.28 Q414.64 1331 417.329 1327.77 Q420.018 1324.53 423.477 1324.53 Q425.494 1324.53 426.609 1325.56 Q427.74 1326.58 427.74 1328.15 Q427.74 1329.02 427.232 1329.4 Q426.724 1329.77 426.199 1329.77 Q425.592 1329.77 425.117 1329.36 Q424.641 1328.95 424.641 1328.22 Q424.641 1326.71 426.494 1326.71 Q425.625 1325.36 423.543 1325.36 Q422.903 1325.36 422.248 1325.56 Q421.592 1325.74 420.739 1326.36 Q419.887 1326.99 419.231 1327.97 Q418.575 1328.95 418.116 1330.81 Q417.657 1332.66 417.657 1335.07 L417.657 1335.87 Q419.034 1332.55 421.854 1332.56 Q424.674 1332.56 426.625 1334.71 Q428.576 1336.86 428.576 1340.04 Q428.576 1343.3 426.543 1345.47 Q424.51 1347.63 421.657 1347.63 Q420.378 1347.63 419.214 1347.09 Q418.067 1346.56 416.985 1345.35 Q415.919 1344.14 415.279 1341.81 Q414.64 1339.48 414.64 1336.28 M417.722 1339.3 Q417.722 1342.6 418.329 1344.17 Q418.427 1344.43 418.64 1344.79 Q418.87 1345.15 419.247 1345.63 Q419.641 1346.09 420.28 1346.4 Q420.919 1346.7 421.657 1346.7 Q423.904 1346.7 424.986 1344.51 Q425.559 1343.3 425.559 1340.01 Q425.559 1336.64 424.953 1335.41 Q423.92 1333.33 421.821 1333.33 Q420.411 1333.33 419.427 1334.3 Q418.46 1335.27 418.083 1336.56 Q417.722 1337.86 417.722 1339.3 Z"
     fill="#000000"
     fill-rule="nonzero"
     fill-opacity="1"
     id="path74" />
  <path
     clip-path="url(#clip720)"
     d="M433.552 1335.39 Q433.552 1335.16 434.161 1334.57 Q441.891 1326.7 441.891 1311.88 Q441.891 1297 434.466 1289.48 Q433.552 1288.62 433.552 1288.36 Q433.552 1287.89 434.021 1287.89 Q434.348 1287.89 435.496 1288.85 Q436.667 1289.81 438.424 1292.01 Q440.204 1294.22 441.516 1296.91 Q444.678 1303.44 444.678 1311.88 Q444.678 1319.98 441.656 1326.52 Q440.368 1329.26 438.565 1331.55 Q436.761 1333.85 435.566 1334.85 Q434.372 1335.86 434.021 1335.86 Q433.552 1335.86 433.552 1335.39 Z"
     fill="#000000"
     fill-rule="nonzero"
     fill-opacity="1"
     id="path75" />
  <defs
     id="defs76">
    <clipPath
       id="clip723">
      <rect
         x="1382"
         y="47"
         width="971"
         height="1377"
         id="rect76" />
    </clipPath>
  </defs>
  <polyline
     clip-path="url(#clip723)"
     style="stroke:#000000; stroke-linecap:round; stroke-linejoin:round; stroke-width:2; stroke-opacity:0.1; fill:none"
     points="1382.57,1423.18 1382.57,47.2441 "
     id="polyline76" />
  <polyline
     clip-path="url(#clip723)"
     style="stroke:#000000; stroke-linecap:round; stroke-linejoin:round; stroke-width:2; stroke-opacity:0.1; fill:none"
     points="1625.12,1423.18 1625.12,47.2441 "
     id="polyline77" />
  <polyline
     clip-path="url(#clip723)"
     style="stroke:#000000; stroke-linecap:round; stroke-linejoin:round; stroke-width:2; stroke-opacity:0.1; fill:none"
     points="1867.66,1423.18 1867.66,47.2441 "
     id="polyline78" />
  <polyline
     clip-path="url(#clip723)"
     style="stroke:#000000; stroke-linecap:round; stroke-linejoin:round; stroke-width:2; stroke-opacity:0.1; fill:none"
     points="2110.21,1423.18 2110.21,47.2441 "
     id="polyline79" />
  <polyline
     clip-path="url(#clip723)"
     style="stroke:#000000; stroke-linecap:round; stroke-linejoin:round; stroke-width:2; stroke-opacity:0.1; fill:none"
     points="2352.76,1423.18 2352.76,47.2441 "
     id="polyline80" />
  <polyline
     clip-path="url(#clip723)"
     style="stroke:#000000; stroke-linecap:round; stroke-linejoin:round; stroke-width:2; stroke-opacity:0.1; fill:none"
     points="1382.57,1384.24 2352.76,1384.24 "
     id="polyline81" />
  <polyline
     clip-path="url(#clip723)"
     style="stroke:#000000; stroke-linecap:round; stroke-linejoin:round; stroke-width:2; stroke-opacity:0.1; fill:none"
     points="1382.57,1059.73 2352.76,1059.73 "
     id="polyline82" />
  <polyline
     clip-path="url(#clip723)"
     style="stroke:#000000; stroke-linecap:round; stroke-linejoin:round; stroke-width:2; stroke-opacity:0.1; fill:none"
     points="1382.57,735.212 2352.76,735.212 "
     id="polyline83" />
  <polyline
     clip-path="url(#clip723)"
     style="stroke:#000000; stroke-linecap:round; stroke-linejoin:round; stroke-width:2; stroke-opacity:0.1; fill:none"
     points="1382.57,410.699 2352.76,410.699 "
     id="polyline84" />
  <polyline
     clip-path="url(#clip723)"
     style="stroke:#000000; stroke-linecap:round; stroke-linejoin:round; stroke-width:2; stroke-opacity:0.1; fill:none"
     points="1382.57,86.1857 2352.76,86.1857 "
     id="polyline85" />
  <polyline
     clip-path="url(#clip720)"
     style="stroke:#000000; stroke-linecap:round; stroke-linejoin:round; stroke-width:4; stroke-opacity:1; fill:none"
     points="1382.57,1423.18 2352.76,1423.18 "
     id="polyline86" />
  <polyline
     clip-path="url(#clip720)"
     style="stroke:#000000; stroke-linecap:round; stroke-linejoin:round; stroke-width:4; stroke-opacity:1; fill:none"
     points="1382.57,1423.18 1382.57,1404.28 "
     id="polyline87" />
  <polyline
     clip-path="url(#clip720)"
     style="stroke:#000000; stroke-linecap:round; stroke-linejoin:round; stroke-width:4; stroke-opacity:1; fill:none"
     points="1625.12,1423.18 1625.12,1404.28 "
     id="polyline88" />
  <polyline
     clip-path="url(#clip720)"
     style="stroke:#000000; stroke-linecap:round; stroke-linejoin:round; stroke-width:4; stroke-opacity:1; fill:none"
     points="1867.66,1423.18 1867.66,1404.28 "
     id="polyline89" />
  <polyline
     clip-path="url(#clip720)"
     style="stroke:#000000; stroke-linecap:round; stroke-linejoin:round; stroke-width:4; stroke-opacity:1; fill:none"
     points="2110.21,1423.18 2110.21,1404.28 "
     id="polyline90" />
  <polyline
     clip-path="url(#clip720)"
     style="stroke:#000000; stroke-linecap:round; stroke-linejoin:round; stroke-width:4; stroke-opacity:1; fill:none"
     points="2352.76,1423.18 2352.76,1404.28 "
     id="polyline91" />
  <path
     clip-path="url(#clip720)"
     d="M1336.63 1468.75 L1366.31 1468.75 L1366.31 1472.69 L1336.63 1472.69 L1336.63 1468.75 Z"
     fill="#000000"
     fill-rule="nonzero"
     fill-opacity="1"
     id="path91" />
  <path
     clip-path="url(#clip720)"
     d="M1377.21 1481.64 L1384.85 1481.64 L1384.85 1455.28 L1376.54 1456.95 L1376.54 1452.69 L1384.8 1451.02 L1389.48 1451.02 L1389.48 1481.64 L1397.12 1481.64 L1397.12 1485.58 L1377.21 1485.58 L1377.21 1481.64 Z"
     fill="#000000"
     fill-rule="nonzero"
     fill-opacity="1"
     id="path92" />
  <path
     clip-path="url(#clip720)"
     d="M1416.56 1454.1 Q1412.95 1454.1 1411.12 1457.66 Q1409.32 1461.2 1409.32 1468.33 Q1409.32 1475.44 1411.12 1479.01 Q1412.95 1482.55 1416.56 1482.55 Q1420.2 1482.55 1422 1479.01 Q1423.83 1475.44 1423.83 1468.33 Q1423.83 1461.2 1422 1457.66 Q1420.2 1454.1 1416.56 1454.1 M1416.56 1450.39 Q1422.37 1450.39 1425.43 1455 Q1428.51 1459.58 1428.51 1468.33 Q1428.51 1477.06 1425.43 1481.67 Q1422.37 1486.25 1416.56 1486.25 Q1410.75 1486.25 1407.67 1481.67 Q1404.62 1477.06 1404.62 1468.33 Q1404.62 1459.58 1407.67 1455 Q1410.75 1450.39 1416.56 1450.39 Z"
     fill="#000000"
     fill-rule="nonzero"
     fill-opacity="1"
     id="path93" />
  <path
     clip-path="url(#clip720)"
     d="M1594.76 1468.75 L1624.43 1468.75 L1624.43 1472.69 L1594.76 1472.69 L1594.76 1468.75 Z"
     fill="#000000"
     fill-rule="nonzero"
     fill-opacity="1"
     id="path94" />
  <path
     clip-path="url(#clip720)"
     d="M1634.57 1451.02 L1652.93 1451.02 L1652.93 1454.96 L1638.86 1454.96 L1638.86 1463.43 Q1639.87 1463.08 1640.89 1462.92 Q1641.91 1462.73 1642.93 1462.73 Q1648.72 1462.73 1652.1 1465.9 Q1655.48 1469.08 1655.48 1474.49 Q1655.48 1480.07 1652 1483.17 Q1648.53 1486.25 1642.21 1486.25 Q1640.04 1486.25 1637.77 1485.88 Q1635.52 1485.51 1633.11 1484.77 L1633.11 1480.07 Q1635.2 1481.2 1637.42 1481.76 Q1639.64 1482.32 1642.12 1482.32 Q1646.12 1482.32 1648.46 1480.21 Q1650.8 1478.1 1650.8 1474.49 Q1650.8 1470.88 1648.46 1468.77 Q1646.12 1466.67 1642.12 1466.67 Q1640.24 1466.67 1638.37 1467.08 Q1636.52 1467.5 1634.57 1468.38 L1634.57 1451.02 Z"
     fill="#000000"
     fill-rule="nonzero"
     fill-opacity="1"
     id="path95" />
  <path
     clip-path="url(#clip720)"
     d="M1867.66 1454.1 Q1864.05 1454.1 1862.22 1457.66 Q1860.42 1461.2 1860.42 1468.33 Q1860.42 1475.44 1862.22 1479.01 Q1864.05 1482.55 1867.66 1482.55 Q1871.3 1482.55 1873.1 1479.01 Q1874.93 1475.44 1874.93 1468.33 Q1874.93 1461.2 1873.1 1457.66 Q1871.3 1454.1 1867.66 1454.1 M1867.66 1450.39 Q1873.47 1450.39 1876.53 1455 Q1879.61 1459.58 1879.61 1468.33 Q1879.61 1477.06 1876.53 1481.67 Q1873.47 1486.25 1867.66 1486.25 Q1861.85 1486.25 1858.77 1481.67 Q1855.72 1477.06 1855.72 1468.33 Q1855.72 1459.58 1858.77 1455 Q1861.85 1450.39 1867.66 1450.39 Z"
     fill="#000000"
     fill-rule="nonzero"
     fill-opacity="1"
     id="path96" />
  <path
     clip-path="url(#clip720)"
     d="M2100.49 1451.02 L2118.84 1451.02 L2118.84 1454.96 L2104.77 1454.96 L2104.77 1463.43 Q2105.79 1463.08 2106.81 1462.92 Q2107.83 1462.73 2108.84 1462.73 Q2114.63 1462.73 2118.01 1465.9 Q2121.39 1469.08 2121.39 1474.49 Q2121.39 1480.07 2117.92 1483.17 Q2114.45 1486.25 2108.13 1486.25 Q2105.95 1486.25 2103.68 1485.88 Q2101.44 1485.51 2099.03 1484.77 L2099.03 1480.07 Q2101.11 1481.2 2103.33 1481.76 Q2105.56 1482.32 2108.03 1482.32 Q2112.04 1482.32 2114.38 1480.21 Q2116.71 1478.1 2116.71 1474.49 Q2116.71 1470.88 2114.38 1468.77 Q2112.04 1466.67 2108.03 1466.67 Q2106.16 1466.67 2104.28 1467.08 Q2102.43 1467.5 2100.49 1468.38 L2100.49 1451.02 Z"
     fill="#000000"
     fill-rule="nonzero"
     fill-opacity="1"
     id="path97" />
  <path
     clip-path="url(#clip720)"
     d="M2327.44 1481.64 L2335.08 1481.64 L2335.08 1455.28 L2326.77 1456.95 L2326.77 1452.69 L2335.04 1451.02 L2339.71 1451.02 L2339.71 1481.64 L2347.35 1481.64 L2347.35 1485.58 L2327.44 1485.58 L2327.44 1481.64 Z"
     fill="#000000"
     fill-rule="nonzero"
     fill-opacity="1"
     id="path98" />
  <path
     clip-path="url(#clip720)"
     d="M2366.8 1454.1 Q2363.18 1454.1 2361.36 1457.66 Q2359.55 1461.2 2359.55 1468.33 Q2359.55 1475.44 2361.36 1479.01 Q2363.18 1482.55 2366.8 1482.55 Q2370.43 1482.55 2372.23 1479.01 Q2374.06 1475.44 2374.06 1468.33 Q2374.06 1461.2 2372.23 1457.66 Q2370.43 1454.1 2366.8 1454.1 M2366.8 1450.39 Q2372.61 1450.39 2375.66 1455 Q2378.74 1459.58 2378.74 1468.33 Q2378.74 1477.06 2375.66 1481.67 Q2372.61 1486.25 2366.8 1486.25 Q2360.99 1486.25 2357.91 1481.67 Q2354.85 1477.06 2354.85 1468.33 Q2354.85 1459.58 2357.91 1455 Q2360.99 1450.39 2366.8 1450.39 Z"
     fill="#000000"
     fill-rule="nonzero"
     fill-opacity="1"
     id="path99" />
  <path
     clip-path="url(#clip720)"
     d="M1881.84 1528.8 Q1881.84 1530.61 1880.71 1531.64 Q1879.58 1532.64 1878.29 1532.64 Q1877.07 1532.64 1876.43 1531.93 Q1875.78 1531.22 1875.78 1530.32 Q1875.78 1529.09 1876.68 1528.03 Q1877.59 1526.97 1878.94 1526.74 Q1877.62 1525.91 1875.65 1525.91 Q1874.36 1525.91 1873.24 1526.58 Q1872.14 1527.26 1871.47 1528.13 Q1870.82 1529 1870.24 1530.25 Q1869.69 1531.48 1869.47 1532.22 Q1869.28 1532.93 1869.12 1533.7 L1866.86 1542.72 Q1865.77 1547 1865.77 1548.51 Q1865.77 1550.38 1866.67 1551.64 Q1867.57 1552.86 1869.37 1552.86 Q1870.08 1552.86 1870.89 1552.67 Q1871.69 1552.44 1872.72 1551.86 Q1873.79 1551.25 1874.72 1550.35 Q1875.69 1549.42 1876.62 1547.84 Q1877.55 1546.26 1878.17 1544.23 Q1878.36 1543.52 1879 1543.52 Q1879.81 1543.52 1879.81 1544.17 Q1879.81 1544.71 1879.36 1545.87 Q1878.94 1547 1878 1548.48 Q1877.1 1549.93 1875.91 1551.25 Q1874.72 1552.54 1872.95 1553.44 Q1871.18 1554.34 1869.24 1554.34 Q1866.47 1554.34 1864.64 1552.86 Q1862.8 1551.38 1862.13 1549.32 Q1861.97 1549.61 1861.74 1550 Q1861.51 1550.38 1860.84 1551.25 Q1860.19 1552.09 1859.45 1552.73 Q1858.71 1553.34 1857.55 1553.83 Q1856.43 1554.34 1855.2 1554.34 Q1853.66 1554.34 1852.27 1553.89 Q1850.92 1553.44 1849.95 1552.41 Q1848.99 1551.38 1848.99 1549.96 Q1848.99 1548.38 1850.05 1547.29 Q1851.14 1546.16 1852.63 1546.16 Q1853.56 1546.16 1854.3 1546.71 Q1855.07 1547.26 1855.07 1548.45 Q1855.07 1549.77 1854.17 1550.77 Q1853.27 1551.77 1851.98 1552.02 Q1853.3 1552.86 1855.27 1552.86 Q1857.39 1552.86 1859.07 1550.99 Q1860.74 1549.13 1861.55 1546 Q1863.54 1538.5 1864.32 1535.15 Q1865.09 1531.77 1865.09 1530.32 Q1865.09 1528.96 1864.74 1528.03 Q1864.38 1527.1 1863.77 1526.68 Q1863.19 1526.23 1862.64 1526.07 Q1862.13 1525.91 1861.55 1525.91 Q1860.58 1525.91 1859.49 1526.29 Q1858.42 1526.68 1857.13 1527.58 Q1855.88 1528.45 1854.69 1530.25 Q1853.5 1532.06 1852.69 1534.54 Q1852.53 1535.28 1851.82 1535.28 Q1851.05 1535.24 1851.05 1534.6 Q1851.05 1534.05 1851.47 1532.93 Q1851.92 1531.77 1852.82 1530.32 Q1853.75 1528.87 1854.94 1527.58 Q1856.17 1526.26 1857.94 1525.36 Q1859.74 1524.46 1861.68 1524.46 Q1862.55 1524.46 1863.38 1524.65 Q1864.25 1524.81 1865.28 1525.29 Q1866.35 1525.78 1867.28 1526.84 Q1868.21 1527.9 1868.79 1529.45 Q1869.18 1528.71 1869.69 1528 Q1870.24 1527.29 1871.08 1526.42 Q1871.95 1525.52 1873.14 1525 Q1874.36 1524.46 1875.72 1524.46 Q1877.04 1524.46 1878.33 1524.81 Q1879.61 1525.13 1880.71 1526.19 Q1881.84 1527.23 1881.84 1528.8 Z"
     fill="#000000"
     fill-rule="nonzero"
     fill-opacity="1"
     id="path100" />
  <polyline
     clip-path="url(#clip720)"
     style="stroke:#000000; stroke-linecap:round; stroke-linejoin:round; stroke-width:4; stroke-opacity:1; fill:none"
     points="1382.57,1423.18 1382.57,47.2441 "
     id="polyline100" />
  <polyline
     clip-path="url(#clip720)"
     style="stroke:#000000; stroke-linecap:round; stroke-linejoin:round; stroke-width:4; stroke-opacity:1; fill:none"
     points="1382.57,1384.24 1401.47,1384.24 "
     id="polyline101" />
  <polyline
     clip-path="url(#clip720)"
     style="stroke:#000000; stroke-linecap:round; stroke-linejoin:round; stroke-width:4; stroke-opacity:1; fill:none"
     points="1382.57,1059.73 1401.47,1059.73 "
     id="polyline102" />
  <polyline
     clip-path="url(#clip720)"
     style="stroke:#000000; stroke-linecap:round; stroke-linejoin:round; stroke-width:4; stroke-opacity:1; fill:none"
     points="1382.57,735.212 1401.47,735.212 "
     id="polyline103" />
  <polyline
     clip-path="url(#clip720)"
     style="stroke:#000000; stroke-linecap:round; stroke-linejoin:round; stroke-width:4; stroke-opacity:1; fill:none"
     points="1382.57,410.699 1401.47,410.699 "
     id="polyline104" />
  <polyline
     clip-path="url(#clip720)"
     style="stroke:#000000; stroke-linecap:round; stroke-linejoin:round; stroke-width:4; stroke-opacity:1; fill:none"
     points="1382.57,86.1857 1401.47,86.1857 "
     id="polyline105" />
  <path
     clip-path="url(#clip720)"
     d="M1259.23 1370.04 Q1255.62 1370.04 1253.79 1373.6 Q1251.99 1377.14 1251.99 1384.27 Q1251.99 1391.38 1253.79 1394.94 Q1255.62 1398.49 1259.23 1398.49 Q1262.87 1398.49 1264.67 1394.94 Q1266.5 1391.38 1266.5 1384.27 Q1266.5 1377.14 1264.67 1373.6 Q1262.87 1370.04 1259.23 1370.04 M1259.23 1366.33 Q1265.04 1366.33 1268.1 1370.94 Q1271.18 1375.52 1271.18 1384.27 Q1271.18 1393 1268.1 1397.61 Q1265.04 1402.19 1259.23 1402.19 Q1253.42 1402.19 1250.34 1397.61 Q1247.29 1393 1247.29 1384.27 Q1247.29 1375.52 1250.34 1370.94 Q1253.42 1366.33 1259.23 1366.33 Z"
     fill="#000000"
     fill-rule="nonzero"
     fill-opacity="1"
     id="path105" />
  <path
     clip-path="url(#clip720)"
     d="M1279.39 1395.64 L1284.28 1395.64 L1284.28 1401.52 L1279.39 1401.52 L1279.39 1395.64 Z"
     fill="#000000"
     fill-rule="nonzero"
     fill-opacity="1"
     id="path106" />
  <path
     clip-path="url(#clip720)"
     d="M1304.46 1370.04 Q1300.85 1370.04 1299.02 1373.6 Q1297.22 1377.14 1297.22 1384.27 Q1297.22 1391.38 1299.02 1394.94 Q1300.85 1398.49 1304.46 1398.49 Q1308.1 1398.49 1309.9 1394.94 Q1311.73 1391.38 1311.73 1384.27 Q1311.73 1377.14 1309.9 1373.6 Q1308.1 1370.04 1304.46 1370.04 M1304.46 1366.33 Q1310.27 1366.33 1313.33 1370.94 Q1316.41 1375.52 1316.41 1384.27 Q1316.41 1393 1313.33 1397.61 Q1310.27 1402.19 1304.46 1402.19 Q1298.65 1402.19 1295.58 1397.61 Q1292.52 1393 1292.52 1384.27 Q1292.52 1375.52 1295.58 1370.94 Q1298.65 1366.33 1304.46 1366.33 Z"
     fill="#000000"
     fill-rule="nonzero"
     fill-opacity="1"
     id="path107" />
  <path
     clip-path="url(#clip720)"
     d="M1334.63 1370.04 Q1331.01 1370.04 1329.19 1373.6 Q1327.38 1377.14 1327.38 1384.27 Q1327.38 1391.38 1329.19 1394.94 Q1331.01 1398.49 1334.63 1398.49 Q1338.26 1398.49 1340.07 1394.94 Q1341.89 1391.38 1341.89 1384.27 Q1341.89 1377.14 1340.07 1373.6 Q1338.26 1370.04 1334.63 1370.04 M1334.63 1366.33 Q1340.44 1366.33 1343.49 1370.94 Q1346.57 1375.52 1346.57 1384.27 Q1346.57 1393 1343.49 1397.61 Q1340.44 1402.19 1334.63 1402.19 Q1328.82 1402.19 1325.74 1397.61 Q1322.68 1393 1322.68 1384.27 Q1322.68 1375.52 1325.74 1370.94 Q1328.82 1366.33 1334.63 1366.33 Z"
     fill="#000000"
     fill-rule="nonzero"
     fill-opacity="1"
     id="path108" />
  <path
     clip-path="url(#clip720)"
     d="M1260.23 1045.52 Q1256.62 1045.52 1254.79 1049.09 Q1252.98 1052.63 1252.98 1059.76 Q1252.98 1066.87 1254.79 1070.43 Q1256.62 1073.97 1260.23 1073.97 Q1263.86 1073.97 1265.67 1070.43 Q1267.5 1066.87 1267.5 1059.76 Q1267.5 1052.63 1265.67 1049.09 Q1263.86 1045.52 1260.23 1045.52 M1260.23 1041.82 Q1266.04 1041.82 1269.09 1046.43 Q1272.17 1051.01 1272.17 1059.76 Q1272.17 1068.49 1269.09 1073.09 Q1266.04 1077.68 1260.23 1077.68 Q1254.42 1077.68 1251.34 1073.09 Q1248.28 1068.49 1248.28 1059.76 Q1248.28 1051.01 1251.34 1046.43 Q1254.42 1041.82 1260.23 1041.82 Z"
     fill="#000000"
     fill-rule="nonzero"
     fill-opacity="1"
     id="path109" />
  <path
     clip-path="url(#clip720)"
     d="M1280.39 1071.13 L1285.27 1071.13 L1285.27 1077.01 L1280.39 1077.01 L1280.39 1071.13 Z"
     fill="#000000"
     fill-rule="nonzero"
     fill-opacity="1"
     id="path110" />
  <path
     clip-path="url(#clip720)"
     d="M1299.49 1073.07 L1315.81 1073.07 L1315.81 1077.01 L1293.86 1077.01 L1293.86 1073.07 Q1296.52 1070.32 1301.11 1065.69 Q1305.71 1061.03 1306.89 1059.69 Q1309.14 1057.17 1310.02 1055.43 Q1310.92 1053.67 1310.92 1051.98 Q1310.92 1049.23 1308.98 1047.49 Q1307.06 1045.76 1303.95 1045.76 Q1301.76 1045.76 1299.3 1046.52 Q1296.87 1047.28 1294.09 1048.83 L1294.09 1044.11 Q1296.92 1042.98 1299.37 1042.4 Q1301.83 1041.82 1303.86 1041.82 Q1309.23 1041.82 1312.43 1044.51 Q1315.62 1047.19 1315.62 1051.68 Q1315.62 1053.81 1314.81 1055.73 Q1314.02 1057.63 1311.92 1060.22 Q1311.34 1060.89 1308.24 1064.11 Q1305.14 1067.31 1299.49 1073.07 Z"
     fill="#000000"
     fill-rule="nonzero"
     fill-opacity="1"
     id="path111" />
  <path
     clip-path="url(#clip720)"
     d="M1325.67 1042.45 L1344.02 1042.45 L1344.02 1046.38 L1329.95 1046.38 L1329.95 1054.85 Q1330.97 1054.51 1331.99 1054.34 Q1333.01 1054.16 1334.02 1054.16 Q1339.81 1054.16 1343.19 1057.33 Q1346.57 1060.5 1346.57 1065.92 Q1346.57 1071.5 1343.1 1074.6 Q1339.63 1077.68 1333.31 1077.68 Q1331.13 1077.68 1328.86 1077.31 Q1326.62 1076.94 1324.21 1076.19 L1324.21 1071.5 Q1326.29 1072.63 1328.51 1073.19 Q1330.74 1073.74 1333.21 1073.74 Q1337.22 1073.74 1339.56 1071.63 Q1341.89 1069.53 1341.89 1065.92 Q1341.89 1062.31 1339.56 1060.2 Q1337.22 1058.09 1333.21 1058.09 Q1331.34 1058.09 1329.46 1058.51 Q1327.61 1058.93 1325.67 1059.81 L1325.67 1042.45 Z"
     fill="#000000"
     fill-rule="nonzero"
     fill-opacity="1"
     id="path112" />
  <path
     clip-path="url(#clip720)"
     d="M1259.23 721.011 Q1255.62 721.011 1253.79 724.575 Q1251.99 728.117 1251.99 735.247 Q1251.99 742.353 1253.79 745.918 Q1255.62 749.46 1259.23 749.46 Q1262.87 749.46 1264.67 745.918 Q1266.5 742.353 1266.5 735.247 Q1266.5 728.117 1264.67 724.575 Q1262.87 721.011 1259.23 721.011 M1259.23 717.307 Q1265.04 717.307 1268.1 721.913 Q1271.18 726.497 1271.18 735.247 Q1271.18 743.973 1268.1 748.58 Q1265.04 753.163 1259.23 753.163 Q1253.42 753.163 1250.34 748.58 Q1247.29 743.973 1247.29 735.247 Q1247.29 726.497 1250.34 721.913 Q1253.42 717.307 1259.23 717.307 Z"
     fill="#000000"
     fill-rule="nonzero"
     fill-opacity="1"
     id="path113" />
  <path
     clip-path="url(#clip720)"
     d="M1279.39 746.612 L1284.28 746.612 L1284.28 752.492 L1279.39 752.492 L1279.39 746.612 Z"
     fill="#000000"
     fill-rule="nonzero"
     fill-opacity="1"
     id="path114" />
  <path
     clip-path="url(#clip720)"
     d="M1294.51 717.932 L1312.87 717.932 L1312.87 721.867 L1298.79 721.867 L1298.79 730.339 Q1299.81 729.992 1300.83 729.83 Q1301.85 729.645 1302.87 729.645 Q1308.65 729.645 1312.03 732.816 Q1315.41 735.987 1315.41 741.404 Q1315.41 746.983 1311.94 750.085 Q1308.47 753.163 1302.15 753.163 Q1299.97 753.163 1297.7 752.793 Q1295.46 752.423 1293.05 751.682 L1293.05 746.983 Q1295.14 748.117 1297.36 748.673 Q1299.58 749.228 1302.06 749.228 Q1306.06 749.228 1308.4 747.122 Q1310.74 745.015 1310.74 741.404 Q1310.74 737.793 1308.4 735.687 Q1306.06 733.58 1302.06 733.58 Q1300.18 733.58 1298.31 733.997 Q1296.45 734.413 1294.51 735.293 L1294.51 717.932 Z"
     fill="#000000"
     fill-rule="nonzero"
     fill-opacity="1"
     id="path115" />
  <path
     clip-path="url(#clip720)"
     d="M1334.63 721.011 Q1331.01 721.011 1329.19 724.575 Q1327.38 728.117 1327.38 735.247 Q1327.38 742.353 1329.19 745.918 Q1331.01 749.46 1334.63 749.46 Q1338.26 749.46 1340.07 745.918 Q1341.89 742.353 1341.89 735.247 Q1341.89 728.117 1340.07 724.575 Q1338.26 721.011 1334.63 721.011 M1334.63 717.307 Q1340.44 717.307 1343.49 721.913 Q1346.57 726.497 1346.57 735.247 Q1346.57 743.973 1343.49 748.58 Q1340.44 753.163 1334.63 753.163 Q1328.82 753.163 1325.74 748.58 Q1322.68 743.973 1322.68 735.247 Q1322.68 726.497 1325.74 721.913 Q1328.82 717.307 1334.63 717.307 Z"
     fill="#000000"
     fill-rule="nonzero"
     fill-opacity="1"
     id="path116" />
  <path
     clip-path="url(#clip720)"
     d="M1260.23 396.498 Q1256.62 396.498 1254.79 400.062 Q1252.98 403.604 1252.98 410.734 Q1252.98 417.84 1254.79 421.405 Q1256.62 424.946 1260.23 424.946 Q1263.86 424.946 1265.67 421.405 Q1267.5 417.84 1267.5 410.734 Q1267.5 403.604 1265.67 400.062 Q1263.86 396.498 1260.23 396.498 M1260.23 392.794 Q1266.04 392.794 1269.09 397.4 Q1272.17 401.984 1272.17 410.734 Q1272.17 419.46 1269.09 424.067 Q1266.04 428.65 1260.23 428.65 Q1254.42 428.65 1251.34 424.067 Q1248.28 419.46 1248.28 410.734 Q1248.28 401.984 1251.34 397.4 Q1254.42 392.794 1260.23 392.794 Z"
     fill="#000000"
     fill-rule="nonzero"
     fill-opacity="1"
     id="path117" />
  <path
     clip-path="url(#clip720)"
     d="M1280.39 422.099 L1285.27 422.099 L1285.27 427.979 L1280.39 427.979 L1280.39 422.099 Z"
     fill="#000000"
     fill-rule="nonzero"
     fill-opacity="1"
     id="path118" />
  <path
     clip-path="url(#clip720)"
     d="M1294.28 393.419 L1316.5 393.419 L1316.5 395.41 L1303.95 427.979 L1299.07 427.979 L1310.88 397.354 L1294.28 397.354 L1294.28 393.419 Z"
     fill="#000000"
     fill-rule="nonzero"
     fill-opacity="1"
     id="path119" />
  <path
     clip-path="url(#clip720)"
     d="M1325.67 393.419 L1344.02 393.419 L1344.02 397.354 L1329.95 397.354 L1329.95 405.826 Q1330.97 405.479 1331.99 405.317 Q1333.01 405.132 1334.02 405.132 Q1339.81 405.132 1343.19 408.303 Q1346.57 411.474 1346.57 416.891 Q1346.57 422.47 1343.1 425.571 Q1339.63 428.65 1333.31 428.65 Q1331.13 428.65 1328.86 428.28 Q1326.62 427.909 1324.21 427.169 L1324.21 422.47 Q1326.29 423.604 1328.51 424.159 Q1330.74 424.715 1333.21 424.715 Q1337.22 424.715 1339.56 422.608 Q1341.89 420.502 1341.89 416.891 Q1341.89 413.28 1339.56 411.173 Q1337.22 409.067 1333.21 409.067 Q1331.34 409.067 1329.46 409.484 Q1327.61 409.9 1325.67 410.78 L1325.67 393.419 Z"
     fill="#000000"
     fill-rule="nonzero"
     fill-opacity="1"
     id="path120" />
  <path
     clip-path="url(#clip720)"
     d="M1250.04 99.5305 L1257.68 99.5305 L1257.68 73.1649 L1249.37 74.8316 L1249.37 70.5723 L1257.64 68.9057 L1262.31 68.9057 L1262.31 99.5305 L1269.95 99.5305 L1269.95 103.466 L1250.04 103.466 L1250.04 99.5305 Z"
     fill="#000000"
     fill-rule="nonzero"
     fill-opacity="1"
     id="path121" />
  <path
     clip-path="url(#clip720)"
     d="M1279.39 97.5861 L1284.28 97.5861 L1284.28 103.466 L1279.39 103.466 L1279.39 97.5861 Z"
     fill="#000000"
     fill-rule="nonzero"
     fill-opacity="1"
     id="path122" />
  <path
     clip-path="url(#clip720)"
     d="M1304.46 71.9844 Q1300.85 71.9844 1299.02 75.5492 Q1297.22 79.0908 1297.22 86.2204 Q1297.22 93.3268 1299.02 96.8916 Q1300.85 100.433 1304.46 100.433 Q1308.1 100.433 1309.9 96.8916 Q1311.73 93.3268 1311.73 86.2204 Q1311.73 79.0908 1309.9 75.5492 Q1308.1 71.9844 1304.46 71.9844 M1304.46 68.2807 Q1310.27 68.2807 1313.33 72.8871 Q1316.41 77.4704 1316.41 86.2204 Q1316.41 94.9472 1313.33 99.5537 Q1310.27 104.137 1304.46 104.137 Q1298.65 104.137 1295.58 99.5537 Q1292.52 94.9472 1292.52 86.2204 Q1292.52 77.4704 1295.58 72.8871 Q1298.65 68.2807 1304.46 68.2807 Z"
     fill="#000000"
     fill-rule="nonzero"
     fill-opacity="1"
     id="path123" />
  <path
     clip-path="url(#clip720)"
     d="M1334.63 71.9844 Q1331.01 71.9844 1329.19 75.5492 Q1327.38 79.0908 1327.38 86.2204 Q1327.38 93.3268 1329.19 96.8916 Q1331.01 100.433 1334.63 100.433 Q1338.26 100.433 1340.07 96.8916 Q1341.89 93.3268 1341.89 86.2204 Q1341.89 79.0908 1340.07 75.5492 Q1338.26 71.9844 1334.63 71.9844 M1334.63 68.2807 Q1340.44 68.2807 1343.49 72.8871 Q1346.57 77.4704 1346.57 86.2204 Q1346.57 94.9472 1343.49 99.5537 Q1340.44 104.137 1334.63 104.137 Q1328.82 104.137 1325.74 99.5537 Q1322.68 94.9472 1322.68 86.2204 Q1322.68 77.4704 1325.74 72.8871 Q1328.82 68.2807 1334.63 68.2807 Z"
     fill="#000000"
     fill-rule="nonzero"
     fill-opacity="1"
     id="path124" />
  <polyline
     clip-path="url(#clip723)"
     style="stroke:#009af9; stroke-linecap:round; stroke-linejoin:round; stroke-width:8; stroke-opacity:1; fill:none"
     points="1382.57,1384.24 1392.59,1384.24 1451.25,1384.24 1478.54,1384.24 1515.12,1384.24 1545.34,1384.24 1573.45,1384.24 1608.73,1384.24 1640.38,1384.22 1658.49,1384.12 1676.61,1383.68 1690.15,1382.63 1703.69,1379.95 1712.34,1376.53 1721,1370.8 1725.33,1366.7 1729.66,1361.54 1733.99,1355.1 1738.32,1347.13 1742.27,1338.28 1746.22,1327.69 1750.18,1315.13 1754.13,1300.34 1758.08,1283.05 1762.03,1263.01 1764.01,1251.88 1765.98,1239.96 1767.96,1227.23 1769.93,1213.67 1772.18,1197.17 1774.43,1179.52 1776.68,1160.68 1778.93,1140.64 1781.18,1119.37 1783.42,1096.86 1785.67,1073.1 1787.92,1048.11 1790.17,1021.88 1792.42,994.449 1794.67,965.84 1796.92,936.095 1799.16,905.266 1801.41,873.414 1803.66,840.614 1805.91,806.95 1813.04,695.644 1820.17,580.432 1823.74,522.794 1827.3,465.997 1830.87,410.727 1834.43,357.689 1836.65,326.18 1838.86,295.973 1841.07,267.235 1843.29,240.125 1845.5,214.796 1847.72,191.395 1849.93,170.06 1852.15,150.916 1854.36,134.078 1856.58,119.649 1858.79,107.716 1861.01,98.3534 1863.22,91.6191 1865.43,87.5547 1867.65,86.1857 1869.86,87.5206 1871.56,90.3667 1873.26,94.7837 1874.95,100.755 1876.65,108.26 1878.34,117.271 1880.04,127.754 1881.74,139.674 1883.43,152.986 1885.13,167.643 1886.82,183.595 1888.52,200.785 1890.22,219.154 1891.91,238.639 1893.61,259.174 1895.3,280.691 1897,303.119 1899.39,336.146 1901.78,370.629 1904.17,406.356 1906.56,443.114 1911.35,518.867 1916.13,596.218 1920.91,673.596 1925.69,749.574 1928.08,786.642 1930.48,822.911 1932.87,858.257 1935.26,892.575 1938.83,941.744 1942.4,988.152 1945.98,1031.61 1949.55,1072 1953.13,1109.26 1956.7,1143.39 1960.27,1174.42 1963.85,1202.44 1965.88,1217.08 1967.91,1230.8 1969.94,1243.65 1971.97,1255.65 1976.04,1277.22 1980.1,1295.8 1984.17,1311.67 1988.23,1325.1 1992.3,1336.39 1996.36,1345.79 2000.38,1353.49 2004.41,1359.82 2008.43,1364.98 2012.46,1369.15 2020.51,1375.17 2028.56,1378.94 2046.27,1382.76 2063.98,1383.88 2077.51,1384.13 2091.04,1384.21 2125.19,1384.24 2156.77,1384.24 2189.34,1384.24 2222.35,1384.24 2256.82,1384.24 2283.98,1384.24 2345.82,1384.24 2352.76,1384.24 "
     id="polyline124" />
  <polyline
     clip-path="url(#clip723)"
     style="stroke:#e26f46; stroke-linecap:round; stroke-linejoin:round; stroke-width:8; stroke-opacity:0.7; fill:none"
     stroke-dasharray="4, 8"
     points="1382.57,1384.24 1392.59,1384.24 1451.25,1384.24 1478.54,1384.24 1515.12,1384.24 1545.34,1384.24 1573.45,1384.24 1608.73,1384.24 1640.38,1384.23 1658.49,1384.19 1676.61,1384.02 1690.15,1383.6 1703.69,1382.53 1712.34,1381.16 1721,1378.88 1725.33,1377.24 1729.66,1375.18 1733.99,1372.61 1738.32,1369.43 1742.27,1365.9 1746.22,1361.68 1750.18,1356.67 1754.13,1350.77 1758.08,1343.87 1762.03,1335.88 1764.01,1331.43 1765.98,1326.68 1767.96,1321.6 1769.93,1316.19 1772.18,1309.61 1774.43,1302.57 1776.68,1295.05 1778.93,1287.06 1781.18,1278.57 1783.42,1269.59 1785.67,1260.11 1787.92,1250.14 1790.17,1239.68 1792.42,1228.73 1794.67,1217.32 1796.92,1205.45 1799.16,1193.16 1801.41,1180.45 1803.66,1167.36 1805.91,1153.93 1813.04,1109.53 1820.17,1063.57 1823.74,1040.57 1827.3,1017.91 1830.87,995.863 1834.43,974.704 1836.65,962.134 1838.86,950.083 1841.07,938.618 1843.29,927.803 1845.5,917.698 1847.72,908.363 1849.93,899.851 1852.15,892.214 1854.36,885.496 1856.58,879.74 1858.79,874.98 1861.01,871.244 1863.22,868.558 1865.43,866.936 1867.65,866.39 1869.86,866.923 1871.56,868.058 1873.26,869.82 1874.95,872.203 1876.65,875.197 1878.34,878.791 1880.04,882.974 1881.74,887.729 1883.43,893.04 1885.13,898.887 1886.82,905.251 1888.52,912.109 1890.22,919.437 1891.91,927.21 1893.61,935.403 1895.3,943.987 1897,952.934 1899.39,966.11 1901.78,979.867 1904.17,994.12 1906.56,1008.78 1911.35,1039.01 1916.13,1069.86 1920.91,1100.73 1925.69,1131.04 1928.08,1145.83 1930.48,1160.3 1932.87,1174.4 1935.26,1188.09 1938.83,1207.71 1942.4,1226.22 1945.98,1243.56 1949.55,1259.67 1953.13,1274.54 1956.7,1288.15 1960.27,1300.53 1963.85,1311.71 1965.88,1317.55 1967.91,1323.03 1969.94,1328.15 1971.97,1332.94 1976.04,1341.55 1980.1,1348.96 1984.17,1355.29 1988.23,1360.65 1992.3,1365.15 1996.36,1368.9 2000.38,1371.97 2004.41,1374.5 2008.43,1376.55 2012.46,1378.22 2020.51,1380.62 2028.56,1382.12 2046.27,1383.65 2063.98,1384.09 2077.51,1384.19 2091.04,1384.23 2125.19,1384.24 2156.77,1384.24 2189.34,1384.24 2222.35,1384.24 2256.82,1384.24 2283.98,1384.24 2345.82,1384.24 2352.76,1384.24 "
     id="polyline125" />
  <polyline
     clip-path="url(#clip723)"
     style="stroke:#3da44d; stroke-linecap:round; stroke-linejoin:round; stroke-width:8; stroke-opacity:1; fill:none"
     points="1382.57,1094.6 1385.07,1090.84 1387.58,1087.03 1390.08,1083.17 1392.59,1079.26 1407.25,1055.32 1421.92,1029.49 1436.58,1001.64 1451.25,971.603 1458.07,956.837 1464.89,941.542 1471.72,925.699 1478.54,909.29 1487.68,886.371 1496.83,862.346 1505.97,837.161 1515.12,810.761 1522.67,787.988 1530.23,764.311 1537.79,739.693 1545.34,714.098 1552.37,689.386 1559.39,663.763 1566.42,637.194 1573.45,609.646 1582.27,573.621 1591.09,535.921 1599.91,496.467 1608.73,455.178 1616.64,416.511 1624.56,376.235 1632.47,334.282 1640.38,290.583 1649.44,238.326 1658.49,183.573 1663.02,155.223 1667.55,126.204 1669.81,111.438 1672.08,96.4993 1672.64,92.7373 1673.21,88.9642 1673.78,86.1857 1674.34,86.1857 1675.47,86.1857 1676.61,86.1857 1679.99,86.1857 1683.38,86.1857 1686.76,86.1857 1690.15,86.1857 1696.92,86.1857 1703.69,86.1857 1738.32,86.1857 1769.93,86.1857 1805.91,86.1857 1834.43,86.1857 1869.86,86.1857 1897,86.1857 1935.26,86.1857 1963.85,86.1857 1996.36,86.1857 2028.56,86.1857 2037.41,86.1857 2046.27,86.1857 2050.7,86.1857 2055.13,86.1857 2057.34,86.1857 2059.55,86.1857 2060.66,86.1857 2061.77,86.6404 2062.88,94.0223 2063.98,101.362 2065.67,112.494 2067.36,123.53 2069.06,134.47 2070.75,145.315 2074.13,166.724 2077.51,187.762 2084.28,228.755 2091.04,268.343 2099.58,316.371 2108.11,362.331 2116.65,406.313 2125.19,448.402 2133.08,485.716 2140.98,521.542 2148.87,555.939 2156.77,588.965 2164.91,621.647 2173.05,652.986 2181.19,683.037 2189.34,711.853 2197.59,739.853 2205.84,766.687 2214.1,792.403 2222.35,817.049 2230.97,841.689 2239.58,865.259 2248.2,887.804 2256.82,909.371 2263.61,925.698 2270.4,941.463 2277.19,956.687 2283.98,971.387 2299.44,1003.01 2314.9,1032.2 2330.36,1059.16 2345.82,1084.06 2347.55,1086.73 2349.29,1089.38 2351.02,1092 2352.76,1094.6 "
     id="polyline126" />
  <polyline
     clip-path="url(#clip723)"
     style="stroke:#c271d2; stroke-linecap:round; stroke-linejoin:round; stroke-width:8; stroke-opacity:1; fill:none"
     points="1382.57,1187.5 1385.07,1184.55 1387.58,1181.55 1390.08,1178.51 1392.59,1175.42 1407.25,1156.37 1421.92,1135.59 1436.58,1112.92 1451.25,1088.18 1464.89,1063.13 1478.54,1035.97 1487.68,1016.49 1496.83,995.928 1505.97,974.211 1515.12,951.28 1522.67,931.367 1530.23,910.538 1537.79,888.751 1545.34,865.962 1552.37,843.831 1559.39,820.755 1566.42,796.694 1573.45,771.605 1582.27,738.588 1591.09,703.791 1599.91,667.119 1608.73,628.471 1616.64,592.034 1624.56,553.841 1632.47,513.807 1640.38,471.842 1649.44,421.319 1658.49,367.998 1663.02,340.24 1667.55,311.724 1672.08,282.429 1676.61,252.334 1683.38,205.803 1690.15,157.358 1693.53,132.394 1696.92,106.922 1697.76,100.473 1698.61,93.9917 1699.03,90.7389 1699.45,87.4779 1699.88,86.1857 1700.3,86.1857 1701.99,86.1857 1703.69,86.1857 1708.02,86.1857 1712.34,86.1857 1716.67,86.1857 1721,86.1857 1729.66,86.1857 1738.32,86.1857 1754.13,86.1857 1769.93,86.1857 1805.91,86.1857 1834.43,86.1857 1869.86,86.1857 1897,86.1857 1935.26,86.1857 1963.85,86.1857 1980.1,86.1857 1996.36,86.1857 2004.41,86.1857 2012.46,86.1857 2020.51,86.1857 2028.56,86.1857 2030.77,86.1857 2032.99,86.1857 2034.09,86.1857 2035.2,86.1857 2035.75,86.5664 2036.31,90.8337 2036.86,95.087 2037.41,99.3263 2039.63,116.145 2041.84,132.743 2044.06,149.124 2046.27,165.29 2055.13,227.867 2063.98,287.232 2070.75,330.515 2077.51,372.091 2084.28,412.026 2091.04,450.385 2099.58,496.639 2108.11,540.601 2116.65,582.386 2125.19,622.102 2133.08,657.082 2140.98,690.456 2148.87,722.298 2156.77,752.679 2164.91,782.552 2173.05,811.011 2181.19,838.125 2189.34,863.956 2197.59,888.892 2205.84,912.633 2214.1,935.237 2222.35,956.756 2230.97,978.127 2239.58,998.43 2248.2,1017.72 2256.82,1036.04 2270.4,1063.07 2283.98,1088 2299.44,1114.04 2314.9,1137.79 2330.36,1159.45 2345.82,1179.21 2347.55,1181.31 2349.29,1183.4 2351.02,1185.46 2352.76,1187.5 "
     id="polyline127" />
  <path
     clip-path="url(#clip720)"
     d="M2176.63 352.309 L2320.42 352.309 L2320.42 93.1086 L2176.63 93.1086  Z"
     fill="#ffffff"
     fill-rule="evenodd"
     fill-opacity="1"
     id="path127" />
  <polyline
     clip-path="url(#clip720)"
     style="stroke:#000000; stroke-linecap:round; stroke-linejoin:round; stroke-width:4; stroke-opacity:1; fill:none"
     points="2176.63,352.309 2320.42,352.309 2320.42,93.1086 2176.63,93.1086 2176.63,352.309 "
     id="polyline128" />
  <polyline
     clip-path="url(#clip720)"
     style="stroke:#009af9; stroke-linecap:round; stroke-linejoin:round; stroke-width:8; stroke-opacity:1; fill:none"
     points="2187.41,144.949 2252.09,144.949 "
     id="polyline129" />
  <path
     clip-path="url(#clip720)"
     d="M2286.41 147.652 Q2286.41 147.84 2286.2 148.566 Q2285.98 149.292 2285.47 150.416 Q2284.98 151.54 2284.3 152.571 Q2283.62 153.578 2282.49 154.328 Q2281.39 155.054 2280.13 155.054 Q2278.44 155.054 2277.32 153.929 Q2276.19 152.805 2276.19 151.119 Q2276.19 150.885 2276.22 150.65 Q2276.24 150.416 2276.26 150.276 Q2276.29 150.112 2276.36 149.854 Q2276.45 149.573 2276.48 149.456 Q2276.52 149.339 2276.64 148.987 Q2276.78 148.613 2276.83 148.472 Q2279.8 140.883 2279.8 137.721 Q2279.8 134.372 2277.2 134.372 Q2274.88 134.372 2272.59 136.058 Q2271.53 136.901 2270.53 138.4 Q2269.52 139.899 2269.33 140.462 Q2269.12 141.68 2268.82 142.616 Q2268.68 143.272 2268 145.825 L2266.94 150.158 L2266.03 153.789 Q2265.84 154.304 2265.33 154.679 Q2264.81 155.054 2264.25 155.054 Q2263.78 155.054 2263.31 154.726 Q2262.87 154.421 2262.87 153.695 Q2262.87 153.32 2263.05 152.641 L2270.01 125.003 L2270.15 124.066 Q2270.15 123.785 2270.03 123.644 Q2269.94 123.48 2269.38 123.363 Q2268.84 123.246 2267.76 123.246 Q2267.32 123.246 2267.11 123.223 Q2266.92 123.199 2266.75 123.082 Q2266.59 122.942 2266.59 122.661 Q2266.59 122.262 2266.75 122.052 Q2266.94 121.817 2267.08 121.77 Q2267.22 121.724 2267.5 121.7 Q2267.9 121.677 2269.24 121.56 Q2270.57 121.419 2271.72 121.325 Q2272.87 121.232 2273.36 121.232 Q2273.64 121.232 2273.78 121.372 Q2273.95 121.489 2273.97 121.63 L2273.99 121.747 L2270.24 136.995 Q2273.22 133.318 2277.34 133.318 Q2280.01 133.318 2281.44 134.7 Q2282.87 136.058 2282.87 138.447 Q2282.87 141.188 2279.94 148.987 Q2279.08 151.166 2279.08 152.407 Q2279.08 153.227 2279.33 153.602 Q2279.61 153.976 2280.22 153.976 Q2281.16 153.976 2281.98 153.438 Q2282.82 152.875 2283.41 151.962 Q2283.99 151.025 2284.39 150.088 Q2284.81 149.128 2285.12 148.05 Q2285.31 147.465 2285.4 147.324 Q2285.52 147.184 2285.84 147.184 Q2286.41 147.184 2286.41 147.652 Z"
     fill="#000000"
     fill-rule="nonzero"
     fill-opacity="1"
     id="path129" />
  <path
     clip-path="url(#clip720)"
     d="M2291.28 149.169 L2291.28 148.119 Q2295.32 148.119 2297.4 145.972 Q2297.97 145.972 2298.07 146.103 Q2298.17 146.234 2298.17 146.841 L2298.17 165.679 Q2298.17 166.679 2298.66 166.991 Q2299.15 167.302 2301.3 167.302 L2302.37 167.302 L2302.37 168.335 Q2301.19 168.237 2296.92 168.237 Q2292.66 168.237 2291.5 168.335 L2291.5 167.302 L2292.56 167.302 Q2294.68 167.302 2295.19 167.007 Q2295.69 166.696 2295.69 165.679 L2295.69 148.283 Q2293.94 149.169 2291.28 149.169 Z"
     fill="#000000"
     fill-rule="nonzero"
     fill-opacity="1"
     id="path130" />
  <polyline
     clip-path="url(#clip720)"
     style="stroke:#e26f46; stroke-linecap:round; stroke-linejoin:round; stroke-width:8; stroke-opacity:0.7; fill:none"
     stroke-dasharray="4, 8"
     points="2187.41,196.789 2252.09,196.789 "
     id="polyline130" />
  <path
     clip-path="url(#clip720)"
     d="M2286.78 178.144 Q2286.78 179.432 2285.96 180.229 Q2285.17 181.025 2284.16 181.025 Q2283.43 181.025 2282.89 180.58 Q2282.38 180.135 2282.38 179.362 Q2282.38 178.566 2282.99 177.723 Q2283.6 176.879 2284.98 176.762 Q2284.06 175.896 2282.61 175.896 Q2281.89 175.896 2281.28 176.364 Q2280.69 176.809 2280.36 177.535 Q2280.01 178.285 2279.22 182.524 Q2278.96 183.906 2278.72 185.241 Q2278.49 186.576 2278.21 187.982 L2282.19 187.982 Q2282.71 187.982 2282.92 188.005 Q2283.13 188.028 2283.29 188.146 Q2283.48 188.263 2283.48 188.52 Q2283.48 189.176 2283.17 189.34 Q2282.89 189.481 2282.05 189.481 L2277.93 189.481 L2275.05 204.682 Q2274.98 205.127 2274.67 206.532 Q2274.39 207.914 2273.71 210.186 Q2273.03 212.481 2272.35 213.84 Q2271.98 214.613 2271.49 215.339 Q2271.02 216.089 2270.34 216.838 Q2269.66 217.588 2268.77 218.033 Q2267.88 218.501 2266.94 218.501 Q2265.35 218.501 2264.11 217.611 Q2262.87 216.721 2262.87 215.198 Q2262.87 213.91 2263.66 213.114 Q2264.48 212.318 2265.49 212.318 Q2266.22 212.318 2266.73 212.763 Q2267.27 213.208 2267.27 213.981 Q2267.27 214.308 2267.15 214.683 Q2267.04 215.058 2266.78 215.48 Q2266.52 215.925 2265.96 216.229 Q2265.4 216.534 2264.62 216.58 Q2265.54 217.447 2266.94 217.447 Q2267.39 217.447 2267.79 217.26 Q2268.18 217.096 2268.51 216.674 Q2268.86 216.252 2269.12 215.831 Q2269.38 215.433 2269.64 214.66 Q2269.89 213.91 2270.06 213.348 Q2270.22 212.786 2270.43 211.779 Q2270.67 210.772 2270.78 210.163 Q2270.9 209.577 2271.11 208.429 L2274.7 189.481 L2271.53 189.481 Q2270.97 189.481 2270.74 189.457 Q2270.53 189.434 2270.36 189.317 Q2270.2 189.176 2270.2 188.895 Q2270.2 188.45 2270.39 188.263 Q2270.6 188.052 2270.83 188.028 Q2271.06 187.982 2271.63 187.982 L2274.95 187.982 Q2276.08 182.056 2276.52 180.463 Q2277.04 178.777 2277.83 177.605 Q2278.63 176.411 2279.52 175.849 Q2280.41 175.287 2281.14 175.076 Q2281.89 174.842 2282.61 174.842 Q2284.25 174.842 2285.52 175.732 Q2286.78 176.598 2286.78 178.144 Z"
     fill="#000000"
     fill-rule="nonzero"
     fill-opacity="1"
     id="path131" />
  <polyline
     clip-path="url(#clip720)"
     style="stroke:#3da44d; stroke-linecap:round; stroke-linejoin:round; stroke-width:8; stroke-opacity:1; fill:none"
     points="2187.41,248.629 2252.09,248.629 "
     id="polyline131" />
  <path
     clip-path="url(#clip720)"
     d="M2284.88 228.549 Q2284.88 228.572 2284.74 229.415 L2279.4 250.706 Q2279.12 251.831 2278.33 252.955 Q2277.55 254.103 2276.31 255.086 Q2275.09 256.094 2273.22 256.703 Q2271.37 257.335 2269.24 257.335 Q2265.84 257.335 2264.34 256.609 Q2262.87 255.906 2262.87 254.407 Q2262.87 253.095 2263.69 252.346 Q2264.51 251.62 2265.44 251.62 Q2266.33 251.62 2266.8 252.135 Q2267.27 252.65 2267.27 253.306 Q2267.27 254.032 2266.78 254.758 Q2266.29 255.508 2265.3 255.789 Q2266.87 256.281 2269.14 256.281 Q2273.95 256.281 2276.01 251.198 Q2276.05 251.128 2276.05 251.105 L2277.65 244.757 L2277.58 244.71 Q2277.18 245.179 2276.55 245.717 Q2275.94 246.233 2274.62 246.865 Q2273.31 247.498 2272.03 247.498 Q2269.33 247.498 2267.48 245.436 Q2265.65 243.352 2265.65 239.909 Q2265.65 237.402 2266.66 234.896 Q2267.69 232.367 2269.28 230.516 Q2270.9 228.642 2272.96 227.471 Q2275.05 226.3 2277.06 226.3 Q2278.47 226.3 2279.66 227.143 Q2280.86 227.963 2281.51 229.322 Q2281.63 228.197 2282.26 227.729 Q2282.92 227.261 2283.48 227.261 Q2284.11 227.261 2284.49 227.612 Q2284.88 227.94 2284.88 228.549 M2280.95 231.477 Q2280.95 231.336 2280.86 230.961 Q2280.76 230.563 2280.48 229.931 Q2280.22 229.298 2279.82 228.736 Q2279.43 228.174 2278.7 227.776 Q2278 227.354 2277.11 227.354 Q2275.66 227.354 2274.2 228.572 Q2272.75 229.767 2271.74 231.617 Q2270.81 233.397 2269.92 236.84 Q2269.05 240.283 2269.05 242.04 Q2269.05 243.773 2269.8 245.108 Q2270.55 246.444 2272.17 246.444 Q2274.04 246.444 2276.05 244.71 Q2278.14 242.907 2278.49 241.361 L2280.81 232.203 Q2280.95 231.641 2280.95 231.477 Z"
     fill="#000000"
     fill-rule="nonzero"
     fill-opacity="1"
     id="path132" />
  <path
     clip-path="url(#clip720)"
     d="M2289.78 265.202 L2289.78 264.169 L2300.1 248.413 Q2300.36 248.003 2300.77 248.02 Q2301.15 248.02 2301.23 248.167 Q2301.31 248.315 2301.31 248.889 L2301.31 264.169 L2304.67 264.169 L2304.67 265.202 L2301.31 265.202 L2301.31 268.121 Q2301.31 269.088 2301.7 269.4 Q2302.11 269.711 2303.85 269.711 L2304.56 269.711 L2304.56 270.744 Q2303.18 270.646 2300 270.646 Q2296.83 270.646 2295.46 270.744 L2295.46 269.711 L2296.16 269.711 Q2297.9 269.711 2298.31 269.416 Q2298.72 269.105 2298.72 268.121 L2298.72 265.202 L2289.78 265.202 M2290.73 264.169 L2298.92 264.169 L2298.92 251.643 L2290.73 264.169 Z"
     fill="#000000"
     fill-rule="nonzero"
     fill-opacity="1"
     id="path133" />
  <polyline
     clip-path="url(#clip720)"
     style="stroke:#c271d2; stroke-linecap:round; stroke-linejoin:round; stroke-width:8; stroke-opacity:1; fill:none"
     points="2187.41,300.469 2252.09,300.469 "
     id="polyline133" />
  <path
     clip-path="url(#clip720)"
     d="M2284.88 280.134 Q2284.88 280.157 2284.74 281.001 L2279.4 302.292 Q2279.12 303.416 2278.33 304.54 Q2277.55 305.688 2276.31 306.672 Q2275.09 307.679 2273.22 308.288 Q2271.37 308.92 2269.24 308.92 Q2265.84 308.92 2264.34 308.194 Q2262.87 307.491 2262.87 305.992 Q2262.87 304.681 2263.69 303.931 Q2264.51 303.205 2265.44 303.205 Q2266.33 303.205 2266.8 303.72 Q2267.27 304.236 2267.27 304.891 Q2267.27 305.618 2266.78 306.344 Q2266.29 307.093 2265.3 307.374 Q2266.87 307.866 2269.14 307.866 Q2273.95 307.866 2276.01 302.783 Q2276.05 302.713 2276.05 302.69 L2277.65 296.342 L2277.58 296.295 Q2277.18 296.764 2276.55 297.303 Q2275.94 297.818 2274.62 298.45 Q2273.31 299.083 2272.03 299.083 Q2269.33 299.083 2267.48 297.022 Q2265.65 294.937 2265.65 291.494 Q2265.65 288.988 2266.66 286.481 Q2267.69 283.952 2269.28 282.101 Q2270.9 280.228 2272.96 279.056 Q2275.05 277.885 2277.06 277.885 Q2278.47 277.885 2279.66 278.729 Q2280.86 279.548 2281.51 280.907 Q2281.63 279.783 2282.26 279.314 Q2282.92 278.846 2283.48 278.846 Q2284.11 278.846 2284.49 279.197 Q2284.88 279.525 2284.88 280.134 M2280.95 283.062 Q2280.95 282.921 2280.86 282.546 Q2280.76 282.148 2280.48 281.516 Q2280.22 280.883 2279.82 280.321 Q2279.43 279.759 2278.7 279.361 Q2278 278.939 2277.11 278.939 Q2275.66 278.939 2274.2 280.157 Q2272.75 281.352 2271.74 283.202 Q2270.81 284.982 2269.92 288.425 Q2269.05 291.869 2269.05 293.625 Q2269.05 295.359 2269.8 296.694 Q2270.55 298.029 2272.17 298.029 Q2274.04 298.029 2276.05 296.295 Q2278.14 294.492 2278.49 292.946 L2280.81 283.788 Q2280.95 283.226 2280.95 283.062 Z"
     fill="#000000"
     fill-rule="nonzero"
     fill-opacity="1"
     id="path134" />
  <path
     clip-path="url(#clip720)"
     d="M2289.78 311.498 Q2289.78 306.219 2292.47 302.989 Q2295.16 299.742 2298.62 299.742 Q2300.64 299.742 2301.75 300.775 Q2302.88 301.792 2302.88 303.366 Q2302.88 304.235 2302.38 304.612 Q2301.87 304.989 2301.34 304.989 Q2300.74 304.989 2300.26 304.579 Q2299.79 304.169 2299.79 303.431 Q2299.79 301.923 2301.64 301.923 Q2300.77 300.579 2298.69 300.579 Q2298.05 300.579 2297.39 300.775 Q2296.74 300.956 2295.88 301.579 Q2295.03 302.202 2294.37 303.185 Q2293.72 304.169 2293.26 306.022 Q2292.8 307.875 2292.8 310.285 L2292.8 311.088 Q2294.18 307.76 2297 307.776 Q2299.82 307.776 2301.77 309.924 Q2303.72 312.072 2303.72 315.253 Q2303.72 318.515 2301.69 320.68 Q2299.65 322.844 2296.8 322.844 Q2295.52 322.844 2294.36 322.303 Q2293.21 321.778 2292.13 320.565 Q2291.06 319.352 2290.42 317.023 Q2289.78 314.695 2289.78 311.498 M2292.87 314.515 Q2292.87 317.81 2293.47 319.384 Q2293.57 319.647 2293.78 320.007 Q2294.01 320.368 2294.39 320.844 Q2294.78 321.303 2295.42 321.614 Q2296.06 321.909 2296.8 321.909 Q2299.05 321.909 2300.13 319.729 Q2300.7 318.515 2300.7 315.22 Q2300.7 311.859 2300.1 310.629 Q2299.06 308.547 2296.97 308.547 Q2295.56 308.547 2294.57 309.514 Q2293.6 310.482 2293.23 311.777 Q2292.87 313.072 2292.87 314.515 Z"
     fill="#000000"
     fill-rule="nonzero"
     fill-opacity="1"
     id="path135" />
</svg>
