<?xml version="1.0" encoding="utf-8"?>
<svg xmlns="http://www.w3.org/2000/svg" xmlns:xlink="http://www.w3.org/1999/xlink" width="600" height="400" viewBox="0 0 2400 1600">
<defs>
  <clipPath id="clip400">
    <rect x="0" y="0" width="2400" height="1600"/>
  </clipPath>
</defs>
<path clip-path="url(#clip400)" d="M0 1600 L2400 1600 L2400 8.88178e-14 L0 8.88178e-14  Z" fill="#ffffff" fill-rule="evenodd" fill-opacity="1"/>
<defs>
  <clipPath id="clip401">
    <rect x="480" y="0" width="1681" height="1600"/>
  </clipPath>
</defs>
<path clip-path="url(#clip400)" d="M249.542 1423.18 L2352.76 1423.18 L2352.76 47.2441 L249.542 47.2441  Z" fill="#ffffff" fill-rule="evenodd" fill-opacity="1"/>
<defs>
  <clipPath id="clip402">
    <rect x="249" y="47" width="2104" height="1377"/>
  </clipPath>
</defs>
<polyline clip-path="url(#clip402)" style="stroke:#000000; stroke-linecap:round; stroke-linejoin:round; stroke-width:2; stroke-opacity:0.1; fill:none" points="249.542,1423.18 249.542,47.2441 "/>
<polyline clip-path="url(#clip402)" style="stroke:#000000; stroke-linecap:round; stroke-linejoin:round; stroke-width:2; stroke-opacity:0.1; fill:none" points="550.001,1423.18 550.001,47.2441 "/>
<polyline clip-path="url(#clip402)" style="stroke:#000000; stroke-linecap:round; stroke-linejoin:round; stroke-width:2; stroke-opacity:0.1; fill:none" points="850.46,1423.18 850.46,47.2441 "/>
<polyline clip-path="url(#clip402)" style="stroke:#000000; stroke-linecap:round; stroke-linejoin:round; stroke-width:2; stroke-opacity:0.1; fill:none" points="1150.92,1423.18 1150.92,47.2441 "/>
<polyline clip-path="url(#clip402)" style="stroke:#000000; stroke-linecap:round; stroke-linejoin:round; stroke-width:2; stroke-opacity:0.1; fill:none" points="1451.38,1423.18 1451.38,47.2441 "/>
<polyline clip-path="url(#clip402)" style="stroke:#000000; stroke-linecap:round; stroke-linejoin:round; stroke-width:2; stroke-opacity:0.1; fill:none" points="1751.84,1423.18 1751.84,47.2441 "/>
<polyline clip-path="url(#clip402)" style="stroke:#000000; stroke-linecap:round; stroke-linejoin:round; stroke-width:2; stroke-opacity:0.1; fill:none" points="2052.3,1423.18 2052.3,47.2441 "/>
<polyline clip-path="url(#clip402)" style="stroke:#000000; stroke-linecap:round; stroke-linejoin:round; stroke-width:2; stroke-opacity:0.1; fill:none" points="2352.76,1423.18 2352.76,47.2441 "/>
<polyline clip-path="url(#clip402)" style="stroke:#000000; stroke-linecap:round; stroke-linejoin:round; stroke-width:2; stroke-opacity:0.1; fill:none" points="249.542,1265.9 2352.76,1265.9 "/>
<polyline clip-path="url(#clip402)" style="stroke:#000000; stroke-linecap:round; stroke-linejoin:round; stroke-width:2; stroke-opacity:0.1; fill:none" points="249.542,1063.81 2352.76,1063.81 "/>
<polyline clip-path="url(#clip402)" style="stroke:#000000; stroke-linecap:round; stroke-linejoin:round; stroke-width:2; stroke-opacity:0.1; fill:none" points="249.542,861.73 2352.76,861.73 "/>
<polyline clip-path="url(#clip402)" style="stroke:#000000; stroke-linecap:round; stroke-linejoin:round; stroke-width:2; stroke-opacity:0.1; fill:none" points="249.542,659.646 2352.76,659.646 "/>
<polyline clip-path="url(#clip402)" style="stroke:#000000; stroke-linecap:round; stroke-linejoin:round; stroke-width:2; stroke-opacity:0.1; fill:none" points="249.542,457.563 2352.76,457.563 "/>
<polyline clip-path="url(#clip402)" style="stroke:#000000; stroke-linecap:round; stroke-linejoin:round; stroke-width:2; stroke-opacity:0.1; fill:none" points="249.542,255.479 2352.76,255.479 "/>
<polyline clip-path="url(#clip402)" style="stroke:#000000; stroke-linecap:round; stroke-linejoin:round; stroke-width:2; stroke-opacity:0.1; fill:none" points="249.542,53.396 2352.76,53.396 "/>
<polyline clip-path="url(#clip400)" style="stroke:#000000; stroke-linecap:round; stroke-linejoin:round; stroke-width:4; stroke-opacity:1; fill:none" points="249.542,1423.18 2352.76,1423.18 "/>
<polyline clip-path="url(#clip400)" style="stroke:#000000; stroke-linecap:round; stroke-linejoin:round; stroke-width:4; stroke-opacity:1; fill:none" points="249.542,1423.18 249.542,1404.28 "/>
<polyline clip-path="url(#clip400)" style="stroke:#000000; stroke-linecap:round; stroke-linejoin:round; stroke-width:4; stroke-opacity:1; fill:none" points="550.001,1423.18 550.001,1404.28 "/>
<polyline clip-path="url(#clip400)" style="stroke:#000000; stroke-linecap:round; stroke-linejoin:round; stroke-width:4; stroke-opacity:1; fill:none" points="850.46,1423.18 850.46,1404.28 "/>
<polyline clip-path="url(#clip400)" style="stroke:#000000; stroke-linecap:round; stroke-linejoin:round; stroke-width:4; stroke-opacity:1; fill:none" points="1150.92,1423.18 1150.92,1404.28 "/>
<polyline clip-path="url(#clip400)" style="stroke:#000000; stroke-linecap:round; stroke-linejoin:round; stroke-width:4; stroke-opacity:1; fill:none" points="1451.38,1423.18 1451.38,1404.28 "/>
<polyline clip-path="url(#clip400)" style="stroke:#000000; stroke-linecap:round; stroke-linejoin:round; stroke-width:4; stroke-opacity:1; fill:none" points="1751.84,1423.18 1751.84,1404.28 "/>
<polyline clip-path="url(#clip400)" style="stroke:#000000; stroke-linecap:round; stroke-linejoin:round; stroke-width:4; stroke-opacity:1; fill:none" points="2052.3,1423.18 2052.3,1404.28 "/>
<polyline clip-path="url(#clip400)" style="stroke:#000000; stroke-linecap:round; stroke-linejoin:round; stroke-width:4; stroke-opacity:1; fill:none" points="2352.76,1423.18 2352.76,1404.28 "/>
<path clip-path="url(#clip400)" d="M244.195 1481.64 L260.514 1481.64 L260.514 1485.58 L238.57 1485.58 L238.57 1481.64 Q241.232 1478.89 245.815 1474.26 Q250.422 1469.61 251.602 1468.27 Q253.848 1465.74 254.727 1464.01 Q255.63 1462.25 255.63 1460.56 Q255.63 1457.8 253.686 1456.07 Q251.764 1454.33 248.662 1454.33 Q246.463 1454.33 244.01 1455.09 Q241.579 1455.86 238.801 1457.41 L238.801 1452.69 Q241.625 1451.55 244.079 1450.97 Q246.533 1450.39 248.57 1450.39 Q253.94 1450.39 257.135 1453.08 Q260.329 1455.77 260.329 1460.26 Q260.329 1462.39 259.519 1464.31 Q258.732 1466.2 256.625 1468.8 Q256.047 1469.47 252.945 1472.69 Q249.843 1475.88 244.195 1481.64 Z" fill="#000000" fill-rule="nonzero" fill-opacity="1" /><path clip-path="url(#clip400)" d="M554.249 1466.95 Q557.605 1467.66 559.48 1469.93 Q561.378 1472.2 561.378 1475.53 Q561.378 1480.65 557.86 1483.45 Q554.341 1486.25 547.86 1486.25 Q545.684 1486.25 543.369 1485.81 Q541.078 1485.39 538.624 1484.54 L538.624 1480.02 Q540.568 1481.16 542.883 1481.74 Q545.198 1482.32 547.721 1482.32 Q552.119 1482.32 554.411 1480.58 Q556.726 1478.84 556.726 1475.53 Q556.726 1472.48 554.573 1470.77 Q552.443 1469.03 548.624 1469.03 L544.596 1469.03 L544.596 1465.19 L548.809 1465.19 Q552.258 1465.19 554.087 1463.82 Q555.915 1462.43 555.915 1459.84 Q555.915 1457.18 554.017 1455.77 Q552.142 1454.33 548.624 1454.33 Q546.703 1454.33 544.504 1454.75 Q542.304 1455.16 539.666 1456.04 L539.666 1451.88 Q542.328 1451.14 544.642 1450.77 Q546.98 1450.39 549.041 1450.39 Q554.365 1450.39 557.466 1452.83 Q560.568 1455.23 560.568 1459.35 Q560.568 1462.22 558.925 1464.21 Q557.281 1466.18 554.249 1466.95 Z" fill="#000000" fill-rule="nonzero" fill-opacity="1" /><path clip-path="url(#clip400)" d="M853.47 1455.09 L841.664 1473.54 L853.47 1473.54 L853.47 1455.09 M852.243 1451.02 L858.122 1451.02 L858.122 1473.54 L863.053 1473.54 L863.053 1477.43 L858.122 1477.43 L858.122 1485.58 L853.47 1485.58 L853.47 1477.43 L837.868 1477.43 L837.868 1472.92 L852.243 1451.02 Z" fill="#000000" fill-rule="nonzero" fill-opacity="1" /><path clip-path="url(#clip400)" d="M1141.2 1451.02 L1159.55 1451.02 L1159.55 1454.96 L1145.48 1454.96 L1145.48 1463.43 Q1146.5 1463.08 1147.52 1462.92 Q1148.54 1462.73 1149.55 1462.73 Q1155.34 1462.73 1158.72 1465.9 Q1162.1 1469.08 1162.1 1474.49 Q1162.1 1480.07 1158.63 1483.17 Q1155.16 1486.25 1148.84 1486.25 Q1146.66 1486.25 1144.39 1485.88 Q1142.15 1485.51 1139.74 1484.77 L1139.74 1480.07 Q1141.82 1481.2 1144.04 1481.76 Q1146.27 1482.32 1148.74 1482.32 Q1152.75 1482.32 1155.09 1480.21 Q1157.42 1478.1 1157.42 1474.49 Q1157.42 1470.88 1155.09 1468.77 Q1152.75 1466.67 1148.74 1466.67 Q1146.87 1466.67 1144.99 1467.08 Q1143.14 1467.5 1141.2 1468.38 L1141.2 1451.02 Z" fill="#000000" fill-rule="nonzero" fill-opacity="1" /><path clip-path="url(#clip400)" d="M1451.78 1466.44 Q1448.64 1466.44 1446.78 1468.59 Q1444.95 1470.74 1444.95 1474.49 Q1444.95 1478.22 1446.78 1480.39 Q1448.64 1482.55 1451.78 1482.55 Q1454.93 1482.55 1456.76 1480.39 Q1458.61 1478.22 1458.61 1474.49 Q1458.61 1470.74 1456.76 1468.59 Q1454.93 1466.44 1451.78 1466.44 M1461.07 1451.78 L1461.07 1456.04 Q1459.31 1455.21 1457.5 1454.77 Q1455.72 1454.33 1453.96 1454.33 Q1449.33 1454.33 1446.88 1457.45 Q1444.45 1460.58 1444.1 1466.9 Q1445.46 1464.89 1447.52 1463.82 Q1449.58 1462.73 1452.06 1462.73 Q1457.27 1462.73 1460.28 1465.9 Q1463.31 1469.05 1463.31 1474.49 Q1463.31 1479.82 1460.16 1483.03 Q1457.02 1486.25 1451.78 1486.25 Q1445.79 1486.25 1442.62 1481.67 Q1439.45 1477.06 1439.45 1468.33 Q1439.45 1460.14 1443.33 1455.28 Q1447.22 1450.39 1453.77 1450.39 Q1455.53 1450.39 1457.32 1450.74 Q1459.12 1451.09 1461.07 1451.78 Z" fill="#000000" fill-rule="nonzero" fill-opacity="1" /><path clip-path="url(#clip400)" d="M1740.73 1451.02 L1762.95 1451.02 L1762.95 1453.01 L1750.4 1485.58 L1745.52 1485.58 L1757.32 1454.96 L1740.73 1454.96 L1740.73 1451.02 Z" fill="#000000" fill-rule="nonzero" fill-opacity="1" /><path clip-path="url(#clip400)" d="M2052.3 1469.17 Q2048.96 1469.17 2047.04 1470.95 Q2045.14 1472.73 2045.14 1475.86 Q2045.14 1478.98 2047.04 1480.77 Q2048.96 1482.55 2052.3 1482.55 Q2055.63 1482.55 2057.55 1480.77 Q2059.47 1478.96 2059.47 1475.86 Q2059.47 1472.73 2057.55 1470.95 Q2055.65 1469.17 2052.3 1469.17 M2047.62 1467.18 Q2044.61 1466.44 2042.92 1464.38 Q2041.26 1462.32 2041.26 1459.35 Q2041.26 1455.21 2044.19 1452.8 Q2047.16 1450.39 2052.3 1450.39 Q2057.46 1450.39 2060.4 1452.8 Q2063.34 1455.21 2063.34 1459.35 Q2063.34 1462.32 2061.65 1464.38 Q2059.98 1466.44 2057 1467.18 Q2060.38 1467.96 2062.25 1470.26 Q2064.15 1472.55 2064.15 1475.86 Q2064.15 1480.88 2061.07 1483.57 Q2058.01 1486.25 2052.3 1486.25 Q2046.58 1486.25 2043.5 1483.57 Q2040.44 1480.88 2040.44 1475.86 Q2040.44 1472.55 2042.34 1470.26 Q2044.24 1467.96 2047.62 1467.18 M2045.91 1459.79 Q2045.91 1462.48 2047.57 1463.98 Q2049.26 1465.49 2052.3 1465.49 Q2055.31 1465.49 2057 1463.98 Q2058.71 1462.48 2058.71 1459.79 Q2058.71 1457.11 2057 1455.6 Q2055.31 1454.1 2052.3 1454.1 Q2049.26 1454.1 2047.57 1455.6 Q2045.91 1457.11 2045.91 1459.79 Z" fill="#000000" fill-rule="nonzero" fill-opacity="1" /><path clip-path="url(#clip400)" d="M2343.06 1484.86 L2343.06 1480.6 Q2344.82 1481.44 2346.62 1481.88 Q2348.43 1482.32 2350.16 1482.32 Q2354.79 1482.32 2357.22 1479.21 Q2359.68 1476.09 2360.02 1469.75 Q2358.68 1471.74 2356.62 1472.8 Q2354.56 1473.87 2352.06 1473.87 Q2346.88 1473.87 2343.84 1470.74 Q2340.83 1467.59 2340.83 1462.15 Q2340.83 1456.83 2343.98 1453.61 Q2347.13 1450.39 2352.36 1450.39 Q2358.36 1450.39 2361.51 1455 Q2364.68 1459.58 2364.68 1468.33 Q2364.68 1476.51 2360.79 1481.39 Q2356.92 1486.25 2350.37 1486.25 Q2348.61 1486.25 2346.81 1485.9 Q2345 1485.56 2343.06 1484.86 M2352.36 1470.21 Q2355.51 1470.21 2357.34 1468.06 Q2359.19 1465.9 2359.19 1462.15 Q2359.19 1458.43 2357.34 1456.27 Q2355.51 1454.1 2352.36 1454.1 Q2349.21 1454.1 2347.36 1456.27 Q2345.53 1458.43 2345.53 1462.15 Q2345.53 1465.9 2347.36 1468.06 Q2349.21 1470.21 2352.36 1470.21 Z" fill="#000000" fill-rule="nonzero" fill-opacity="1" /><path clip-path="url(#clip400)" d="M1285.33 1518.52 L1291.22 1518.52 L1291.22 1547.77 L1308.69 1532.4 L1316.17 1532.4 L1297.27 1549.07 L1316.97 1568.04 L1309.33 1568.04 L1291.22 1550.63 L1291.22 1568.04 L1285.33 1568.04 L1285.33 1518.52 Z" fill="#000000" fill-rule="nonzero" fill-opacity="1" /><polyline clip-path="url(#clip400)" style="stroke:#000000; stroke-linecap:round; stroke-linejoin:round; stroke-width:4; stroke-opacity:1; fill:none" points="249.542,1423.18 249.542,47.2441 "/>
<polyline clip-path="url(#clip400)" style="stroke:#000000; stroke-linecap:round; stroke-linejoin:round; stroke-width:4; stroke-opacity:1; fill:none" points="249.542,1265.9 268.44,1265.9 "/>
<polyline clip-path="url(#clip400)" style="stroke:#000000; stroke-linecap:round; stroke-linejoin:round; stroke-width:4; stroke-opacity:1; fill:none" points="249.542,1063.81 268.44,1063.81 "/>
<polyline clip-path="url(#clip400)" style="stroke:#000000; stroke-linecap:round; stroke-linejoin:round; stroke-width:4; stroke-opacity:1; fill:none" points="249.542,861.73 268.44,861.73 "/>
<polyline clip-path="url(#clip400)" style="stroke:#000000; stroke-linecap:round; stroke-linejoin:round; stroke-width:4; stroke-opacity:1; fill:none" points="249.542,659.646 268.44,659.646 "/>
<polyline clip-path="url(#clip400)" style="stroke:#000000; stroke-linecap:round; stroke-linejoin:round; stroke-width:4; stroke-opacity:1; fill:none" points="249.542,457.563 268.44,457.563 "/>
<polyline clip-path="url(#clip400)" style="stroke:#000000; stroke-linecap:round; stroke-linejoin:round; stroke-width:4; stroke-opacity:1; fill:none" points="249.542,255.479 268.44,255.479 "/>
<polyline clip-path="url(#clip400)" style="stroke:#000000; stroke-linecap:round; stroke-linejoin:round; stroke-width:4; stroke-opacity:1; fill:none" points="249.542,53.396 268.44,53.396 "/>
<path clip-path="url(#clip400)" d="M127.2 1251.7 Q123.589 1251.7 121.76 1255.26 Q119.955 1258.8 119.955 1265.93 Q119.955 1273.04 121.76 1276.6 Q123.589 1280.14 127.2 1280.14 Q130.834 1280.14 132.64 1276.6 Q134.468 1273.04 134.468 1265.93 Q134.468 1258.8 132.64 1255.26 Q130.834 1251.7 127.2 1251.7 M127.2 1247.99 Q133.01 1247.99 136.066 1252.6 Q139.144 1257.18 139.144 1265.93 Q139.144 1274.66 136.066 1279.26 Q133.01 1283.85 127.2 1283.85 Q121.39 1283.85 118.311 1279.26 Q115.256 1274.66 115.256 1265.93 Q115.256 1257.18 118.311 1252.6 Q121.39 1247.99 127.2 1247.99 Z" fill="#000000" fill-rule="nonzero" fill-opacity="1" /><path clip-path="url(#clip400)" d="M147.362 1277.3 L152.246 1277.3 L152.246 1283.18 L147.362 1283.18 L147.362 1277.3 Z" fill="#000000" fill-rule="nonzero" fill-opacity="1" /><path clip-path="url(#clip400)" d="M172.431 1251.7 Q168.82 1251.7 166.991 1255.26 Q165.186 1258.8 165.186 1265.93 Q165.186 1273.04 166.991 1276.6 Q168.82 1280.14 172.431 1280.14 Q176.065 1280.14 177.871 1276.6 Q179.7 1273.04 179.7 1265.93 Q179.7 1258.8 177.871 1255.26 Q176.065 1251.7 172.431 1251.7 M172.431 1247.99 Q178.241 1247.99 181.297 1252.6 Q184.376 1257.18 184.376 1265.93 Q184.376 1274.66 181.297 1279.26 Q178.241 1283.85 172.431 1283.85 Q166.621 1283.85 163.542 1279.26 Q160.487 1274.66 160.487 1265.93 Q160.487 1257.18 163.542 1252.6 Q166.621 1247.99 172.431 1247.99 Z" fill="#000000" fill-rule="nonzero" fill-opacity="1" /><path clip-path="url(#clip400)" d="M192.639 1248.62 L210.996 1248.62 L210.996 1252.55 L196.922 1252.55 L196.922 1261.02 Q197.94 1260.68 198.959 1260.52 Q199.977 1260.33 200.996 1260.33 Q206.783 1260.33 210.162 1263.5 Q213.542 1266.67 213.542 1272.09 Q213.542 1277.67 210.07 1280.77 Q206.598 1283.85 200.278 1283.85 Q198.102 1283.85 195.834 1283.48 Q193.588 1283.11 191.181 1282.37 L191.181 1277.67 Q193.264 1278.8 195.487 1279.36 Q197.709 1279.91 200.186 1279.91 Q204.19 1279.91 206.528 1277.81 Q208.866 1275.7 208.866 1272.09 Q208.866 1268.48 206.528 1266.37 Q204.19 1264.27 200.186 1264.27 Q198.311 1264.27 196.436 1264.68 Q194.584 1265.1 192.639 1265.98 L192.639 1248.62 Z" fill="#000000" fill-rule="nonzero" fill-opacity="1" /><path clip-path="url(#clip400)" d="M126.205 1049.61 Q122.593 1049.61 120.765 1053.18 Q118.959 1056.72 118.959 1063.85 Q118.959 1070.95 120.765 1074.52 Q122.593 1078.06 126.205 1078.06 Q129.839 1078.06 131.644 1074.52 Q133.473 1070.95 133.473 1063.85 Q133.473 1056.72 131.644 1053.18 Q129.839 1049.61 126.205 1049.61 M126.205 1045.91 Q132.015 1045.91 135.07 1050.51 Q138.149 1055.1 138.149 1063.85 Q138.149 1072.57 135.07 1077.18 Q132.015 1081.76 126.205 1081.76 Q120.394 1081.76 117.316 1077.18 Q114.26 1072.57 114.26 1063.85 Q114.26 1055.1 117.316 1050.51 Q120.394 1045.91 126.205 1045.91 Z" fill="#000000" fill-rule="nonzero" fill-opacity="1" /><path clip-path="url(#clip400)" d="M146.366 1075.21 L151.251 1075.21 L151.251 1081.09 L146.366 1081.09 L146.366 1075.21 Z" fill="#000000" fill-rule="nonzero" fill-opacity="1" /><path clip-path="url(#clip400)" d="M162.246 1077.16 L169.885 1077.16 L169.885 1050.79 L161.575 1052.46 L161.575 1048.2 L169.839 1046.53 L174.514 1046.53 L174.514 1077.16 L182.153 1077.16 L182.153 1081.09 L162.246 1081.09 L162.246 1077.16 Z" fill="#000000" fill-rule="nonzero" fill-opacity="1" /><path clip-path="url(#clip400)" d="M201.598 1049.61 Q197.987 1049.61 196.158 1053.18 Q194.352 1056.72 194.352 1063.85 Q194.352 1070.95 196.158 1074.52 Q197.987 1078.06 201.598 1078.06 Q205.232 1078.06 207.037 1074.52 Q208.866 1070.95 208.866 1063.85 Q208.866 1056.72 207.037 1053.18 Q205.232 1049.61 201.598 1049.61 M201.598 1045.91 Q207.408 1045.91 210.463 1050.51 Q213.542 1055.1 213.542 1063.85 Q213.542 1072.57 210.463 1077.18 Q207.408 1081.76 201.598 1081.76 Q195.787 1081.76 192.709 1077.18 Q189.653 1072.57 189.653 1063.85 Q189.653 1055.1 192.709 1050.51 Q195.787 1045.91 201.598 1045.91 Z" fill="#000000" fill-rule="nonzero" fill-opacity="1" /><path clip-path="url(#clip400)" d="M127.2 847.529 Q123.589 847.529 121.76 851.093 Q119.955 854.635 119.955 861.765 Q119.955 868.871 121.76 872.436 Q123.589 875.978 127.2 875.978 Q130.834 875.978 132.64 872.436 Q134.468 868.871 134.468 861.765 Q134.468 854.635 132.64 851.093 Q130.834 847.529 127.2 847.529 M127.2 843.825 Q133.01 843.825 136.066 848.431 Q139.144 853.015 139.144 861.765 Q139.144 870.491 136.066 875.098 Q133.01 879.681 127.2 879.681 Q121.39 879.681 118.311 875.098 Q115.256 870.491 115.256 861.765 Q115.256 853.015 118.311 848.431 Q121.39 843.825 127.2 843.825 Z" fill="#000000" fill-rule="nonzero" fill-opacity="1" /><path clip-path="url(#clip400)" d="M147.362 873.13 L152.246 873.13 L152.246 879.01 L147.362 879.01 L147.362 873.13 Z" fill="#000000" fill-rule="nonzero" fill-opacity="1" /><path clip-path="url(#clip400)" d="M163.241 875.075 L170.88 875.075 L170.88 848.709 L162.57 850.376 L162.57 846.117 L170.834 844.45 L175.51 844.45 L175.51 875.075 L183.149 875.075 L183.149 879.01 L163.241 879.01 L163.241 875.075 Z" fill="#000000" fill-rule="nonzero" fill-opacity="1" /><path clip-path="url(#clip400)" d="M192.639 844.45 L210.996 844.45 L210.996 848.385 L196.922 848.385 L196.922 856.857 Q197.94 856.51 198.959 856.348 Q199.977 856.163 200.996 856.163 Q206.783 856.163 210.162 859.334 Q213.542 862.505 213.542 867.922 Q213.542 873.501 210.07 876.603 Q206.598 879.681 200.278 879.681 Q198.102 879.681 195.834 879.311 Q193.588 878.941 191.181 878.2 L191.181 873.501 Q193.264 874.635 195.487 875.191 Q197.709 875.746 200.186 875.746 Q204.19 875.746 206.528 873.64 Q208.866 871.533 208.866 867.922 Q208.866 864.311 206.528 862.205 Q204.19 860.098 200.186 860.098 Q198.311 860.098 196.436 860.515 Q194.584 860.931 192.639 861.811 L192.639 844.45 Z" fill="#000000" fill-rule="nonzero" fill-opacity="1" /><path clip-path="url(#clip400)" d="M126.205 645.445 Q122.593 645.445 120.765 649.01 Q118.959 652.552 118.959 659.681 Q118.959 666.788 120.765 670.352 Q122.593 673.894 126.205 673.894 Q129.839 673.894 131.644 670.352 Q133.473 666.788 133.473 659.681 Q133.473 652.552 131.644 649.01 Q129.839 645.445 126.205 645.445 M126.205 641.741 Q132.015 641.741 135.07 646.348 Q138.149 650.931 138.149 659.681 Q138.149 668.408 135.07 673.014 Q132.015 677.598 126.205 677.598 Q120.394 677.598 117.316 673.014 Q114.26 668.408 114.26 659.681 Q114.26 650.931 117.316 646.348 Q120.394 641.741 126.205 641.741 Z" fill="#000000" fill-rule="nonzero" fill-opacity="1" /><path clip-path="url(#clip400)" d="M146.366 671.047 L151.251 671.047 L151.251 676.926 L146.366 676.926 L146.366 671.047 Z" fill="#000000" fill-rule="nonzero" fill-opacity="1" /><path clip-path="url(#clip400)" d="M165.464 672.991 L181.783 672.991 L181.783 676.926 L159.839 676.926 L159.839 672.991 Q162.501 670.237 167.084 665.607 Q171.69 660.954 172.871 659.612 Q175.116 657.089 175.996 655.353 Q176.899 653.593 176.899 651.903 Q176.899 649.149 174.954 647.413 Q173.033 645.677 169.931 645.677 Q167.732 645.677 165.278 646.441 Q162.848 647.204 160.07 648.755 L160.07 644.033 Q162.894 642.899 165.348 642.32 Q167.802 641.741 169.839 641.741 Q175.209 641.741 178.403 644.427 Q181.598 647.112 181.598 651.603 Q181.598 653.732 180.788 655.653 Q180.001 657.552 177.894 660.144 Q177.315 660.815 174.214 664.033 Q171.112 667.227 165.464 672.991 Z" fill="#000000" fill-rule="nonzero" fill-opacity="1" /><path clip-path="url(#clip400)" d="M201.598 645.445 Q197.987 645.445 196.158 649.01 Q194.352 652.552 194.352 659.681 Q194.352 666.788 196.158 670.352 Q197.987 673.894 201.598 673.894 Q205.232 673.894 207.037 670.352 Q208.866 666.788 208.866 659.681 Q208.866 652.552 207.037 649.01 Q205.232 645.445 201.598 645.445 M201.598 641.741 Q207.408 641.741 210.463 646.348 Q213.542 650.931 213.542 659.681 Q213.542 668.408 210.463 673.014 Q207.408 677.598 201.598 677.598 Q195.787 677.598 192.709 673.014 Q189.653 668.408 189.653 659.681 Q189.653 650.931 192.709 646.348 Q195.787 641.741 201.598 641.741 Z" fill="#000000" fill-rule="nonzero" fill-opacity="1" /><path clip-path="url(#clip400)" d="M127.2 443.362 Q123.589 443.362 121.76 446.926 Q119.955 450.468 119.955 457.598 Q119.955 464.704 121.76 468.269 Q123.589 471.811 127.2 471.811 Q130.834 471.811 132.64 468.269 Q134.468 464.704 134.468 457.598 Q134.468 450.468 132.64 446.926 Q130.834 443.362 127.2 443.362 M127.2 439.658 Q133.01 439.658 136.066 444.264 Q139.144 448.848 139.144 457.598 Q139.144 466.324 136.066 470.931 Q133.01 475.514 127.2 475.514 Q121.39 475.514 118.311 470.931 Q115.256 466.324 115.256 457.598 Q115.256 448.848 118.311 444.264 Q121.39 439.658 127.2 439.658 Z" fill="#000000" fill-rule="nonzero" fill-opacity="1" /><path clip-path="url(#clip400)" d="M147.362 468.963 L152.246 468.963 L152.246 474.843 L147.362 474.843 L147.362 468.963 Z" fill="#000000" fill-rule="nonzero" fill-opacity="1" /><path clip-path="url(#clip400)" d="M166.459 470.908 L182.778 470.908 L182.778 474.843 L160.834 474.843 L160.834 470.908 Q163.496 468.153 168.079 463.524 Q172.686 458.871 173.866 457.528 Q176.112 455.005 176.991 453.269 Q177.894 451.51 177.894 449.82 Q177.894 447.065 175.95 445.329 Q174.028 443.593 170.927 443.593 Q168.727 443.593 166.274 444.357 Q163.843 445.121 161.065 446.672 L161.065 441.95 Q163.89 440.815 166.343 440.237 Q168.797 439.658 170.834 439.658 Q176.204 439.658 179.399 442.343 Q182.593 445.028 182.593 449.519 Q182.593 451.649 181.783 453.57 Q180.996 455.468 178.889 458.061 Q178.311 458.732 175.209 461.95 Q172.107 465.144 166.459 470.908 Z" fill="#000000" fill-rule="nonzero" fill-opacity="1" /><path clip-path="url(#clip400)" d="M192.639 440.283 L210.996 440.283 L210.996 444.218 L196.922 444.218 L196.922 452.69 Q197.94 452.343 198.959 452.181 Q199.977 451.996 200.996 451.996 Q206.783 451.996 210.162 455.167 Q213.542 458.338 213.542 463.755 Q213.542 469.334 210.07 472.436 Q206.598 475.514 200.278 475.514 Q198.102 475.514 195.834 475.144 Q193.588 474.774 191.181 474.033 L191.181 469.334 Q193.264 470.468 195.487 471.024 Q197.709 471.579 200.186 471.579 Q204.19 471.579 206.528 469.473 Q208.866 467.366 208.866 463.755 Q208.866 460.144 206.528 458.038 Q204.19 455.931 200.186 455.931 Q198.311 455.931 196.436 456.348 Q194.584 456.764 192.639 457.644 L192.639 440.283 Z" fill="#000000" fill-rule="nonzero" fill-opacity="1" /><path clip-path="url(#clip400)" d="M126.205 241.278 Q122.593 241.278 120.765 244.843 Q118.959 248.385 118.959 255.514 Q118.959 262.621 120.765 266.185 Q122.593 269.727 126.205 269.727 Q129.839 269.727 131.644 266.185 Q133.473 262.621 133.473 255.514 Q133.473 248.385 131.644 244.843 Q129.839 241.278 126.205 241.278 M126.205 237.574 Q132.015 237.574 135.07 242.181 Q138.149 246.764 138.149 255.514 Q138.149 264.241 135.07 268.847 Q132.015 273.431 126.205 273.431 Q120.394 273.431 117.316 268.847 Q114.26 264.241 114.26 255.514 Q114.26 246.764 117.316 242.181 Q120.394 237.574 126.205 237.574 Z" fill="#000000" fill-rule="nonzero" fill-opacity="1" /><path clip-path="url(#clip400)" d="M146.366 266.88 L151.251 266.88 L151.251 272.759 L146.366 272.759 L146.366 266.88 Z" fill="#000000" fill-rule="nonzero" fill-opacity="1" /><path clip-path="url(#clip400)" d="M175.602 254.125 Q178.959 254.843 180.834 257.111 Q182.732 259.38 182.732 262.713 Q182.732 267.829 179.214 270.63 Q175.695 273.431 169.214 273.431 Q167.038 273.431 164.723 272.991 Q162.431 272.574 159.978 271.718 L159.978 267.204 Q161.922 268.338 164.237 268.917 Q166.552 269.496 169.075 269.496 Q173.473 269.496 175.764 267.759 Q178.079 266.023 178.079 262.713 Q178.079 259.658 175.926 257.945 Q173.797 256.209 169.977 256.209 L165.95 256.209 L165.95 252.366 L170.163 252.366 Q173.612 252.366 175.44 251 Q177.269 249.611 177.269 247.019 Q177.269 244.357 175.371 242.945 Q173.496 241.51 169.977 241.51 Q168.056 241.51 165.857 241.926 Q163.658 242.343 161.019 243.223 L161.019 239.056 Q163.681 238.315 165.996 237.945 Q168.334 237.574 170.394 237.574 Q175.718 237.574 178.82 240.005 Q181.922 242.412 181.922 246.533 Q181.922 249.403 180.278 251.394 Q178.635 253.361 175.602 254.125 Z" fill="#000000" fill-rule="nonzero" fill-opacity="1" /><path clip-path="url(#clip400)" d="M201.598 241.278 Q197.987 241.278 196.158 244.843 Q194.352 248.385 194.352 255.514 Q194.352 262.621 196.158 266.185 Q197.987 269.727 201.598 269.727 Q205.232 269.727 207.037 266.185 Q208.866 262.621 208.866 255.514 Q208.866 248.385 207.037 244.843 Q205.232 241.278 201.598 241.278 M201.598 237.574 Q207.408 237.574 210.463 242.181 Q213.542 246.764 213.542 255.514 Q213.542 264.241 210.463 268.847 Q207.408 273.431 201.598 273.431 Q195.787 273.431 192.709 268.847 Q189.653 264.241 189.653 255.514 Q189.653 246.764 192.709 242.181 Q195.787 237.574 201.598 237.574 Z" fill="#000000" fill-rule="nonzero" fill-opacity="1" /><path clip-path="url(#clip400)" d="M127.2 39.1947 Q123.589 39.1947 121.76 42.7595 Q119.955 46.3011 119.955 53.4307 Q119.955 60.5371 121.76 64.1019 Q123.589 67.6436 127.2 67.6436 Q130.834 67.6436 132.64 64.1019 Q134.468 60.5371 134.468 53.4307 Q134.468 46.3011 132.64 42.7595 Q130.834 39.1947 127.2 39.1947 M127.2 35.491 Q133.01 35.491 136.066 40.0974 Q139.144 44.6807 139.144 53.4307 Q139.144 62.1575 136.066 66.764 Q133.01 71.3473 127.2 71.3473 Q121.39 71.3473 118.311 66.764 Q115.256 62.1575 115.256 53.4307 Q115.256 44.6807 118.311 40.0974 Q121.39 35.491 127.2 35.491 Z" fill="#000000" fill-rule="nonzero" fill-opacity="1" /><path clip-path="url(#clip400)" d="M147.362 64.7964 L152.246 64.7964 L152.246 70.676 L147.362 70.676 L147.362 64.7964 Z" fill="#000000" fill-rule="nonzero" fill-opacity="1" /><path clip-path="url(#clip400)" d="M176.598 52.0418 Q179.954 52.7594 181.829 55.0279 Q183.727 57.2964 183.727 60.6297 Q183.727 65.7454 180.209 68.5464 Q176.69 71.3473 170.209 71.3473 Q168.033 71.3473 165.718 70.9074 Q163.427 70.4908 160.973 69.6343 L160.973 65.1204 Q162.917 66.2547 165.232 66.8334 Q167.547 67.4121 170.07 67.4121 Q174.468 67.4121 176.76 65.676 Q179.075 63.9399 179.075 60.6297 Q179.075 57.5742 176.922 55.8612 Q174.792 54.1251 170.973 54.1251 L166.945 54.1251 L166.945 50.2826 L171.158 50.2826 Q174.607 50.2826 176.436 48.9168 Q178.264 47.5279 178.264 44.9354 Q178.264 42.2733 176.366 40.8613 Q174.491 39.4261 170.973 39.4261 Q169.052 39.4261 166.852 39.8428 Q164.653 40.2595 162.015 41.1391 L162.015 36.9724 Q164.677 36.2317 166.991 35.8613 Q169.329 35.491 171.389 35.491 Q176.714 35.491 179.815 37.9215 Q182.917 40.3289 182.917 44.4493 Q182.917 47.3196 181.274 49.3103 Q179.63 51.2779 176.598 52.0418 Z" fill="#000000" fill-rule="nonzero" fill-opacity="1" /><path clip-path="url(#clip400)" d="M192.639 36.116 L210.996 36.116 L210.996 40.0511 L196.922 40.0511 L196.922 48.5233 Q197.94 48.1761 198.959 48.0141 Q199.977 47.8289 200.996 47.8289 Q206.783 47.8289 210.162 51.0001 Q213.542 54.1714 213.542 59.5881 Q213.542 65.1667 210.07 68.2686 Q206.598 71.3473 200.278 71.3473 Q198.102 71.3473 195.834 70.9769 Q193.588 70.6065 191.181 69.8658 L191.181 65.1667 Q193.264 66.301 195.487 66.8565 Q197.709 67.4121 200.186 67.4121 Q204.19 67.4121 206.528 65.3056 Q208.866 63.1992 208.866 59.5881 Q208.866 55.977 206.528 53.8705 Q204.19 51.764 200.186 51.764 Q198.311 51.764 196.436 52.1807 Q194.584 52.5974 192.639 53.477 L192.639 36.116 Z" fill="#000000" fill-rule="nonzero" fill-opacity="1" /><path clip-path="url(#clip400)" d="M20.1444 1178.76 L26.9239 1178.76 Q23.9002 1182.01 22.4043 1185.7 Q20.9083 1189.36 20.9083 1193.5 Q20.9083 1201.64 25.9054 1205.97 Q30.8707 1210.3 40.2919 1210.3 Q49.6813 1210.3 54.6784 1205.97 Q59.6436 1201.64 59.6436 1193.5 Q59.6436 1189.36 58.1477 1185.7 Q56.6518 1182.01 53.6281 1178.76 L60.3439 1178.76 Q62.6355 1182.13 63.7814 1185.92 Q64.9272 1189.68 64.9272 1193.88 Q64.9272 1204.67 58.3387 1210.87 Q51.7183 1217.08 40.2919 1217.08 Q28.8336 1217.08 22.2451 1210.87 Q15.6248 1204.67 15.6248 1193.88 Q15.6248 1189.61 16.7706 1185.86 Q17.8846 1182.07 20.1444 1178.76 Z" fill="#000000" fill-rule="nonzero" fill-opacity="1" /><path clip-path="url(#clip400)" d="M32.4621 1155.27 Q32.4621 1159.98 36.1542 1162.72 Q39.8145 1165.45 46.212 1165.45 Q52.6095 1165.45 56.3017 1162.75 Q59.9619 1160.01 59.9619 1155.27 Q59.9619 1150.59 56.2698 1147.85 Q52.5777 1145.12 46.212 1145.12 Q39.8781 1145.12 36.186 1147.85 Q32.4621 1150.59 32.4621 1155.27 M27.4968 1155.27 Q27.4968 1147.63 32.4621 1143.27 Q37.4273 1138.91 46.212 1138.91 Q54.9649 1138.91 59.9619 1143.27 Q64.9272 1147.63 64.9272 1155.27 Q64.9272 1162.94 59.9619 1167.3 Q54.9649 1171.63 46.212 1171.63 Q37.4273 1171.63 32.4621 1167.3 Q27.4968 1162.94 27.4968 1155.27 Z" fill="#000000" fill-rule="nonzero" fill-opacity="1" /><path clip-path="url(#clip400)" d="M29.7248 1103.55 L35.1993 1103.55 Q33.8307 1106.03 33.1623 1108.54 Q32.4621 1111.03 32.4621 1113.57 Q32.4621 1119.27 36.0905 1122.42 Q39.6872 1125.57 46.212 1125.57 Q52.7369 1125.57 56.3653 1122.42 Q59.9619 1119.27 59.9619 1113.57 Q59.9619 1111.03 59.2935 1108.54 Q58.5933 1106.03 57.2247 1103.55 L62.6355 1103.55 Q63.7814 1106 64.3543 1108.64 Q64.9272 1111.25 64.9272 1114.21 Q64.9272 1122.26 59.8664 1127.01 Q54.8057 1131.75 46.212 1131.75 Q37.491 1131.75 32.4939 1126.97 Q27.4968 1122.17 27.4968 1113.83 Q27.4968 1111.12 28.0697 1108.54 Q28.6108 1105.97 29.7248 1103.55 Z" fill="#000000" fill-rule="nonzero" fill-opacity="1" /><path clip-path="url(#clip400)" d="M28.3562 1093.36 L28.3562 1087.51 L64.0042 1087.51 L64.0042 1093.36 L28.3562 1093.36 M14.479 1093.36 L14.479 1087.51 L21.895 1087.51 L21.895 1093.36 L14.479 1093.36 Z" fill="#000000" fill-rule="nonzero" fill-opacity="1" /><path clip-path="url(#clip400)" d="M44.7161 1044.76 L47.5806 1044.76 L47.5806 1071.69 Q53.6281 1071.31 56.8109 1068.06 Q59.9619 1064.78 59.9619 1058.96 Q59.9619 1055.58 59.1344 1052.43 Q58.3069 1049.25 56.6518 1046.13 L62.1899 1046.13 Q63.5267 1049.28 64.227 1052.59 Q64.9272 1055.9 64.9272 1059.31 Q64.9272 1067.84 59.9619 1072.83 Q54.9967 1077.8 46.5303 1077.8 Q37.7774 1077.8 32.6531 1073.09 Q27.4968 1068.35 27.4968 1060.32 Q27.4968 1053.13 32.1438 1048.96 Q36.7589 1044.76 44.7161 1044.76 M42.9973 1050.62 Q38.1912 1050.68 35.3266 1053.32 Q32.4621 1055.93 32.4621 1060.26 Q32.4621 1065.16 35.2312 1068.12 Q38.0002 1071.05 43.0292 1071.5 L42.9973 1050.62 Z" fill="#000000" fill-rule="nonzero" fill-opacity="1" /><path clip-path="url(#clip400)" d="M42.4881 1005.52 L64.0042 1005.52 L64.0042 1011.37 L42.679 1011.37 Q37.6183 1011.37 35.1038 1013.35 Q32.5894 1015.32 32.5894 1019.27 Q32.5894 1024.01 35.6131 1026.75 Q38.6368 1029.48 43.8567 1029.48 L64.0042 1029.48 L64.0042 1035.37 L28.3562 1035.37 L28.3562 1029.48 L33.8944 1029.48 Q30.6797 1027.38 29.0883 1024.55 Q27.4968 1021.68 27.4968 1017.96 Q27.4968 1011.82 31.3163 1008.67 Q35.1038 1005.52 42.4881 1005.52 Z" fill="#000000" fill-rule="nonzero" fill-opacity="1" /><path clip-path="url(#clip400)" d="M18.2347 988.042 L28.3562 988.042 L28.3562 975.979 L32.9077 975.979 L32.9077 988.042 L52.2594 988.042 Q56.6199 988.042 57.8613 986.864 Q59.1026 985.655 59.1026 981.995 L59.1026 975.979 L64.0042 975.979 L64.0042 981.995 Q64.0042 988.774 61.4897 991.352 Q58.9434 993.93 52.2594 993.93 L32.9077 993.93 L32.9077 998.227 L28.3562 998.227 L28.3562 993.93 L18.2347 993.93 L18.2347 988.042 Z" fill="#000000" fill-rule="nonzero" fill-opacity="1" /><path clip-path="url(#clip400)" d="M44.7161 937.785 L47.5806 937.785 L47.5806 964.712 Q53.6281 964.33 56.8109 961.083 Q59.9619 957.805 59.9619 951.98 Q59.9619 948.606 59.1344 945.455 Q58.3069 942.272 56.6518 939.153 L62.1899 939.153 Q63.5267 942.304 64.227 945.614 Q64.9272 948.925 64.9272 952.33 Q64.9272 960.86 59.9619 965.857 Q54.9967 970.823 46.5303 970.823 Q37.7774 970.823 32.6531 966.112 Q27.4968 961.37 27.4968 953.349 Q27.4968 946.156 32.1438 941.986 Q36.7589 937.785 44.7161 937.785 M42.9973 943.641 Q38.1912 943.705 35.3266 946.347 Q32.4621 948.956 32.4621 953.285 Q32.4621 958.187 35.2312 961.147 Q38.0002 964.075 43.0292 964.521 L42.9973 943.641 Z" fill="#000000" fill-rule="nonzero" fill-opacity="1" /><path clip-path="url(#clip400)" d="M14.5426 893.384 Q21.8632 897.649 29.0246 899.718 Q36.186 901.787 43.5384 901.787 Q50.8908 901.787 58.1159 899.718 Q65.3091 897.617 72.5979 893.384 L72.5979 898.476 Q65.1182 903.251 57.8931 905.638 Q50.668 907.993 43.5384 907.993 Q36.4406 907.993 29.2474 905.638 Q22.0542 903.283 14.5426 898.476 L14.5426 893.384 Z" fill="#000000" fill-rule="nonzero" fill-opacity="1" /><path clip-path="url(#clip400)" d="M16.4842 881.766 L16.4842 851.72 L21.895 851.72 L21.895 875.337 L35.9632 875.337 L35.9632 852.707 L41.3741 852.707 L41.3741 875.337 L58.5933 875.337 L58.5933 851.147 L64.0042 851.147 L64.0042 881.766 L16.4842 881.766 Z" fill="#000000" fill-rule="nonzero" fill-opacity="1" /><path clip-path="url(#clip400)" d="M29.4065 818.109 L34.9447 818.109 Q33.6716 820.592 33.035 823.266 Q32.3984 825.939 32.3984 828.804 Q32.3984 833.164 33.7352 835.36 Q35.072 837.525 37.7456 837.525 Q39.7826 837.525 40.9603 835.965 Q42.1061 834.406 43.1565 829.695 L43.6021 827.69 Q44.9389 821.451 47.3897 818.841 Q49.8086 816.2 54.1691 816.2 Q59.1344 816.2 62.0308 820.146 Q64.9272 824.061 64.9272 830.936 Q64.9272 833.801 64.3543 836.92 Q63.8132 840.007 62.6992 843.445 L56.6518 843.445 Q58.3387 840.198 59.198 837.047 Q60.0256 833.896 60.0256 830.809 Q60.0256 826.671 58.6251 824.443 Q57.1929 822.215 54.6147 822.215 Q52.2276 822.215 50.9545 823.839 Q49.6813 825.43 48.5037 830.873 L48.0262 832.91 Q46.8804 838.352 44.5251 840.771 Q42.138 843.19 38.0002 843.19 Q32.9713 843.19 30.2341 839.625 Q27.4968 836.061 27.4968 829.504 Q27.4968 826.257 27.9743 823.393 Q28.4517 820.528 29.4065 818.109 Z" fill="#000000" fill-rule="nonzero" fill-opacity="1" /><path clip-path="url(#clip400)" d="M29.7248 781.22 L35.1993 781.22 Q33.8307 783.703 33.1623 786.217 Q32.4621 788.7 32.4621 791.246 Q32.4621 796.943 36.0905 800.094 Q39.6872 803.245 46.212 803.245 Q52.7369 803.245 56.3653 800.094 Q59.9619 796.943 59.9619 791.246 Q59.9619 788.7 59.2935 786.217 Q58.5933 783.703 57.2247 781.22 L62.6355 781.22 Q63.7814 783.671 64.3543 786.313 Q64.9272 788.923 64.9272 791.883 Q64.9272 799.935 59.8664 804.678 Q54.8057 809.42 46.212 809.42 Q37.491 809.42 32.4939 804.646 Q27.4968 799.84 27.4968 791.501 Q27.4968 788.795 28.0697 786.217 Q28.6108 783.639 29.7248 781.22 Z" fill="#000000" fill-rule="nonzero" fill-opacity="1" /><path clip-path="url(#clip400)" d="M46.0847 754.834 Q46.0847 761.932 47.7079 764.669 Q49.3312 767.407 53.2461 767.407 Q56.3653 767.407 58.2114 765.37 Q60.0256 763.301 60.0256 759.768 Q60.0256 754.898 56.5881 751.97 Q53.1188 749.01 47.3897 749.01 L46.0847 749.01 L46.0847 754.834 M43.6657 743.153 L64.0042 743.153 L64.0042 749.01 L58.5933 749.01 Q61.8398 751.015 63.3994 754.007 Q64.9272 756.999 64.9272 761.327 Q64.9272 766.802 61.8716 770.048 Q58.7843 773.263 53.6281 773.263 Q47.6125 773.263 44.5569 769.253 Q41.5014 765.21 41.5014 757.221 L41.5014 749.01 L40.9285 749.01 Q36.8862 749.01 34.6901 751.683 Q32.4621 754.325 32.4621 759.131 Q32.4621 762.187 33.1941 765.083 Q33.9262 767.979 35.3903 770.653 L29.9795 770.653 Q28.7381 767.438 28.1334 764.415 Q27.4968 761.391 27.4968 758.526 Q27.4968 750.792 31.5072 746.973 Q35.5176 743.153 43.6657 743.153 Z" fill="#000000" fill-rule="nonzero" fill-opacity="1" /><path clip-path="url(#clip400)" d="M14.479 731.09 L14.479 725.234 L64.0042 725.234 L64.0042 731.09 L14.479 731.09 Z" fill="#000000" fill-rule="nonzero" fill-opacity="1" /><path clip-path="url(#clip400)" d="M46.0847 696.779 Q46.0847 703.877 47.7079 706.614 Q49.3312 709.351 53.2461 709.351 Q56.3653 709.351 58.2114 707.314 Q60.0256 705.245 60.0256 701.712 Q60.0256 696.843 56.5881 693.914 Q53.1188 690.954 47.3897 690.954 L46.0847 690.954 L46.0847 696.779 M43.6657 685.098 L64.0042 685.098 L64.0042 690.954 L58.5933 690.954 Q61.8398 692.96 63.3994 695.951 Q64.9272 698.943 64.9272 703.272 Q64.9272 708.747 61.8716 711.993 Q58.7843 715.208 53.6281 715.208 Q47.6125 715.208 44.5569 711.197 Q41.5014 707.155 41.5014 699.166 L41.5014 690.954 L40.9285 690.954 Q36.8862 690.954 34.6901 693.628 Q32.4621 696.27 32.4621 701.076 Q32.4621 704.131 33.1941 707.028 Q33.9262 709.924 35.3903 712.598 L29.9795 712.598 Q28.7381 709.383 28.1334 706.359 Q27.4968 703.336 27.4968 700.471 Q27.4968 692.737 31.5072 688.917 Q35.5176 685.098 43.6657 685.098 Z" fill="#000000" fill-rule="nonzero" fill-opacity="1" /><path clip-path="url(#clip400)" d="M14.479 652.315 L14.479 646.458 L64.0042 646.458 L64.0042 652.315 L14.479 652.315 Z" fill="#000000" fill-rule="nonzero" fill-opacity="1" /><path clip-path="url(#clip400)" d="M32.4621 620.391 Q32.4621 625.101 36.1542 627.838 Q39.8145 630.576 46.212 630.576 Q52.6095 630.576 56.3017 627.87 Q59.9619 625.133 59.9619 620.391 Q59.9619 615.712 56.2698 612.974 Q52.5777 610.237 46.212 610.237 Q39.8781 610.237 36.186 612.974 Q32.4621 615.712 32.4621 620.391 M27.4968 620.391 Q27.4968 612.752 32.4621 608.391 Q37.4273 604.031 46.212 604.031 Q54.9649 604.031 59.9619 608.391 Q64.9272 612.752 64.9272 620.391 Q64.9272 628.061 59.9619 632.422 Q54.9649 636.75 46.212 636.75 Q37.4273 636.75 32.4621 632.422 Q27.4968 628.061 27.4968 620.391 Z" fill="#000000" fill-rule="nonzero" fill-opacity="1" /><path clip-path="url(#clip400)" d="M45.7664 570.865 Q39.4007 570.865 35.8996 573.507 Q32.3984 576.117 32.3984 580.859 Q32.3984 585.57 35.8996 588.212 Q39.4007 590.822 45.7664 590.822 Q52.1003 590.822 55.6014 588.212 Q59.1026 585.57 59.1026 580.859 Q59.1026 576.117 55.6014 573.507 Q52.1003 570.865 45.7664 570.865 M59.58 565.009 Q68.683 565.009 73.1071 569.051 Q77.5631 573.093 77.5631 581.432 Q77.5631 584.52 77.0857 587.257 Q76.6401 589.994 75.6852 592.572 L69.9879 592.572 Q71.3884 589.994 72.0568 587.48 Q72.7252 584.965 72.7252 582.355 Q72.7252 576.594 69.7015 573.73 Q66.7096 570.865 60.6303 570.865 L57.7339 570.865 Q60.885 572.68 62.4446 575.512 Q64.0042 578.345 64.0042 582.292 Q64.0042 588.848 59.0071 592.859 Q54.01 596.869 45.7664 596.869 Q37.491 596.869 32.4939 592.859 Q27.4968 588.848 27.4968 582.292 Q27.4968 578.345 29.0564 575.512 Q30.616 572.68 33.7671 570.865 L28.3562 570.865 L28.3562 565.009 L59.58 565.009 Z" fill="#000000" fill-rule="nonzero" fill-opacity="1" /><path clip-path="url(#clip400)" d="M46.0847 536.745 Q46.0847 543.843 47.7079 546.58 Q49.3312 549.317 53.2461 549.317 Q56.3653 549.317 58.2114 547.28 Q60.0256 545.212 60.0256 541.679 Q60.0256 536.809 56.5881 533.881 Q53.1188 530.921 47.3897 530.921 L46.0847 530.921 L46.0847 536.745 M43.6657 525.064 L64.0042 525.064 L64.0042 530.921 L58.5933 530.921 Q61.8398 532.926 63.3994 535.918 Q64.9272 538.909 64.9272 543.238 Q64.9272 548.713 61.8716 551.959 Q58.7843 555.174 53.6281 555.174 Q47.6125 555.174 44.5569 551.163 Q41.5014 547.121 41.5014 539.132 L41.5014 530.921 L40.9285 530.921 Q36.8862 530.921 34.6901 533.594 Q32.4621 536.236 32.4621 541.042 Q32.4621 544.098 33.1941 546.994 Q33.9262 549.89 35.3903 552.564 L29.9795 552.564 Q28.7381 549.349 28.1334 546.326 Q27.4968 543.302 27.4968 540.437 Q27.4968 532.703 31.5072 528.884 Q35.5176 525.064 43.6657 525.064 Z" fill="#000000" fill-rule="nonzero" fill-opacity="1" /><path clip-path="url(#clip400)" d="M33.8307 492.344 Q33.2578 493.331 33.0032 494.509 Q32.7167 495.655 32.7167 497.055 Q32.7167 502.02 35.9632 504.694 Q39.1779 507.336 45.2253 507.336 L64.0042 507.336 L64.0042 513.224 L28.3562 513.224 L28.3562 507.336 L33.8944 507.336 Q30.6479 505.49 29.0883 502.529 Q27.4968 499.569 27.4968 495.336 Q27.4968 494.731 27.5923 493.999 Q27.656 493.267 27.8151 492.376 L33.8307 492.344 Z" fill="#000000" fill-rule="nonzero" fill-opacity="1" /><path clip-path="url(#clip400)" d="M28.3562 486.201 L28.3562 480.345 L64.0042 480.345 L64.0042 486.201 L28.3562 486.201 M14.479 486.201 L14.479 480.345 L21.895 480.345 L21.895 486.201 L14.479 486.201 Z" fill="#000000" fill-rule="nonzero" fill-opacity="1" /><path clip-path="url(#clip400)" d="M18.2347 462.298 L28.3562 462.298 L28.3562 450.235 L32.9077 450.235 L32.9077 462.298 L52.2594 462.298 Q56.6199 462.298 57.8613 461.121 Q59.1026 459.911 59.1026 456.251 L59.1026 450.235 L64.0042 450.235 L64.0042 456.251 Q64.0042 463.03 61.4897 465.608 Q58.9434 468.186 52.2594 468.186 L32.9077 468.186 L32.9077 472.483 L28.3562 472.483 L28.3562 468.186 L18.2347 468.186 L18.2347 462.298 Z" fill="#000000" fill-rule="nonzero" fill-opacity="1" /><path clip-path="url(#clip400)" d="M28.3562 442.533 L28.3562 436.676 L64.0042 436.676 L64.0042 442.533 L28.3562 442.533 M14.479 442.533 L14.479 436.676 L21.895 436.676 L21.895 442.533 L14.479 442.533 Z" fill="#000000" fill-rule="nonzero" fill-opacity="1" /><path clip-path="url(#clip400)" d="M35.1993 396.668 Q31.2526 394.472 29.3747 391.416 Q27.4968 388.361 27.4968 384.223 Q27.4968 378.653 31.4117 375.629 Q35.2948 372.605 42.4881 372.605 L64.0042 372.605 L64.0042 378.494 L42.679 378.494 Q37.5546 378.494 35.072 380.308 Q32.5894 382.122 32.5894 385.846 Q32.5894 390.398 35.6131 393.039 Q38.6368 395.681 43.8567 395.681 L64.0042 395.681 L64.0042 401.569 L42.679 401.569 Q37.5228 401.569 35.072 403.384 Q32.5894 405.198 32.5894 408.985 Q32.5894 413.473 35.6449 416.115 Q38.6686 418.757 43.8567 418.757 L64.0042 418.757 L64.0042 424.645 L28.3562 424.645 L28.3562 418.757 L33.8944 418.757 Q30.616 416.752 29.0564 413.951 Q27.4968 411.15 27.4968 407.299 Q27.4968 403.415 29.4702 400.71 Q31.4436 397.973 35.1993 396.668 Z" fill="#000000" fill-rule="nonzero" fill-opacity="1" /><path clip-path="url(#clip400)" d="M28.3562 360.924 L28.3562 355.068 L64.0042 355.068 L64.0042 360.924 L28.3562 360.924 M14.479 360.924 L14.479 355.068 L21.895 355.068 L21.895 360.924 L14.479 360.924 Z" fill="#000000" fill-rule="nonzero" fill-opacity="1" /><path clip-path="url(#clip400)" d="M29.7248 317.16 L35.1993 317.16 Q33.8307 319.643 33.1623 322.157 Q32.4621 324.64 32.4621 327.186 Q32.4621 332.883 36.0905 336.034 Q39.6872 339.185 46.212 339.185 Q52.7369 339.185 56.3653 336.034 Q59.9619 332.883 59.9619 327.186 Q59.9619 324.64 59.2935 322.157 Q58.5933 319.643 57.2247 317.16 L62.6355 317.16 Q63.7814 319.611 64.3543 322.253 Q64.9272 324.863 64.9272 327.823 Q64.9272 335.875 59.8664 340.618 Q54.8057 345.36 46.212 345.36 Q37.491 345.36 32.4939 340.586 Q27.4968 335.78 27.4968 327.441 Q27.4968 324.735 28.0697 322.157 Q28.6108 319.579 29.7248 317.16 Z" fill="#000000" fill-rule="nonzero" fill-opacity="1" /><path clip-path="url(#clip400)" d="M46.0847 290.774 Q46.0847 297.872 47.7079 300.609 Q49.3312 303.347 53.2461 303.347 Q56.3653 303.347 58.2114 301.309 Q60.0256 299.241 60.0256 295.708 Q60.0256 290.838 56.5881 287.91 Q53.1188 284.95 47.3897 284.95 L46.0847 284.95 L46.0847 290.774 M43.6657 279.093 L64.0042 279.093 L64.0042 284.95 L58.5933 284.95 Q61.8398 286.955 63.3994 289.947 Q64.9272 292.939 64.9272 297.267 Q64.9272 302.742 61.8716 305.988 Q58.7843 309.203 53.6281 309.203 Q47.6125 309.203 44.5569 305.193 Q41.5014 301.15 41.5014 293.161 L41.5014 284.95 L40.9285 284.95 Q36.8862 284.95 34.6901 287.623 Q32.4621 290.265 32.4621 295.071 Q32.4621 298.127 33.1941 301.023 Q33.9262 303.919 35.3903 306.593 L29.9795 306.593 Q28.7381 303.378 28.1334 300.355 Q27.4968 297.331 27.4968 294.466 Q27.4968 286.732 31.5072 282.913 Q35.5176 279.093 43.6657 279.093 Z" fill="#000000" fill-rule="nonzero" fill-opacity="1" /><path clip-path="url(#clip400)" d="M14.5426 267.953 L14.5426 262.861 Q22.0542 258.086 29.2474 255.731 Q36.4406 253.344 43.5384 253.344 Q50.668 253.344 57.8931 255.731 Q65.1182 258.086 72.5979 262.861 L72.5979 267.953 Q65.3091 263.72 58.1159 261.651 Q50.8908 259.55 43.5384 259.55 Q36.186 259.55 29.0246 261.651 Q21.8632 263.72 14.5426 267.953 Z" fill="#000000" fill-rule="nonzero" fill-opacity="1" /><polyline clip-path="url(#clip402)" style="stroke:#009af9; stroke-linecap:round; stroke-linejoin:round; stroke-width:8; stroke-opacity:1; fill:none" points="249.542,86.1857 550.001,871.795 850.46,926.424 1150.92,1011.83 1451.38,1285.84 1751.84,1343.57 2052.3,1374.76 2352.76,1384.24 "/>
</svg>
