<?xml version="1.0" encoding="utf-8"?>
<svg xmlns="http://www.w3.org/2000/svg" xmlns:xlink="http://www.w3.org/1999/xlink" width="600" height="400" viewBox="0 0 2400 1600">
<defs>
  <clipPath id="clip510">
    <rect x="0" y="0" width="2400" height="1600"/>
  </clipPath>
</defs>
<path clip-path="url(#clip510)" d="M0 1600 L2400 1600 L2400 8.88178e-14 L0 8.88178e-14  Z" fill="#ffffff" fill-rule="evenodd" fill-opacity="1"/>
<defs>
  <clipPath id="clip511">
    <rect x="480" y="0" width="1681" height="1600"/>
  </clipPath>
</defs>
<path clip-path="url(#clip510)" d="M156.112 1486.45 L2352.76 1486.45 L2352.76 123.472 L156.112 123.472  Z" fill="#ffffff" fill-rule="evenodd" fill-opacity="1"/>
<defs>
  <clipPath id="clip512">
    <rect x="156" y="123" width="2198" height="1364"/>
  </clipPath>
</defs>
<polyline clip-path="url(#clip512)" style="stroke:#000000; stroke-linecap:round; stroke-linejoin:round; stroke-width:2; stroke-opacity:0.1; fill:none" points="411.759,1486.45 411.759,123.472 "/>
<polyline clip-path="url(#clip512)" style="stroke:#000000; stroke-linecap:round; stroke-linejoin:round; stroke-width:2; stroke-opacity:0.1; fill:none" points="748.829,1486.45 748.829,123.472 "/>
<polyline clip-path="url(#clip512)" style="stroke:#000000; stroke-linecap:round; stroke-linejoin:round; stroke-width:2; stroke-opacity:0.1; fill:none" points="1085.9,1486.45 1085.9,123.472 "/>
<polyline clip-path="url(#clip512)" style="stroke:#000000; stroke-linecap:round; stroke-linejoin:round; stroke-width:2; stroke-opacity:0.1; fill:none" points="1422.97,1486.45 1422.97,123.472 "/>
<polyline clip-path="url(#clip512)" style="stroke:#000000; stroke-linecap:round; stroke-linejoin:round; stroke-width:2; stroke-opacity:0.1; fill:none" points="1760.04,1486.45 1760.04,123.472 "/>
<polyline clip-path="url(#clip512)" style="stroke:#000000; stroke-linecap:round; stroke-linejoin:round; stroke-width:2; stroke-opacity:0.1; fill:none" points="2097.11,1486.45 2097.11,123.472 "/>
<polyline clip-path="url(#clip512)" style="stroke:#000000; stroke-linecap:round; stroke-linejoin:round; stroke-width:2; stroke-opacity:0.1; fill:none" points="156.112,1486.45 2352.76,1486.45 "/>
<polyline clip-path="url(#clip512)" style="stroke:#000000; stroke-linecap:round; stroke-linejoin:round; stroke-width:2; stroke-opacity:0.1; fill:none" points="156.112,1109.77 2352.76,1109.77 "/>
<polyline clip-path="url(#clip512)" style="stroke:#000000; stroke-linecap:round; stroke-linejoin:round; stroke-width:2; stroke-opacity:0.1; fill:none" points="156.112,733.097 2352.76,733.097 "/>
<polyline clip-path="url(#clip512)" style="stroke:#000000; stroke-linecap:round; stroke-linejoin:round; stroke-width:2; stroke-opacity:0.1; fill:none" points="156.112,356.422 2352.76,356.422 "/>
<polyline clip-path="url(#clip510)" style="stroke:#000000; stroke-linecap:round; stroke-linejoin:round; stroke-width:4; stroke-opacity:1; fill:none" points="156.112,1486.45 2352.76,1486.45 "/>
<polyline clip-path="url(#clip510)" style="stroke:#000000; stroke-linecap:round; stroke-linejoin:round; stroke-width:4; stroke-opacity:1; fill:none" points="411.759,1486.45 411.759,1467.55 "/>
<polyline clip-path="url(#clip510)" style="stroke:#000000; stroke-linecap:round; stroke-linejoin:round; stroke-width:4; stroke-opacity:1; fill:none" points="748.829,1486.45 748.829,1467.55 "/>
<polyline clip-path="url(#clip510)" style="stroke:#000000; stroke-linecap:round; stroke-linejoin:round; stroke-width:4; stroke-opacity:1; fill:none" points="1085.9,1486.45 1085.9,1467.55 "/>
<polyline clip-path="url(#clip510)" style="stroke:#000000; stroke-linecap:round; stroke-linejoin:round; stroke-width:4; stroke-opacity:1; fill:none" points="1422.97,1486.45 1422.97,1467.55 "/>
<polyline clip-path="url(#clip510)" style="stroke:#000000; stroke-linecap:round; stroke-linejoin:round; stroke-width:4; stroke-opacity:1; fill:none" points="1760.04,1486.45 1760.04,1467.55 "/>
<polyline clip-path="url(#clip510)" style="stroke:#000000; stroke-linecap:round; stroke-linejoin:round; stroke-width:4; stroke-opacity:1; fill:none" points="2097.11,1486.45 2097.11,1467.55 "/>
<path clip-path="url(#clip510)" d="M358.785 1532.02 L388.461 1532.02 L388.461 1535.95 L358.785 1535.95 L358.785 1532.02 Z" fill="#000000" fill-rule="nonzero" fill-opacity="1" /><path clip-path="url(#clip510)" d="M397.373 1514.29 L419.595 1514.29 L419.595 1516.28 L407.049 1548.85 L402.165 1548.85 L413.97 1518.22 L397.373 1518.22 L397.373 1514.29 Z" fill="#000000" fill-rule="nonzero" fill-opacity="1" /><path clip-path="url(#clip510)" d="M428.715 1542.97 L433.6 1542.97 L433.6 1548.85 L428.715 1548.85 L428.715 1542.97 Z" fill="#000000" fill-rule="nonzero" fill-opacity="1" /><path clip-path="url(#clip510)" d="M443.831 1514.29 L462.187 1514.29 L462.187 1518.22 L448.113 1518.22 L448.113 1526.7 Q449.132 1526.35 450.15 1526.19 Q451.169 1526 452.187 1526 Q457.974 1526 461.354 1529.17 Q464.734 1532.34 464.734 1537.76 Q464.734 1543.34 461.261 1546.44 Q457.789 1549.52 451.47 1549.52 Q449.294 1549.52 447.025 1549.15 Q444.78 1548.78 442.373 1548.04 L442.373 1543.34 Q444.456 1544.47 446.678 1545.03 Q448.9 1545.58 451.377 1545.58 Q455.382 1545.58 457.72 1543.48 Q460.058 1541.37 460.058 1537.76 Q460.058 1534.15 457.72 1532.04 Q455.382 1529.94 451.377 1529.94 Q449.502 1529.94 447.627 1530.35 Q445.775 1530.77 443.831 1531.65 L443.831 1514.29 Z" fill="#000000" fill-rule="nonzero" fill-opacity="1" /><path clip-path="url(#clip510)" d="M695.357 1532.02 L725.033 1532.02 L725.033 1535.95 L695.357 1535.95 L695.357 1532.02 Z" fill="#000000" fill-rule="nonzero" fill-opacity="1" /><path clip-path="url(#clip510)" d="M735.172 1514.29 L753.528 1514.29 L753.528 1518.22 L739.454 1518.22 L739.454 1526.7 Q740.473 1526.35 741.491 1526.19 Q742.51 1526 743.528 1526 Q749.315 1526 752.695 1529.17 Q756.075 1532.34 756.075 1537.76 Q756.075 1543.34 752.602 1546.44 Q749.13 1549.52 742.811 1549.52 Q740.635 1549.52 738.366 1549.15 Q736.121 1548.78 733.714 1548.04 L733.714 1543.34 Q735.797 1544.47 738.019 1545.03 Q740.241 1545.58 742.718 1545.58 Q746.723 1545.58 749.061 1543.48 Q751.399 1541.37 751.399 1537.76 Q751.399 1534.15 749.061 1532.04 Q746.723 1529.94 742.718 1529.94 Q740.843 1529.94 738.968 1530.35 Q737.116 1530.77 735.172 1531.65 L735.172 1514.29 Z" fill="#000000" fill-rule="nonzero" fill-opacity="1" /><path clip-path="url(#clip510)" d="M765.287 1542.97 L770.172 1542.97 L770.172 1548.85 L765.287 1548.85 L765.287 1542.97 Z" fill="#000000" fill-rule="nonzero" fill-opacity="1" /><path clip-path="url(#clip510)" d="M790.357 1517.37 Q786.746 1517.37 784.917 1520.93 Q783.111 1524.47 783.111 1531.6 Q783.111 1538.71 784.917 1542.27 Q786.746 1545.82 790.357 1545.82 Q793.991 1545.82 795.797 1542.27 Q797.625 1538.71 797.625 1531.6 Q797.625 1524.47 795.797 1520.93 Q793.991 1517.37 790.357 1517.37 M790.357 1513.66 Q796.167 1513.66 799.222 1518.27 Q802.301 1522.85 802.301 1531.6 Q802.301 1540.33 799.222 1544.94 Q796.167 1549.52 790.357 1549.52 Q784.547 1549.52 781.468 1544.94 Q778.412 1540.33 778.412 1531.6 Q778.412 1522.85 781.468 1518.27 Q784.547 1513.66 790.357 1513.66 Z" fill="#000000" fill-rule="nonzero" fill-opacity="1" /><path clip-path="url(#clip510)" d="M1032.92 1532.02 L1062.6 1532.02 L1062.6 1535.95 L1032.92 1535.95 L1032.92 1532.02 Z" fill="#000000" fill-rule="nonzero" fill-opacity="1" /><path clip-path="url(#clip510)" d="M1076.72 1544.91 L1093.04 1544.91 L1093.04 1548.85 L1071.1 1548.85 L1071.1 1544.91 Q1073.76 1542.16 1078.34 1537.53 Q1082.95 1532.88 1084.13 1531.53 Q1086.37 1529.01 1087.25 1527.27 Q1088.16 1525.51 1088.16 1523.82 Q1088.16 1521.07 1086.21 1519.33 Q1084.29 1517.6 1081.19 1517.6 Q1078.99 1517.6 1076.54 1518.36 Q1074.11 1519.13 1071.33 1520.68 L1071.33 1515.95 Q1074.15 1514.82 1076.61 1514.24 Q1079.06 1513.66 1081.1 1513.66 Q1086.47 1513.66 1089.66 1516.35 Q1092.86 1519.03 1092.86 1523.52 Q1092.86 1525.65 1092.04 1527.57 Q1091.26 1529.47 1089.15 1532.07 Q1088.57 1532.74 1085.47 1535.95 Q1082.37 1539.15 1076.72 1544.91 Z" fill="#000000" fill-rule="nonzero" fill-opacity="1" /><path clip-path="url(#clip510)" d="M1102.86 1542.97 L1107.74 1542.97 L1107.74 1548.85 L1102.86 1548.85 L1102.86 1542.97 Z" fill="#000000" fill-rule="nonzero" fill-opacity="1" /><path clip-path="url(#clip510)" d="M1117.97 1514.29 L1136.33 1514.29 L1136.33 1518.22 L1122.25 1518.22 L1122.25 1526.7 Q1123.27 1526.35 1124.29 1526.19 Q1125.31 1526 1126.33 1526 Q1132.11 1526 1135.49 1529.17 Q1138.87 1532.34 1138.87 1537.76 Q1138.87 1543.34 1135.4 1546.44 Q1131.93 1549.52 1125.61 1549.52 Q1123.43 1549.52 1121.17 1549.15 Q1118.92 1548.78 1116.51 1548.04 L1116.51 1543.34 Q1118.6 1544.47 1120.82 1545.03 Q1123.04 1545.58 1125.52 1545.58 Q1129.52 1545.58 1131.86 1543.48 Q1134.2 1541.37 1134.2 1537.76 Q1134.2 1534.15 1131.86 1532.04 Q1129.52 1529.94 1125.52 1529.94 Q1123.64 1529.94 1121.77 1530.35 Q1119.92 1530.77 1117.97 1531.65 L1117.97 1514.29 Z" fill="#000000" fill-rule="nonzero" fill-opacity="1" /><path clip-path="url(#clip510)" d="M1400.35 1517.37 Q1396.74 1517.37 1394.91 1520.93 Q1393.11 1524.47 1393.11 1531.6 Q1393.11 1538.71 1394.91 1542.27 Q1396.74 1545.82 1400.35 1545.82 Q1403.99 1545.82 1405.79 1542.27 Q1407.62 1538.71 1407.62 1531.6 Q1407.62 1524.47 1405.79 1520.93 Q1403.99 1517.37 1400.35 1517.37 M1400.35 1513.66 Q1406.16 1513.66 1409.22 1518.27 Q1412.3 1522.85 1412.3 1531.6 Q1412.3 1540.33 1409.22 1544.94 Q1406.16 1549.52 1400.35 1549.52 Q1394.54 1549.52 1391.46 1544.94 Q1388.41 1540.33 1388.41 1531.6 Q1388.41 1522.85 1391.46 1518.27 Q1394.54 1513.66 1400.35 1513.66 Z" fill="#000000" fill-rule="nonzero" fill-opacity="1" /><path clip-path="url(#clip510)" d="M1420.52 1542.97 L1425.4 1542.97 L1425.4 1548.85 L1420.52 1548.85 L1420.52 1542.97 Z" fill="#000000" fill-rule="nonzero" fill-opacity="1" /><path clip-path="url(#clip510)" d="M1445.58 1517.37 Q1441.97 1517.37 1440.14 1520.93 Q1438.34 1524.47 1438.34 1531.6 Q1438.34 1538.71 1440.14 1542.27 Q1441.97 1545.82 1445.58 1545.82 Q1449.22 1545.82 1451.02 1542.27 Q1452.85 1538.71 1452.85 1531.6 Q1452.85 1524.47 1451.02 1520.93 Q1449.22 1517.37 1445.58 1517.37 M1445.58 1513.66 Q1451.39 1513.66 1454.45 1518.27 Q1457.53 1522.85 1457.53 1531.6 Q1457.53 1540.33 1454.45 1544.94 Q1451.39 1549.52 1445.58 1549.52 Q1439.77 1549.52 1436.7 1544.94 Q1433.64 1540.33 1433.64 1531.6 Q1433.64 1522.85 1436.7 1518.27 Q1439.77 1513.66 1445.58 1513.66 Z" fill="#000000" fill-rule="nonzero" fill-opacity="1" /><path clip-path="url(#clip510)" d="M1731.78 1544.91 L1748.09 1544.91 L1748.09 1548.85 L1726.15 1548.85 L1726.15 1544.91 Q1728.81 1542.16 1733.4 1537.53 Q1738 1532.88 1739.18 1531.53 Q1741.43 1529.01 1742.31 1527.27 Q1743.21 1525.51 1743.21 1523.82 Q1743.21 1521.07 1741.27 1519.33 Q1739.34 1517.6 1736.24 1517.6 Q1734.04 1517.6 1731.59 1518.36 Q1729.16 1519.13 1726.38 1520.68 L1726.38 1515.95 Q1729.21 1514.82 1731.66 1514.24 Q1734.11 1513.66 1736.15 1513.66 Q1741.52 1513.66 1744.71 1516.35 Q1747.91 1519.03 1747.91 1523.52 Q1747.91 1525.65 1747.1 1527.57 Q1746.31 1529.47 1744.21 1532.07 Q1743.63 1532.74 1740.53 1535.95 Q1737.42 1539.15 1731.78 1544.91 Z" fill="#000000" fill-rule="nonzero" fill-opacity="1" /><path clip-path="url(#clip510)" d="M1757.91 1542.97 L1762.79 1542.97 L1762.79 1548.85 L1757.91 1548.85 L1757.91 1542.97 Z" fill="#000000" fill-rule="nonzero" fill-opacity="1" /><path clip-path="url(#clip510)" d="M1773.02 1514.29 L1791.38 1514.29 L1791.38 1518.22 L1777.31 1518.22 L1777.31 1526.7 Q1778.33 1526.35 1779.34 1526.19 Q1780.36 1526 1781.38 1526 Q1787.17 1526 1790.55 1529.17 Q1793.93 1532.34 1793.93 1537.76 Q1793.93 1543.34 1790.46 1546.44 Q1786.98 1549.52 1780.66 1549.52 Q1778.49 1549.52 1776.22 1549.15 Q1773.97 1548.78 1771.57 1548.04 L1771.57 1543.34 Q1773.65 1544.47 1775.87 1545.03 Q1778.09 1545.58 1780.57 1545.58 Q1784.58 1545.58 1786.91 1543.48 Q1789.25 1541.37 1789.25 1537.76 Q1789.25 1534.15 1786.91 1532.04 Q1784.58 1529.94 1780.57 1529.94 Q1778.7 1529.94 1776.82 1530.35 Q1774.97 1530.77 1773.02 1531.65 L1773.02 1514.29 Z" fill="#000000" fill-rule="nonzero" fill-opacity="1" /><path clip-path="url(#clip510)" d="M2064.27 1514.29 L2082.63 1514.29 L2082.63 1518.22 L2068.56 1518.22 L2068.56 1526.7 Q2069.57 1526.35 2070.59 1526.19 Q2071.61 1526 2072.63 1526 Q2078.42 1526 2081.8 1529.17 Q2085.18 1532.34 2085.18 1537.76 Q2085.18 1543.34 2081.7 1546.44 Q2078.23 1549.52 2071.91 1549.52 Q2069.74 1549.52 2067.47 1549.15 Q2065.22 1548.78 2062.81 1548.04 L2062.81 1543.34 Q2064.9 1544.47 2067.12 1545.03 Q2069.34 1545.58 2071.82 1545.58 Q2075.82 1545.58 2078.16 1543.48 Q2080.5 1541.37 2080.5 1537.76 Q2080.5 1534.15 2078.16 1532.04 Q2075.82 1529.94 2071.82 1529.94 Q2069.94 1529.94 2068.07 1530.35 Q2066.22 1530.77 2064.27 1531.65 L2064.27 1514.29 Z" fill="#000000" fill-rule="nonzero" fill-opacity="1" /><path clip-path="url(#clip510)" d="M2094.39 1542.97 L2099.27 1542.97 L2099.27 1548.85 L2094.39 1548.85 L2094.39 1542.97 Z" fill="#000000" fill-rule="nonzero" fill-opacity="1" /><path clip-path="url(#clip510)" d="M2119.46 1517.37 Q2115.85 1517.37 2114.02 1520.93 Q2112.21 1524.47 2112.21 1531.6 Q2112.21 1538.71 2114.02 1542.27 Q2115.85 1545.82 2119.46 1545.82 Q2123.09 1545.82 2124.9 1542.27 Q2126.73 1538.71 2126.73 1531.6 Q2126.73 1524.47 2124.9 1520.93 Q2123.09 1517.37 2119.46 1517.37 M2119.46 1513.66 Q2125.27 1513.66 2128.32 1518.27 Q2131.4 1522.85 2131.4 1531.6 Q2131.4 1540.33 2128.32 1544.94 Q2125.27 1549.52 2119.46 1549.52 Q2113.65 1549.52 2110.57 1544.94 Q2107.51 1540.33 2107.51 1531.6 Q2107.51 1522.85 2110.57 1518.27 Q2113.65 1513.66 2119.46 1513.66 Z" fill="#000000" fill-rule="nonzero" fill-opacity="1" /><polyline clip-path="url(#clip510)" style="stroke:#000000; stroke-linecap:round; stroke-linejoin:round; stroke-width:4; stroke-opacity:1; fill:none" points="156.112,1486.45 156.112,123.472 "/>
<polyline clip-path="url(#clip510)" style="stroke:#000000; stroke-linecap:round; stroke-linejoin:round; stroke-width:4; stroke-opacity:1; fill:none" points="156.112,1486.45 175.01,1486.45 "/>
<polyline clip-path="url(#clip510)" style="stroke:#000000; stroke-linecap:round; stroke-linejoin:round; stroke-width:4; stroke-opacity:1; fill:none" points="156.112,1109.77 175.01,1109.77 "/>
<polyline clip-path="url(#clip510)" style="stroke:#000000; stroke-linecap:round; stroke-linejoin:round; stroke-width:4; stroke-opacity:1; fill:none" points="156.112,733.097 175.01,733.097 "/>
<polyline clip-path="url(#clip510)" style="stroke:#000000; stroke-linecap:round; stroke-linejoin:round; stroke-width:4; stroke-opacity:1; fill:none" points="156.112,356.422 175.01,356.422 "/>
<path clip-path="url(#clip510)" d="M62.9365 1472.25 Q59.3254 1472.25 57.4967 1475.81 Q55.6912 1479.35 55.6912 1486.48 Q55.6912 1493.59 57.4967 1497.15 Q59.3254 1500.7 62.9365 1500.7 Q66.5707 1500.7 68.3763 1497.15 Q70.205 1493.59 70.205 1486.48 Q70.205 1479.35 68.3763 1475.81 Q66.5707 1472.25 62.9365 1472.25 M62.9365 1468.54 Q68.7467 1468.54 71.8022 1473.15 Q74.8809 1477.73 74.8809 1486.48 Q74.8809 1495.21 71.8022 1499.82 Q68.7467 1504.4 62.9365 1504.4 Q57.1264 1504.4 54.0477 1499.82 Q50.9921 1495.21 50.9921 1486.48 Q50.9921 1477.73 54.0477 1473.15 Q57.1264 1468.54 62.9365 1468.54 Z" fill="#000000" fill-rule="nonzero" fill-opacity="1" /><path clip-path="url(#clip510)" d="M83.0984 1497.85 L87.9827 1497.85 L87.9827 1503.73 L83.0984 1503.73 L83.0984 1497.85 Z" fill="#000000" fill-rule="nonzero" fill-opacity="1" /><path clip-path="url(#clip510)" d="M108.168 1472.25 Q104.557 1472.25 102.728 1475.81 Q100.922 1479.35 100.922 1486.48 Q100.922 1493.59 102.728 1497.15 Q104.557 1500.7 108.168 1500.7 Q111.802 1500.7 113.608 1497.15 Q115.436 1493.59 115.436 1486.48 Q115.436 1479.35 113.608 1475.81 Q111.802 1472.25 108.168 1472.25 M108.168 1468.54 Q113.978 1468.54 117.033 1473.15 Q120.112 1477.73 120.112 1486.48 Q120.112 1495.21 117.033 1499.82 Q113.978 1504.4 108.168 1504.4 Q102.358 1504.4 99.2789 1499.82 Q96.2234 1495.21 96.2234 1486.48 Q96.2234 1477.73 99.2789 1473.15 Q102.358 1468.54 108.168 1468.54 Z" fill="#000000" fill-rule="nonzero" fill-opacity="1" /><path clip-path="url(#clip510)" d="M64.1634 1095.57 Q60.5523 1095.57 58.7236 1099.14 Q56.918 1102.68 56.918 1109.81 Q56.918 1116.91 58.7236 1120.48 Q60.5523 1124.02 64.1634 1124.02 Q67.7976 1124.02 69.6031 1120.48 Q71.4318 1116.91 71.4318 1109.81 Q71.4318 1102.68 69.6031 1099.14 Q67.7976 1095.57 64.1634 1095.57 M64.1634 1091.87 Q69.9735 1091.87 73.029 1096.47 Q76.1077 1101.06 76.1077 1109.81 Q76.1077 1118.53 73.029 1123.14 Q69.9735 1127.72 64.1634 1127.72 Q58.3532 1127.72 55.2745 1123.14 Q52.219 1118.53 52.219 1109.81 Q52.219 1101.06 55.2745 1096.47 Q58.3532 1091.87 64.1634 1091.87 Z" fill="#000000" fill-rule="nonzero" fill-opacity="1" /><path clip-path="url(#clip510)" d="M84.3253 1121.17 L89.2095 1121.17 L89.2095 1127.05 L84.3253 1127.05 L84.3253 1121.17 Z" fill="#000000" fill-rule="nonzero" fill-opacity="1" /><path clip-path="url(#clip510)" d="M100.205 1123.12 L107.844 1123.12 L107.844 1096.75 L99.5335 1098.42 L99.5335 1094.16 L107.797 1092.49 L112.473 1092.49 L112.473 1123.12 L120.112 1123.12 L120.112 1127.05 L100.205 1127.05 L100.205 1123.12 Z" fill="#000000" fill-rule="nonzero" fill-opacity="1" /><path clip-path="url(#clip510)" d="M64.5337 718.896 Q60.9226 718.896 59.0939 722.461 Q57.2884 726.002 57.2884 733.132 Q57.2884 740.238 59.0939 743.803 Q60.9226 747.345 64.5337 747.345 Q68.168 747.345 69.9735 743.803 Q71.8022 740.238 71.8022 733.132 Q71.8022 726.002 69.9735 722.461 Q68.168 718.896 64.5337 718.896 M64.5337 715.192 Q70.3439 715.192 73.3994 719.799 Q76.4781 724.382 76.4781 733.132 Q76.4781 741.859 73.3994 746.465 Q70.3439 751.048 64.5337 751.048 Q58.7236 751.048 55.6449 746.465 Q52.5893 741.859 52.5893 733.132 Q52.5893 724.382 55.6449 719.799 Q58.7236 715.192 64.5337 715.192 Z" fill="#000000" fill-rule="nonzero" fill-opacity="1" /><path clip-path="url(#clip510)" d="M84.6956 744.497 L89.5799 744.497 L89.5799 750.377 L84.6956 750.377 L84.6956 744.497 Z" fill="#000000" fill-rule="nonzero" fill-opacity="1" /><path clip-path="url(#clip510)" d="M103.793 746.442 L120.112 746.442 L120.112 750.377 L98.1678 750.377 L98.1678 746.442 Q100.83 743.687 105.413 739.058 Q110.02 734.405 111.2 733.062 Q113.445 730.539 114.325 728.803 Q115.228 727.044 115.228 725.354 Q115.228 722.599 113.283 720.863 Q111.362 719.127 108.26 719.127 Q106.061 719.127 103.608 719.891 Q101.177 720.655 98.3993 722.206 L98.3993 717.484 Q101.223 716.349 103.677 715.771 Q106.131 715.192 108.168 715.192 Q113.538 715.192 116.733 717.877 Q119.927 720.562 119.927 725.053 Q119.927 727.183 119.117 729.104 Q118.33 731.002 116.223 733.595 Q115.645 734.266 112.543 737.484 Q109.441 740.678 103.793 746.442 Z" fill="#000000" fill-rule="nonzero" fill-opacity="1" /><path clip-path="url(#clip510)" d="M63.5847 342.22 Q59.9736 342.22 58.1449 345.785 Q56.3393 349.327 56.3393 356.456 Q56.3393 363.563 58.1449 367.128 Q59.9736 370.669 63.5847 370.669 Q67.2189 370.669 69.0244 367.128 Q70.8531 363.563 70.8531 356.456 Q70.8531 349.327 69.0244 345.785 Q67.2189 342.22 63.5847 342.22 M63.5847 338.517 Q69.3948 338.517 72.4503 343.123 Q75.529 347.706 75.529 356.456 Q75.529 365.183 72.4503 369.79 Q69.3948 374.373 63.5847 374.373 Q57.7745 374.373 54.6958 369.79 Q51.6403 365.183 51.6403 356.456 Q51.6403 347.706 54.6958 343.123 Q57.7745 338.517 63.5847 338.517 Z" fill="#000000" fill-rule="nonzero" fill-opacity="1" /><path clip-path="url(#clip510)" d="M83.7466 367.822 L88.6308 367.822 L88.6308 373.702 L83.7466 373.702 L83.7466 367.822 Z" fill="#000000" fill-rule="nonzero" fill-opacity="1" /><path clip-path="url(#clip510)" d="M112.983 355.067 Q116.339 355.785 118.214 358.054 Q120.112 360.322 120.112 363.655 Q120.112 368.771 116.594 371.572 Q113.075 374.373 106.594 374.373 Q104.418 374.373 102.103 373.933 Q99.8113 373.516 97.3576 372.66 L97.3576 368.146 Q99.3021 369.28 101.617 369.859 Q103.932 370.438 106.455 370.438 Q110.853 370.438 113.145 368.702 Q115.459 366.966 115.459 363.655 Q115.459 360.6 113.307 358.887 Q111.177 357.151 107.358 357.151 L103.33 357.151 L103.33 353.308 L107.543 353.308 Q110.992 353.308 112.82 351.943 Q114.649 350.554 114.649 347.961 Q114.649 345.299 112.751 343.887 Q110.876 342.452 107.358 342.452 Q105.436 342.452 103.237 342.868 Q101.038 343.285 98.3993 344.165 L98.3993 339.998 Q101.061 339.257 103.376 338.887 Q105.714 338.517 107.774 338.517 Q113.098 338.517 116.2 340.947 Q119.302 343.355 119.302 347.475 Q119.302 350.345 117.658 352.336 Q116.015 354.304 112.983 355.067 Z" fill="#000000" fill-rule="nonzero" fill-opacity="1" /><path clip-path="url(#clip510)" d="M946.556 -8.64675 L958.749 -8.64675 L974.183 32.5104 L989.698 -8.64675 L1001.89 -8.64675 L1001.89 51.8332 L993.911 51.8332 L993.911 -1.2741 L978.315 40.2072 L970.092 40.2072 L954.496 -1.2741 L954.496 51.8332 L946.556 51.8332 L946.556 -8.64675 Z" fill="#000000" fill-rule="nonzero" fill-opacity="1" /><path clip-path="url(#clip510)" d="M1017.04 33.9283 L1017.04 6.46312 L1024.5 6.46312 L1024.5 33.6447 Q1024.5 40.0856 1027.01 43.3264 Q1029.52 46.5266 1034.54 46.5266 Q1040.58 46.5266 1044.06 42.6782 Q1047.59 38.8298 1047.59 32.1864 L1047.59 6.46312 L1055.04 6.46312 L1055.04 51.8332 L1047.59 51.8332 L1047.59 44.8657 Q1044.87 48.9976 1041.27 51.0231 Q1037.7 53.008 1032.96 53.008 Q1025.14 53.008 1021.09 48.1469 Q1017.04 43.2858 1017.04 33.9283 M1035.8 5.36938 L1035.8 5.36938 Z" fill="#000000" fill-rule="nonzero" fill-opacity="1" /><path clip-path="url(#clip510)" d="M1109.2 27.2848 L1109.2 30.9306 L1074.93 30.9306 Q1075.42 38.6273 1079.55 42.6782 Q1083.72 46.6886 1091.13 46.6886 Q1095.43 46.6886 1099.44 45.6354 Q1103.49 44.5821 1107.46 42.4757 L1107.46 49.5242 Q1103.45 51.2256 1099.23 52.1168 Q1095.02 53.008 1090.69 53.008 Q1079.83 53.008 1073.47 46.6886 Q1067.15 40.3692 1067.15 29.5938 Q1067.15 18.4538 1073.15 11.9318 Q1079.18 5.36938 1089.39 5.36938 Q1098.55 5.36938 1103.85 11.2837 Q1109.2 17.1575 1109.2 27.2848 M1101.75 25.0973 Q1101.67 18.9804 1098.3 15.3346 Q1094.98 11.6888 1089.47 11.6888 Q1083.23 11.6888 1079.47 15.2131 Q1075.74 18.7374 1075.17 25.1378 L1101.75 25.0973 Z" fill="#000000" fill-rule="nonzero" fill-opacity="1" /><path clip-path="url(#clip510)" d="M1150.36 7.79992 L1150.36 14.8485 Q1147.2 13.2281 1143.79 12.418 Q1140.39 11.6078 1136.75 11.6078 Q1131.2 11.6078 1128.4 13.3092 Q1125.65 15.0105 1125.65 18.4133 Q1125.65 21.0059 1127.63 22.5047 Q1129.62 23.963 1135.61 25.2998 L1138.16 25.867 Q1146.1 27.5683 1149.43 30.6875 Q1152.79 33.7662 1152.79 39.316 Q1152.79 45.6354 1147.76 49.3217 Q1142.78 53.008 1134.03 53.008 Q1130.39 53.008 1126.42 52.2788 Q1122.49 51.5902 1118.11 50.1724 L1118.11 42.4757 Q1122.24 44.6226 1126.25 45.7164 Q1130.26 46.7696 1134.19 46.7696 Q1139.46 46.7696 1142.3 44.9872 Q1145.13 43.1643 1145.13 39.8831 Q1145.13 36.8449 1143.07 35.2245 Q1141.04 33.6042 1134.11 32.1053 L1131.52 31.4977 Q1124.59 30.0394 1121.51 27.0417 Q1118.44 24.0035 1118.44 18.7374 Q1118.44 12.3369 1122.97 8.85316 Q1127.51 5.36938 1135.85 5.36938 Q1139.99 5.36938 1143.63 5.97701 Q1147.28 6.58465 1150.36 7.79992 Z" fill="#000000" fill-rule="nonzero" fill-opacity="1" /><path clip-path="url(#clip510)" d="M1172.03 -6.41875 L1172.03 6.46312 L1187.38 6.46312 L1187.38 12.2559 L1172.03 12.2559 L1172.03 36.8854 Q1172.03 42.4352 1173.53 44.015 Q1175.07 45.5949 1179.73 45.5949 L1187.38 45.5949 L1187.38 51.8332 L1179.73 51.8332 Q1171.1 51.8332 1167.82 48.633 Q1164.54 45.3923 1164.54 36.8854 L1164.54 12.2559 L1159.07 12.2559 L1159.07 6.46312 L1164.54 6.46312 L1164.54 -6.41875 L1172.03 -6.41875 Z" fill="#000000" fill-rule="nonzero" fill-opacity="1" /><path clip-path="url(#clip510)" d="M1223.48 13.4307 Q1222.22 12.7015 1220.72 12.3774 Q1219.26 12.0129 1217.48 12.0129 Q1211.16 12.0129 1207.76 16.1448 Q1204.4 20.2362 1204.4 27.9329 L1204.4 51.8332 L1196.9 51.8332 L1196.9 6.46312 L1204.4 6.46312 L1204.4 13.5117 Q1206.75 9.37977 1210.51 7.39483 Q1214.28 5.36938 1219.67 5.36938 Q1220.44 5.36938 1221.37 5.49091 Q1222.3 5.57192 1223.44 5.77447 L1223.48 13.4307 Z" fill="#000000" fill-rule="nonzero" fill-opacity="1" /><path clip-path="url(#clip510)" d="M1268.28 27.2848 L1268.28 30.9306 L1234.01 30.9306 Q1234.49 38.6273 1238.63 42.6782 Q1242.8 46.6886 1250.21 46.6886 Q1254.51 46.6886 1258.52 45.6354 Q1262.57 44.5821 1266.54 42.4757 L1266.54 49.5242 Q1262.53 51.2256 1258.31 52.1168 Q1254.1 53.008 1249.77 53.008 Q1238.91 53.008 1232.55 46.6886 Q1226.23 40.3692 1226.23 29.5938 Q1226.23 18.4538 1232.23 11.9318 Q1238.26 5.36938 1248.47 5.36938 Q1257.63 5.36938 1262.93 11.2837 Q1268.28 17.1575 1268.28 27.2848 M1260.83 25.0973 Q1260.74 18.9804 1257.38 15.3346 Q1254.06 11.6888 1248.55 11.6888 Q1242.31 11.6888 1238.55 15.2131 Q1234.82 18.7374 1234.25 25.1378 L1260.83 25.0973 Z" fill="#000000" fill-rule="nonzero" fill-opacity="1" /><path clip-path="url(#clip510)" d="M1298.09 11.6888 Q1292.1 11.6888 1288.61 16.3878 Q1285.13 21.0464 1285.13 29.1887 Q1285.13 37.331 1288.57 42.0301 Q1292.06 46.6886 1298.09 46.6886 Q1304.05 46.6886 1307.53 41.9896 Q1311.02 37.2905 1311.02 29.1887 Q1311.02 21.1274 1307.53 16.4283 Q1304.05 11.6888 1298.09 11.6888 M1298.09 5.36938 Q1307.82 5.36938 1313.37 11.6888 Q1318.92 18.0082 1318.92 29.1887 Q1318.92 40.3287 1313.37 46.6886 Q1307.82 53.008 1298.09 53.008 Q1288.33 53.008 1282.78 46.6886 Q1277.27 40.3287 1277.27 29.1887 Q1277.27 18.0082 1282.78 11.6888 Q1288.33 5.36938 1298.09 5.36938 Z" fill="#000000" fill-rule="nonzero" fill-opacity="1" /><path clip-path="url(#clip510)" d="M1387.5 13.3497 L1387.5 -11.1988 L1394.95 -11.1988 L1394.95 51.8332 L1387.5 51.8332 L1387.5 45.0277 Q1385.15 49.0786 1381.54 51.0636 Q1377.98 53.008 1372.95 53.008 Q1364.73 53.008 1359.55 46.4455 Q1354.4 39.8831 1354.4 29.1887 Q1354.4 18.4943 1359.55 11.9318 Q1364.73 5.36938 1372.95 5.36938 Q1377.98 5.36938 1381.54 7.35432 Q1385.15 9.29876 1387.5 13.3497 M1362.1 29.1887 Q1362.1 37.412 1365.46 42.1111 Q1368.86 46.7696 1374.78 46.7696 Q1380.69 46.7696 1384.09 42.1111 Q1387.5 37.412 1387.5 29.1887 Q1387.5 20.9654 1384.09 16.3068 Q1380.69 11.6078 1374.78 11.6078 Q1368.86 11.6078 1365.46 16.3068 Q1362.1 20.9654 1362.1 29.1887 Z" fill="#000000" fill-rule="nonzero" fill-opacity="1" /><path clip-path="url(#clip510)" d="M1449.11 27.2848 L1449.11 30.9306 L1414.84 30.9306 Q1415.33 38.6273 1419.46 42.6782 Q1423.63 46.6886 1431.04 46.6886 Q1435.34 46.6886 1439.35 45.6354 Q1443.4 44.5821 1447.37 42.4757 L1447.37 49.5242 Q1443.36 51.2256 1439.15 52.1168 Q1434.93 53.008 1430.6 53.008 Q1419.74 53.008 1413.38 46.6886 Q1407.06 40.3692 1407.06 29.5938 Q1407.06 18.4538 1413.06 11.9318 Q1419.09 5.36938 1429.3 5.36938 Q1438.46 5.36938 1443.76 11.2837 Q1449.11 17.1575 1449.11 27.2848 M1441.66 25.0973 Q1441.58 18.9804 1438.21 15.3346 Q1434.89 11.6888 1429.38 11.6888 Q1423.14 11.6888 1419.38 15.2131 Q1415.65 18.7374 1415.08 25.1378 L1441.66 25.0973 Z" fill="#000000" fill-rule="nonzero" fill-opacity="1" /><path clip-path="url(#clip510)" d="M1518.43 18.6729 Q1518.43 18.7139 1518.18 20.1895 L1508.84 57.4488 Q1508.34 59.4163 1506.95 61.3838 Q1505.6 63.3922 1503.43 65.1138 Q1501.29 66.8763 1498.02 67.942 Q1494.78 69.0487 1491.05 69.0487 Q1485.1 69.0487 1482.48 67.7781 Q1479.9 66.5484 1479.9 63.9251 Q1479.9 61.6297 1481.33 60.318 Q1482.77 59.0474 1484.41 59.0474 Q1485.96 59.0474 1486.78 59.9491 Q1487.6 60.8509 1487.6 61.9986 Q1487.6 63.2693 1486.74 64.5399 Q1485.88 65.8516 1484.16 66.3435 Q1486.91 67.2042 1490.88 67.2042 Q1499.29 67.2042 1502.89 58.3096 Q1502.98 58.1866 1502.98 58.1456 L1505.76 47.0375 L1505.64 46.9555 Q1504.94 47.7753 1503.84 48.7181 Q1502.77 49.6198 1500.47 50.7265 Q1498.18 51.8333 1495.92 51.8333 Q1491.21 51.8333 1487.97 48.2262 Q1484.78 44.5781 1484.78 38.5527 Q1484.78 34.1669 1486.54 29.781 Q1488.34 25.3542 1491.13 22.116 Q1493.96 18.8369 1497.56 16.7874 Q1501.21 14.738 1504.74 14.738 Q1507.2 14.738 1509.29 16.2136 Q1511.38 17.6482 1512.53 20.0256 Q1512.73 18.0581 1513.84 17.2383 Q1514.98 16.4185 1515.97 16.4185 Q1517.08 16.4185 1517.73 17.0334 Q1518.43 17.6072 1518.43 18.6729 M1511.54 23.7966 Q1511.54 23.5506 1511.38 22.8948 Q1511.21 22.198 1510.72 21.0913 Q1510.27 19.9846 1509.57 19.0008 Q1508.88 18.0171 1507.61 17.3203 Q1506.38 16.5825 1504.82 16.5825 Q1502.28 16.5825 1499.74 18.7139 Q1497.2 20.8044 1495.43 24.0425 Q1493.79 27.1577 1492.24 33.1831 Q1490.72 39.2086 1490.72 42.2827 Q1490.72 45.316 1492.03 47.6523 Q1493.34 49.9887 1496.17 49.9887 Q1499.45 49.9887 1502.98 46.9555 Q1506.62 43.7994 1507.24 41.0941 L1511.3 25.0673 Q1511.54 24.0835 1511.54 23.7966 Z" fill="#000000" fill-rule="nonzero" fill-opacity="1" /><path clip-path="url(#clip510)" d="M1553.61 70.8435 Q1553.61 72.479 1552.61 73.4545 Q1551.63 74.4301 1550.4 74.4301 Q1549.31 74.4301 1548.73 73.7988 Q1548.16 73.1676 1548.16 72.3642 Q1548.16 72.0199 1548.3 71.5895 Q1548.45 71.1304 1548.76 70.5853 Q1549.11 70.0401 1549.82 69.6384 Q1550.54 69.2367 1551.52 69.1793 Q1551.32 68.9785 1551.26 68.9498 Q1550.83 68.6055 1550.03 68.4907 Q1549.91 68.4333 1549.51 68.4333 Q1547.53 68.4333 1545.52 69.8966 Q1543.54 71.3313 1541.1 74.0571 Q1538.03 77.2419 1536.05 78.4183 Q1544.75 79.566 1544.75 84.5872 Q1544.75 85.4193 1544.52 86.4235 Q1544.06 88.3172 1544.06 89.6945 Q1544.06 92.4489 1545.92 92.4489 Q1547.73 92.4489 1548.88 90.6126 Q1550.05 88.7763 1551.03 85.1897 Q1551.17 84.5298 1551.32 84.329 Q1551.46 84.1281 1551.86 84.1281 Q1552.58 84.1281 1552.58 84.702 Q1551.92 88.059 1550.46 90.6413 Q1548.59 93.7688 1545.81 93.7688 Q1543.48 93.7688 1541.93 92.162 Q1540.41 90.5266 1540.41 87.9442 Q1540.41 87.313 1540.64 85.8784 Q1540.82 85.3045 1540.82 84.6446 Q1540.82 83.296 1540.07 82.2918 Q1539.32 81.2589 1538.12 80.7424 Q1536.91 80.2259 1535.91 79.9964 Q1534.93 79.7382 1533.99 79.6521 Q1531.12 91.789 1530.72 92.535 Q1530.46 93.0515 1529.88 93.3958 Q1529.31 93.7688 1528.71 93.7688 Q1528.13 93.7688 1527.56 93.3671 Q1527.01 92.9941 1527.01 92.1046 Q1527.01 91.6456 1527.24 90.8135 L1535.77 56.9563 L1535.94 55.8086 Q1535.94 55.4643 1535.79 55.2922 Q1535.68 55.0913 1534.99 54.9479 Q1534.33 54.8044 1533.01 54.8044 Q1532.47 54.8044 1532.21 54.7757 Q1531.98 54.747 1531.78 54.6035 Q1531.58 54.4314 1531.58 54.0871 Q1531.58 53.5993 1531.78 53.3411 Q1532.01 53.0542 1532.18 52.9968 Q1532.35 52.9394 1532.7 52.9107 Q1533.18 52.882 1534.82 52.7385 Q1536.45 52.5664 1537.86 52.4516 Q1539.27 52.3368 1539.87 52.3368 Q1540.21 52.3368 1540.39 52.509 Q1540.59 52.6525 1540.61 52.8246 L1540.64 52.9681 L1534.53 77.7584 Q1537.06 76.7542 1541.05 72.3068 Q1545.66 67.1422 1549.62 67.1422 Q1551.49 67.1422 1552.55 68.2899 Q1553.61 69.4089 1553.61 70.8435 Z" fill="#000000" fill-rule="nonzero" fill-opacity="1" /><path clip-path="url(#clip512)" d="M276.931 1478.91 L276.931 1486.45 L344.345 1486.45 L344.345 1478.91 L276.931 1478.91 L276.931 1478.91  Z" fill="#009af9" fill-rule="evenodd" fill-opacity="0.6"/>
<polyline clip-path="url(#clip512)" style="stroke:#000000; stroke-linecap:round; stroke-linejoin:round; stroke-width:4; stroke-opacity:0.6; fill:none" points="276.931,1478.91 276.931,1486.45 344.345,1486.45 344.345,1478.91 276.931,1478.91 "/>
<path clip-path="url(#clip512)" d="M344.345 1486.45 L344.345 1486.45 L411.759 1486.45 L411.759 1486.45 L344.345 1486.45 L344.345 1486.45  Z" fill="#009af9" fill-rule="evenodd" fill-opacity="0.6"/>
<polyline clip-path="url(#clip512)" style="stroke:#000000; stroke-linecap:round; stroke-linejoin:round; stroke-width:4; stroke-opacity:0.6; fill:none" points="344.345,1486.45 344.345,1486.45 411.759,1486.45 344.345,1486.45 "/>
<path clip-path="url(#clip512)" d="M411.759 1486.45 L411.759 1486.45 L479.173 1486.45 L479.173 1486.45 L411.759 1486.45 L411.759 1486.45  Z" fill="#009af9" fill-rule="evenodd" fill-opacity="0.6"/>
<polyline clip-path="url(#clip512)" style="stroke:#000000; stroke-linecap:round; stroke-linejoin:round; stroke-width:4; stroke-opacity:0.6; fill:none" points="411.759,1486.45 411.759,1486.45 479.173,1486.45 411.759,1486.45 "/>
<path clip-path="url(#clip512)" d="M479.173 1478.91 L479.173 1486.45 L546.587 1486.45 L546.587 1478.91 L479.173 1478.91 L479.173 1478.91  Z" fill="#009af9" fill-rule="evenodd" fill-opacity="0.6"/>
<polyline clip-path="url(#clip512)" style="stroke:#000000; stroke-linecap:round; stroke-linejoin:round; stroke-width:4; stroke-opacity:0.6; fill:none" points="479.173,1478.91 479.173,1486.45 546.587,1486.45 546.587,1478.91 479.173,1478.91 "/>
<path clip-path="url(#clip512)" d="M546.587 1486.45 L546.587 1486.45 L614.001 1486.45 L614.001 1486.45 L546.587 1486.45 L546.587 1486.45  Z" fill="#009af9" fill-rule="evenodd" fill-opacity="0.6"/>
<polyline clip-path="url(#clip512)" style="stroke:#000000; stroke-linecap:round; stroke-linejoin:round; stroke-width:4; stroke-opacity:0.6; fill:none" points="546.587,1486.45 546.587,1486.45 614.001,1486.45 546.587,1486.45 "/>
<path clip-path="url(#clip512)" d="M614.001 1478.91 L614.001 1486.45 L681.415 1486.45 L681.415 1478.91 L614.001 1478.91 L614.001 1478.91  Z" fill="#009af9" fill-rule="evenodd" fill-opacity="0.6"/>
<polyline clip-path="url(#clip512)" style="stroke:#000000; stroke-linecap:round; stroke-linejoin:round; stroke-width:4; stroke-opacity:0.6; fill:none" points="614.001,1478.91 614.001,1486.45 681.415,1486.45 681.415,1478.91 614.001,1478.91 "/>
<path clip-path="url(#clip512)" d="M681.415 1486.45 L681.415 1486.45 L748.829 1486.45 L748.829 1486.45 L681.415 1486.45 L681.415 1486.45  Z" fill="#009af9" fill-rule="evenodd" fill-opacity="0.6"/>
<polyline clip-path="url(#clip512)" style="stroke:#000000; stroke-linecap:round; stroke-linejoin:round; stroke-width:4; stroke-opacity:0.6; fill:none" points="681.415,1486.45 681.415,1486.45 748.829,1486.45 681.415,1486.45 "/>
<path clip-path="url(#clip512)" d="M748.829 1478.91 L748.829 1486.45 L816.243 1486.45 L816.243 1478.91 L748.829 1478.91 L748.829 1478.91  Z" fill="#009af9" fill-rule="evenodd" fill-opacity="0.6"/>
<polyline clip-path="url(#clip512)" style="stroke:#000000; stroke-linecap:round; stroke-linejoin:round; stroke-width:4; stroke-opacity:0.6; fill:none" points="748.829,1478.91 748.829,1486.45 816.243,1486.45 816.243,1478.91 748.829,1478.91 "/>
<path clip-path="url(#clip512)" d="M816.243 1448.78 L816.243 1486.45 L883.657 1486.45 L883.657 1448.78 L816.243 1448.78 L816.243 1448.78  Z" fill="#009af9" fill-rule="evenodd" fill-opacity="0.6"/>
<polyline clip-path="url(#clip512)" style="stroke:#000000; stroke-linecap:round; stroke-linejoin:round; stroke-width:4; stroke-opacity:0.6; fill:none" points="816.243,1448.78 816.243,1486.45 883.657,1486.45 883.657,1448.78 816.243,1448.78 "/>
<path clip-path="url(#clip512)" d="M883.657 1426.18 L883.657 1486.45 L951.071 1486.45 L951.071 1426.18 L883.657 1426.18 L883.657 1426.18  Z" fill="#009af9" fill-rule="evenodd" fill-opacity="0.6"/>
<polyline clip-path="url(#clip512)" style="stroke:#000000; stroke-linecap:round; stroke-linejoin:round; stroke-width:4; stroke-opacity:0.6; fill:none" points="883.657,1426.18 883.657,1486.45 951.071,1486.45 951.071,1426.18 883.657,1426.18 "/>
<path clip-path="url(#clip512)" d="M951.071 1403.58 L951.071 1486.45 L1018.49 1486.45 L1018.49 1403.58 L951.071 1403.58 L951.071 1403.58  Z" fill="#009af9" fill-rule="evenodd" fill-opacity="0.6"/>
<polyline clip-path="url(#clip512)" style="stroke:#000000; stroke-linecap:round; stroke-linejoin:round; stroke-width:4; stroke-opacity:0.6; fill:none" points="951.071,1403.58 951.071,1486.45 1018.49,1486.45 1018.49,1403.58 951.071,1403.58 "/>
<path clip-path="url(#clip512)" d="M1018.49 1350.84 L1018.49 1486.45 L1085.9 1486.45 L1085.9 1350.84 L1018.49 1350.84 L1018.49 1350.84  Z" fill="#009af9" fill-rule="evenodd" fill-opacity="0.6"/>
<polyline clip-path="url(#clip512)" style="stroke:#000000; stroke-linecap:round; stroke-linejoin:round; stroke-width:4; stroke-opacity:0.6; fill:none" points="1018.49,1350.84 1018.49,1486.45 1085.9,1486.45 1085.9,1350.84 1018.49,1350.84 "/>
<path clip-path="url(#clip512)" d="M1085.9 1245.38 L1085.9 1486.45 L1153.31 1486.45 L1153.31 1245.38 L1085.9 1245.38 L1085.9 1245.38  Z" fill="#009af9" fill-rule="evenodd" fill-opacity="0.6"/>
<polyline clip-path="url(#clip512)" style="stroke:#000000; stroke-linecap:round; stroke-linejoin:round; stroke-width:4; stroke-opacity:0.6; fill:none" points="1085.9,1245.38 1085.9,1486.45 1153.31,1486.45 1153.31,1245.38 1085.9,1245.38 "/>
<path clip-path="url(#clip512)" d="M1153.31 1132.37 L1153.31 1486.45 L1220.73 1486.45 L1220.73 1132.37 L1153.31 1132.37 L1153.31 1132.37  Z" fill="#009af9" fill-rule="evenodd" fill-opacity="0.6"/>
<polyline clip-path="url(#clip512)" style="stroke:#000000; stroke-linecap:round; stroke-linejoin:round; stroke-width:4; stroke-opacity:0.6; fill:none" points="1153.31,1132.37 1153.31,1486.45 1220.73,1486.45 1220.73,1132.37 1153.31,1132.37 "/>
<path clip-path="url(#clip512)" d="M1220.73 785.832 L1220.73 1486.45 L1288.14 1486.45 L1288.14 785.832 L1220.73 785.832 L1220.73 785.832  Z" fill="#009af9" fill-rule="evenodd" fill-opacity="0.6"/>
<polyline clip-path="url(#clip512)" style="stroke:#000000; stroke-linecap:round; stroke-linejoin:round; stroke-width:4; stroke-opacity:0.6; fill:none" points="1220.73,785.832 1220.73,1486.45 1288.14,1486.45 1288.14,785.832 1220.73,785.832 "/>
<path clip-path="url(#clip512)" d="M1288.14 499.558 L1288.14 1486.45 L1355.55 1486.45 L1355.55 499.558 L1288.14 499.558 L1288.14 499.558  Z" fill="#009af9" fill-rule="evenodd" fill-opacity="0.6"/>
<polyline clip-path="url(#clip512)" style="stroke:#000000; stroke-linecap:round; stroke-linejoin:round; stroke-width:4; stroke-opacity:0.6; fill:none" points="1288.14,499.558 1288.14,1486.45 1355.55,1486.45 1355.55,499.558 1288.14,499.558 "/>
<path clip-path="url(#clip512)" d="M1355.55 137.95 L1355.55 1486.45 L1422.97 1486.45 L1422.97 137.95 L1355.55 137.95 L1355.55 137.95  Z" fill="#009af9" fill-rule="evenodd" fill-opacity="0.6"/>
<polyline clip-path="url(#clip512)" style="stroke:#000000; stroke-linecap:round; stroke-linejoin:round; stroke-width:4; stroke-opacity:0.6; fill:none" points="1355.55,137.95 1355.55,1486.45 1422.97,1486.45 1422.97,137.95 1355.55,137.95 "/>
<path clip-path="url(#clip512)" d="M1422.97 243.419 L1422.97 1486.45 L1490.38 1486.45 L1490.38 243.419 L1422.97 243.419 L1422.97 243.419  Z" fill="#009af9" fill-rule="evenodd" fill-opacity="0.6"/>
<polyline clip-path="url(#clip512)" style="stroke:#000000; stroke-linecap:round; stroke-linejoin:round; stroke-width:4; stroke-opacity:0.6; fill:none" points="1422.97,243.419 1422.97,1486.45 1490.38,1486.45 1490.38,243.419 1422.97,243.419 "/>
<path clip-path="url(#clip512)" d="M1490.38 379.022 L1490.38 1486.45 L1557.8 1486.45 L1557.8 379.022 L1490.38 379.022 L1490.38 379.022  Z" fill="#009af9" fill-rule="evenodd" fill-opacity="0.6"/>
<polyline clip-path="url(#clip512)" style="stroke:#000000; stroke-linecap:round; stroke-linejoin:round; stroke-width:4; stroke-opacity:0.6; fill:none" points="1490.38,379.022 1490.38,1486.45 1557.8,1486.45 1557.8,379.022 1490.38,379.022 "/>
<path clip-path="url(#clip512)" d="M1557.8 853.633 L1557.8 1486.45 L1625.21 1486.45 L1625.21 853.633 L1557.8 853.633 L1557.8 853.633  Z" fill="#009af9" fill-rule="evenodd" fill-opacity="0.6"/>
<polyline clip-path="url(#clip512)" style="stroke:#000000; stroke-linecap:round; stroke-linejoin:round; stroke-width:4; stroke-opacity:0.6; fill:none" points="1557.8,853.633 1557.8,1486.45 1625.21,1486.45 1625.21,853.633 1557.8,853.633 "/>
<path clip-path="url(#clip512)" d="M1625.21 1147.44 L1625.21 1486.45 L1692.62 1486.45 L1692.62 1147.44 L1625.21 1147.44 L1625.21 1147.44  Z" fill="#009af9" fill-rule="evenodd" fill-opacity="0.6"/>
<polyline clip-path="url(#clip512)" style="stroke:#000000; stroke-linecap:round; stroke-linejoin:round; stroke-width:4; stroke-opacity:0.6; fill:none" points="1625.21,1147.44 1625.21,1486.45 1692.62,1486.45 1692.62,1147.44 1625.21,1147.44 "/>
<path clip-path="url(#clip512)" d="M1692.62 1380.98 L1692.62 1486.45 L1760.04 1486.45 L1760.04 1380.98 L1692.62 1380.98 L1692.62 1380.98  Z" fill="#009af9" fill-rule="evenodd" fill-opacity="0.6"/>
<polyline clip-path="url(#clip512)" style="stroke:#000000; stroke-linecap:round; stroke-linejoin:round; stroke-width:4; stroke-opacity:0.6; fill:none" points="1692.62,1380.98 1692.62,1486.45 1760.04,1486.45 1760.04,1380.98 1692.62,1380.98 "/>
<path clip-path="url(#clip512)" d="M1760.04 1411.11 L1760.04 1486.45 L1827.45 1486.45 L1827.45 1411.11 L1760.04 1411.11 L1760.04 1411.11  Z" fill="#009af9" fill-rule="evenodd" fill-opacity="0.6"/>
<polyline clip-path="url(#clip512)" style="stroke:#000000; stroke-linecap:round; stroke-linejoin:round; stroke-width:4; stroke-opacity:0.6; fill:none" points="1760.04,1411.11 1760.04,1486.45 1827.45,1486.45 1827.45,1411.11 1760.04,1411.11 "/>
<path clip-path="url(#clip512)" d="M1827.45 1456.31 L1827.45 1486.45 L1894.87 1486.45 L1894.87 1456.31 L1827.45 1456.31 L1827.45 1456.31  Z" fill="#009af9" fill-rule="evenodd" fill-opacity="0.6"/>
<polyline clip-path="url(#clip512)" style="stroke:#000000; stroke-linecap:round; stroke-linejoin:round; stroke-width:4; stroke-opacity:0.6; fill:none" points="1827.45,1456.31 1827.45,1486.45 1894.87,1486.45 1894.87,1456.31 1827.45,1456.31 "/>
<path clip-path="url(#clip512)" d="M1894.87 1478.91 L1894.87 1486.45 L1962.28 1486.45 L1962.28 1478.91 L1894.87 1478.91 L1894.87 1478.91  Z" fill="#009af9" fill-rule="evenodd" fill-opacity="0.6"/>
<polyline clip-path="url(#clip512)" style="stroke:#000000; stroke-linecap:round; stroke-linejoin:round; stroke-width:4; stroke-opacity:0.6; fill:none" points="1894.87,1478.91 1894.87,1486.45 1962.28,1486.45 1962.28,1478.91 1894.87,1478.91 "/>
<path clip-path="url(#clip512)" d="M1962.28 1478.91 L1962.28 1486.45 L2029.69 1486.45 L2029.69 1478.91 L1962.28 1478.91 L1962.28 1478.91  Z" fill="#009af9" fill-rule="evenodd" fill-opacity="0.6"/>
<polyline clip-path="url(#clip512)" style="stroke:#000000; stroke-linecap:round; stroke-linejoin:round; stroke-width:4; stroke-opacity:0.6; fill:none" points="1962.28,1478.91 1962.28,1486.45 2029.69,1486.45 2029.69,1478.91 1962.28,1478.91 "/>
<path clip-path="url(#clip512)" d="M2029.69 1486.45 L2029.69 1486.45 L2097.11 1486.45 L2097.11 1486.45 L2029.69 1486.45 L2029.69 1486.45  Z" fill="#009af9" fill-rule="evenodd" fill-opacity="0.6"/>
<polyline clip-path="url(#clip512)" style="stroke:#000000; stroke-linecap:round; stroke-linejoin:round; stroke-width:4; stroke-opacity:0.6; fill:none" points="2029.69,1486.45 2029.69,1486.45 2097.11,1486.45 2029.69,1486.45 "/>
<path clip-path="url(#clip512)" d="M2097.11 1486.45 L2097.11 1486.45 L2164.52 1486.45 L2164.52 1486.45 L2097.11 1486.45 L2097.11 1486.45  Z" fill="#009af9" fill-rule="evenodd" fill-opacity="0.6"/>
<polyline clip-path="url(#clip512)" style="stroke:#000000; stroke-linecap:round; stroke-linejoin:round; stroke-width:4; stroke-opacity:0.6; fill:none" points="2097.11,1486.45 2097.11,1486.45 2164.52,1486.45 2097.11,1486.45 "/>
<path clip-path="url(#clip512)" d="M2164.52 1478.91 L2164.52 1486.45 L2231.94 1486.45 L2231.94 1478.91 L2164.52 1478.91 L2164.52 1478.91  Z" fill="#009af9" fill-rule="evenodd" fill-opacity="0.6"/>
<polyline clip-path="url(#clip512)" style="stroke:#000000; stroke-linecap:round; stroke-linejoin:round; stroke-width:4; stroke-opacity:0.6; fill:none" points="2164.52,1478.91 2164.52,1486.45 2231.94,1486.45 2231.94,1478.91 2164.52,1478.91 "/>
<circle clip-path="url(#clip512)" style="fill:#009af9; stroke:none; fill-opacity:0" cx="310.638" cy="1478.91" r="2"/>
<circle clip-path="url(#clip512)" style="fill:#009af9; stroke:none; fill-opacity:0" cx="378.052" cy="1486.45" r="2"/>
<circle clip-path="url(#clip512)" style="fill:#009af9; stroke:none; fill-opacity:0" cx="445.466" cy="1486.45" r="2"/>
<circle clip-path="url(#clip512)" style="fill:#009af9; stroke:none; fill-opacity:0" cx="512.88" cy="1478.91" r="2"/>
<circle clip-path="url(#clip512)" style="fill:#009af9; stroke:none; fill-opacity:0" cx="580.294" cy="1486.45" r="2"/>
<circle clip-path="url(#clip512)" style="fill:#009af9; stroke:none; fill-opacity:0" cx="647.708" cy="1478.91" r="2"/>
<circle clip-path="url(#clip512)" style="fill:#009af9; stroke:none; fill-opacity:0" cx="715.122" cy="1486.45" r="2"/>
<circle clip-path="url(#clip512)" style="fill:#009af9; stroke:none; fill-opacity:0" cx="782.536" cy="1478.91" r="2"/>
<circle clip-path="url(#clip512)" style="fill:#009af9; stroke:none; fill-opacity:0" cx="849.95" cy="1448.78" r="2"/>
<circle clip-path="url(#clip512)" style="fill:#009af9; stroke:none; fill-opacity:0" cx="917.364" cy="1426.18" r="2"/>
<circle clip-path="url(#clip512)" style="fill:#009af9; stroke:none; fill-opacity:0" cx="984.778" cy="1403.58" r="2"/>
<circle clip-path="url(#clip512)" style="fill:#009af9; stroke:none; fill-opacity:0" cx="1052.19" cy="1350.84" r="2"/>
<circle clip-path="url(#clip512)" style="fill:#009af9; stroke:none; fill-opacity:0" cx="1119.61" cy="1245.38" r="2"/>
<circle clip-path="url(#clip512)" style="fill:#009af9; stroke:none; fill-opacity:0" cx="1187.02" cy="1132.37" r="2"/>
<circle clip-path="url(#clip512)" style="fill:#009af9; stroke:none; fill-opacity:0" cx="1254.43" cy="785.832" r="2"/>
<circle clip-path="url(#clip512)" style="fill:#009af9; stroke:none; fill-opacity:0" cx="1321.85" cy="499.558" r="2"/>
<circle clip-path="url(#clip512)" style="fill:#009af9; stroke:none; fill-opacity:0" cx="1389.26" cy="137.95" r="2"/>
<circle clip-path="url(#clip512)" style="fill:#009af9; stroke:none; fill-opacity:0" cx="1456.68" cy="243.419" r="2"/>
<circle clip-path="url(#clip512)" style="fill:#009af9; stroke:none; fill-opacity:0" cx="1524.09" cy="379.022" r="2"/>
<circle clip-path="url(#clip512)" style="fill:#009af9; stroke:none; fill-opacity:0" cx="1591.5" cy="853.633" r="2"/>
<circle clip-path="url(#clip512)" style="fill:#009af9; stroke:none; fill-opacity:0" cx="1658.92" cy="1147.44" r="2"/>
<circle clip-path="url(#clip512)" style="fill:#009af9; stroke:none; fill-opacity:0" cx="1726.33" cy="1380.98" r="2"/>
<circle clip-path="url(#clip512)" style="fill:#009af9; stroke:none; fill-opacity:0" cx="1793.75" cy="1411.11" r="2"/>
<circle clip-path="url(#clip512)" style="fill:#009af9; stroke:none; fill-opacity:0" cx="1861.16" cy="1456.31" r="2"/>
<circle clip-path="url(#clip512)" style="fill:#009af9; stroke:none; fill-opacity:0" cx="1928.57" cy="1478.91" r="2"/>
<circle clip-path="url(#clip512)" style="fill:#009af9; stroke:none; fill-opacity:0" cx="1995.99" cy="1478.91" r="2"/>
<circle clip-path="url(#clip512)" style="fill:#009af9; stroke:none; fill-opacity:0" cx="2063.4" cy="1486.45" r="2"/>
<circle clip-path="url(#clip512)" style="fill:#009af9; stroke:none; fill-opacity:0" cx="2130.82" cy="1486.45" r="2"/>
<circle clip-path="url(#clip512)" style="fill:#009af9; stroke:none; fill-opacity:0" cx="2198.23" cy="1478.91" r="2"/>
<polyline clip-path="url(#clip512)" style="stroke:#e26f46; stroke-linecap:round; stroke-linejoin:round; stroke-width:8; stroke-opacity:1; fill:none" stroke-dasharray="4, 8" points="218.281,1486.17 239.675,1486.12 364.977,1485.61 423.268,1485.16 501.399,1484.15 565.959,1482.74 625.993,1480.66 701.358,1476.32 768.96,1469.72 807.649,1464.17 846.339,1456.76 875.26,1449.66 904.18,1440.86 922.675,1434.15 941.17,1426.46 959.665,1417.64 978.16,1407.53 995.041,1397 1011.92,1385.07 1028.8,1371.55 1045.68,1356.23 1064.89,1336.28 1084.11,1313.29 1093.71,1300.5 1103.32,1286.77 1112.92,1272.02 1122.53,1256.19 1130.15,1242.81 1137.76,1228.65 1145.38,1213.67 1152.99,1197.82 1160.61,1181.05 1168.22,1163.31 1175.84,1144.53 1183.45,1124.67 1192.91,1098.37 1202.37,1070.16 1211.83,1039.9 1221.29,1007.44 1230.75,972.624 1240.21,935.275 1249.67,895.212 1259.13,852.236 1266.38,817.223 1273.63,780.277 1280.87,741.291 1288.12,700.153 1295.36,656.744 1302.61,610.938 1309.85,562.604 1317.1,511.601 1322.2,473.965 1327.31,434.876 1332.42,394.277 1337.53,352.111 1342.63,308.317 1347.74,262.833 1352.85,215.592 1357.96,166.528 1359.23,153.968 1360.51,141.29 1361.15,134.905 1361.79,128.49 1362.42,123.472 1363.06,124.117 1364.34,125.407 1365.62,126.695 1366.89,127.982 1368.17,129.268 1373.28,134.4 1378.39,139.512 1388.6,149.678 1398.81,159.767 1414.08,174.704 1429.35,189.473 1444.61,204.076 1459.88,218.515 1477.24,234.737 1494.6,250.752 1503.29,258.682 1511.97,266.562 1516.31,270.482 1520.65,274.391 1522.82,276.34 1524.99,278.286 1527.16,280.229 1529.33,282.169 1529.87,282.649 1530.4,283.129 1530.94,284.961 1531.48,292.122 1532.55,306.315 1533.63,320.34 1535.78,347.892 1537.92,374.794 1542.22,426.704 1546.52,476.19 1550.82,523.366 1555.12,568.338 1559.42,611.211 1563.72,652.081 1568.01,691.043 1572.31,728.186 1576.61,763.594 1580.91,797.348 1585.21,829.527 1589.51,860.203 1593.81,889.446 1598.1,917.324 1602.83,946.493 1607.56,974.167 1612.29,1000.42 1617.02,1025.33 1621.75,1048.97 1626.48,1071.39 1631.21,1092.66 1635.94,1112.84 1640.67,1131.99 1645.39,1150.16 1650.12,1167.4 1654.85,1183.75 1664.31,1213.98 1673.77,1241.19 1680.99,1260.14 1688.22,1277.61 1695.44,1293.74 1702.67,1308.62 1709.89,1322.36 1717.12,1335.03 1724.34,1346.72 1731.57,1357.51 1740.68,1369.95 1749.8,1381.19 1758.92,1391.34 1768.03,1400.51 1786.27,1416.29 1804.5,1429.17 1821.36,1438.97 1838.23,1447.09 1855.09,1453.82 1871.95,1459.4 1906.74,1468.08 1941.52,1473.98 1976.78,1478.02 2012.04,1480.76 2085.67,1483.94 2143.67,1485.13 2275.77,1486.15 2290.59,1486.19 "/>
<path clip-path="url(#clip510)" d="M2017.32 272.585 L2279.53 272.585 L2279.53 168.905 L2017.32 168.905  Z" fill="#ffffff" fill-rule="evenodd" fill-opacity="1"/>
<polyline clip-path="url(#clip510)" style="stroke:#000000; stroke-linecap:round; stroke-linejoin:round; stroke-width:4; stroke-opacity:1; fill:none" points="2017.32,272.585 2279.53,272.585 2279.53,168.905 2017.32,168.905 2017.32,272.585 "/>
<polyline clip-path="url(#clip510)" style="stroke:#e26f46; stroke-linecap:round; stroke-linejoin:round; stroke-width:8; stroke-opacity:1; fill:none" stroke-dasharray="4, 8" points="2041.73,220.745 2188.17,220.745 "/>
<path clip-path="url(#clip510)" d="M2231.49 224.761 Q2231.49 220.131 2229.57 217.585 Q2227.67 215.039 2224.22 215.039 Q2220.8 215.039 2218.88 217.585 Q2216.98 220.131 2216.98 224.761 Q2216.98 229.367 2218.88 231.914 Q2220.8 234.46 2224.22 234.46 Q2227.67 234.46 2229.57 231.914 Q2231.49 229.367 2231.49 224.761 M2235.75 234.807 Q2235.75 241.427 2232.81 244.645 Q2229.87 247.886 2223.81 247.886 Q2221.56 247.886 2219.57 247.538 Q2217.58 247.214 2215.71 246.52 L2215.71 242.376 Q2217.58 243.395 2219.41 243.881 Q2221.24 244.367 2223.14 244.367 Q2227.33 244.367 2229.41 242.168 Q2231.49 239.992 2231.49 235.571 L2231.49 233.464 Q2230.17 235.756 2228.11 236.89 Q2226.05 238.025 2223.18 238.025 Q2218.41 238.025 2215.5 234.39 Q2212.58 230.756 2212.58 224.761 Q2212.58 218.742 2215.5 215.108 Q2218.41 211.474 2223.18 211.474 Q2226.05 211.474 2228.11 212.608 Q2230.17 213.742 2231.49 216.034 L2231.49 212.099 L2235.75 212.099 L2235.75 234.807 Z" fill="#000000" fill-rule="nonzero" fill-opacity="1" /></svg>
